<svg width="620" height="500" viewBox="0 0 620 500" fill="none" xmlns="http://www.w3.org/2000/svg">
  <defs>
    <linearGradient id="chair" x1="364" y1="199" x2="551" y2="392" gradientUnits="userSpaceOnUse">
      <stop stop-color="#FB923C"/>
      <stop offset="1" stop-color="#EA580C"/>
    </linearGradient>
    <linearGradient id="shirt" x1="291" y1="193" x2="287" y2="353" gradientUnits="userSpaceOnUse">
      <stop stop-color="#1E3A8A"/>
      <stop offset="1" stop-color="#0F172A"/>
    </linearGradient>
    <linearGradient id="skin" x1="249" y1="133" x2="249" y2="187" gradientUnits="userSpaceOnUse">
      <stop stop-color="#FCD7BE"/>
      <stop offset="1" stop-color="#EFB597"/>
    </linearGradient>
  </defs>

  <path d="M370 220C430 190 505 195 560 235L602 282L598 452L424 472L365 366L334 257L370 220Z" fill="url(#chair)"/>
  <path d="M328 236C294 230 261 242 245 272C233 293 239 325 260 341L331 391L398 381L402 313L386 269L328 236Z" fill="url(#shirt)"/>
  <path d="M414 309C381 306 357 334 362 365C366 392 388 411 418 410C451 409 474 384 472 354C470 325 448 311 414 309Z" fill="#111827"/>
  <path d="M272 309L338 334L396 403L366 430L309 356L243 328L272 309Z" fill="#0F172A"/>
  <path d="M212 330L245 346L309 451L270 465L211 372L183 362L212 330Z" fill="#111827"/>
  <rect x="223" y="248" width="186" height="105" rx="12" transform="rotate(8 223 248)" fill="#CBD5E1"/>
  <rect x="231" y="255" width="169" height="89" rx="10" transform="rotate(8 231 255)" fill="#E2E8F0"/>
  <path d="M238 124C232 151 248 176 268 179C289 183 310 166 316 139C322 112 306 87 285 84C264 80 244 97 238 124Z" fill="url(#skin)"/>
  <path d="M241 114C250 81 287 71 312 95C324 106 324 126 316 137C311 113 290 103 273 111C258 118 250 136 252 152C240 142 237 129 241 114Z" fill="#0F172A"/>
  <path d="M302 158C320 168 341 181 350 202C357 218 356 239 349 253L333 250C338 227 336 211 326 195C316 180 301 170 288 163L302 158Z" fill="#1E3A8A"/>

  <path d="M402 392C441 372 478 385 510 429" stroke="#FB923C" stroke-width="5" stroke-linecap="round" opacity="0.85"/>
  <path d="M384 406C432 376 490 381 542 431" stroke="#FDBA74" stroke-width="4" stroke-linecap="round" opacity="0.8"/>
  <path d="M364 418C424 385 505 400 565 458" stroke="#FB923C" stroke-width="3" stroke-linecap="round" opacity="0.65"/>
</svg>
