<svg width="441" height="224" viewBox="0 0 441 224" fill="none" xmlns="http://www.w3.org/2000/svg">
<g filter="url(#filter0_dd_3450_49275)">
<mask id="path-1-inside-1_3450_49275" fill="white">
<path d="M3.38672 18.0626C3.38672 9.33386 10.4628 2.25781 19.1915 2.25781H421.077C429.806 2.25781 436.882 9.33386 436.882 18.0626V203.201C436.882 211.929 429.806 219.005 421.077 219.005H19.1915C10.4628 219.005 3.38672 211.929 3.38672 203.201V18.0626Z"/>
</mask>
<path d="M3.38672 18.0626C3.38672 9.33386 10.4628 2.25781 19.1915 2.25781H421.077C429.806 2.25781 436.882 9.33386 436.882 18.0626V203.201C436.882 211.929 429.806 219.005 421.077 219.005H19.1915C10.4628 219.005 3.38672 211.929 3.38672 203.201V18.0626Z" fill="#F8FAFC" shape-rendering="crispEdges"/>
<path d="M19.1915 2.25781V3.51216H421.077V2.25781V1.00347H19.1915V2.25781ZM436.882 18.0626H435.627V203.201H436.882H438.136V18.0626H436.882ZM421.077 219.005V217.751H19.1915V219.005V220.26H421.077V219.005ZM3.38672 203.201H4.64107V18.0626H3.38672H2.13237V203.201H3.38672ZM19.1915 219.005V217.751C11.1555 217.751 4.64107 211.237 4.64107 203.201H3.38672H2.13237C2.13237 212.622 9.77 220.26 19.1915 220.26V219.005ZM436.882 203.201H435.627C435.627 211.237 429.113 217.751 421.077 217.751V219.005V220.26C430.499 220.26 438.136 212.622 438.136 203.201H436.882ZM421.077 2.25781V3.51216C429.113 3.51216 435.627 10.0266 435.627 18.0626H436.882H438.136C438.136 8.6411 430.499 1.00347 421.077 1.00347V2.25781ZM19.1915 2.25781V1.00347C9.77001 1.00347 2.13237 8.64111 2.13237 18.0626H3.38672H4.64107C4.64107 10.0266 11.1555 3.51216 19.1915 3.51216V2.25781Z" fill="#E2E8F0" mask="url(#path-1-inside-1_3450_49275)"/>
<path d="M226.907 88.0605H206.592C205.395 88.0605 204.246 88.5362 203.4 89.3828C202.553 90.2294 202.078 91.3776 202.078 92.5749V128.69C202.078 129.887 202.553 131.035 203.4 131.882C204.246 132.728 205.395 133.204 206.592 133.204H233.678C234.875 133.204 236.024 132.728 236.87 131.882C237.717 131.035 238.192 129.887 238.192 128.69V99.3464L226.907 88.0605Z" stroke="#CAD5E2" stroke-width="4.51435" stroke-linecap="round" stroke-linejoin="round"/>
<path d="M224.649 88.0605V97.0892C224.649 98.2865 225.125 99.4348 225.971 100.281C226.818 101.128 227.966 101.604 229.163 101.604H238.192" stroke="#CAD5E2" stroke-width="4.51435" stroke-linecap="round" stroke-linejoin="round"/>
<path d="M215.62 110.633C215.022 110.633 214.448 110.871 214.024 111.294C213.601 111.717 213.363 112.291 213.363 112.89V115.147C213.363 115.746 213.125 116.32 212.702 116.743C212.279 117.167 211.705 117.404 211.106 117.404C211.705 117.404 212.279 117.642 212.702 118.065C213.125 118.489 213.363 119.063 213.363 119.662V121.919C213.363 122.517 213.601 123.091 214.024 123.515C214.448 123.938 215.022 124.176 215.62 124.176" stroke="#CAD5E2" stroke-width="4.51435" stroke-linecap="round" stroke-linejoin="round"/>
<path d="M224.649 124.176C225.248 124.176 225.822 123.938 226.245 123.515C226.668 123.091 226.906 122.517 226.906 121.919V119.662C226.906 119.063 227.144 118.489 227.567 118.065C227.991 117.642 228.565 117.404 229.163 117.404C228.565 117.404 227.991 117.167 227.567 116.743C227.144 116.32 226.906 115.746 226.906 115.147V112.89C226.906 112.291 226.668 111.717 226.245 111.294C225.822 110.871 225.248 110.633 224.649 110.633" stroke="#CAD5E2" stroke-width="4.51435" stroke-linecap="round" stroke-linejoin="round"/>
</g>
<defs>
<filter id="filter0_dd_3450_49275" x="-2.28882e-05" y="-1.52588e-05" width="440.269" height="223.521" filterUnits="userSpaceOnUse" color-interpolation-filters="sRGB">
<feFlood flood-opacity="0" result="BackgroundImageFix"/>
<feColorMatrix in="SourceAlpha" type="matrix" values="0 0 0 0 0 0 0 0 0 0 0 0 0 0 0 0 0 0 127 0" result="hardAlpha"/>
<feMorphology radius="1.12891" operator="erode" in="SourceAlpha" result="effect1_dropShadow_3450_49275"/>
<feOffset dy="1.12891"/>
<feGaussianBlur stdDeviation="1.12891"/>
<feComposite in2="hardAlpha" operator="out"/>
<feColorMatrix type="matrix" values="0 0 0 0 0 0 0 0 0 0 0 0 0 0 0 0 0 0 0.1 0"/>
<feBlend mode="normal" in2="BackgroundImageFix" result="effect1_dropShadow_3450_49275"/>
<feColorMatrix in="SourceAlpha" type="matrix" values="0 0 0 0 0 0 0 0 0 0 0 0 0 0 0 0 0 0 127 0" result="hardAlpha"/>
<feOffset dy="1.12891"/>
<feGaussianBlur stdDeviation="1.69337"/>
<feComposite in2="hardAlpha" operator="out"/>
<feColorMatrix type="matrix" values="0 0 0 0 0 0 0 0 0 0 0 0 0 0 0 0 0 0 0.1 0"/>
<feBlend mode="normal" in2="effect1_dropShadow_3450_49275" result="effect2_dropShadow_3450_49275"/>
<feBlend mode="normal" in="SourceGraphic" in2="effect2_dropShadow_3450_49275" result="shape"/>
</filter>
</defs>
</svg>
