<svg width="40" height="40" viewBox="0 0 40 40" fill="none" xmlns="http://www.w3.org/2000/svg">
<path d="M29.7897 13.24C32.5318 13.24 34.7547 11.0171 34.7547 8.27504C34.7547 5.53296 32.5318 3.31006 29.7897 3.31006C27.0476 3.31006 24.8247 5.53296 24.8247 8.27504C24.8247 11.0171 27.0476 13.24 29.7897 13.24Z" stroke="black" stroke-width="3.30999" stroke-linecap="round" stroke-linejoin="round"/>
<path d="M9.92982 24.825C12.6719 24.825 14.8948 22.6021 14.8948 19.86C14.8948 17.1179 12.6719 14.895 9.92982 14.895C7.18774 14.895 4.96484 17.1179 4.96484 19.86C4.96484 22.6021 7.18774 24.825 9.92982 24.825Z" stroke="black" stroke-width="3.30999" stroke-linecap="round" stroke-linejoin="round"/>
<path d="M29.7897 36.4099C32.5318 36.4099 34.7547 34.187 34.7547 31.445C34.7547 28.7029 32.5318 26.48 29.7897 26.48C27.0476 26.48 24.8247 28.7029 24.8247 31.445C24.8247 34.187 27.0476 36.4099 29.7897 36.4099Z" stroke="black" stroke-width="3.30999" stroke-linecap="round" stroke-linejoin="round"/>
<path d="M14.2163 22.3589L25.5199 28.9458" stroke="black" stroke-width="3.30999" stroke-linecap="round" stroke-linejoin="round"/>
<path d="M25.5034 10.7739L14.2163 17.3608" stroke="black" stroke-width="3.30999" stroke-linecap="round" stroke-linejoin="round"/>
</svg>
