<svg width="64" height="64" viewBox="0 0 64 64" fill="none" xmlns="http://www.w3.org/2000/svg">
<rect width="64" height="64" rx="32" fill="#FE5504" fill-opacity="0.16"/>
<rect x="0.5" y="0.5" width="63" height="63" rx="31.5" stroke="#8D9193" stroke-opacity="0.24"/>
<path d="M27.0001 19.0001V18.0001C27.0001 17.7349 27.1054 17.4805 27.293 17.293C27.4805 17.1054 27.7349 17.0001 28.0001 17.0001C28.2653 17.0001 28.5197 17.1054 28.7072 17.293C28.8947 17.4805 29.0001 17.7349 29.0001 18.0001V19.0001C29.0001 19.2653 28.8947 19.5197 28.7072 19.7072C28.5197 19.8947 28.2653 20.0001 28.0001 20.0001C27.7349 20.0001 27.4805 19.8947 27.293 19.7072C27.1054 19.5197 27.0001 19.2653 27.0001 19.0001ZM18.0001 29.0001H19.0001C19.2653 29.0001 19.5197 28.8947 19.7072 28.7072C19.8947 28.5197 20.0001 28.2653 20.0001 28.0001C20.0001 27.7349 19.8947 27.4805 19.7072 27.293C19.5197 27.1054 19.2653 27.0001 19.0001 27.0001H18.0001C17.7349 27.0001 17.4805 27.1054 17.293 27.293C17.1054 27.4805 17.0001 27.7349 17.0001 28.0001C17.0001 28.2653 17.1054 28.5197 17.293 28.7072C17.4805 28.8947 17.7349 29.0001 18.0001 29.0001ZM31.5526 20.8951C31.6701 20.9539 31.7981 20.989 31.9292 20.9984C32.0603 21.0078 32.1919 20.9912 32.3166 20.9496C32.4413 20.9081 32.5566 20.8423 32.6558 20.7562C32.7551 20.67 32.8364 20.5652 32.8951 20.4476L33.8951 18.4476C34.0138 18.2104 34.0334 17.9357 33.9496 17.6841C33.8658 17.4324 33.6854 17.2244 33.4482 17.1057C33.211 16.987 32.9364 16.9674 32.6847 17.0512C32.4331 17.135 32.225 17.3154 32.1063 17.5526L31.1063 19.5526C31.0474 19.67 31.0123 19.7979 31.0028 19.929C30.9934 20.06 31.0098 20.1916 31.0513 20.3163C31.0927 20.441 31.1583 20.5563 31.2443 20.6556C31.3304 20.7549 31.4351 20.8363 31.5526 20.8951ZM19.5526 31.1063L17.5526 32.1063C17.3154 32.225 17.135 32.4331 17.0512 32.6847C16.9674 32.9364 16.987 33.211 17.1057 33.4482C17.2244 33.6854 17.4324 33.8658 17.6841 33.9496C17.9357 34.0334 18.2104 34.0138 18.4476 33.8951L20.4476 32.8951C20.565 32.8363 20.6698 32.755 20.7558 32.6558C20.8418 32.5565 20.9074 32.4413 20.9489 32.3167C20.9904 32.1921 21.007 32.0605 20.9976 31.9295C20.9883 31.7985 20.9532 31.6707 20.8945 31.5532C20.8357 31.4358 20.7544 31.331 20.6551 31.245C20.5559 31.159 20.4407 31.0934 20.3161 31.0519C20.1915 31.0104 20.0599 30.9938 19.9289 31.0032C19.7979 31.0125 19.67 31.0476 19.5526 31.1063ZM43.4138 39.0001C43.5996 39.1858 43.747 39.4063 43.8475 39.649C43.948 39.8917 43.9998 40.1518 43.9998 40.4145C43.9998 40.6771 43.948 40.9372 43.8475 41.1799C43.747 41.4226 43.5996 41.6431 43.4138 41.8288L41.8288 43.4138C41.6431 43.5996 41.4226 43.747 41.1799 43.8475C40.9372 43.948 40.6771 43.9998 40.4145 43.9998C40.1518 43.9998 39.8917 43.948 39.649 43.8475C39.4063 43.747 39.1858 43.5996 39.0001 43.4138L32.5876 37.0001L30.3751 42.7613C30.3751 42.7738 30.3651 42.7876 30.3588 42.8013C30.2058 43.1582 29.9512 43.4621 29.6266 43.6752C29.3021 43.8884 28.9221 44.0014 28.5338 44.0001H28.4351C28.0302 43.9829 27.6403 43.8419 27.3181 43.596C26.996 43.35 26.7571 43.0112 26.6338 42.6251L20.1001 22.6151C19.9879 22.2651 19.9743 21.891 20.0608 21.5339C20.1473 21.1767 20.3306 20.8503 20.5904 20.5904C20.8503 20.3306 21.1767 20.1473 21.5339 20.0608C21.891 19.9743 22.2651 19.9879 22.6151 20.1001L42.6251 26.6338C43.0075 26.7618 43.3423 27.0023 43.5856 27.3239C43.8289 27.6455 43.9693 28.0332 43.9884 28.436C44.0074 28.8388 43.9043 29.238 43.6924 29.5811C43.4806 29.9243 43.17 30.1954 42.8013 30.3588L42.7613 30.3751L37.0001 32.5863L43.4138 39.0001ZM42.0001 40.4138L35.5863 34.0001C35.3555 33.7696 35.1845 33.4862 35.0883 33.1746C34.992 32.8629 34.9735 32.5324 35.0343 32.212C35.095 31.8915 35.2332 31.5908 35.4369 31.3359C35.6405 31.0811 35.9034 30.88 36.2026 30.7501L36.2426 30.7326L41.9863 28.5276L22.0001 22.0001L28.5251 41.9826L30.7313 36.2326C30.7313 36.2188 30.7413 36.2051 30.7476 36.1913C30.8776 35.8924 31.0786 35.6297 31.3333 35.4262C31.588 35.2228 31.8886 35.0846 32.2088 35.0238C32.3325 35.0009 32.458 34.9892 32.5838 34.9888C33.1137 34.9894 33.6218 35.2003 33.9963 35.5751L40.4138 42.0001L42.0001 40.4138Z" fill="#FE5504"/>
</svg>
