<?xml version="1.0" encoding="UTF-8"?>
<svg version="1.1" xmlns="http://www.w3.org/2000/svg" width="1027" height="578">
<path d="M0 0 C10.2426876 7.53975615 16.54366991 16.39738131 21.8359375 27.76953125 C23.73102347 31.83537111 25.61551474 35.45926474 28.8125 38.65625 C38.50550348 48.34925348 42.8801755 58.18869463 43.0625 71.96875 C42.88544708 84.31304426 38.96737642 94.2411335 30.5625 103.40625 C24.28169035 108.99232136 17.57236708 112.87907269 9.5625 115.40625 C8.74671982 115.67015533 8.74671982 115.67015533 7.91445923 115.93939209 C4.53272168 116.61065837 1.1734887 116.56217228 -2.26025391 116.56738281 C-3.04456787 116.57234772 -3.82888184 116.57731262 -4.63696289 116.58242798 C-7.22933842 116.5970198 -9.82165266 116.60384814 -12.4140625 116.609375 C-14.22284953 116.61513078 -16.03163656 116.62088845 -17.84042358 116.62664795 C-21.6349923 116.63715077 -25.42953989 116.64299752 -29.22412109 116.64648438 C-34.06587723 116.6519546 -38.90735011 116.67595407 -43.74901772 116.70445633 C-47.48787221 116.72316554 -51.22665976 116.72829279 -54.9655571 116.72982025 C-56.74918535 116.7328308 -58.53281287 116.74080479 -60.31639481 116.75400543 C-77.09332839 116.86926834 -89.76501502 114.32744467 -102.43359375 102.49609375 C-111.30781165 93.2413051 -114.05657101 81.49850506 -113.90991211 68.9909668 C-113.42063755 56.41247789 -107.50451655 46.77439826 -99.4375 37.40625 C-98.2309375 36.3853125 -98.2309375 36.3853125 -97 35.34375 C-94.43951662 32.40856174 -93.50372156 30.36685137 -92.125 26.78125 C-86.47909361 12.49114533 -75.25229663 1.07967164 -61.4375 -5.59375 C-40.3933309 -13.81124782 -19.1506118 -12.52155387 0 0 Z M-57.4375 26.40625 C-57.4375 27.06625 -57.4375 27.72625 -57.4375 28.40625 C-56.84324219 28.6021875 -56.24898437 28.798125 -55.63671875 29 C-47.63947793 31.88547414 -39.25348986 36.18226522 -34.4375 43.40625 C-34.87636974 48.77515725 -39.64722714 52.08814949 -43.25 55.65625 C-44.33764648 56.77386719 -44.33764648 56.77386719 -45.44726562 57.9140625 C-46.15173828 58.61789062 -46.85621094 59.32171875 -47.58203125 60.046875 C-48.22503174 60.69172852 -48.86803223 61.33658203 -49.53051758 62.00097656 C-51.4375 63.40625 -51.4375 63.40625 -55.4375 63.40625 C-57.14634005 61.78285195 -58.81196717 60.11305947 -60.4375 58.40625 C-64.67543551 55.83007758 -68.60528492 55.86840345 -73.4375 56.40625 C-78.15628688 58.09789058 -80.64332817 60.26673618 -83.4375 64.40625 C-85.22733568 69.77575705 -85.32181724 74.60360333 -82.8125 79.71875 C-78.51475888 84.58198337 -74.81246762 86.6084411 -68.4375 87.40625 C-66.11236815 87.5091598 -63.78485013 87.56425607 -61.45751953 87.58325195 C-60.4513559 87.59310875 -60.4513559 87.59310875 -59.42486572 87.60316467 C-57.22334655 87.62274213 -55.02189495 87.6345231 -52.8203125 87.64453125 C-52.06352077 87.64860678 -51.30672905 87.6526823 -50.52700424 87.65688133 C-46.52370229 87.67767241 -42.52043395 87.69200593 -38.51708984 87.70141602 C-34.39924255 87.71248659 -30.28193464 87.74691348 -26.16427803 87.78658772 C-22.9813847 87.81281256 -19.79861914 87.82111284 -16.61562729 87.82469749 C-15.09826882 87.8295456 -13.58091537 87.84110862 -12.06366348 87.85973549 C-0.65819051 88.00980346 -0.65819051 88.00980346 9.5625 83.40625 C13.61854874 78.93419626 14.82937158 74.34147395 14.5625 68.40625 C12.93242068 63.69713195 10.48201374 60.47369553 6.5625 57.40625 C3.5977209 56.44456535 0.64366289 55.8560058 -2.4375 55.40625 C-2.47488281 54.54902344 -2.51226562 53.69179688 -2.55078125 52.80859375 C-3.21658581 41.22881638 -6.40487329 33.27583274 -14.75 25.15625 C-28.66393105 16.09601583 -44.16153995 16.20676503 -57.4375 26.40625 Z " fill="#4285F3" transform="translate(197.4375,236.59375)"/>
<path d="M0 0 C3.37539838 2.55450149 5.95353641 4.61585149 8.31640625 8.16015625 C6.66640625 8.16015625 5.01640625 8.16015625 3.31640625 8.16015625 C3.31640625 8.82015625 3.31640625 9.48015625 3.31640625 10.16015625 C1.65159184 11.16323688 -0.01550572 12.16252902 -1.68359375 13.16015625 C-3.47919952 14.79904495 -5.22865467 16.48964183 -6.93359375 18.22265625 C-7.805 19.10050781 -8.67640625 19.97835938 -9.57421875 20.8828125 C-11.70547113 22.9708298 -11.70547113 22.9708298 -12.68359375 25.16015625 C-16.08989322 24.72063374 -18.71375509 23.68183893 -21.74609375 22.16015625 C-29.23509804 18.7458681 -37.62914952 18.26267908 -45.578125 20.34765625 C-48.68034646 21.54480294 -51.33664657 23.2368356 -54.0546875 25.13671875 C-55.68359375 26.16015625 -55.68359375 26.16015625 -57.68359375 26.16015625 C-57.68359375 26.82015625 -57.68359375 27.48015625 -57.68359375 28.16015625 C-56.89984375 28.20140625 -56.11609375 28.24265625 -55.30859375 28.28515625 C-47.10834155 30.26452747 -38.38183522 36.11279404 -33.68359375 43.16015625 C-34.10611344 48.68579039 -39.25743093 52.28737898 -42.93359375 55.97265625 C-43.69800781 56.77380859 -44.46242188 57.57496094 -45.25 58.40039062 C-45.99636719 59.15255859 -46.74273437 59.90472656 -47.51171875 60.6796875 C-48.53120605 61.71766479 -48.53120605 61.71766479 -49.57128906 62.77661133 C-51.68359375 64.16015625 -51.68359375 64.16015625 -54.31542969 63.9987793 C-57.24443688 62.9615484 -58.57313114 61.40677774 -60.68359375 59.16015625 C-64.93897316 56.60512929 -68.84201393 56.61379742 -73.68359375 57.16015625 C-77.8850004 58.71623279 -80.38607497 60.29065093 -82.68359375 64.16015625 C-84.46797951 69.51331352 -84.54217066 74.3399732 -82.12109375 79.47265625 C-79.19413055 82.6998208 -76.56388442 84.22001091 -72.68359375 86.16015625 C-73.30234375 86.24265625 -73.92109375 86.32515625 -74.55859375 86.41015625 C-76.84027609 86.9366196 -76.84027609 86.9366196 -77.5859375 89 C-78.85272701 91.4930057 -80.22029125 92.70215281 -82.37109375 94.47265625 C-85.23988101 96.86936459 -87.79553514 99.33273207 -90.30859375 102.09765625 C-92.57161149 104.3504341 -93.55726806 105.12067947 -96.68359375 106.09765625 C-102.32555249 104.33454415 -105.25433456 99.57861325 -108.16796875 94.6484375 C-114.0349207 83.38043861 -115.59282761 71.32664838 -112.99609375 58.859375 C-110.01752387 50.08500457 -104.34359246 41.10323208 -97.24609375 35.09765625 C-94.68561037 32.16246799 -93.74981531 30.12075762 -92.37109375 26.53515625 C-86.72518736 12.24505158 -75.49839038 0.83357789 -61.68359375 -5.83984375 C-40.71836346 -14.0265169 -18.90713338 -12.96253249 0 0 Z " fill="#FABD05" transform="translate(197.68359375,236.83984375)"/>
<path d="M0 0 C1.796875 1.51953125 1.796875 1.51953125 3 3 C2.6875 5.6875 2.6875 5.6875 2 8 C0.515 8.495 0.515 8.495 -1 9 C-1.4640625 9.99 -1.4640625 9.99 -1.9375 11 C-3 13 -3 13 -4.828125 13.76953125 C-7.65225844 14.06921448 -8.5382722 13.33179912 -10.8125 11.6875 C-18.08802315 6.88164985 -25.42931034 6.11676099 -34 7 C-40.25430954 8.60255854 -44.82649825 10.96724789 -49 16 C-50.051875 17.175625 -50.051875 17.175625 -51.125 18.375 C-55.87776268 25.02886775 -57.52842532 31.94151389 -57 40 C-54.96739485 49.41574442 -51.04698667 56.51201675 -43 62 C-35.25041844 66.28475158 -27.64492904 67.45771554 -19.03515625 65.234375 C-12.14080962 62.90232755 -7.18333312 60.57365977 -3.75 53.9375 C-2.67066018 51.63284408 -1.80734858 49.42204573 -1 47 C-2.0058313 46.970271 -2.0058313 46.970271 -3.03198242 46.93994141 C-6.08420161 46.84440285 -9.13576341 46.73484055 -12.1875 46.625 C-13.77014648 46.57859375 -13.77014648 46.57859375 -15.38476562 46.53125 C-16.40634766 46.49257813 -17.42792969 46.45390625 -18.48046875 46.4140625 C-19.88655396 46.36693115 -19.88655396 46.36693115 -21.32104492 46.31884766 C-24.16995808 45.97977169 -26.39520444 45.17742543 -29 44 C-29.05391993 42.20866022 -29.09275571 40.41686101 -29.125 38.625 C-29.14820313 37.62726563 -29.17140625 36.62953125 -29.1953125 35.6015625 C-29 33 -29 33 -27 31 C-23.99864387 30.81223833 -21.09112854 30.74449818 -18.08984375 30.76953125 C-17.20720352 30.76998947 -16.32456329 30.77044769 -15.41517639 30.7709198 C-13.54817359 30.77394313 -11.68117333 30.78183183 -9.81420898 30.79418945 C-6.94571061 30.81244774 -4.07753479 30.81469916 -1.20898438 30.81445312 C0.60156531 30.81936812 2.41211279 30.82519636 4.22265625 30.83203125 C5.08617203 30.83314407 5.94968781 30.8342569 6.83937073 30.83540344 C12.88395385 30.88395385 12.88395385 30.88395385 14 32 C14.15540479 35.01246217 14.23187153 37.9861423 14.25 41 C14.270625 41.82628906 14.29125 42.65257812 14.3125 43.50390625 C14.38078223 54.41199208 10.70190965 62.21545398 3.11328125 69.9140625 C-7.12994696 79.37244611 -18.04226037 81.53172314 -31.6171875 81.2421875 C-43.71431545 80.72425197 -54.31410781 74.70262117 -62.51171875 65.859375 C-69.62468507 56.9728344 -73.83002645 45.14905474 -73.31640625 33.75 C-71.62474051 19.0471274 -65.32437465 8.4778316 -54 -1 C-37.43758256 -12.43539236 -16.2400143 -11.8333311 0 0 Z " fill="#5E6164" transform="translate(357,253)"/>
<path d="M0 0 C3.94230076 1.6349852 6.8492992 1.42372845 11.01171875 0.76953125 C14.5482 0.21389187 17.8824479 -0.18377605 21.125 1.4375 C21.21823927 8.94003721 21.28903563 16.44251331 21.33224869 23.94550037 C21.3530033 27.43059262 21.38109382 30.91528455 21.42675781 34.40014648 C21.47908311 38.41914411 21.49804512 42.43773025 21.515625 46.45703125 C21.53627014 47.69081009 21.55691528 48.92458893 21.57818604 50.195755 C21.58044135 59.00722781 20.32191853 66.76301408 15.265625 74.15625 C7.66822453 81.31413144 1.5325186 82.974757 -8.86669922 82.92797852 C-16.10143436 82.64945899 -21.50715667 80.65738368 -26.7421875 75.65234375 C-32.93875453 68.6700876 -32.93875453 68.6700876 -32.76953125 65.3984375 C-31.54813353 62.72096303 -30.23124738 62.2243442 -27.5625 61.0625 C-26.39267578 60.52496094 -26.39267578 60.52496094 -25.19921875 59.9765625 C-22.875 59.4375 -22.875 59.4375 -20.703125 60.1796875 C-18.875 61.4375 -18.875 61.4375 -16.9375 63.9375 C-14.54850501 66.8332515 -13.53035364 67.64285791 -9.875 68.4375 C-5.22293695 68.49801464 -1.25105256 68.40073679 2.625 65.6875 C5.23612324 61.77081514 6.125 59.18663312 6.125 54.4375 C5.238125 54.9325 4.35125 55.4275 3.4375 55.9375 C-2.89178711 58.60246299 -10.18196424 58.58997302 -16.69140625 56.55859375 C-24.92283964 52.75077037 -30.82299429 47.24508782 -34.15625 38.75390625 C-36.62602093 30.79426408 -36.30916581 22.98821283 -32.94140625 15.30859375 C-28.9923788 8.32605732 -22.85606677 2.2021625 -15.25 -0.5625 C-9.77257549 -2.02441226 -5.25726744 -2.25015194 0 0 Z M-17.1875 17.4375 C-20.67983592 21.57656479 -20.20380741 26.32106651 -20.16015625 31.484375 C-19.68884501 36.36535169 -17.39720216 38.80254213 -14.1875 42.25 C-10.55128422 44.11724594 -6.94175746 44.54701771 -2.875 44.4375 C1.4821045 42.75407326 4.83566651 39.51233683 7.125 35.4375 C8.69986663 29.85942399 8.44307015 24.77913991 6.125 19.4375 C3.93827457 16.16479944 1.73972384 13.95455826 -2.05859375 12.73828125 C-8.38541254 11.74604829 -12.32594352 13.23291061 -17.1875 17.4375 Z " fill="#5D6064" transform="translate(531.875,276.5625)"/>
<path d="M0 0 C3.37539838 2.55450149 5.95353641 4.61585149 8.31640625 8.16015625 C6.66640625 8.16015625 5.01640625 8.16015625 3.31640625 8.16015625 C3.31640625 8.82015625 3.31640625 9.48015625 3.31640625 10.16015625 C1.65159184 11.16323688 -0.01550572 12.16252902 -1.68359375 13.16015625 C-3.47919952 14.79904495 -5.22865467 16.48964183 -6.93359375 18.22265625 C-7.805 19.10050781 -8.67640625 19.97835938 -9.57421875 20.8828125 C-11.70547113 22.9708298 -11.70547113 22.9708298 -12.68359375 25.16015625 C-16.08989322 24.72063374 -18.71375509 23.68183893 -21.74609375 22.16015625 C-29.23509804 18.7458681 -37.62914952 18.26267908 -45.578125 20.34765625 C-48.68034646 21.54480294 -51.33664657 23.2368356 -54.0546875 25.13671875 C-55.68359375 26.16015625 -55.68359375 26.16015625 -57.68359375 26.16015625 C-57.68359375 26.82015625 -57.68359375 27.48015625 -57.68359375 28.16015625 C-56.36359375 28.49015625 -55.04359375 28.82015625 -53.68359375 29.16015625 C-54.47531982 29.1444458 -55.2670459 29.12873535 -56.08276367 29.11254883 C-59.6788007 29.05008926 -63.27472345 29.0111299 -66.87109375 28.97265625 C-68.11697266 28.94751953 -69.36285156 28.92238281 -70.64648438 28.89648438 C-71.84853516 28.88681641 -73.05058594 28.87714844 -74.2890625 28.8671875 C-75.39403076 28.85147705 -76.49899902 28.8357666 -77.63745117 28.81958008 C-81.07790552 29.20424256 -82.83133191 30.26251926 -85.68359375 32.16015625 C-88.00050829 32.88181816 -90.33208298 33.56075154 -92.68359375 34.16015625 C-93.34359375 33.50015625 -94.00359375 32.84015625 -94.68359375 32.16015625 C-88.61967429 15.45522426 -77.90896378 1.9980375 -61.68359375 -5.83984375 C-40.71836346 -14.0265169 -18.90713338 -12.96253249 0 0 Z " fill="#E94434" transform="translate(197.68359375,236.83984375)"/>
<path d="M0 0 C1.81242052 -0.02687279 3.62495233 -0.04633715 5.4375 -0.0625 C6.44683594 -0.07410156 7.45617187 -0.08570313 8.49609375 -0.09765625 C11 0 11 0 12 1 C12.11087292 3.36209666 12.15738007 5.69523912 12.16113281 8.05834961 C12.16858017 9.16565681 12.16858017 9.16565681 12.17617798 10.29533386 C12.19083394 12.74767982 12.19760691 15.19996112 12.203125 17.65234375 C12.20887319 19.35006208 12.21463096 21.04778039 12.22039795 22.74549866 C12.23091742 26.3090953 12.23675403 29.87266931 12.24023438 33.4362793 C12.24572416 38.01099653 12.26975836 42.58541687 12.29820633 47.16004086 C12.31679437 50.66782007 12.32203623 54.1755272 12.32357025 57.68335152 C12.32660551 59.37032255 12.33466324 61.05729205 12.34775543 62.74421501 C12.36473812 65.10046104 12.36295531 67.45597412 12.35644531 69.81225586 C12.37026749 70.86509766 12.37026749 70.86509766 12.3843689 71.93920898 C12.36749268 73.88096619 12.36749268 73.88096619 12 77 C8.33134759 79.44576827 6.32799657 79.23607254 2 79 C1.01 78.505 1.01 78.505 0 78 C0 76.68 0 75.36 0 74 C-0.45890625 74.34933594 -0.9178125 74.69867188 -1.390625 75.05859375 C-2.00421875 75.51363281 -2.6178125 75.96867187 -3.25 76.4375 C-3.85328125 76.88996094 -4.4565625 77.34242188 -5.078125 77.80859375 C-10.84143153 81.38137524 -19.11908116 80.89606238 -25.50390625 79.421875 C-32.54804303 76.72672702 -37.53436966 71.43482503 -41.1640625 64.90625 C-44.44128027 56.69789148 -44.35037635 46.64798282 -41.25 38.4375 C-37.63172529 30.72187588 -32.48205745 25.68077154 -24.5 22.6875 C-17.3734161 21.28763531 -11.58327984 22.043 -5 25 C-3.65472926 25.98388231 -2.31973719 26.98212401 -1 28 C-1.00523682 27.22285645 -1.01047363 26.44571289 -1.01586914 25.64501953 C-1.03660156 22.13835451 -1.04964821 18.63170237 -1.0625 15.125 C-1.07087891 13.90167969 -1.07925781 12.67835938 -1.08789062 11.41796875 C-1.09111328 10.25136719 -1.09433594 9.08476562 -1.09765625 7.8828125 C-1.10289307 6.80402832 -1.10812988 5.72524414 -1.11352539 4.61376953 C-1 2 -1 2 0 0 Z M-26 37 C-30.9775373 43.45734568 -31.82415687 49.02572542 -31 57 C-29.56354499 60.95380685 -27.21581431 64.28476056 -24 67 C-19.22067081 68.81665443 -14.53410179 69.56772705 -9.625 67.9375 C-5.20820681 65.91610473 -3.12240455 62.96420797 -0.75 58.8125 C0.71158959 53.33153903 0.72938497 48.03460019 -1.1875 42.6875 C-3.89361422 38.67498582 -6.33588987 35.55470338 -11 34 C-16.66281112 33.43911204 -21.20060696 33.65158625 -26 37 Z " fill="#5D6063" transform="translate(911,254)"/>
<path d="M0 0 C2.74136749 2.00085498 5.2214262 4.06908245 7.62109375 6.46875 C7.52723291 10.03546177 6.819114 11.26537785 4.30859375 13.84375 C1.62109375 15.46875 1.62109375 15.46875 -0.33984375 15.22265625 C-2.5016111 14.42338211 -3.90157602 13.47080319 -5.69140625 12.03125 C-11.99436172 7.41086315 -18.76999561 6.74520328 -26.37890625 7.46875 C-33.46659334 8.75955394 -38.63906162 12.07476392 -43.37890625 17.46875 C-48.2720477 24.92159839 -49.05187272 32.70816858 -48.37890625 41.46875 C-46.45252101 50.54825688 -42.32741156 56.22666006 -34.59765625 61.26953125 C-28.01415544 64.82786707 -19.14245758 64.3782954 -11.96484375 63.0078125 C-6.75800671 61.24454099 -2.58828059 57.92804966 1.62109375 54.46875 C5.02321674 56.08257757 7.72433894 58.05478766 10.62109375 60.46875 C9.29488856 66.10512208 5.2941862 68.57095502 0.62109375 71.46875 C-10.15529293 77.04213493 -23.44867063 78.84715649 -35.31640625 75.46875 C-46.97243111 70.58147973 -54.69614703 62.00237571 -59.6171875 50.64453125 C-63.1414129 40.57789766 -62.7898201 27.61750501 -58.59375 17.8515625 C-54.7126021 10.23902161 -54.7126021 10.23902161 -52.37890625 7.46875 C-51.71890625 7.46875 -51.05890625 7.46875 -50.37890625 7.46875 C-50.04890625 6.47875 -49.71890625 5.48875 -49.37890625 4.46875 C-35.06777604 -6.77570945 -15.96237571 -10.27463264 0 0 Z " fill="#5C5F62" transform="translate(716.37890625,257.53125)"/>
<path d="M0 0 C4.53101777 3.63262631 8.06996074 8.42889672 10.265625 13.81640625 C10.390625 16.56640625 10.390625 16.56640625 10.265625 18.81640625 C-1.19025973 24.32819985 -12.94831887 29.06516725 -24.734375 33.81640625 C-24.08430964 36.83766424 -24.08430964 36.83766424 -22.1328125 37.80078125 C-17.2836051 39.63561648 -13.88557443 40.24729498 -8.734375 38.81640625 C-5.55149146 36.94462509 -5.55149146 36.94462509 -2.734375 34.81640625 C-1.414375 34.15640625 -0.094375 33.49640625 1.265625 32.81640625 C4.235625 35.12640625 7.205625 37.43640625 10.265625 39.81640625 C8.35463002 44.59389369 7.82580774 45.62034958 4.015625 48.50390625 C3.26796875 49.08527344 2.5203125 49.66664063 1.75 50.265625 C-5.52021534 54.80379401 -13.42935076 54.53401635 -21.734375 53.81640625 C-25.0728409 52.91311143 -27.81050268 51.64622569 -30.734375 49.81640625 C-31.62125 49.28015625 -32.508125 48.74390625 -33.421875 48.19140625 C-39.72703963 41.71583176 -43.5975948 33.60252534 -44.109375 24.56640625 C-43.86143255 16.00509919 -40.47779086 8.59878467 -34.5859375 2.46875 C-24.32342078 -6.68957188 -11.39563949 -7.43583394 0 0 Z M-26.546875 14.75390625 C-27.89912637 17.10255337 -28.36331987 19.14480932 -28.734375 21.81640625 C-21.06641998 19.47703014 -13.96300226 16.26871819 -6.734375 12.81640625 C-8.45663996 9.56790648 -8.45663996 9.56790648 -11.734375 8.81640625 C-18.38451206 8.18903483 -22.01019487 9.90435163 -26.546875 14.75390625 Z " fill="#5D6063" transform="translate(620.734375,280.18359375)"/>
<path d="M0 0 C6.56317504 4.59672756 12.02232924 10.5652393 13.55078125 18.6171875 C14.64969726 28.12368314 13.62261316 36.03501306 8.046875 43.99609375 C3.55134529 49.58212324 -1.27716934 52.84124708 -8.203125 54.74609375 C-19.03201994 55.77060966 -26.58753102 54.63381266 -35.453125 48.49609375 C-41.87710494 42.07211381 -45.21811711 35.10080932 -45.578125 25.99609375 C-45.36505159 16.41962776 -41.96689906 9.5802921 -35.42578125 2.66015625 C-25.43430826 -5.94409993 -11.24590455 -6.40059461 0 0 Z M-27.578125 15.24609375 C-30.78236314 20.17569088 -30.80162904 25.03862047 -30.203125 30.74609375 C-28.86291748 35.27036117 -26.51142136 37.89739468 -22.453125 40.24609375 C-18.14880577 42.07144394 -14.59429902 42.51440853 -10.203125 40.74609375 C-6.1808196 37.99693545 -2.76835133 35.44177275 -1.203125 30.74609375 C-0.69335881 25.42279765 -0.53259902 21.08714571 -2.953125 16.24609375 C-7.05787568 11.68525966 -9.7563853 10.16787583 -15.890625 9.68359375 C-20.89293346 9.81879128 -24.19845637 11.68854782 -27.578125 15.24609375 Z " fill="#5D6063" transform="translate(480.203125,279.25390625)"/>
<path d="M0 0 C6.7230797 6.97456647 8.85239015 14.43053399 8.80639648 23.8659668 C8.61460514 33.42682285 5.68462028 38.50608663 -0.92578125 45.4140625 C-7.7675903 51.44593777 -15.11594575 52.30956045 -24.03515625 52 C-32.37497672 51.07974395 -38.11374681 47.9430638 -43.7421875 41.74609375 C-49.82881599 34.1132086 -51.02511252 26.02527737 -50.25 16.328125 C-48.63708694 8.01414018 -43.13913824 1.46270323 -36.3125 -3.2265625 C-24.81865228 -10.25190809 -10.4436216 -8.05291304 0 0 Z M-31.43359375 10.625 C-34.24511629 14.24542427 -35.31598098 17.66729604 -35.87109375 22.1875 C-35.16428647 27.74098576 -33.59248114 31.35574239 -29.80859375 35.5 C-25.60687875 38.14552426 -22.39255885 39.17040225 -17.43359375 38.625 C-12.71902749 36.95369873 -9.42149712 34.234755 -6.87109375 29.9375 C-4.83857646 25.10685352 -4.89503536 20.60507056 -6.43359375 15.625 C-8.63073424 11.87327897 -11.17355773 9.34952071 -14.93359375 7.1875 C-21.27767695 5.76008128 -26.24087818 6.68074583 -31.43359375 10.625 Z " fill="#5D6064" transform="translate(423.43359375,282.375)"/>
<path d="M0 0 C6.66993647 5.39441077 9.65021213 11.91134267 10.75 20.3125 C11.55233078 29.13813856 8.85317007 36.84154283 3.28125 43.62890625 C-1.75538881 49.16663923 -7.1383447 51.86163911 -14.52734375 52.671875 C-23.6706385 53.02926763 -30.43311334 51.67324209 -37.3125 45.4453125 C-43.61708728 38.69415029 -45.77170809 32.44650823 -45.6875 23.375 C-45.7174707 22.23514648 -45.7174707 22.23514648 -45.74804688 21.07226562 C-45.74143828 13.33360335 -42.646284 6.85868077 -37.25 1.3125 C-25.83425124 -7.45316423 -11.97022574 -8.25765572 0 0 Z M-31.0625 12.125 C-34.3249013 18.1346866 -34.89954034 23.76215141 -33.25 30.3125 C-30.96778682 34.63240351 -28.45419727 37.78998164 -24.25 40.3125 C-19.64202854 41.5794752 -16.10532462 41.55484197 -11.5 40.25 C-6.87124768 37.4905515 -4.27431313 34.36112625 -1.875 29.5625 C-0.71982309 23.55558007 -1.20068869 18.30257317 -4.0625 12.875 C-7.33308249 9.04374623 -10.11972145 6.68255231 -15.265625 6.07421875 C-21.99036146 5.85084464 -26.17897709 7.24147709 -31.0625 12.125 Z " fill="#5D5F63" transform="translate(797.25,281.6875)"/>
<path d="M0 0 C0.9075 0.00257813 1.815 0.00515625 2.75 0.0078125 C4.11125 0.00394531 4.11125 0.00394531 5.5 0 C7.75 0.1328125 7.75 0.1328125 8.75 1.1328125 C8.87307663 3.65435918 8.93609723 6.15274689 8.9609375 8.67578125 C8.98902422 10.24024451 9.01768879 11.80469749 9.046875 13.36914062 C9.08801792 15.8399202 9.124895 18.31051148 9.15136719 20.78149414 C9.17911023 23.16333037 9.22500077 25.54428763 9.2734375 27.92578125 C9.27669037 28.65725876 9.27994324 29.38873627 9.28329468 30.14237976 C9.39521885 34.85166585 10.25531529 38.13229638 12.75 42.1328125 C16.3371351 44.49007271 19.70749232 44.39788449 23.8203125 43.73828125 C27.08795863 42.71300767 28.69806099 40.78826298 30.75 38.1328125 C32.85087356 33.95418747 33.03993535 30.32448348 33.12890625 25.6796875 C33.14590073 24.97886047 33.1628952 24.27803345 33.18040466 23.55596924 C33.23326588 21.33167358 33.27373834 19.10739498 33.3125 16.8828125 C33.35642109 14.64403711 33.40303973 12.40540557 33.45530701 10.16680908 C33.5018013 8.14616842 33.53932158 6.12532726 33.57641602 4.10449219 C33.75 1.1328125 33.75 1.1328125 34.75 0.1328125 C36.41429051 0.03457313 38.08281931 0.00307619 39.75 0.0078125 C41.11125 0.00394531 41.11125 0.00394531 42.5 0 C44.75 0.1328125 44.75 0.1328125 45.75 1.1328125 C45.84346915 2.79019693 45.86744977 4.45155894 45.86352539 6.11157227 C45.86344986 7.17259659 45.86337433 8.23362091 45.86329651 9.32679749 C45.85813522 10.4809465 45.85297394 11.63509552 45.84765625 12.82421875 C45.8462413 13.99919418 45.84482635 15.17416962 45.84336853 16.38475037 C45.83774992 20.15496314 45.82519426 23.92511754 45.8125 27.6953125 C45.8074874 30.24413977 45.80292408 32.79296797 45.79882812 35.34179688 C45.78777444 41.60548883 45.77101821 47.86914649 45.75 54.1328125 C44.31359829 54.32854858 42.87580496 54.51409066 41.4375 54.6953125 C40.23673828 54.85193359 40.23673828 54.85193359 39.01171875 55.01171875 C36.75 55.1328125 36.75 55.1328125 33.75 54.1328125 C33.42 53.1428125 33.09 52.1528125 32.75 51.1328125 C31.821875 51.7721875 30.89375 52.4115625 29.9375 53.0703125 C23.84031855 57.01554756 17.81848428 56.60346373 10.75 56.1328125 C5.71000518 54.51281417 2.56686706 51.56789909 -0.25 47.1328125 C-2.88855778 41.21747693 -3.6790847 36.50768225 -3.578125 30.07421875 C-3.57625183 29.2444603 -3.57437866 28.41470184 -3.57244873 27.55979919 C-3.56577416 25.82278365 -3.55195247 24.08578195 -3.53125 22.34887695 C-3.49980092 19.67840761 -3.49024399 17.00852771 -3.484375 14.33789062 C-3.47521557 12.64582606 -3.46484321 10.95376753 -3.453125 9.26171875 C-3.44887512 8.46077286 -3.44462524 7.65982697 -3.44024658 6.83460999 C-3.35348273 0.19794863 -3.35348273 0.19794863 0 0 Z " fill="#5E6064" transform="translate(816.25,277.8671875)"/>
<path d="M0 0 C0.81559387 0.02361099 1.63118774 0.04722198 2.47149658 0.07154846 C5.0697264 0.14796058 7.66764114 0.23208109 10.265625 0.31640625 C12.02993264 0.36964944 13.79425553 0.42238968 15.55859375 0.47460938 C19.87786115 0.60260272 24.19661677 0.74102043 28.515625 0.87890625 C28.515625 10.44890625 28.515625 20.01890625 28.515625 29.87890625 C22.85923091 29.94813682 17.20433325 30.00776114 11.54785156 30.04370117 C9.62755322 30.05869846 7.70728861 30.07910307 5.78710938 30.10522461 C3.01163358 30.14200976 0.23661436 30.15872346 -2.5390625 30.171875 C-3.80688065 30.19510078 -3.80688065 30.19510078 -5.10031128 30.21879578 C-13.02916106 30.22098652 -20.52586383 28.38552726 -27.421875 24.37890625 C-28.13214844 23.97671875 -28.84242187 23.57453125 -29.57421875 23.16015625 C-31.46192204 21.89396672 -32.94231331 20.54181917 -34.484375 18.87890625 C-33.63875 18.69328125 -32.793125 18.50765625 -31.921875 18.31640625 C-28.04937872 16.69699872 -26.1826164 14.83651649 -23.359375 11.82421875 C-20.76786582 9.13552797 -17.93796381 6.76542808 -15.0859375 4.359375 C-13.37327177 2.95105747 -13.37327177 2.95105747 -12.484375 0.87890625 C-8.39747358 -0.52009998 -4.25659504 -0.14591043 0 0 Z " fill="#34A653" transform="translate(133.484375,323.12109375)"/>
<path d="M0 0 C1.1859375 0.00257813 2.371875 0.00515625 3.59375 0.0078125 C4.7796875 0.00523437 5.965625 0.00265625 7.1875 0 C10.09375 0.1328125 10.09375 0.1328125 11.09375 1.1328125 C11.19946371 3.70843669 11.24053123 6.25738425 11.23901367 8.83374023 C11.24405159 10.04345993 11.24405159 10.04345993 11.24919128 11.27761841 C11.25873015 13.9572298 11.26064586 16.63677891 11.26171875 19.31640625 C11.26492928 21.17106655 11.26829319 23.0257266 11.27180481 24.88038635 C11.27780343 28.77353503 11.27964396 32.66666148 11.27905273 36.55981445 C11.27895107 41.55819928 11.29260475 46.55644219 11.30982494 51.55479336 C11.32092182 55.38683227 11.32297266 59.21883663 11.32244301 63.05088997 C11.32362657 64.89415031 11.32806924 66.73741144 11.33577538 68.58065605 C11.34552886 71.15470302 11.34271576 73.72843868 11.33666992 76.30249023 C11.34228943 77.06983994 11.34790894 77.83718964 11.35369873 78.62779236 C11.32206554 83.90449696 11.32206554 83.90449696 9.09375 86.1328125 C6.5625 86.36328125 6.5625 86.36328125 3.59375 86.3203125 C2.12421875 86.31064453 2.12421875 86.31064453 0.625 86.30078125 C-1.90625 86.1328125 -1.90625 86.1328125 -3.90625 85.1328125 C-3.92937297 74.19784779 -3.94716485 63.26288884 -3.95806217 52.3279047 C-3.9632911 47.25090232 -3.97038892 42.17391661 -3.98168945 37.09692383 C-3.99251799 32.20160698 -3.99852676 27.30630621 -4.00112724 22.41097832 C-4.00298155 20.53898299 -4.00660228 18.66698859 -4.01198006 16.79500008 C-4.01919004 14.18240551 -4.02024096 11.56987823 -4.01977539 8.95727539 C-4.02337067 8.17540863 -4.02696594 7.39354187 -4.03067017 6.58798218 C-4.01823824 0.18362917 -4.01823824 0.18362917 0 0 Z " fill="#5E6165" transform="translate(562.90625,246.8671875)"/>
<path d="M0 0 C3.63 0 7.26 0 11 0 C11 25.74 11 51.48 11 78 C7.04 78 3.08 78 -1 78 C-1.0231241 67.97772237 -1.04091543 57.95545103 -1.05181217 47.9331522 C-1.05704085 43.27988814 -1.06413823 38.62664226 -1.07543945 33.97338867 C-1.08626886 29.48655454 -1.09227695 24.99973796 -1.09487724 20.51289177 C-1.0967314 18.79719707 -1.10035182 17.08150338 -1.10573006 15.36581612 C-1.11294121 12.97115087 -1.11399091 10.57655904 -1.11352539 8.18188477 C-1.11712067 7.46547318 -1.12071594 6.74906158 -1.12442017 6.01094055 C-1.11405216 1.11405216 -1.11405216 1.11405216 0 0 Z " fill="#606266" transform="translate(734,254)"/>
<path d="M0 0 C0 0.66 0 1.32 0 2 C-1.32 2.33 -2.64 2.66 -4 3 C-4 3.66 -4 4.32 -4 5 C-4.66 5 -5.32 5 -6 5 C-6 5.66 -6 6.32 -6 7 C-6.66 7 -7.32 7 -8 7 C-8 7.66 -8 8.32 -8 9 C-8.66 9 -9.32 9 -10 9 C-10 9.66 -10 10.32 -10 11 C-10.66 11 -11.32 11 -12 11 C-12.061875 11.66 -12.12375 12.32 -12.1875 13 C-13.14730898 16.54391009 -14.7913215 19.02214347 -16.84375 22.03515625 C-19.70142393 26.89127107 -19.21830547 32.34915483 -19.25 37.8125 C-19.270625 38.68970703 -19.29125 39.56691406 -19.3125 40.47070312 C-19.34666617 46.18072417 -18.44666613 49.86843972 -16 55 C-16 56.32 -16 57.64 -16 59 C-15.34 59 -14.68 59 -14 59 C-14 59.99 -14 60.98 -14 62 C-13.34 62 -12.68 62 -12 62 C-10.96210419 63.64333504 -9.96432076 65.31243867 -9 67 C-8.34 67.66 -7.68 68.32 -7 69 C-4.04337034 68.77256695 -2.44966312 68.38764062 -0.1875 66.4375 C0.204375 65.963125 0.59625 65.48875 1 65 C1.66 65.33 2.32 65.66 3 66 C-1.98561151 71.69784173 -1.98561151 71.69784173 -5.9375 72.875 C-11.65039856 71.24274327 -14.56272342 66.43202326 -17.484375 61.48828125 C-23.35132695 50.22028236 -24.90923386 38.16649213 -22.3125 25.69921875 C-20.20920239 19.50325455 -16.89393984 14.22357783 -13 9 C-12.319375 8.071875 -11.63875 7.14375 -10.9375 6.1875 C-7.41716011 2.2129227 -5.45311841 0 0 0 Z " fill="#F3BC14" transform="translate(107,270)"/>
<path d="M0 0 C0.99 0 1.98 0 3 0 C3 23.43 3 46.86 3 71 C2.67 70.34 2.34 69.68 2 69 C1.34 69 0.68 69 0 69 C0 46.23 0 23.46 0 0 Z " fill="#66686A" transform="translate(733,257)"/>
<path d="M0 0 C3.63 0 7.26 0 11 0 C11 25.74 11 51.48 11 78 C7.04 78 3.08 78 -1 78 C-0.505 77.01 -0.505 77.01 0 76 C2.97 76 5.94 76 9 76 C9 51.58 9 27.16 9 2 C5.7 2.33 2.4 2.66 -1 3 C-0.67 2.01 -0.34 1.02 0 0 Z " fill="#5A5C5F" transform="translate(734,254)"/>
<path d="M0 0 C6.24537049 0.28913752 11.92707694 1.09408741 17 5 C20.33373361 10.20895877 21.272737 15.90572649 20 22 C17.03073148 27.92003693 13.04724635 31.69485449 6.96313477 34.23681641 C0.30818592 35.95086189 -6.73929612 35.39982074 -13.5625 35.25 C-15.15948278 35.22990197 -16.75649002 35.21165705 -18.35351562 35.1953125 C-22.23628881 35.15158265 -26.11787022 35.0827407 -30 35 C-30 34.34 -30 33.68 -30 33 C-29.01193359 32.9906543 -28.02386719 32.98130859 -27.00585938 32.97167969 C-23.30782499 32.93153064 -19.61060095 32.86570606 -15.91308594 32.79248047 C-14.31879153 32.76441418 -12.72436168 32.74312887 -11.12988281 32.72900391 C1.07652321 32.84040561 1.07652321 32.84040561 12 28 C14.76692618 25.01580941 15.91771037 21.67047956 16.1171875 17.62109375 C15.78420851 13.22721881 15.05173106 10.31709898 12 7 C12 6.34 12 5.68 12 5 C11.30132812 4.80664062 10.60265625 4.61328125 9.8828125 4.4140625 C8.97273438 4.15367187 8.06265625 3.89328125 7.125 3.625 C5.76761719 3.24214844 5.76761719 3.24214844 4.3828125 2.8515625 C2 2 2 2 0 0 Z " fill="#2D70E2" transform="translate(195,291)"/>
<path d="M0 0 C0.96035156 -0.01224609 1.92070312 -0.02449219 2.91015625 -0.03710938 C15.04811609 -0.0618135 23.99400101 2.57274879 33.21875 10.83984375 C34.625 12.375 34.625 12.375 36.375 15.1875 C36.11405383 19.13431076 33.85620754 21.07757673 31.125 23.75 C30.35671875 24.51441406 29.5884375 25.27882813 28.796875 26.06640625 C26.42117001 28.14706401 24.20127656 29.7791038 21.375 31.1875 C20.715 30.8575 20.055 30.5275 19.375 30.1875 C20.99839805 28.47865995 22.66819053 26.81303283 24.375 25.1875 C25.035 25.1875 25.695 25.1875 26.375 25.1875 C26.643125 24.589375 26.91125 23.99125 27.1875 23.375 C28.375 21.1875 28.375 21.1875 30 19.6875 C31.82548309 18.035206 31.82548309 18.035206 31.375 14.1875 C27.83335134 10.51402819 23.23995658 7.70779893 18.375 6.1875 C18.375 5.5275 18.375 4.8675 18.375 4.1875 C17.570625 4.208125 16.76625 4.22875 15.9375 4.25 C13.375 4.1875 13.375 4.1875 12.375 3.1875 C6.48878884 1.99445586 0.90675919 2.25111552 -5.0625 2.625 C-5.98482422 2.67720703 -6.90714844 2.72941406 -7.85742188 2.78320312 C-10.11371536 2.91180016 -12.36944029 3.0467071 -14.625 3.1875 C-12.26378299 -1.53493401 -4.56961209 0.0029945 0 0 Z " fill="#F6B816" transform="translate(127.625,264.8125)"/>
<path d="M0 0 C-6.47719968 7.59395825 -16.22977989 12.3808969 -26.17842102 13.17356873 C-28.48623696 13.2292149 -30.78547957 13.22547693 -33.09375 13.1953125 C-34.34194519 13.19106766 -34.34194519 13.19106766 -35.61535645 13.18673706 C-38.24372431 13.17564286 -40.8717371 13.15055925 -43.5 13.125 C-45.29426587 13.11495626 -47.08853715 13.10583286 -48.8828125 13.09765625 C-53.25534279 13.07573893 -57.62761143 13.0412849 -62 13 C-62 12.34 -62 11.68 -62 11 C-60.9262915 10.98018066 -59.85258301 10.96036133 -58.74633789 10.93994141 C-54.72609771 10.86331556 -50.70619288 10.77469068 -46.6862793 10.68261719 C-44.95327421 10.64456106 -43.22019639 10.60966942 -41.48706055 10.578125 C-38.98199638 10.531962 -36.47742293 10.47405822 -33.97265625 10.4140625 C-33.20977798 10.40251129 -32.44689972 10.39096008 -31.66090393 10.37905884 C-24.13287105 10.17694818 -15.57474827 9.57474827 -10 4 C-6.58335827 0.86038328 -4.70305174 -0.53749163 0 0 Z " fill="#3172E7" transform="translate(227,340)"/>
<path d="M0 0 C5.67830078 -0.02464705 11.35657069 -0.04283462 17.03491211 -0.05493164 C18.96818585 -0.05997256 20.90145576 -0.06680519 22.8347168 -0.07543945 C25.60726872 -0.08751565 28.37977041 -0.09323057 31.15234375 -0.09765625 C32.45702858 -0.10539818 32.45702858 -0.10539818 33.78807068 -0.11329651 C35.85905814 -0.11349185 37.92994324 -0.06208168 40 0 C41.5400226 1.5400226 41.12965783 2.97283987 41.1328125 5.11328125 C41.13474609 6.3672168 41.13474609 6.3672168 41.13671875 7.64648438 C41.13285156 8.52626953 41.12898438 9.40605469 41.125 10.3125 C41.13080078 11.61477539 41.13080078 11.61477539 41.13671875 12.94335938 C41.13542969 13.78318359 41.13414062 14.62300781 41.1328125 15.48828125 C41.13168457 16.25696533 41.13055664 17.02564941 41.12939453 17.81762695 C41.00025274 19.9957373 40.59912705 21.9066251 40 24 C39.34 24 38.68 24 38 24 C38.33 16.74 38.66 9.48 39 2 C26.46 2 13.92 2 1 2 C0.67 2.99 0.34 3.98 0 5 C-0.66 4.67 -1.32 4.34 -2 4 C-1.34 2.68 -0.68 1.36 0 0 Z " fill="#505256" transform="translate(330,284)"/>
<path d="M0 0 C0.7645752 -0.00942627 1.52915039 -0.01885254 2.31689453 -0.02856445 C7.20048311 -0.00052218 11.24092518 0.70121107 15.875 2.25 C15.875 2.58 15.875 2.91 15.875 3.25 C15.11356689 3.26981934 14.35213379 3.28963867 13.56762695 3.31005859 C10.10724528 3.40549922 6.64745145 3.51510212 3.1875 3.625 C1.98931641 3.6559375 0.79113281 3.686875 -0.44335938 3.71875 C-2.17875977 3.77675781 -2.17875977 3.77675781 -3.94921875 3.8359375 C-5.01229248 3.8673584 -6.07536621 3.8987793 -7.1706543 3.93115234 C-10.17622506 4.25552846 -12.37597625 5.03372433 -15.125 6.25 C-16.96974621 6.65034918 -18.82514664 7.00426627 -20.6875 7.3125 C-23.87468329 7.84738097 -27.00084194 8.4193415 -30.125 9.25 C-30.125 8.59 -30.125 7.93 -30.125 7.25 C-19.7182327 2.63650925 -11.34527333 0.1063405 0 0 Z " fill="#DE3F35" transform="translate(162.125,225.75)"/>
<path d="M0 0 C2.97 0.495 2.97 0.495 6 1 C6 1.66 6 2.32 6 3 C16.93849113 5.11680636 27.70711574 5.42450787 38.8125 5.625 C40.58400142 5.66328169 42.35548626 5.70233889 44.12695312 5.7421875 C48.41783037 5.83705004 52.708794 5.92147313 57 6 C57 6.66 57 7.32 57 8 C51.3441042 8.07469184 45.68850162 8.1288562 40.03222656 8.16479492 C38.11192822 8.17979221 36.19166361 8.20019682 34.27148438 8.22631836 C31.49600858 8.26310351 28.72098936 8.27981721 25.9453125 8.29296875 C24.67749435 8.31619453 24.67749435 8.31619453 23.38406372 8.33988953 C14.90172809 8.3422332 7.42485227 6.10320783 0 2 C0 1.34 0 0.68 0 0 Z " fill="#279948" transform="translate(105,345)"/>
<path d="M0 0 C2.76207795 1.32240043 4.95466073 2.819469 7.35546875 4.71484375 C8.12246094 5.31167969 8.88945312 5.90851563 9.6796875 6.5234375 C11.66796875 8.27734375 11.66796875 8.27734375 13.66796875 11.27734375 C12.01796875 11.27734375 10.36796875 11.27734375 8.66796875 11.27734375 C8.66796875 11.93734375 8.66796875 12.59734375 8.66796875 13.27734375 C7.00315434 14.28042438 5.33605678 15.27971652 3.66796875 16.27734375 C1.87236298 17.91623245 0.12290783 19.60682933 -1.58203125 21.33984375 C-2.4534375 22.21769531 -3.32484375 23.09554688 -4.22265625 24 C-6.35390863 26.0880173 -6.35390863 26.0880173 -7.33203125 28.27734375 C-12.08203125 27.52734375 -12.08203125 27.52734375 -14.33203125 25.27734375 C-13.48382813 25.40496094 -12.635625 25.53257812 -11.76171875 25.6640625 C-6.82358367 25.10725684 -4.78888233 22.58376451 -1.45703125 19.08984375 C-0.56757813 18.22262695 -0.56757813 18.22262695 0.33984375 17.33789062 C4.36255979 13.30331727 4.36255979 13.30331727 4.66796875 7.27734375 C0.21296875 4.80234375 0.21296875 4.80234375 -4.33203125 2.27734375 C-4.33203125 1.61734375 -4.33203125 0.95734375 -4.33203125 0.27734375 C-2.33203125 -0.72265625 -2.33203125 -0.72265625 0 0 Z " fill="#B94F5E" transform="translate(192.33203125,233.72265625)"/>
<path d="M0 0 C0.66 0.33 1.32 0.66 2 1 C-2.38249688 4.30689712 -6.29443575 4.39746131 -11.58203125 4.29296875 C-12.39621017 4.28872391 -13.2103891 4.28447906 -14.04924011 4.28010559 C-16.63733668 4.26337753 -19.22464071 4.22573712 -21.8125 4.1875 C-23.57225434 4.17244553 -25.33202095 4.15875846 -27.09179688 4.14648438 C-31.39507864 4.11605098 -35.6966573 4.05732129 -40 4 C-39.67 12.58 -39.34 21.16 -39 30 C-39.99 30 -40.98 30 -42 30 C-42 20.43 -42 10.86 -42 1 C-41.01 1 -40.02 1 -39 1 C-39 1.66 -39 2.32 -39 3 C-34.24909089 2.90619443 -29.49867516 2.80004133 -24.74829102 2.68261719 C-23.1334583 2.64441928 -21.51854316 2.60955055 -19.90356445 2.578125 C-17.57733783 2.53227391 -15.25167408 2.47431416 -12.92578125 2.4140625 C-11.84892815 2.39673569 -11.84892815 2.39673569 -10.75032043 2.37905884 C-6.71068592 2.26107708 -3.69318164 1.58091714 0 0 Z " fill="#3D86D1" transform="translate(204,323)"/>
<path d="M0 0 C0.33 0 0.66 0 1 0 C1 12.87 1 25.74 1 39 C0.01 38.67 -0.98 38.34 -2 38 C-2.0499542 34.03478915 -2.08597787 30.06970369 -2.10986328 26.10424805 C-2.12470245 24.10263623 -2.15013361 22.10111188 -2.17578125 20.09960938 C-2.21124961 13.05913966 -1.89368974 6.79193445 0 0 Z " fill="#515253" transform="translate(922,292)"/>
<path d="M0 0 C1.64574566 -0.02688151 3.29161413 -0.04634123 4.9375 -0.0625 C5.85402344 -0.07410156 6.77054688 -0.08570313 7.71484375 -0.09765625 C10 0 10 0 11 1 C11.16017166 3.80976518 11.25950534 6.59773596 11.31640625 9.41015625 C11.33718735 10.25219101 11.35796844 11.09422577 11.37937927 11.96177673 C11.44496812 14.66193179 11.50380276 17.36218717 11.5625 20.0625 C11.60567637 21.88868241 11.64929036 23.71485454 11.69335938 25.54101562 C11.80065894 30.02723992 11.90189966 34.5135655 12 39 C11.34 39 10.68 39 10 39 C8.44022936 35.88045872 8.87895874 32.57040616 8.90234375 29.1484375 C8.9037587 28.37440582 8.90517365 27.60037415 8.90663147 26.80288696 C8.91223597 24.32688558 8.92478917 21.85097412 8.9375 19.375 C8.94251442 17.69791797 8.94707743 16.02083453 8.95117188 14.34375 C8.96220685 10.22913194 8.97947446 6.11458122 9 2 C4.545 2.495 4.545 2.495 0 3 C0 2.01 0 1.02 0 0 Z " fill="#55585B" transform="translate(814,278)"/>
<path d="M0 0 C6.24537049 0.28913752 11.92707694 1.09408741 17 5 C20.25310586 10.08297791 21.26963777 16.03170274 20 22 C17.97265625 24.30078125 17.97265625 24.30078125 16 26 C16.03480469 25.20335937 16.06960937 24.40671875 16.10546875 23.5859375 C16.25921948 17.56769451 16.34928746 13.22488843 13 8 C12.67 7.01 12.34 6.02 12 5 C9.73547192 4.04523692 9.73547192 4.04523692 7.0625 3.4375 C2.1988417 2.1988417 2.1988417 2.1988417 0 0 Z " fill="#437FE9" transform="translate(195,291)"/>
<path d="M0 0 C1.37478516 0.01740234 1.37478516 0.01740234 2.77734375 0.03515625 C3.69644531 0.04417969 4.61554687 0.05320312 5.5625 0.0625 C6.27277344 0.07410156 6.98304688 0.08570313 7.71484375 0.09765625 C7.71484375 0.75765625 7.71484375 1.41765625 7.71484375 2.09765625 C4.74484375 2.09765625 1.77484375 2.09765625 -1.28515625 2.09765625 C-1.2694458 3.08161377 -1.25373535 4.06557129 -1.23754883 5.0793457 C-1.18324647 8.73014133 -1.1488054 12.38090126 -1.12036133 16.03198242 C-1.10527531 17.61212161 -1.08480375 19.19221894 -1.05883789 20.7722168 C-1.02244499 23.0435621 -1.00542863 25.31435384 -0.9921875 27.5859375 C-0.97670364 28.29228836 -0.96121979 28.99863922 -0.94526672 29.72639465 C-0.94357594 34.65457403 -0.94357594 34.65457403 -2.8034668 37.06713867 C-3.53690308 37.57724487 -3.53690308 37.57724487 -4.28515625 38.09765625 C-4.16721519 32.84643505 -4.04299023 27.59541528 -3.9128418 22.34448242 C-3.86942925 20.55676355 -3.82775896 18.76900151 -3.7878418 16.98120117 C-3.73029165 14.41702234 -3.66655422 11.85306213 -3.6015625 9.2890625 C-3.58485001 8.48489395 -3.56813751 7.6807254 -3.55091858 6.85218811 C-3.37028255 0.14402917 -3.37028255 0.14402917 0 0 Z " fill="#545659" transform="translate(853.28515625,277.90234375)"/>
<path d="M0 0 C3.19833935 2.82791021 4.26746188 5.82013502 5.7421875 9.74609375 C7.34516644 12.61851253 9.41089911 13.9909499 12 16 C17.19568915 21.93266634 21 26.95947889 21 35 C18.02404533 32.44918171 16.55997434 29.56565563 15 26 C15 25.01 15 24.02 15 23 C14.34 23 13.68 23 13 23 C13 22.01 13 21.02 13 20 C12.01 19.67 11.02 19.34 10 19 C10 18.01 10 17.02 10 16 C9.030625 15.7525 8.06125 15.505 7.0625 15.25 C6.051875 14.8375 5.04125 14.425 4 14 C3.3125 12 3.3125 12 3 10 C2.01 9.34 1.02 8.68 0 8 C-0.40843923 5.28796348 -0.13336867 2.7562858 0 0 Z " fill="#397AE7" transform="translate(216,260)"/>
<path d="M0 0 C4.16897707 6.40354878 2.74235967 17.25445801 1.3125 24.46875 C-0.72227467 31.04785478 -3.85268986 36.52555062 -8 42 C-8.99 41.67 -9.98 41.34 -11 41 C-10.071875 39.9790625 -10.071875 39.9790625 -9.125 38.9375 C-6.7660122 35.67654628 -6.01975062 32.8604845 -5 29 C-4.34 28.34 -3.68 27.68 -3 27 C-2.30643577 24.67451993 -1.63850788 22.34119555 -1 20 C-0.67 19.67 -0.34 19.34 0 19 C0.07226502 17.14712498 0.0838122 15.29166122 0.0625 13.4375 C0.05347656 12.42558594 0.04445312 11.41367187 0.03515625 10.37109375 C0.02355469 9.58863281 0.01195312 8.80617188 0 8 C-0.33 8 -0.66 8 -1 8 C-1.625 5.125 -1.625 5.125 -2 2 C-1.34 1.34 -0.68 0.68 0 0 Z " fill="#3879EB" transform="translate(238,296)"/>
<path d="M0 0 C2.56864728 1.28432364 2.946539 2.36634751 4 5 C4 6.32 4 7.64 4 9 C4.66 9 5.32 9 6 9 C6 9.99 6 10.98 6 12 C6.66 12 7.32 12 8 12 C9.03789581 13.64333504 10.03567924 15.31243867 11 17 C11.66 17.66 12.32 18.32 13 19 C15.95662966 18.77256695 17.55033688 18.38764062 19.8125 16.4375 C20.204375 15.963125 20.59625 15.48875 21 15 C21.66 15.33 22.32 15.66 23 16 C18.01438849 21.69784173 18.01438849 21.69784173 14.0625 22.875 C8.50816774 21.28804793 5.6601598 16.61925506 2.66796875 11.8984375 C0.44233939 7.82467069 -0.47340773 4.73407726 0 0 Z " fill="#F3C115" transform="translate(87,320)"/>
<path d="M0 0 C0.33 0 0.66 0 1 0 C1.33 2.64 1.66 5.28 2 8 C2.33 8 2.66 8 3 8 C3 16.58 3 25.16 3 34 C2.67 34 2.34 34 2 34 C1.67 38.95 1.34 43.9 1 49 C0.67 49 0.34 49 0 49 C0 32.83 0 16.66 0 0 Z " fill="#656D70" transform="translate(859,281)"/>
<path d="M0 0 C-1.20010745 0.96861464 -2.41058244 1.9243885 -3.625 2.875 C-4.29789063 3.40867187 -4.97078125 3.94234375 -5.6640625 4.4921875 C-12.79476844 9.09495087 -20.8152366 8.60272004 -29 8 C-31.96406009 7.27264908 -34.24698434 6.34841584 -37 5 C-37 4.67 -37 4.34 -37 4 C-36.32195313 4.0721875 -35.64390625 4.144375 -34.9453125 4.21875 C-26.16843831 5.09400615 -17.71725567 5.51604446 -9 4 C-8.67 3.01 -8.34 2.02 -8 1 C-4.68510482 -0.74468167 -3.63361056 -1.21120352 0 0 Z " fill="#4B4D4F" transform="translate(628,326)"/>
<path d="M0 0 C0.33 0 0.66 0 1 0 C1.05883728 3.47909371 1.09387399 6.95805674 1.125 10.4375 C1.14175781 11.41138672 1.15851562 12.38527344 1.17578125 13.38867188 C1.21725154 19.58848075 0.57599699 25.00004295 -1 31 C-1.33 31 -1.66 31 -2 31 C-2.05804281 26.58338849 -2.09361104 22.16687504 -2.125 17.75 C-2.14175781 16.49574219 -2.15851562 15.24148438 -2.17578125 13.94921875 C-2.18222656 12.74394531 -2.18867187 11.53867187 -2.1953125 10.296875 C-2.20578613 9.18666992 -2.21625977 8.07646484 -2.22705078 6.93261719 C-2.00468334 4.06049058 -1.49281575 2.42776265 0 0 Z " fill="#757678" transform="translate(922,270)"/>
<path d="M0 0 C-6.03629463 4.02419642 -12.11394412 4.2979561 -19.125 4.1875 C-19.91003906 4.18685547 -20.69507813 4.18621094 -21.50390625 4.18554688 C-25.46110428 4.15551755 -29.13808991 3.96935494 -33 3 C-32.67 2.34 -32.34 1.68 -32 1 C-30.06447266 1.01740234 -30.06447266 1.01740234 -28.08984375 1.03515625 C-26.37239729 1.0445412 -24.65494925 1.05364064 -22.9375 1.0625 C-22.08994141 1.07087891 -21.24238281 1.07925781 -20.36914062 1.08789062 C-13.51118581 1.11436922 -6.83849555 -0.16679257 0 0 Z " fill="#525358" transform="translate(349,330)"/>
<path d="M0 0 C0.7528125 0.0721875 1.505625 0.144375 2.28125 0.21875 C11.21289373 0.99918489 20.04524877 1.10345669 29 1 C29.33 1.66 29.66 2.32 30 3 C20.90960343 6.03013219 8.6370991 4.83871071 0 1 C0 0.67 0 0.34 0 0 Z " fill="#4D4F52" transform="translate(677,330)"/>
<path d="M0 0 C0.66 0 1.32 0 2 0 C2 0.66 2 1.32 2 2 C2.85851562 2.41378906 2.85851562 2.41378906 3.734375 2.8359375 C5.98964267 3.99467848 8.10856378 5.26875706 10.25 6.625 C10.95640625 7.07101562 11.6628125 7.51703125 12.390625 7.9765625 C12.92171875 8.31429688 13.4528125 8.65203125 14 9 C13.071875 9.12375 13.071875 9.12375 12.125 9.25 C9.85224797 9.78528353 9.85224797 9.78528353 9.0078125 11.828125 C8.67523438 12.54484375 8.34265625 13.2615625 8 14 C6.0546875 15.921875 6.0546875 15.921875 3.875 17.75 C2.78832031 18.67039062 2.78832031 18.67039062 1.6796875 19.609375 C1.12539062 20.06828125 0.57109375 20.5271875 0 21 C0 20.01 0 19.02 0 18 C0.66 18 1.32 18 2 18 C2 17.01 2 16.02 2 15 C3.875 12.8125 3.875 12.8125 6 11 C6.66 11 7.32 11 8 11 C8 10.34 8 9.68 8 9 C7.4225 8.773125 6.845 8.54625 6.25 8.3125 C3.40260191 6.65151778 1.87932807 4.68475439 0 2 C0 1.34 0 0.68 0 0 Z " fill="#F1BD13" transform="translate(111,314)"/>
<path d="M0 0 C0 0.66 0 1.32 0 2 C-7.93628884 6.09614908 -15.14180707 6.72627657 -24 6 C-24.66 5.67 -25.32 5.34 -26 5 C-26 4.34 -26 3.68 -26 3 C-22.12286142 2.92543964 -18.74071646 2.99288403 -15 4 C-14.67 3.67 -14.34 3.34 -14 3 C-12.36197128 2.63021574 -10.71412956 2.30331217 -9.0625 2 C-6.02678626 1.44090452 -2.98602302 0 0 0 Z " fill="#535759" transform="translate(420,328)"/>
<path d="M0 0 C1.19625 0.350625 2.3925 0.70125 3.625 1.0625 C11.58985629 2.85775332 20.09294649 1.73895726 28 0 C24.87301537 3.62071904 21.61006988 4.84483682 16.87890625 5.30078125 C5.62537192 5.34054639 5.62537192 5.34054639 1 2 C0.67 1.34 0.34 0.68 0 0 Z " fill="#46484B" transform="translate(820,329)"/>
<path d="M0 0 C0.94359375 0.2165625 0.94359375 0.2165625 1.90625 0.4375 C10.26369266 2.24995744 17.54401807 2.20799742 26 1 C26 1.66 26 2.32 26 3 C18.93569166 6.13969259 10.4639206 6.20842927 3.25 3.5 C2.1775 3.005 1.105 2.51 0 2 C0 1.34 0 0.68 0 0 Z " fill="#4C4E50" transform="translate(880,329)"/>
<path d="M0 0 C0.93457031 0.09667969 1.86914062 0.19335938 2.83203125 0.29296875 C4.28416016 0.46119141 4.28416016 0.46119141 5.765625 0.6328125 C6.74917969 0.73722656 7.73273438 0.84164063 8.74609375 0.94921875 C11.17062762 1.20814955 13.59342306 1.47803485 16.015625 1.7578125 C15.685625 2.4178125 15.355625 3.0778125 15.015625 3.7578125 C12.32784698 3.8122332 9.64119288 3.85168516 6.953125 3.8828125 C6.20095703 3.89957031 5.44878906 3.91632813 4.67382812 3.93359375 C-0.27765209 3.97646371 -4.28851951 3.34180625 -8.984375 1.7578125 C-5.7603047 -0.18054555 -3.71406352 -0.40764112 0 0 Z " fill="#41A658" transform="translate(129.984375,323.2421875)"/>
<path d="M0 0 C2.25 4.5 2.25 4.5 2.1953125 8.109375 C2.18564453 9.24052734 2.18564453 9.24052734 2.17578125 10.39453125 C2.15902344 11.17183594 2.14226563 11.94914062 2.125 12.75 C2.11597656 13.54277344 2.10695313 14.33554687 2.09765625 15.15234375 C2.07417012 17.10169281 2.03830137 19.05088575 2 21 C-1.96 21 -5.92 21 -10 21 C-9.67 20.34 -9.34 19.68 -9 19 C-6.03 19 -3.06 19 0 19 C0 12.73 0 6.46 0 0 Z " fill="#525458" transform="translate(743,311)"/>
<path d="M0 0 C0.78503906 0.22816406 1.57007813 0.45632813 2.37890625 0.69140625 C8.31928736 2.31681114 12.88312835 3.43926392 19 2 C22.5 1.5 22.5 1.5 26 1 C25.67 1.99 25.34 2.98 25 4 C21.37762495 5.20745835 18.0229405 5.22246029 14.25 5.25 C13.5590625 5.270625 12.868125 5.29125 12.15625 5.3125 C7.05147958 5.35088173 3.57053254 4.27330153 -1 2 C-0.67 1.34 -0.34 0.68 0 0 Z " fill="#535559" transform="translate(511,354)"/>
<path d="M0 0 C0.66 0.33 1.32 0.66 2 1 C1.67 2.175625 1.34 3.35125 1 4.5625 C-0.63756849 11.17084378 0.06591185 17.34462195 1 24 C0.01 23.67 -0.98 23.34 -2 23 C-3.57466415 15.32351225 -3.6203607 8.39866552 -1 1 C-0.67 0.67 -0.34 0.34 0 0 Z " fill="#4E5358" transform="translate(300,277)"/>
<path d="M0 0 C0.33 0 0.66 0 1 0 C1.20625 0.804375 1.4125 1.60875 1.625 2.4375 C2.85578253 5.62634566 4.09041124 7.64623449 6.0625 10.375 C9.07201695 14.68790872 9.81022853 17.78128446 10 23 C9.34 23 8.68 23 8 23 C7.86464844 22.45472656 7.72929687 21.90945313 7.58984375 21.34765625 C5.92643661 15.52075099 3.4009436 11.48593886 -0.4765625 6.84765625 C-2 5 -2 5 -3 3 C-2.34 3 -1.68 3 -1 3 C-0.67 2.01 -0.34 1.02 0 0 Z " fill="#3079E6" transform="translate(186,259)"/>
<path d="M0 0 C6.75982745 -1.07463923 13.46934733 0.28704192 20 2 C20 2.66 20 3.32 20 4 C12.74 3.67 5.48 3.34 -2 3 C-1.34 2.01 -0.68 1.02 0 0 Z " fill="#57585A" transform="translate(324,244)"/>
<path d="M0 0 C0.92941406 0.0721875 1.85882813 0.144375 2.81640625 0.21875 C4.05261719 0.3115625 5.28882813 0.404375 6.5625 0.5 C7.78066406 0.5928125 8.99882812 0.685625 10.25390625 0.78125 C13.84634216 0.99102728 17.40247543 1.03704015 21 1 C21 1.66 21 2.32 21 3 C18.01262272 4.49368864 14.96039093 4.18437999 11.6875 4.1875 C10.37136719 4.20167969 9.05523437 4.21585937 7.69921875 4.23046875 C4.27874633 4.01736646 2.04733659 3.49124982 -1 2 C-0.67 1.34 -0.34 0.68 0 0 Z " fill="#4F5155" transform="translate(453,330)"/>
<path d="M0 0 C0.85722656 -0.02578125 1.71445313 -0.0515625 2.59765625 -0.078125 C5.37608273 0.31150409 6.21207227 1.10028677 7.9375 3.25 C3.3568478 4.68706736 -1.22087145 4.27461704 -5.96875 4.1875 C-8.56839314 4.24001804 -10.60148251 4.47791608 -13.0625 5.25 C-8.96450766 0.71293705 -5.98658749 0.10835452 0 0 Z " fill="#F2BC14" transform="translate(129.0625,289.75)"/>
<path d="M0 0 C2.35441716 0.14241648 4.70847484 0.28884808 7.0625 0.4375 C9.02896484 0.55931641 9.02896484 0.55931641 11.03515625 0.68359375 C14.73663238 0.97898249 18.33370448 1.43265388 22 2 C17.13544996 5.24303336 11.69368099 4.48145097 6 4 C3.58322891 3.25339036 2.09846599 2.43894811 0 1 C0 0.67 0 0.34 0 0 Z " fill="#4F5152" transform="translate(512,330)"/>
<path d="M0 0 C3 3.75 3 3.75 3 6 C4.19238281 5.97679687 5.38476562 5.95359375 6.61328125 5.9296875 C8.17968124 5.91092822 9.746088 5.89272819 11.3125 5.875 C12.09818359 5.85824219 12.88386719 5.84148437 13.69335938 5.82421875 C14.45068359 5.81777344 15.20800781 5.81132812 15.98828125 5.8046875 C16.68477783 5.79421387 17.38127441 5.78374023 18.09887695 5.77294922 C20 6 20 6 23 8 C20.10391407 8.05413245 17.20884805 8.09373641 14.3125 8.125 C13.08756836 8.15013672 13.08756836 8.15013672 11.83789062 8.17578125 C7.42907071 8.2114802 4.01268424 8.07580814 0 6 C0 4.02 0 2.04 0 0 Z " fill="#45464A" transform="translate(328,291)"/>
<path d="M0 0 C0 0.66 0 1.32 0 2 C-0.99 2 -1.98 2 -3 2 C-3 2.66 -3 3.32 -3 4 C-2.34 4.33 -1.68 4.66 -1 5 C-1.66 6.98 -2.32 8.96 -3 11 C-7.42857143 5.85714286 -7.42857143 5.85714286 -8 2 C-4.77208445 -0.1519437 -3.71599191 -0.20086443 0 0 Z " fill="#515254" transform="translate(507,339)"/>
<path d="M0 0 C3 3 3 3 3.3984375 5.55859375 C3.39070312 6.50863281 3.38296875 7.45867187 3.375 8.4375 C3.38273438 9.38496094 3.39046875 10.33242188 3.3984375 11.30859375 C3 14 3 14 0 18 C0 12.06 0 6.12 0 0 Z " fill="#66686A" transform="translate(920,256)"/>
<path d="M0 0 C1.4540625 0.0309375 1.4540625 0.0309375 2.9375 0.0625 C2.9375 1.0525 2.9375 2.0425 2.9375 3.0625 C2.15246094 3.18367188 1.36742187 3.30484375 0.55859375 3.4296875 C-5.11301213 4.33436083 -10.58742254 5.3204299 -16.0625 7.0625 C-15.7325 6.0725 -15.4025 5.0825 -15.0625 4.0625 C-12.59375 3.1484375 -12.59375 3.1484375 -9.5625 2.4375 C-6.10761287 1.60939561 -3.37627568 0.06890359 0 0 Z " fill="#54575B" transform="translate(695.0625,260.9375)"/>
<path d="M0 0 C2.35448675 -0.05454409 4.70767875 -0.0939279 7.0625 -0.125 C9.02896484 -0.15980469 9.02896484 -0.15980469 11.03515625 -0.1953125 C15.11824299 0.00582478 18.14999053 0.72834538 22 2 C22 2.33 22 2.66 22 3 C14.74 2.67 7.48 2.34 0 2 C0 1.34 0 0.68 0 0 Z " fill="#D5362D" transform="translate(156,226)"/>
<path d="M0 0 C1.54897985 3.0979597 0.83239539 6.26216552 0.5625 9.625 C0.51029297 10.33140625 0.45808594 11.0378125 0.40429688 11.765625 C0.27458793 13.51079987 0.13795046 15.25545725 0 17 C-0.33 16.34 -0.66 15.68 -1 15 C-1.66 15 -2.32 15 -3 15 C-3.02705729 13.22925083 -3.04642195 11.45838289 -3.0625 9.6875 C-3.07410156 8.70136719 -3.08570313 7.71523438 -3.09765625 6.69921875 C-3 4 -3 4 -2 1 C-1.34 0.67 -0.68 0.34 0 0 Z " fill="#5E6164" transform="translate(438,295)"/>
<path d="M0 0 C0.66 1.32 1.32 2.64 2 4 C-0.05927956 4.98592155 -2.12256688 5.96347494 -4.1875 6.9375 C-5.33605469 7.48277344 -6.48460937 8.02804687 -7.66796875 8.58984375 C-10.51466736 9.79460131 -12.96027845 10.54776271 -16 11 C-14.75 9 -14.75 9 -13 7 C-11.68 7 -10.36 7 -9 7 C-8.67 6.34 -8.34 5.68 -8 5 C-6.15234375 4.3671875 -6.15234375 4.3671875 -3.9375 3.875 C-2.83728516 3.62363281 -2.83728516 3.62363281 -1.71484375 3.3671875 C-1.14894531 3.24601562 -0.58304688 3.12484375 0 3 C0 2.01 0 1.02 0 0 Z " fill="#525356" transform="translate(629,295)"/>
<path d="M0 0 C0 0.66 0 1.32 0 2 C-1.32 2.33 -2.64 2.66 -4 3 C-4 3.66 -4 4.32 -4 5 C-4.66 5 -5.32 5 -6 5 C-6 5.66 -6 6.32 -6 7 C-6.66 7 -7.32 7 -8 7 C-8 7.66 -8 8.32 -8 9 C-8.66 9 -9.32 9 -10 9 C-10 9.66 -10 10.32 -10 11 C-10.99 10.67 -11.98 10.34 -13 10 C-6.86363636 0 -6.86363636 0 0 0 Z " fill="#F5B318" transform="translate(107,270)"/>
<path d="M0 0 C0.33 0 0.66 0 1 0 C1 10.56 1 21.12 1 32 C0.01 31.67 -0.98 31.34 -2 31 C-1.84152588 30.30237549 -1.68305176 29.60475098 -1.51977539 28.88598633 C-0.96990445 25.83289832 -0.79048117 22.92395403 -0.68359375 19.82421875 C-0.64169922 18.66728516 -0.59980469 17.51035156 -0.55664062 16.31835938 C-0.51732422 15.12017578 -0.47800781 13.92199219 -0.4375 12.6875 C-0.39431641 11.46998047 -0.35113281 10.25246094 -0.30664062 8.99804688 C-0.20078504 5.9988053 -0.09870274 2.99948409 0 0 Z " fill="#66686C" transform="translate(815,284)"/>
<path d="M0 0 C1.0828125 1.0209375 1.0828125 1.0209375 2.1875 2.0625 C4.79133645 4.2618152 4.79133645 4.2618152 7.625 3.9375 C10.0886729 2.96499754 11.32731628 2.02482766 13 0 C13.66 0.33 14.32 0.66 15 1 C9.90532544 6.82248521 9.90532544 6.82248521 5.8125 7.625 C3 7 3 7 1.125 5.1875 C0 3 0 3 0 0 Z " fill="#D5BC25" transform="translate(95,335)"/>
<path d="M0 0 C0.99 0 1.98 0 3 0 C3 8.25 3 16.5 3 25 C2.34 25.33 1.68 25.66 1 26 C0.67 17.42 0.34 8.84 0 0 Z " fill="#45474A" transform="translate(910,256)"/>
<path d="M0 0 C1.8871875 0.0309375 1.8871875 0.0309375 3.8125 0.0625 C3.8125 0.7225 3.8125 1.3825 3.8125 2.0625 C5.4625 2.0625 7.1125 2.0625 8.8125 2.0625 C8.4825 2.7225 8.1525 3.3825 7.8125 4.0625 C2.5325 3.7325 -2.7475 3.4025 -8.1875 3.0625 C-6.45706736 -0.39836529 -3.47359009 -0.0569441 0 0 Z " fill="#525455" transform="translate(329.1875,255.9375)"/>
<path d="M0 0 C0.33 0 0.66 0 1 0 C1.02911321 3.0833134 1.04683682 6.16659125 1.0625 9.25 C1.07087891 10.12269531 1.07925781 10.99539063 1.08789062 11.89453125 C1.09111328 12.73886719 1.09433594 13.58320313 1.09765625 14.453125 C1.10289307 15.22817383 1.10812988 16.00322266 1.11352539 16.80175781 C1.00036998 18.99283598 0.60552448 20.89637861 0 23 C-0.66 23 -1.32 23 -2 23 C-1.93941406 22.34515625 -1.87882812 21.6903125 -1.81640625 21.015625 C-1.17354344 14.01336547 -0.57484003 7.00815611 0 0 Z " fill="#535759" transform="translate(370,285)"/>
<path d="M0 0 C3.3 0 6.6 0 10 0 C11.14229879 3.42689636 10.90861076 5.61102218 10.5625 9.1875 C10.46066406 10.27417969 10.35882812 11.36085938 10.25390625 12.48046875 C10.17011719 13.31191406 10.08632813 14.14335937 10 15 C9.67 15 9.34 15 9 15 C9 10.71 9 6.42 9 2 C4.545 2.495 4.545 2.495 0 3 C0 2.01 0 1.02 0 0 Z " fill="#515253" transform="translate(814,278)"/>
<path d="M0 0 C6.27968807 1.23351016 10.75950071 3.3483755 16 7 C15.34 7.66 14.68 8.32 14 9 C13.175 8.401875 12.35 7.80375 11.5 7.1875 C7.87707201 4.75199099 4.11583237 3.41925254 0 2 C0 1.34 0 0.68 0 0 Z " fill="#4E5154" transform="translate(783,276)"/>
<path d="M0 0 C0.66 0.33 1.32 0.66 2 1 C2 2.32 2 3.64 2 5 C3.65 4.67 5.3 4.34 7 4 C4.49316923 7.76024616 2.13506066 8.39192086 -2 10 C-3 8 -3 8 -2.44140625 6.0546875 C-2.15136719 5.33539063 -1.86132812 4.61609375 -1.5625 3.875 C-1.27503906 3.15054687 -0.98757812 2.42609375 -0.69140625 1.6796875 C-0.46324219 1.12539063 -0.23507813 0.57109375 0 0 Z " fill="#E25031" transform="translate(106,261)"/>
<path d="M0 0 C4.62 0 9.24 0 14 0 C11 3 11 3 9.0625 3.328125 C8.381875 3.30234375 7.70125 3.2765625 7 3.25 C6.319375 3.23453125 5.63875 3.2190625 4.9375 3.203125 C3 3 3 3 0 2 C0 1.34 0 0.68 0 0 Z " fill="#545758" transform="translate(689,252)"/>
<path d="M0 0 C0.33 0 0.66 0 1 0 C1.2361959 6.40353322 0.823321 11.84629161 -1 18 C-1.66 18 -2.32 18 -3 18 C-2.6919856 15.37440156 -2.37879818 12.74960194 -2.0625 10.125 C-1.97548828 9.37863281 -1.88847656 8.63226563 -1.79882812 7.86328125 C-1.11328125 2.2265625 -1.11328125 2.2265625 0 0 Z " fill="#505158" transform="translate(493,300)"/>
<path d="M0 0 C0.33 0.66 0.66 1.32 1 2 C0.67 2.66 0.34 3.32 0 4 C-0.22858114 6.0374763 -0.41024278 8.08040303 -0.5625 10.125 C-0.64628906 11.22070312 -0.73007813 12.31640625 -0.81640625 13.4453125 C-0.87699219 14.28835938 -0.93757813 15.13140625 -1 16 C-2.48828125 14.73046875 -2.48828125 14.73046875 -4 13 C-4.1875 9.3125 -4.1875 9.3125 -4 6 C-3.34 6 -2.68 6 -2 6 C-1.855625 5.195625 -1.71125 4.39125 -1.5625 3.5625 C-1 1 -1 1 0 0 Z " fill="#F4BF19" transform="translate(113,298)"/>
<path d="M0 0 C0.8971875 0.309375 0.8971875 0.309375 1.8125 0.625 C0.8225 1.285 -0.1675 1.945 -1.1875 2.625 C-4.38306914 5.16841217 -6.91473879 7.21585819 -9.1875 10.625 C-10 8.9375 -10 8.9375 -10.1875 6.625 C-3.93127224 -0.67393238 -3.93127224 -0.67393238 0 0 Z " fill="#4C4F53" transform="translate(521.1875,288.375)"/>
<path d="M0 0 C-3.55778921 3.55778921 -8.64709495 3.95168196 -13.5 4.125 C-14.325 4.08375 -15.15 4.0425 -16 4 C-16.33 3.34 -16.66 2.68 -17 2 C-11.23918159 0.7017874 -5.91260345 -0.25706972 0 0 Z " fill="#2464E4" transform="translate(213,349)"/>
<path d="M0 0 C1.72985242 0.11512153 3.45888751 0.24255677 5.1875 0.375 C6.15042969 0.44460938 7.11335937 0.51421875 8.10546875 0.5859375 C11.01508938 1.00215853 13.32890774 1.79874096 16 3 C16 3.33 16 3.66 16 4 C9.80112515 4.37952295 5.5522888 3.8352113 0 1 C0 0.67 0 0.34 0 0 Z " fill="#4C4E52" transform="translate(765,330)"/>
<path d="M0 0 C0.66 0.33 1.32 0.66 2 1 C2 5.29 2 9.58 2 14 C0.02 14.99 0.02 14.99 -2 16 C-1.7525 15.18595703 -1.7525 15.18595703 -1.5 14.35546875 C-0.91663093 11.60725352 -0.94004477 9.11915442 -1 6.3125 C-1.03751917 4.54206418 -1.04681559 2.77021439 -1 1 C-0.67 0.67 -0.34 0.34 0 0 Z " fill="#535558" transform="translate(911,298)"/>
<path d="M0 0 C3.63 0 7.26 0 11 0 C10.67 2.64 10.34 5.28 10 8 C9.67 8 9.34 8 9 8 C9 6.02 9 4.04 9 2 C5.7 2.33 2.4 2.66 -1 3 C-0.67 2.01 -0.34 1.02 0 0 Z " fill="#545557" transform="translate(734,254)"/>
<path d="M0 0 C0.33 0.99 0.66 1.98 1 3 C-1.97 5.97 -4.94 8.94 -8 12 C-8.99 11.67 -9.98 11.34 -11 11 C-7.37 7.37 -3.74 3.74 0 0 Z " fill="#567BDD" transform="translate(198,247)"/>
<path d="M0 0 C-3.0657052 4.65987191 -5.58657319 5.85485202 -11 7 C-10.8125 5.1875 -10.8125 5.1875 -10 3 C-6.62712264 0.37665094 -4.24348127 -0.36372697 0 0 Z " fill="#DD4739" transform="translate(136,234)"/>
<path d="M0 0 C0.33 0.66 0.66 1.32 1 2 C-1.14712285 6.96522159 -4.6252119 9.11098899 -9 12 C-9.66 11.67 -10.32 11.34 -11 11 C-7.33333333 7.33333333 -3.66666667 3.66666667 0 0 Z " fill="#49A442" transform="translate(116,329)"/>
<path d="M0 0 C0.99 0.66 1.98 1.32 3 2 C1.68 2 0.36 2 -1 2 C-1.24492188 2.58265625 -1.48984375 3.1653125 -1.7421875 3.765625 C-3.20435874 6.36302236 -4.84740414 7.83975831 -7.125 9.75 C-8.21167969 10.67039062 -8.21167969 10.67039062 -9.3203125 11.609375 C-9.87460938 12.06828125 -10.42890625 12.5271875 -11 13 C-11 12.01 -11 11.02 -11 10 C-10.34 10 -9.68 10 -9 10 C-9 9.01 -9 8.02 -9 7 C-7.1875 4.8125 -7.1875 4.8125 -5 3 C-4.01 3 -3.02 3 -2 3 C-2 2.34 -2 1.68 -2 1 C-1.34 0.67 -0.68 0.34 0 0 Z " fill="#A9B528" transform="translate(122,322)"/>
<path d="M0 0 C2.6015625 -0.29296875 2.6015625 -0.29296875 5.625 -0.1875 C7.12933594 -0.14689453 7.12933594 -0.14689453 8.6640625 -0.10546875 C9.43492187 -0.07066406 10.20578125 -0.03585937 11 0 C11.33 0.66 11.66 1.32 12 2 C9.23547967 3.38226016 6.9538637 3.09525387 3.875 3.0625 C2.77929688 3.05347656 1.68359375 3.04445313 0.5546875 3.03515625 C-0.70988281 3.01775391 -0.70988281 3.01775391 -2 3 C-1.34 2.01 -0.68 1.02 0 0 Z " fill="#3B3D3F" transform="translate(540,277)"/>
<path d="M0 0 C2.65269897 2.47585238 4.68010103 4.59026101 6 8 C6 8.99 6 9.98 6 11 C2.67631776 9.89210592 2.38436907 9.51563783 0.75 6.625 C0.39421875 6.01914063 0.0384375 5.41328125 -0.328125 4.7890625 C-1 3 -1 3 0 0 Z " fill="#3972E4" transform="translate(209,248)"/>
<path d="M0 0 C-1.23734984 1.03613033 -2.49044637 2.05347802 -3.75 3.0625 C-4.79414062 3.91521484 -4.79414062 3.91521484 -5.859375 4.78515625 C-8 6 -8 6 -10.265625 5.68359375 C-10.83796875 5.45800781 -11.4103125 5.23242188 -12 5 C-11.01 4.67 -10.02 4.34 -9 4 C-8.67 3.01 -8.34 2.02 -8 1 C-4.68510482 -0.74468167 -3.63361056 -1.21120352 0 0 Z " fill="#535559" transform="translate(628,326)"/>
<path d="M0 0 C5.32187227 1.21376034 10.03906272 2.72623708 15 5 C15 5.66 15 6.32 15 7 C13.51882199 6.71872579 12.04006751 6.42466268 10.5625 6.125 C9.73878906 5.96257812 8.91507813 5.80015625 8.06640625 5.6328125 C7.38449219 5.42398437 6.70257812 5.21515625 6 5 C5.67 4.34 5.34 3.68 5 3 C2.47266765 2.34444881 2.47266765 2.34444881 0 2 C0 1.34 0 0.68 0 0 Z " fill="#4D5054" transform="translate(526,275)"/>
<path d="M0 0 C9.98278206 0.63072043 9.98278206 0.63072043 14 4 C14 4.99 14 5.98 14 7 C13.34 7 12.68 7 12 7 C12 6.34 12 5.68 12 5 C11.30132812 4.80664062 10.60265625 4.61328125 9.8828125 4.4140625 C8.51769531 4.02347656 8.51769531 4.02347656 7.125 3.625 C5.76761719 3.24214844 5.76761719 3.24214844 4.3828125 2.8515625 C2 2 2 2 0 0 Z " fill="#2A6DE6" transform="translate(195,291)"/>
<path d="M0 0 C0.99 0.33 1.98 0.66 3 1 C2.01 1.495 2.01 1.495 1 2 C0.566875 2.99 0.566875 2.99 0.125 4 C-1 6 -1 6 -2.9375 6.875 C-5 7 -5 7 -8 5 C-8 4.34 -8 3.68 -8 3 C-6.576875 3.0928125 -6.576875 3.0928125 -5.125 3.1875 C-3.578125 3.0946875 -3.578125 3.0946875 -2 3 C-1.34 2.01 -0.68 1.02 0 0 Z " fill="#434546" transform="translate(355,260)"/>
<path d="M0 0 C0 0.99 0 1.98 0 3 C-3.79541663 5.21399303 -7.75629421 6.00980198 -12 7 C-12 6.34 -12 5.68 -12 5 C-8.04 3.35 -4.08 1.7 0 0 Z " fill="#E43327" transform="translate(144,228)"/>
<path d="M0 0 C0.721875 0.763125 1.44375 1.52625 2.1875 2.3125 C4.83926978 5.044086 4.83926978 5.044086 7.8125 6.6875 C8.534375 7.120625 9.25625 7.55375 10 8 C10 8.66 10 9.32 10 10 C7.087425 9.91433603 5.43201976 9.42089045 3.33203125 7.375 C1.83908228 5.61608625 0.39563738 3.83686981 -1 2 C-0.67 1.34 -0.34 0.68 0 0 Z " fill="#54585B" transform="translate(511,337)"/>
<path d="M0 0 C-0.33214151 3.09998746 -1.0545012 4.0545012 -3.3125 6.3125 C-6 8 -6 8 -8.3125 7.75 C-8.869375 7.5025 -9.42625 7.255 -10 7 C-9.67 6.01 -9.34 5.02 -9 4 C-7.02 4.495 -7.02 4.495 -5 5 C-5 4.34 -5 3.68 -5 3 C-2.46153846 0 -2.46153846 0 0 0 Z " fill="#515354" transform="translate(724,265)"/>
<path d="M0 0 C3.63 0 7.26 0 11 0 C11.33 1.65 11.66 3.3 12 5 C11.34 4.34 10.68 3.68 10 3 C7.56747339 2.53837573 7.56747339 2.53837573 4.875 2.375 C3.96492187 2.30023438 3.05484375 2.22546875 2.1171875 2.1484375 C1.41851563 2.09945313 0.71984375 2.05046875 0 2 C0 1.34 0 0.68 0 0 Z " fill="#56585A" transform="translate(911,254)"/>
<path d="M0 0 C-3.05416813 1.01805604 -5.17936961 1.13375515 -8.375 1.125 C-9.77878906 1.12886719 -9.77878906 1.12886719 -11.2109375 1.1328125 C-13.90729747 1.00441441 -16.37271509 0.60188709 -19 0 C-19 -0.33 -19 -0.66 -19 -1 C-12.18597425 -2.05268874 -6.63198569 -1.93833398 0 0 Z " fill="#DD493C" transform="translate(173,254)"/>
<path d="M0 0 C3.63 1.32 7.26 2.64 11 4 C11 4.66 11 5.32 11 6 C9.02 6 7.04 6 5 6 C5 5.34 5 4.68 5 4 C3.68 4 2.36 4 1 4 C0.67 2.68 0.34 1.36 0 0 Z " fill="#E13226" transform="translate(179,228)"/>
<path d="M0 0 C2.97851562 0.390625 2.97851562 0.390625 5.95703125 0.78125 C8.15471706 1.053233 8.15471706 1.053233 11 1 C11 1.66 11 2.32 11 3 C8.01405576 4.49297212 5.29146376 4.11755228 2 4 C1.34 3.67 0.68 3.34 0 3 C0 2.01 0 1.02 0 0 Z " fill="#3E4043" transform="translate(911,329)"/>
<path d="M0 0 C0 0.66 0 1.32 0 2 C-1.6232687 2.6708712 -3.24867578 3.33657029 -4.875 4 C-6.23238281 4.556875 -6.23238281 4.556875 -7.6171875 5.125 C-10 6 -10 6 -12 6 C-11.67 5.01 -11.34 4.02 -11 3 C-9.00390625 2.05078125 -9.00390625 2.05078125 -6.5625 1.3125 C-5.75941406 1.06113281 -4.95632813 0.80976563 -4.12890625 0.55078125 C-2 0 -2 0 0 0 Z " fill="#484A4D" transform="translate(420,328)"/>
<path d="M0 0 C0.99 0 1.98 0 3 0 C2.29748724 3.16130743 1.45140033 6.09719933 0 9 C-2.125 10.3125 -2.125 10.3125 -4 11 C-3.71125 10.29875 -3.4225 9.5975 -3.125 8.875 C-1.97866412 5.94547497 -0.97374346 2.99078347 0 0 Z " fill="#56595B" transform="translate(356,300)"/>
<path d="M0 0 C0 0.66 0 1.32 0 2 C-5.29230769 5.07692308 -5.29230769 5.07692308 -8.875 4.6875 C-9.57625 4.460625 -10.2775 4.23375 -11 4 C-7.61125486 1.74083657 -4.15175481 0 0 0 Z " fill="#4B4D4F" transform="translate(523,275)"/>
<path d="M0 0 C1.60517097 0.08733576 3.20921662 0.19552224 4.8125 0.3125 C6.15248047 0.39951172 6.15248047 0.39951172 7.51953125 0.48828125 C10.30604 1.06313581 11.24135754 1.8206856 13 4 C12.01 4.495 12.01 4.495 11 5 C9.32700041 4.34938905 7.66140763 3.67966676 6 3 C4.0075675 2.62406934 2.0081326 2.28020455 0 2 C0 1.34 0 0.68 0 0 Z " fill="#DD2D28" transform="translate(165,254)"/>
<path d="M0 0 C3.3 0 6.6 0 10 0 C10 0.66 10 1.32 10 2 C7.02148438 2.34179688 7.02148438 2.34179688 4.04296875 2.68359375 C1.80603607 2.97170735 1.80603607 2.97170735 -1 4 C-0.67 2.68 -0.34 1.36 0 0 Z " fill="#484A4C" transform="translate(560,247)"/>
<path d="M0 0 C-1.24176695 0.70226141 -2.49385599 1.38629109 -3.75 2.0625 C-4.79414062 2.63677734 -4.79414062 2.63677734 -5.859375 3.22265625 C-8.36140628 4.1312406 -9.5332355 3.88336837 -12 3 C-12 2.34 -12 1.68 -12 1 C-10.37681021 0.63762737 -8.7513642 0.28534843 -7.125 -0.0625 C-6.22007812 -0.25972656 -5.31515625 -0.45695312 -4.3828125 -0.66015625 C-2 -1 -2 -1 0 0 Z " fill="#4E4F51" transform="translate(848,330)"/>
<path d="M0 0 C0.7425 0.763125 1.485 1.52625 2.25 2.3125 C4.823554 4.95571199 4.823554 4.95571199 7.3125 6.6875 C7.869375 7.120625 8.42625 7.55375 9 8 C9 8.66 9 9.32 9 10 C5.66670261 8.82884146 3.13594373 7.88352404 1 5 C0.3125 2.3125 0.3125 2.3125 0 0 Z " fill="#57595D" transform="translate(764,313)"/>
<path d="M0 0 C2.475 0.99 2.475 0.99 5 2 C5 2.99 5 3.98 5 5 C4.2575 4.79375 3.515 4.5875 2.75 4.375 C-0.32330841 3.95591249 -1.42786866 4.38050989 -4 6 C-2.84826645 3.53199953 -1.95216435 1.95216435 0 0 Z " fill="#515356" transform="translate(620,313)"/>
<path d="M0 0 C-0.33 0.99 -0.66 1.98 -1 3 C-3.28515625 3.94921875 -3.28515625 3.94921875 -6.0625 4.6875 C-7.44115234 5.06455078 -7.44115234 5.06455078 -8.84765625 5.44921875 C-9.55792969 5.63097656 -10.26820313 5.81273437 -11 6 C-11 5.34 -11 4.68 -11 4 C-10.01 4 -9.02 4 -8 4 C-8 3.34 -8 2.68 -8 2 C-2.25 0 -2.25 0 0 0 Z " fill="#545658" transform="translate(610,306)"/>
<path d="M0 0 C3.91402949 1.26941497 5.79072873 2.51167694 8 6 C7.01 6.33 6.02 6.66 5 7 C2.3125 5.25 2.3125 5.25 0 3 C0 2.01 0 1.02 0 0 Z " fill="#F2BA16" transform="translate(138,293)"/>
<path d="M0 0 C0.33 0.66 0.66 1.32 1 2 C-2.3 2.66 -5.6 3.32 -9 4 C-9.33 3.34 -9.66 2.68 -10 2 C-6.5980513 -0.09350689 -3.94727588 -0.17942163 0 0 Z " fill="#4E5153" transform="translate(899,285)"/>
<path d="M0 0 C-1.5277867 3.43752007 -3.50181056 6.18953688 -6 9 C-6.66 9 -7.32 9 -8 9 C-7.67 7.35 -7.34 5.7 -7 4 C-6.34 4 -5.68 4 -5 4 C-5 3.34 -5 2.68 -5 2 C-2 0 -2 0 0 0 Z " fill="#535558" transform="translate(678,268)"/>
<path d="M0 0 C-2.85478326 1.90318884 -4.41941308 2.4619099 -7.6875 3.125 C-8.49574219 3.29257812 -9.30398438 3.46015625 -10.13671875 3.6328125 C-10.75160156 3.75398438 -11.36648438 3.87515625 -12 4 C-12 3.01 -12 2.02 -12 1 C-7.93631321 0.22596442 -4.13574827 -0.0984702 0 0 Z " fill="#4A4C4F" transform="translate(349,330)"/>
<path d="M0 0 C0.66 0.33 1.32 0.66 2 1 C-0.18678905 3.52709628 -2.37232162 5.92608855 -5 8 C-7.9375 7.9375 -7.9375 7.9375 -10 7 C-9.360625 6.71125 -8.72125 6.4225 -8.0625 6.125 C-5.84793921 5.17176549 -5.84793921 5.17176549 -5 3 C-2.5625 1.3125 -2.5625 1.3125 0 0 Z " fill="#F1B506" transform="translate(151,293)"/>
<path d="M0 0 C-1 2 -1 2 -4.3125 3.125 C-8 4 -8 4 -12 4 C-12 3.34 -12 2.68 -12 2 C-7.8803623 0.70756464 -4.33168317 -0.26252625 0 0 Z " fill="#55585C" transform="translate(608,287)"/>
<path d="M0 0 C2.97 0.495 2.97 0.495 6 1 C6 1.66 6 2.32 6 3 C7.65 3.33 9.3 3.66 11 4 C10.01 4.66 9.02 5.32 8 6 C5.36 4.68 2.72 3.36 0 2 C0 1.34 0 0.68 0 0 Z " fill="#2A9B4F" transform="translate(105,345)"/>
<path d="M0 0 C0.33 0 0.66 0 1 0 C1.38855926 2.4568901 1.76130088 4.91441833 2.125 7.375 C2.23714844 8.07367188 2.34929687 8.77234375 2.46484375 9.4921875 C2.72816466 11.31787914 2.8718116 13.1598762 3 15 C2.34 15.66 1.68 16.32 1 17 C-0.53266582 13.93466836 -0.10276471 10.73245728 -0.0625 7.375 C-0.05798828 6.66859375 -0.05347656 5.9621875 -0.04882812 5.234375 C-0.03703875 3.48954725 -0.01910324 1.744763 0 0 Z " fill="#4D4F58" transform="translate(387,298)"/>
<path d="M0 0 C0.66 0.99 1.32 1.98 2 3 C1.67 3.99 1.34 4.98 1 6 C0.13375 5.071875 0.13375 5.071875 -0.75 4.125 C-2.80249821 2.18652947 -4.43366582 1.09985751 -7 0 C-4.27584084 -1.36207958 -2.87220643 -0.86166193 0 0 Z " fill="#404144" transform="translate(535,289)"/>
<path d="M0 0 C1.32 0 2.64 0 4 0 C4 0.99 4 1.98 4 3 C5.32 3.66 6.64 4.32 8 5 C8 5.99 8 6.98 8 8 C7.34 8 6.68 8 6 8 C4.64613064 6.34997172 3.31321858 4.6825613 2 3 C1.34 2.67 0.68 2.34 0 2 C0 1.34 0 0.68 0 0 Z " fill="#535558" transform="translate(471,289)"/>
<path d="M0 0 C0.99 0 1.98 0 3 0 C3.33 2.64 3.66 5.28 4 8 C2.68 8 1.36 8 0 8 C0 5.36 0 2.72 0 0 Z " fill="#34A2EE" transform="translate(194,282)"/>
<path d="M0 0 C1.64666203 0.1135629 3.29236082 0.24117381 4.9375 0.375 C5.85402344 0.44460938 6.77054687 0.51421875 7.71484375 0.5859375 C8.84599609 0.79089844 8.84599609 0.79089844 10 1 C10.33 1.66 10.66 2.32 11 3 C7.70303895 4.09898702 6.59505097 3.87124444 3.3125 3.0625 C2.10013672 2.77052734 2.10013672 2.77052734 0.86328125 2.47265625 C-0.05904297 2.23869141 -0.05904297 2.23869141 -1 2 C-0.67 1.34 -0.34 0.68 0 0 Z " fill="#505456" transform="translate(401,287)"/>
<path d="M0 0 C6.19887485 -0.37952295 10.4477112 0.1647887 16 3 C12.15758823 4.28080392 10.77882797 3.30805584 7 2 C4.67305036 1.62468554 2.34023315 1.28082798 0 1 C0 0.67 0 0.34 0 0 Z " fill="#F7BC21" transform="translate(133,266)"/>
<path d="M0 0 C0.33 0.99 0.66 1.98 1 3 C-4.625 6 -4.625 6 -8 6 C-8 5.34 -8 4.68 -8 4 C-6.68 4 -5.36 4 -4 4 C-3.67 3.01 -3.34 2.02 -3 1 C-2.01 0.67 -1.02 0.34 0 0 Z " fill="#525457" transform="translate(716,326)"/>
<path d="M0 0 C1.65 0 3.3 0 5 0 C0.375 4.875 0.375 4.875 -3 6 C-2.67 4.68 -2.34 3.36 -2 2 C-1.34 2 -0.68 2 0 2 C0 1.34 0 0.68 0 0 Z " fill="#4E5054" transform="translate(481,325)"/>
<path d="M0 0 C3.317124 4.422832 3.30466674 5.71910976 3 11 C2.01 10.67 1.02 10.34 0 10 C0 6.7 0 3.4 0 0 Z " fill="#666769" transform="translate(571,320)"/>
<path d="M0 0 C-1.23955495 3.71866485 -3.18554854 5.32283886 -6 8 C-6.66 8.66 -7.32 9.32 -8 10 C-8.33 9.01 -8.66 8.02 -9 7 C-8.34 7 -7.68 7 -7 7 C-6.731875 6.21625 -6.46375 5.4325 -6.1875 4.625 C-4.80518115 1.56934781 -3.53283878 0 0 0 Z " fill="#4D4F52" transform="translate(772,288)"/>
<path d="M0 0 C0.99 0.33 1.98 0.66 3 1 C-1.75 5 -1.75 5 -4 5 C-4.33 5.66 -4.66 6.32 -5 7 C-5.33 6.34 -5.66 5.68 -6 5 C-2.25 1.125 -2.25 1.125 0 0 Z " fill="#46494B" transform="translate(396,288)"/>
<path d="M0 0 C5.94 0.99 5.94 0.99 12 2 C12 2.66 12 3.32 12 4 C7.24792529 4.43200679 4.21789302 2.98489083 0 1 C0 0.67 0 0.34 0 0 Z " fill="#46474B" transform="translate(332,244)"/>
<path d="M0 0 C0.268125 0.639375 0.53625 1.27875 0.8125 1.9375 C1.88667752 4.33131686 1.88667752 4.33131686 5 5 C5.33 6.65 5.66 8.3 6 10 C5.34 10 4.68 10 4 10 C1.1605948 6.32547562 0 4.73113419 0 0 Z " fill="#505256" transform="translate(289,307)"/>
<path d="M0 0 C0.66 0 1.32 0 2 0 C3.60355101 3.50776784 4.22036864 6.14354879 4 10 C3.34 10 2.68 10 2 10 C1.34 6.7 0.68 3.4 0 0 Z " fill="#4F5257" transform="translate(537,293)"/>
<path d="M0 0 C0 0.66 0 1.32 0 2 C-4.01804691 2.84098656 -7.01803543 3.05404945 -11 2 C-11 1.67 -11 1.34 -11 1 C-7.26562152 0.12132271 -3.83225427 -0.08912219 0 0 Z " fill="#545457" transform="translate(782,276)"/>
<path d="M0 0 C0.99 0.33 1.98 0.66 3 1 C3.1953125 7.0546875 3.1953125 7.0546875 3 9 C2.34 9.66 1.68 10.32 1 11 C0.67 7.37 0.34 3.74 0 0 Z " fill="#555959" transform="translate(571,247)"/>
<path d="M0 0 C1.98 0.99 3.96 1.98 6 3 C6 3.66 6 4.32 6 5 C6.99 5.33 7.98 5.66 9 6 C8.01 6.495 8.01 6.495 7 7 C1.125 3.375 1.125 3.375 0 0 Z " fill="#50525A" transform="translate(383,325)"/>
<path d="M0 0 C0.33 0 0.66 0 1 0 C0.88590407 1.45922693 0.75834456 2.91740598 0.625 4.375 C0.55539063 5.18710937 0.48578125 5.99921875 0.4140625 6.8359375 C0 9 0 9 -2 11 C-1.85957123 9.35369672 -1.71250671 7.70795821 -1.5625 6.0625 C-1.48128906 5.14597656 -1.40007812 4.22945313 -1.31640625 3.28515625 C-1 1 -1 1 0 0 Z " fill="#3F79E6" transform="translate(213,306)"/>
<path d="M0 0 C2.31 0.33 4.62 0.66 7 1 C7 1.33 7 1.66 7 2 C5.02 2 3.04 2 1 2 C0.67 2.99 0.34 3.98 0 5 C-0.66 4.67 -1.32 4.34 -2 4 C-1.34 2.68 -0.68 1.36 0 0 Z " fill="#454748" transform="translate(330,284)"/>
<path d="M0 0 C-3.8503105 2.56687367 -5.58569763 1.83288724 -10 1 C-6.42181037 -1.33958553 -4.07775191 -0.9267618 0 0 Z " fill="#67B447" transform="translate(131,324)"/>
<path d="M0 0 C2.64 0 5.28 0 8 0 C8 0.99 8 1.98 8 3 C5.36 3 2.72 3 0 3 C0 2.01 0 1.02 0 0 Z " fill="#4B4E52" transform="translate(460,320)"/>
<path d="M0 0 C3.78496138 1.51398455 4.0072198 2.0144396 6 6 C3.36 4.68 0.72 3.36 -2 2 C-1.34 1.34 -0.68 0.68 0 0 Z " fill="#4B4C4C" transform="translate(718,312)"/>
<path d="M0 0 C0.66 0.33 1.32 0.66 2 1 C1.1875 2.9375 1.1875 2.9375 0 5 C-0.99 5.33 -1.98 5.66 -3 6 C-3.66 5.67 -4.32 5.34 -5 5 C-4 2 -4 2 -2.0625 0.75 C-1.381875 0.5025 -0.70125 0.255 0 0 Z " fill="#DD4737" transform="translate(146,255)"/>
<path d="M0 0 C0.33 0.66 0.66 1.32 1 2 C0.67 2.99 0.34 3.98 0 5 C-3.5625 6.1875 -3.5625 6.1875 -7 7 C-4.78071806 4.09197539 -3.07030857 2.04687238 0 0 Z " fill="#DF422E" transform="translate(125,238)"/>
<path d="M0 0 C2 3 2 3 2 5 C2.66 5 3.32 5 4 5 C4.33 6.32 4.66 7.64 5 9 C4.01 8.67 3.02 8.34 2 8 C0.3125 4.4375 0.3125 4.4375 -1 1 C-0.67 0.67 -0.34 0.34 0 0 Z " fill="#535458" transform="translate(658,307)"/>
<path d="M0 0 C0.33 0.99 0.66 1.98 1 3 C-0.96466413 4.06775224 -2.96855359 5.06553465 -5 6 C-5.66 5.67 -6.32 5.34 -7 5 C-5.75 3.5 -5.75 3.5 -4 2 C-2.68 2 -1.36 2 0 2 C0 1.34 0 0.68 0 0 Z " fill="#58595B" transform="translate(620,300)"/>
<path d="M0 0 C2.9375 0.75 2.9375 0.75 6 2 C6.875 4.125 6.875 4.125 7 6 C3.63279613 4.60667426 2.0140476 3.0210714 0 0 Z " fill="#4C5052" transform="translate(901,287)"/>
<path d="M0 0 C0.33 0 0.66 0 1 0 C1.66 2.31 2.32 4.62 3 7 C1.125 6.6875 1.125 6.6875 -1 6 C-1.66 5.01 -2.32 4.02 -3 3 C-2.34 3 -1.68 3 -1 3 C-0.67 2.01 -0.34 1.02 0 0 Z " fill="#4379DE" transform="translate(186,259)"/>
<path d="M0 0 C1.98 0 3.96 0 6 0 C5 2 5 2 2.625 3.1875 C0 4 0 4 -3 3 C-2.34 3 -1.68 3 -1 3 C-0.67 2.01 -0.34 1.02 0 0 Z " fill="#E02E24" transform="translate(148,255)"/>
<path d="M0 0 C4.455 0.99 4.455 0.99 9 2 C9 2.33 9 2.66 9 3 C6.03 3 3.06 3 0 3 C0 2.01 0 1.02 0 0 Z " fill="#E02E22" transform="translate(169,226)"/>
<path d="M0 0 C3.625 0.375 3.625 0.375 7 1 C6.01 2.485 6.01 2.485 5 4 C2.69 3.34 0.38 2.68 -2 2 C-1.34 1.34 -0.68 0.68 0 0 Z " fill="#20A237" transform="translate(116,349)"/>
<path d="M0 0 C0.66 0.66 1.32 1.32 2 2 C1.67 2.66 1.34 3.32 1 4 C-2.0625 4.625 -2.0625 4.625 -5 5 C-4 2 -4 2 -1.9375 0.8125 C-1.298125 0.544375 -0.65875 0.27625 0 0 Z " fill="#56595D" transform="translate(905,319)"/>
<path d="M0 0 C2.64 0.66 5.28 1.32 8 2 C8 2.66 8 3.32 8 4 C5.69 3.67 3.38 3.34 1 3 C0.67 2.01 0.34 1.02 0 0 Z " fill="#55585B" transform="translate(680,319)"/>
<path d="M0 0 C0 0.99 0 1.98 0 3 C-2 4.6875 -2 4.6875 -4 6 C-4.66 5.67 -5.32 5.34 -6 5 C-6 4.34 -6 3.68 -6 3 C-2.53846154 0 -2.53846154 0 0 0 Z " fill="#555859" transform="translate(717,314)"/>
<path d="M0 0 C0.33 0 0.66 0 1 0 C1 2.64 1 5.28 1 8 C0.67 7.34 0.34 6.68 0 6 C-0.66 6 -1.32 6 -2 6 C-1.125 1.125 -1.125 1.125 0 0 Z " fill="#686A6D" transform="translate(437,304)"/>
<path d="M0 0 C0.33 0.66 0.66 1.32 1 2 C0.34 2 -0.32 2 -1 2 C-1 2.66 -1 3.32 -1 4 C-2.65 4 -4.3 4 -6 4 C-6.33 3.34 -6.66 2.68 -7 2 C-4.69 1.34 -2.38 0.68 0 0 Z " fill="#494B4D" transform="translate(460,275)"/>
<path d="M0 0 C-0.9977758 2.99332739 -1.7522025 3.94766315 -4 6 C-4.99 5.67 -5.98 5.34 -7 5 C-2.25 0 -2.25 0 0 0 Z " fill="#48494D" transform="translate(312,263)"/>
<path d="M0 0 C2.9375 0.375 2.9375 0.375 6 1 C6.33 1.66 6.66 2.32 7 3 C6.34 3.66 5.68 4.32 5 5 C2.5 3.625 2.5 3.625 0 2 C0 1.34 0 0.68 0 0 Z " fill="#4E5058" transform="translate(340,259)"/>
</svg>
