<svg width="409" height="271" viewBox="0 0 409 271" fill="none" xmlns="http://www.w3.org/2000/svg">
<path d="M0 28.9655C0 12.9683 12.9683 0 28.9655 0H379.787C395.784 0 408.752 12.9683 408.752 28.9655V241.371C408.752 257.368 395.784 270.336 379.787 270.336H28.9655C12.9683 270.336 0 257.368 0 241.371V28.9655Z" fill="#FFF7ED"/>
<g filter="url(#filter0_dd_3311_6463)">
<mask id="path-2-inside-1_3311_6463" fill="white">
<path d="M19.2979 36.1944C19.2979 26.8627 26.8627 19.2979 36.1944 19.2979H372.558C381.89 19.2979 389.455 26.8627 389.455 36.1944V234.142C389.455 243.474 381.89 251.039 372.558 251.039H36.1944C26.8627 251.039 19.2979 243.474 19.2979 234.142V36.1944Z"/>
</mask>
<path d="M19.2979 36.1944C19.2979 26.8627 26.8627 19.2979 36.1944 19.2979H372.558C381.89 19.2979 389.455 26.8627 389.455 36.1944V234.142C389.455 243.474 381.89 251.039 372.558 251.039H36.1944C26.8627 251.039 19.2979 243.474 19.2979 234.142V36.1944Z" fill="white" fill-opacity="0.8" shape-rendering="crispEdges"/>
<path d="M36.1944 19.2979V20.6388H372.558V19.2979V17.9569H36.1944V19.2979ZM389.455 36.1944H388.114V234.142H389.455H390.796V36.1944H389.455ZM372.558 251.039V249.698H36.1944V251.039V252.38H372.558V251.039ZM19.2979 234.142H20.6388V36.1944H19.2979H17.9569V234.142H19.2979ZM36.1944 251.039V249.698C27.6033 249.698 20.6388 242.733 20.6388 234.142H19.2979H17.9569C17.9569 244.215 26.1221 252.38 36.1944 252.38V251.039ZM389.455 234.142H388.114C388.114 242.733 381.149 249.698 372.558 249.698V251.039V252.38C382.631 252.38 390.796 244.215 390.796 234.142H389.455ZM372.558 19.2979V20.6388C381.149 20.6388 388.114 27.6033 388.114 36.1944H389.455H390.796C390.796 26.1221 382.631 17.9569 372.558 17.9569V19.2979ZM36.1944 19.2979V17.9569C26.1221 17.9569 17.9569 26.1221 17.9569 36.1944H19.2979H20.6388C20.6388 27.6033 27.6033 20.6388 36.1944 20.6388V19.2979Z" fill="white" mask="url(#path-2-inside-1_3311_6463)"/>
<path d="M44.7764 61.6546C44.7764 57.6564 48.0175 54.4153 52.0157 54.4153H192.003C196.001 54.4153 199.242 57.6564 199.242 61.6546C199.242 65.6527 196.001 68.8939 192.003 68.8939H52.0157C48.0175 68.8939 44.7764 65.6527 44.7764 61.6546Z" fill="#1D293D"/>
<path d="M52.1238 109.221V110.303H45.8795V109.221H48.4183V101.555L46.1695 103.161V101.958L48.5243 100.339H49.6982V109.221H52.1238ZM60.2845 107.057C60.2845 108.108 59.971 108.936 59.344 109.539C58.7217 110.143 57.8566 110.444 56.7487 110.444C55.8199 110.444 55.0703 110.242 54.4999 109.836C53.9295 109.431 53.5688 108.844 53.4179 108.075L54.705 107.927C54.8417 108.417 55.0821 108.787 55.4263 109.037C55.7704 109.282 56.2207 109.405 56.777 109.405C57.4606 109.405 57.9957 109.2 58.3822 108.79C58.7688 108.375 58.9621 107.807 58.9621 107.085C58.9621 106.458 58.7665 105.952 58.3752 105.565C57.9886 105.178 57.4653 104.985 56.8053 104.985C56.4611 104.985 56.1405 105.039 55.8435 105.148C55.5465 105.256 55.2495 105.44 54.9525 105.699H53.7079L54.0402 100.339H59.7046V101.421H55.2L55.0091 104.582C55.5606 104.158 56.2466 103.946 57.0669 103.946C57.7222 103.946 58.2903 104.078 58.7712 104.342C59.2521 104.601 59.6245 104.964 59.8885 105.431C60.1525 105.897 60.2845 106.439 60.2845 107.057ZM72.3771 106.47C72.3771 107.809 72.0824 108.806 71.4931 109.461C70.9038 110.117 70.0481 110.444 68.9261 110.444C67.8088 110.444 66.9649 110.105 66.3944 109.426C65.824 108.742 65.5388 107.757 65.5388 106.47C65.5388 105.15 65.824 104.16 66.3944 103.5C66.9696 102.84 67.8276 102.51 68.9685 102.51C70.1377 102.51 70.9981 102.833 71.5497 103.479C72.1013 104.12 72.3771 105.117 72.3771 106.47ZM71.0405 106.47C71.0405 105.414 70.8826 104.648 70.5667 104.172C70.2556 103.691 69.7299 103.451 68.9897 103.451C68.2448 103.451 67.705 103.696 67.3703 104.186C67.0403 104.672 66.8753 105.433 66.8753 106.47C66.8753 107.479 67.038 108.238 67.3632 108.747C67.6933 109.252 68.2095 109.504 68.9119 109.504C69.6757 109.504 70.2202 109.259 70.5455 108.768C70.8755 108.278 71.0405 107.512 71.0405 106.47ZM75.5452 103.578V110.303H74.2723V103.578H73.1974V102.651H74.2723V101.789C74.2723 101.091 74.4255 100.589 74.7319 100.282C75.0384 99.976 75.5074 99.8228 76.1392 99.8228C76.4928 99.8228 76.7921 99.8511 77.0373 99.9076V100.876C76.811 100.839 76.6224 100.82 76.4715 100.82C76.1462 100.82 75.9105 100.902 75.7644 101.067C75.6182 101.232 75.5452 101.532 75.5452 101.965V102.651H77.0373V103.578H75.5452ZM88.4014 109.221V110.303H82.1572V109.221H84.6959V101.555L82.4471 103.161V101.958L84.802 100.339H85.9759V109.221H88.4014ZM96.5621 107.057C96.5621 108.108 96.2486 108.936 95.6216 109.539C94.9993 110.143 94.1342 110.444 93.0263 110.444C92.0976 110.444 91.348 110.242 90.7775 109.836C90.2071 109.431 89.8464 108.844 89.6955 108.075L90.9826 107.927C91.1193 108.417 91.3597 108.787 91.7039 109.037C92.0481 109.282 92.4983 109.405 93.0546 109.405C93.7382 109.405 94.2733 109.2 94.6599 108.79C95.0464 108.375 95.2397 107.807 95.2397 107.085C95.2397 106.458 95.0441 105.952 94.6528 105.565C94.2662 105.178 93.7429 104.985 93.0829 104.985C92.7387 104.985 92.4181 105.039 92.1211 105.148C91.8241 105.256 91.5271 105.44 91.2301 105.699H89.9855L90.3179 100.339H95.9823V101.421H91.4776L91.2867 104.582C91.8383 104.158 92.5242 103.946 93.3445 103.946C93.9998 103.946 94.5679 104.078 95.0488 104.342C95.5297 104.601 95.9021 104.964 96.1661 105.431C96.4301 105.897 96.5621 106.439 96.5621 107.057ZM103.45 99.8086V101.025H102.177V99.8086H103.45ZM103.45 102.651V110.303H102.177V102.651H103.45ZM108.351 110.246C107.936 110.36 107.507 110.416 107.064 110.416C106.554 110.416 106.173 110.272 105.918 109.985C105.663 109.692 105.536 109.259 105.536 108.684V103.578H104.652V102.651H105.586L105.96 100.94H106.809V102.651H108.223V103.578H106.809V108.408C106.809 108.776 106.868 109.035 106.986 109.186C107.108 109.332 107.318 109.405 107.615 109.405C107.775 109.405 108.021 109.372 108.351 109.306V110.246ZM110.416 106.746C110.416 107.623 110.597 108.299 110.96 108.776C111.323 109.252 111.853 109.49 112.551 109.49C113.103 109.49 113.544 109.379 113.874 109.157C114.208 108.936 114.435 108.655 114.552 108.316L115.67 108.634C115.212 109.841 114.173 110.444 112.551 110.444C111.42 110.444 110.557 110.107 109.963 109.433C109.374 108.759 109.079 107.757 109.079 106.428C109.079 105.164 109.374 104.195 109.963 103.521C110.557 102.847 111.403 102.51 112.502 102.51C113.628 102.51 114.472 102.849 115.033 103.528C115.594 104.207 115.875 105.223 115.875 106.576V106.746H110.416ZM114.56 105.77C114.489 104.964 114.284 104.377 113.944 104.009C113.605 103.637 113.117 103.451 112.48 103.451C111.863 103.451 111.373 103.658 111.01 104.073C110.651 104.483 110.458 105.049 110.43 105.77H114.56ZM118.795 105.869V110.303H117.53V104.285C117.53 103.837 117.525 103.479 117.515 103.21C117.511 102.937 117.501 102.75 117.487 102.651H118.689C118.699 102.755 118.708 102.882 118.718 103.033C118.727 103.184 118.734 103.342 118.739 103.507C118.744 103.667 118.746 103.818 118.746 103.96H118.767C119.041 103.418 119.354 103.04 119.708 102.828C120.061 102.616 120.493 102.51 121.002 102.51C121.582 102.51 122.039 102.626 122.374 102.857C122.713 103.088 122.949 103.455 123.081 103.96H123.102C123.366 103.446 123.684 103.076 124.057 102.849C124.434 102.623 124.889 102.51 125.422 102.51C126.195 102.51 126.756 102.72 127.105 103.139C127.458 103.559 127.635 104.247 127.635 105.204V110.303H126.376V105.452C126.376 104.712 126.275 104.2 126.072 103.917C125.869 103.634 125.504 103.493 124.976 103.493C124.42 103.493 123.986 103.7 123.675 104.115C123.368 104.525 123.215 105.11 123.215 105.869V110.303H121.956V105.452C121.956 104.712 121.855 104.2 121.652 103.917C121.45 103.634 121.084 103.493 120.556 103.493C120.014 103.493 119.585 103.7 119.269 104.115C118.953 104.53 118.795 105.115 118.795 105.869ZM135.308 108.189C135.308 108.91 135.034 109.466 134.487 109.857C133.945 110.249 133.184 110.444 132.203 110.444C131.251 110.444 130.516 110.289 129.997 109.978C129.483 109.662 129.148 109.172 128.993 108.507L130.117 108.288C130.226 108.698 130.45 108.999 130.789 109.193C131.128 109.381 131.6 109.476 132.203 109.476C132.849 109.476 133.321 109.377 133.618 109.179C133.919 108.981 134.07 108.684 134.07 108.288C134.07 107.986 133.966 107.741 133.759 107.552C133.552 107.364 133.217 107.208 132.755 107.085C132.208 106.939 131.772 106.819 131.447 106.725C131.126 106.63 130.879 106.55 130.704 106.484C130.53 106.414 130.391 106.348 130.287 106.286C129.976 106.107 129.733 105.888 129.558 105.629C129.384 105.369 129.297 105.051 129.297 104.674C129.297 103.976 129.544 103.446 130.039 103.083C130.539 102.715 131.265 102.531 132.217 102.531C133.061 102.531 133.731 102.68 134.226 102.977C134.726 103.274 135.041 103.75 135.173 104.405L134.028 104.547C133.957 104.207 133.766 103.948 133.455 103.769C133.149 103.585 132.736 103.493 132.217 103.493C131.642 103.493 131.218 103.58 130.945 103.755C130.671 103.929 130.534 104.193 130.534 104.547C130.534 104.806 130.612 105.02 130.768 105.19C130.923 105.355 131.22 105.492 131.659 105.6C132.248 105.742 132.809 105.897 133.342 106.067C133.875 106.232 134.256 106.397 134.487 106.562C134.756 106.755 134.959 106.984 135.096 107.248C135.237 107.507 135.308 107.821 135.308 108.189ZM143.773 110.444C142.702 110.444 141.884 110.107 141.319 109.433C140.758 108.754 140.477 107.767 140.477 106.47C140.477 105.183 140.76 104.202 141.326 103.528C141.891 102.849 142.702 102.51 143.758 102.51C144.541 102.51 145.189 102.713 145.703 103.118C146.222 103.524 146.547 104.082 146.679 104.794L145.371 104.893C145.305 104.469 145.137 104.132 144.869 103.882C144.6 103.632 144.218 103.507 143.723 103.507C143.049 103.507 142.561 103.731 142.259 104.179C141.957 104.627 141.807 105.381 141.807 106.442C141.807 107.46 141.967 108.214 142.287 108.705C142.608 109.195 143.091 109.44 143.737 109.44C144.19 109.44 144.567 109.318 144.869 109.073C145.175 108.827 145.364 108.45 145.434 107.941L146.721 108.026C146.655 108.516 146.49 108.943 146.226 109.306C145.967 109.669 145.628 109.949 145.208 110.147C144.793 110.345 144.315 110.444 143.773 110.444ZM154.55 106.47C154.55 107.809 154.255 108.806 153.666 109.461C153.076 110.117 152.221 110.444 151.099 110.444C149.981 110.444 149.138 110.105 148.567 109.426C147.997 108.742 147.711 107.757 147.711 106.47C147.711 105.15 147.997 104.16 148.567 103.5C149.142 102.84 150 102.51 151.141 102.51C152.31 102.51 153.171 102.833 153.722 103.479C154.274 104.12 154.55 105.117 154.55 106.47ZM153.213 106.47C153.213 105.414 153.055 104.648 152.739 104.172C152.428 103.691 151.903 103.451 151.162 103.451C150.418 103.451 149.878 103.696 149.543 104.186C149.213 104.672 149.048 105.433 149.048 106.47C149.048 107.479 149.211 108.238 149.536 108.747C149.866 109.252 150.382 109.504 151.085 109.504C151.848 109.504 152.393 109.259 152.718 108.768C153.048 108.278 153.213 107.512 153.213 106.47ZM157.435 105.869V110.303H156.169V104.285C156.169 103.837 156.164 103.479 156.155 103.21C156.15 102.937 156.141 102.75 156.127 102.651H157.329C157.338 102.755 157.348 102.882 157.357 103.033C157.367 103.184 157.374 103.342 157.378 103.507C157.383 103.667 157.385 103.818 157.385 103.96H157.407C157.68 103.418 157.994 103.04 158.347 102.828C158.701 102.616 159.132 102.51 159.641 102.51C160.221 102.51 160.679 102.626 161.013 102.857C161.353 103.088 161.588 103.455 161.72 103.96H161.742C162.006 103.446 162.324 103.076 162.696 102.849C163.073 102.623 163.528 102.51 164.061 102.51C164.834 102.51 165.395 102.72 165.744 103.139C166.098 103.559 166.275 104.247 166.275 105.204V110.303H165.016V105.452C165.016 104.712 164.914 104.2 164.712 103.917C164.509 103.634 164.144 103.493 163.616 103.493C163.059 103.493 162.626 103.7 162.314 104.115C162.008 104.525 161.855 105.11 161.855 105.869V110.303H160.596V105.452C160.596 104.712 160.495 104.2 160.292 103.917C160.089 103.634 159.724 103.493 159.196 103.493C158.654 103.493 158.225 103.7 157.909 104.115C157.593 104.53 157.435 105.115 157.435 105.869ZM174.676 106.442C174.676 107.776 174.44 108.778 173.969 109.447C173.502 110.112 172.799 110.444 171.861 110.444C170.683 110.444 169.891 110.001 169.485 109.115H169.45C169.469 109.148 169.478 109.549 169.478 110.317V113.308H168.205V104.214C168.205 103.823 168.2 103.498 168.191 103.238C168.186 102.974 168.177 102.779 168.163 102.651H169.393C169.398 102.67 169.405 102.762 169.414 102.927C169.429 103.092 169.44 103.271 169.45 103.465C169.459 103.653 169.464 103.792 169.464 103.882H169.492C169.718 103.41 170.018 103.066 170.39 102.849C170.763 102.628 171.253 102.517 171.861 102.517C172.804 102.517 173.509 102.833 173.976 103.465C174.442 104.096 174.676 105.089 174.676 106.442ZM173.339 106.47C173.339 105.405 173.195 104.643 172.908 104.186C172.62 103.729 172.163 103.5 171.536 103.5C170.838 103.5 170.32 103.743 169.98 104.228C169.645 104.709 169.478 105.49 169.478 106.569C169.478 107.573 169.638 108.313 169.959 108.79C170.279 109.266 170.8 109.504 171.522 109.504C172.153 109.504 172.613 109.273 172.901 108.811C173.193 108.344 173.339 107.564 173.339 106.47ZM177.54 99.8086V110.303H176.267V99.8086H177.54ZM180.467 106.746C180.467 107.623 180.649 108.299 181.012 108.776C181.375 109.252 181.905 109.49 182.603 109.49C183.155 109.49 183.595 109.379 183.925 109.157C184.26 108.936 184.486 108.655 184.604 108.316L185.722 108.634C185.264 109.841 184.225 110.444 182.603 110.444C181.472 110.444 180.609 110.107 180.015 109.433C179.425 108.759 179.131 107.757 179.131 106.428C179.131 105.164 179.425 104.195 180.015 103.521C180.609 102.847 181.455 102.51 182.554 102.51C183.68 102.51 184.524 102.849 185.085 103.528C185.646 104.207 185.927 105.223 185.927 106.576V106.746H180.467ZM184.611 105.77C184.541 104.964 184.336 104.377 183.996 104.009C183.657 103.637 183.169 103.451 182.532 103.451C181.915 103.451 181.424 103.658 181.061 104.073C180.703 104.483 180.51 105.049 180.482 105.77H184.611ZM190.495 110.246C190.08 110.36 189.651 110.416 189.208 110.416C188.699 110.416 188.317 110.272 188.062 109.985C187.808 109.692 187.68 109.259 187.68 108.684V103.578H186.797V102.651H187.73L188.105 100.94H188.953V102.651H190.368V103.578H188.953V108.408C188.953 108.776 189.012 109.035 189.13 109.186C189.253 109.332 189.463 109.405 189.76 109.405C189.92 109.405 190.165 109.372 190.495 109.306V110.246ZM192.56 106.746C192.56 107.623 192.741 108.299 193.104 108.776C193.467 109.252 193.998 109.49 194.696 109.49C195.247 109.49 195.688 109.379 196.018 109.157C196.353 108.936 196.579 108.655 196.697 108.316L197.814 108.634C197.357 109.841 196.317 110.444 194.696 110.444C193.564 110.444 192.701 110.107 192.107 109.433C191.518 108.759 191.223 107.757 191.223 106.428C191.223 105.164 191.518 104.195 192.107 103.521C192.701 102.847 193.548 102.51 194.646 102.51C195.773 102.51 196.617 102.849 197.178 103.528C197.739 104.207 198.019 105.223 198.019 106.576V106.746H192.56ZM196.704 105.77C196.633 104.964 196.428 104.377 196.089 104.009C195.749 103.637 195.261 103.451 194.625 103.451C194.007 103.451 193.517 103.658 193.154 104.073C192.796 104.483 192.602 105.049 192.574 105.77H196.704ZM204.575 110.303C204.565 110.251 204.553 110.154 204.539 110.013C204.53 109.867 204.52 109.707 204.511 109.532C204.506 109.358 204.504 109.205 204.504 109.073H204.476C204.24 109.563 203.926 109.914 203.535 110.126C203.149 110.338 202.668 110.444 202.092 110.444C201.126 110.444 200.414 110.119 199.957 109.469C199.504 108.818 199.278 107.833 199.278 106.513C199.278 105.178 199.511 104.179 199.978 103.514C200.45 102.845 201.154 102.51 202.092 102.51C202.672 102.51 203.156 102.616 203.542 102.828C203.929 103.04 204.24 103.377 204.476 103.839H204.49L204.476 102.984V99.8086H205.749V108.726C205.749 109.127 205.751 109.459 205.756 109.723C205.765 109.982 205.777 110.176 205.791 110.303H204.575ZM200.615 106.47C200.615 107.54 200.756 108.306 201.039 108.768C201.322 109.23 201.781 109.461 202.418 109.461C203.139 109.461 203.662 109.212 203.988 108.712C204.313 108.212 204.476 107.437 204.476 106.385C204.476 105.372 204.313 104.629 203.988 104.158C203.662 103.686 203.144 103.451 202.432 103.451C201.791 103.451 201.326 103.689 201.039 104.165C200.756 104.636 200.615 105.405 200.615 106.47Z" fill="#62748E"/>
<g clip-path="url(#clip0_3311_6463)">
<path d="M44.7764 132.822C44.7764 129.489 47.4781 126.787 50.8109 126.787H357.941C361.274 126.787 363.975 129.489 363.975 132.822C363.975 136.154 361.274 138.856 357.941 138.856H50.8109C47.4781 138.856 44.7764 136.154 44.7764 132.822Z" fill="#F1F5F9"/>
<path d="M44.7764 132.822C44.7764 129.489 47.4781 126.787 50.8109 126.787H357.941C361.274 126.787 363.975 129.489 363.975 132.822C363.975 136.154 361.274 138.856 357.941 138.856H50.8109C47.4781 138.856 44.7764 136.154 44.7764 132.822Z" fill="#00C070"/>
</g>
<path d="M58.8496 172.035L51.1092 179.776L47.5908 176.257" stroke="#00C070" stroke-width="1.40735" stroke-linecap="round" stroke-linejoin="round"/>
<path d="M71.3027 176.257C71.3027 173.596 73.4604 171.438 76.1219 171.438H163.035C165.697 171.438 167.854 173.596 167.854 176.257C167.854 178.919 165.697 181.077 163.035 181.077H76.1219C73.4604 181.077 71.3027 178.919 71.3027 176.257Z" fill="#CAD5E2"/>
<path d="M58.8496 203.402L51.1092 211.143L47.5908 207.624" stroke="#00C070" stroke-width="1.40735" stroke-linecap="round" stroke-linejoin="round"/>
<path d="M71.3027 207.624C71.3027 204.963 73.4604 202.805 76.1219 202.805H201.652C204.313 202.805 206.471 204.963 206.471 207.624C206.471 210.286 204.313 212.443 201.652 212.443H76.1219C73.4604 212.443 71.3027 210.286 71.3027 207.624Z" fill="#CAD5E2"/>
<g filter="url(#filter1_dd_3311_6463)">
<path d="M11 10.988C11 8.32178 13.1614 6.1604 15.8276 6.1604H122.022C124.688 6.1604 126.85 8.32178 126.85 10.988V30.29C126.85 32.9562 124.688 35.1175 122.022 35.1175H15.8276C13.1614 35.1175 11 32.9562 11 30.29V10.988Z" fill="#0F172A" shape-rendering="crispEdges"/>
<path d="M56.1902 19.69V24.5872H54.6462V16.2839H56.6322L60.3035 22.7308C60.2328 22.1337 60.1975 21.5935 60.1975 21.1103V16.2839H61.7414V24.5872H59.7025L56.0841 18.1932C56.1195 18.5036 56.145 18.7845 56.1607 19.0359C56.1804 19.2834 56.1902 19.5015 56.1902 19.69ZM70.7425 23.2435V24.5872H63.9714V16.2839H70.5009V17.6275H65.7098V19.7136H70.1414V21.0572H65.7098V23.2435H70.7425ZM77.1742 19.6724L76.0309 24.5872H73.9683L71.8292 16.2839H73.5912L74.7462 21.3696C74.7973 21.5856 74.8523 21.8351 74.9112 22.118C74.9741 22.4008 75.0252 22.6758 75.0645 22.943C75.1037 22.7583 75.1391 22.5796 75.1705 22.4067C75.2059 22.2299 75.2412 22.0571 75.2766 21.8881C75.312 21.7153 75.3493 21.5444 75.3886 21.3754L76.5613 16.2839H78.506L79.6669 21.1928C79.7062 21.3578 79.7534 21.5974 79.8084 21.9117C79.8673 22.226 79.9223 22.5698 79.9734 22.943C80.0244 22.7151 80.0696 22.5148 80.1089 22.3419C80.1521 22.1651 80.1934 21.9903 80.2327 21.8174C80.2759 21.6406 80.3211 21.4403 80.3682 21.2163L81.4348 16.2839H83.1969L81.0518 24.5872H78.9892L77.8637 19.7843C77.7969 19.5015 77.734 19.2127 77.6751 18.918C77.6161 18.6234 77.5631 18.3209 77.516 18.0105C77.4845 18.1794 77.4452 18.3778 77.3981 18.6057C77.351 18.8336 77.3058 19.0457 77.2626 19.2422C77.2233 19.4386 77.1938 19.582 77.1742 19.6724Z" fill="white"/>
</g>
<g filter="url(#filter2_d_3311_6463)">
<path d="M316.368 57.9144C316.368 41.9218 329.333 28.9573 345.325 28.9573C361.318 28.9573 374.282 41.9218 374.282 57.9144C374.282 73.907 361.318 86.8716 345.325 86.8716C329.333 86.8716 316.368 73.907 316.368 57.9144Z" fill="url(#paint0_linear_3311_6463)"/>
<path d="M354.977 47.0554H335.672C335.006 47.0554 334.466 47.5956 334.466 48.262V54.2947C334.466 54.9611 335.006 55.5013 335.672 55.5013H354.977C355.643 55.5013 356.184 54.9611 356.184 54.2947V48.262C356.184 47.5956 355.643 47.0554 354.977 47.0554Z" stroke="white" stroke-width="2.41309" stroke-linecap="round" stroke-linejoin="round"/>
<path d="M344.118 60.3274H335.672C335.006 60.3274 334.466 60.8676 334.466 61.5339V67.5667C334.466 68.233 335.006 68.7732 335.672 68.7732H344.118C344.785 68.7732 345.325 68.233 345.325 67.5667V61.5339C345.325 60.8676 344.785 60.3274 344.118 60.3274Z" stroke="white" stroke-width="2.41309" stroke-linecap="round" stroke-linejoin="round"/>
<path d="M354.978 60.3274H351.358C350.692 60.3274 350.151 60.8676 350.151 61.5339V67.5667C350.151 68.233 350.692 68.7732 351.358 68.7732H354.978C355.644 68.7732 356.184 68.233 356.184 67.5667V61.5339C356.184 60.8676 355.644 60.3274 354.978 60.3274Z" stroke="white" stroke-width="2.41309" stroke-linecap="round" stroke-linejoin="round"/>
</g>
</g>
<defs>
<filter id="filter0_dd_3311_6463" x="7.37931" y="3.74661" width="385.696" height="252.12" filterUnits="userSpaceOnUse" color-interpolation-filters="sRGB">
<feFlood flood-opacity="0" result="BackgroundImageFix"/>
<feColorMatrix in="SourceAlpha" type="matrix" values="0 0 0 0 0 0 0 0 0 0 0 0 0 0 0 0 0 0 127 0" result="hardAlpha"/>
<feMorphology radius="1.2069" operator="erode" in="SourceAlpha" result="effect1_dropShadow_3311_6463"/>
<feOffset dy="1.2069"/>
<feGaussianBlur stdDeviation="1.2069"/>
<feComposite in2="hardAlpha" operator="out"/>
<feColorMatrix type="matrix" values="0 0 0 0 0 0 0 0 0 0 0 0 0 0 0 0 0 0 0.1 0"/>
<feBlend mode="normal" in2="BackgroundImageFix" result="effect1_dropShadow_3311_6463"/>
<feColorMatrix in="SourceAlpha" type="matrix" values="0 0 0 0 0 0 0 0 0 0 0 0 0 0 0 0 0 0 127 0" result="hardAlpha"/>
<feOffset dy="1.2069"/>
<feGaussianBlur stdDeviation="1.81034"/>
<feComposite in2="hardAlpha" operator="out"/>
<feColorMatrix type="matrix" values="0 0 0 0 0 0 0 0 0 0 0 0 0 0 0 0 0 0 0.1 0"/>
<feBlend mode="normal" in2="effect1_dropShadow_3311_6463" result="effect2_dropShadow_3311_6463"/>
<feBlend mode="normal" in="SourceGraphic" in2="effect2_dropShadow_3311_6463" result="shape"/>
</filter>
<filter id="filter1_dd_3311_6463" x="7.37931" y="3.74661" width="123.091" height="36.1984" filterUnits="userSpaceOnUse" color-interpolation-filters="sRGB">
<feFlood flood-opacity="0" result="BackgroundImageFix"/>
<feColorMatrix in="SourceAlpha" type="matrix" values="0 0 0 0 0 0 0 0 0 0 0 0 0 0 0 0 0 0 127 0" result="hardAlpha"/>
<feMorphology radius="1.2069" operator="erode" in="SourceAlpha" result="effect1_dropShadow_3311_6463"/>
<feOffset dy="1.2069"/>
<feGaussianBlur stdDeviation="1.2069"/>
<feComposite in2="hardAlpha" operator="out"/>
<feColorMatrix type="matrix" values="0 0 0 0 0 0 0 0 0 0 0 0 0 0 0 0 0 0 0.1 0"/>
<feBlend mode="normal" in2="BackgroundImageFix" result="effect1_dropShadow_3311_6463"/>
<feColorMatrix in="SourceAlpha" type="matrix" values="0 0 0 0 0 0 0 0 0 0 0 0 0 0 0 0 0 0 127 0" result="hardAlpha"/>
<feOffset dy="1.2069"/>
<feGaussianBlur stdDeviation="1.81034"/>
<feComposite in2="hardAlpha" operator="out"/>
<feColorMatrix type="matrix" values="0 0 0 0 0 0 0 0 0 0 0 0 0 0 0 0 0 0 0.1 0"/>
<feBlend mode="normal" in2="effect1_dropShadow_3311_6463" result="effect2_dropShadow_3311_6463"/>
<feBlend mode="normal" in="SourceGraphic" in2="effect2_dropShadow_3311_6463" result="shape"/>
</filter>
<filter id="filter2_d_3311_6463" x="302.368" y="28.9573" width="85.9141" height="85.9143" filterUnits="userSpaceOnUse" color-interpolation-filters="sRGB">
<feFlood flood-opacity="0" result="BackgroundImageFix"/>
<feColorMatrix in="SourceAlpha" type="matrix" values="0 0 0 0 0 0 0 0 0 0 0 0 0 0 0 0 0 0 127 0" result="hardAlpha"/>
<feMorphology radius="16.5455" operator="erode" in="SourceAlpha" result="effect1_dropShadow_3311_6463"/>
<feOffset dy="14"/>
<feGaussianBlur stdDeviation="15.2727"/>
<feColorMatrix type="matrix" values="0 0 0 0 0.996078 0 0 0 0 0.333333 0 0 0 0 0.0156863 0 0 0 0.5 0"/>
<feBlend mode="normal" in2="BackgroundImageFix" result="effect1_dropShadow_3311_6463"/>
<feBlend mode="normal" in="SourceGraphic" in2="effect1_dropShadow_3311_6463" result="shape"/>
</filter>
<linearGradient id="paint0_linear_3311_6463" x1="345.325" y1="28.9573" x2="345.325" y2="86.8716" gradientUnits="userSpaceOnUse">
<stop stop-color="#FE5504"/>
<stop offset="0.9999" stop-color="#FFB582"/>
<stop offset="1" stop-color="#FD6922"/>
</linearGradient>
<clipPath id="clip0_3311_6463">
<path d="M44.7764 132.822C44.7764 129.489 47.4781 126.787 50.8109 126.787H357.941C361.274 126.787 363.975 129.489 363.975 132.822C363.975 136.154 361.274 138.856 357.941 138.856H50.8109C47.4781 138.856 44.7764 136.154 44.7764 132.822Z" fill="white"/>
</clipPath>
</defs>
</svg>
