<svg width="409" height="271" viewBox="0 0 409 271" fill="none" xmlns="http://www.w3.org/2000/svg">
<path d="M0 28.9655C0 12.9683 12.9683 0 28.9655 0H379.766C395.763 0 408.731 12.9683 408.731 28.9655V241.371C408.731 257.368 395.763 270.336 379.766 270.336H28.9655C12.9683 270.336 0 257.368 0 241.371V28.9655Z" fill="#EFF6FF"/>
<g filter="url(#filter0_dd_3311_6434)">
<mask id="path-2-inside-1_3311_6434" fill="white">
<path d="M56.3115 80.9836C56.3115 67.6526 67.1184 56.8457 80.4495 56.8457H328.282C341.613 56.8457 352.42 67.6526 352.42 80.9836C352.42 94.3147 341.613 105.122 328.282 105.122H80.4495C67.1185 105.122 56.3115 94.3147 56.3115 80.9836Z"/>
</mask>
<path d="M56.3115 80.9836C56.3115 67.6526 67.1184 56.8457 80.4495 56.8457H328.282C341.613 56.8457 352.42 67.6526 352.42 80.9836C352.42 94.3147 341.613 105.122 328.282 105.122H80.4495C67.1185 105.122 56.3115 94.3147 56.3115 80.9836Z" fill="white" shape-rendering="crispEdges"/>
<path d="M56.3115 80.9836M352.42 80.9836M352.42 80.9836M56.3115 80.9836M80.4495 56.8457V58.1867H328.282V56.8457V55.5047H80.4495V56.8457ZM352.42 80.9836M328.282 105.122V103.781H80.4495V105.122V106.463H328.282V105.122ZM56.3115 80.9836M80.4495 105.122V103.781C67.8591 103.781 57.6525 93.574 57.6525 80.9836H56.3115H54.9705C54.9705 95.0553 66.3779 106.463 80.4495 106.463V105.122ZM352.42 80.9836H351.079C351.079 93.574 340.873 103.781 328.282 103.781V105.122V106.463C342.354 106.463 353.761 95.0553 353.761 80.9836H352.42ZM328.282 56.8457V58.1867C340.873 58.1867 351.079 68.3932 351.079 80.9836H352.42H353.761C353.761 66.912 342.354 55.5047 328.282 55.5047V56.8457ZM80.4495 56.8457V55.5047C66.3778 55.5047 54.9705 66.912 54.9705 80.9836H56.3115H57.6525C57.6525 68.3932 67.8591 58.1867 80.4495 58.1867V56.8457Z" fill="#F1F5F9" mask="url(#path-2-inside-1_3311_6434)"/>
<path d="M85.7949 86.612C89.3475 86.612 92.2275 83.732 92.2275 80.1794C92.2275 76.6268 89.3475 73.7468 85.7949 73.7468C82.2423 73.7468 79.3623 76.6268 79.3623 80.1794C79.3623 83.732 82.2423 86.612 85.7949 86.612Z" stroke="#90A1B9" stroke-width="1.60815" stroke-linecap="round" stroke-linejoin="round"/>
<path d="M93.8354 88.2202L90.3779 84.7627" stroke="#90A1B9" stroke-width="1.60815" stroke-linecap="round" stroke-linejoin="round"/>
<path d="M105.887 80.9838C105.887 78.3222 108.044 76.1646 110.706 76.1646H216.917C219.579 76.1646 221.736 78.3222 221.736 80.9838C221.736 83.6453 219.579 85.803 216.917 85.803H110.706C108.044 85.803 105.887 83.6453 105.887 80.9838Z" fill="#E2E8F0"/>
</g>
<g filter="url(#filter1_dd_3311_6434)">
<mask id="path-7-inside-2_3311_6434" fill="white">
<path d="M56.3115 136.488C56.3115 129.823 61.715 124.419 68.3805 124.419H133.293C139.959 124.419 145.362 129.823 145.362 136.488V201.401C145.362 208.067 139.959 213.47 133.293 213.47H68.3805C61.715 213.47 56.3115 208.067 56.3115 201.401V136.488Z"/>
</mask>
<path d="M56.3115 136.488C56.3115 129.823 61.715 124.419 68.3805 124.419H133.293C139.959 124.419 145.362 129.823 145.362 136.488V201.401C145.362 208.067 139.959 213.47 133.293 213.47H68.3805C61.715 213.47 56.3115 208.067 56.3115 201.401V136.488Z" fill="white" shape-rendering="crispEdges"/>
<path d="M68.3805 124.419V125.76H133.293V124.419V123.078H68.3805V124.419ZM145.362 136.488H144.021V201.401H145.362H146.703V136.488H145.362ZM133.293 213.47V212.129H68.3805V213.47V214.811H133.293V213.47ZM56.3115 201.401H57.6525V136.488H56.3115H54.9705V201.401H56.3115ZM68.3805 213.47V212.129C62.4556 212.129 57.6525 207.326 57.6525 201.401H56.3115H54.9705C54.9705 208.807 60.9744 214.811 68.3805 214.811V213.47ZM145.362 201.401H144.021C144.021 207.326 139.218 212.129 133.293 212.129V213.47V214.811C140.699 214.811 146.703 208.807 146.703 201.401H145.362ZM133.293 124.419V125.76C139.218 125.76 144.021 130.564 144.021 136.488H145.362H146.703C146.703 129.082 140.699 123.078 133.293 123.078V124.419ZM68.3805 124.419V123.078C60.9744 123.078 54.9705 129.082 54.9705 136.488H56.3115H57.6525C57.6525 130.564 62.4556 125.76 68.3805 125.76V124.419Z" fill="#F1F5F9" mask="url(#path-7-inside-2_3311_6434)"/>
<path d="M67.291 140.227C67.291 137.56 69.4524 135.399 72.1186 135.399H129.555C132.221 135.399 134.383 137.56 134.383 140.227V197.663C134.383 200.329 132.221 202.491 129.555 202.491H72.1186C69.4524 202.491 67.291 200.329 67.291 197.663V140.227Z" fill="#F1F5F9"/>
</g>
<g filter="url(#filter2_dd_3311_6434)">
<mask id="path-10-inside-3_3311_6434" fill="white">
<path d="M159.841 136.488C159.841 129.823 165.244 124.419 171.91 124.419H236.822C243.488 124.419 248.891 129.823 248.891 136.488V201.401C248.891 208.067 243.488 213.47 236.822 213.47H171.91C165.244 213.47 159.841 208.067 159.841 201.401V136.488Z"/>
</mask>
<path d="M159.841 136.488C159.841 129.823 165.244 124.419 171.91 124.419H236.822C243.488 124.419 248.891 129.823 248.891 136.488V201.401C248.891 208.067 243.488 213.47 236.822 213.47H171.91C165.244 213.47 159.841 208.067 159.841 201.401V136.488Z" fill="white" shape-rendering="crispEdges"/>
<path d="M171.91 124.419V125.76H236.822V124.419V123.078H171.91V124.419ZM248.891 136.488H247.55V201.401H248.891H250.232V136.488H248.891ZM236.822 213.47V212.129H171.91V213.47V214.811H236.822V213.47ZM159.841 201.401H161.182V136.488H159.841H158.5V201.401H159.841ZM171.91 213.47V212.129C165.985 212.129 161.182 207.326 161.182 201.401H159.841H158.5C158.5 208.807 164.504 214.811 171.91 214.811V213.47ZM248.891 201.401H247.55C247.55 207.326 242.747 212.129 236.822 212.129V213.47V214.811C244.229 214.811 250.232 208.807 250.232 201.401H248.891ZM236.822 124.419V125.76C242.747 125.76 247.55 130.564 247.55 136.488H248.891H250.232C250.232 129.082 244.229 123.078 236.822 123.078V124.419ZM171.91 124.419V123.078C164.504 123.078 158.5 129.082 158.5 136.488H159.841H161.182C161.182 130.564 165.985 125.76 171.91 125.76V124.419Z" fill="#F1F5F9" mask="url(#path-10-inside-3_3311_6434)"/>
<path d="M170.82 140.227C170.82 137.56 172.982 135.399 175.648 135.399H233.084C235.751 135.399 237.912 137.56 237.912 140.227V197.663C237.912 200.329 235.751 202.491 233.084 202.491H175.648C172.982 202.491 170.82 200.329 170.82 197.663V140.227Z" fill="#FFF7ED"/>
</g>
<g filter="url(#filter3_dd_3311_6434)">
<mask id="path-13-inside-4_3311_6434" fill="white">
<path d="M263.37 136.488C263.37 129.823 268.774 124.419 275.439 124.419H340.352C347.017 124.419 352.421 129.823 352.421 136.488V201.401C352.421 208.067 347.017 213.47 340.352 213.47H275.439C268.774 213.47 263.37 208.067 263.37 201.401V136.488Z"/>
</mask>
<path d="M263.37 136.488C263.37 129.823 268.774 124.419 275.439 124.419H340.352C347.017 124.419 352.421 129.823 352.421 136.488V201.401C352.421 208.067 347.017 213.47 340.352 213.47H275.439C268.774 213.47 263.37 208.067 263.37 201.401V136.488Z" fill="white" shape-rendering="crispEdges"/>
<path d="M275.439 124.419V125.76H340.352V124.419V123.078H275.439V124.419ZM352.421 136.488H351.08V201.401H352.421H353.762V136.488H352.421ZM340.352 213.47V212.129H275.439V213.47V214.811H340.352V213.47ZM263.37 201.401H264.711V136.488H263.37H262.029V201.401H263.37ZM275.439 213.47V212.129C269.514 212.129 264.711 207.326 264.711 201.401H263.37H262.029C262.029 208.807 268.033 214.811 275.439 214.811V213.47ZM352.421 201.401H351.08C351.08 207.326 346.277 212.129 340.352 212.129V213.47V214.811C347.758 214.811 353.762 208.807 353.762 201.401H352.421ZM340.352 124.419V125.76C346.277 125.76 351.08 130.564 351.08 136.488H352.421H353.762C353.762 129.082 347.758 123.078 340.352 123.078V124.419ZM275.439 124.419V123.078C268.033 123.078 262.029 129.082 262.029 136.488H263.37H264.711C264.711 130.564 269.514 125.76 275.439 125.76V124.419Z" fill="#F1F5F9" mask="url(#path-13-inside-4_3311_6434)"/>
<path d="M274.35 140.227C274.35 137.56 276.511 135.399 279.177 135.399H336.614C339.28 135.399 341.441 137.56 341.441 140.227V197.663C341.441 200.329 339.28 202.491 336.614 202.491H279.177C276.511 202.491 274.35 200.329 274.35 197.663V140.227Z" fill="#EFF6FF"/>
</g>
<g filter="url(#filter4_d_3311_6434)">
<path d="M321.86 57.9142C321.86 41.9216 334.825 28.957 350.817 28.957C366.81 28.957 379.775 41.9216 379.775 57.9142C379.775 73.9068 366.81 86.8713 350.817 86.8713C334.825 86.8713 321.86 73.9068 321.86 57.9142Z" fill="url(#paint0_linear_3311_6434)"/>
<path d="M360.469 47.0552H341.165C340.498 47.0552 339.958 47.5954 339.958 48.2617V54.2945C339.958 54.9608 340.498 55.501 341.165 55.501H360.469C361.136 55.501 361.676 54.9608 361.676 54.2945V48.2617C361.676 47.5954 361.136 47.0552 360.469 47.0552Z" stroke="white" stroke-width="2.41309" stroke-linecap="round" stroke-linejoin="round"/>
<path d="M349.61 60.3271H341.165C340.498 60.3271 339.958 60.8673 339.958 61.5337V67.5664C339.958 68.2328 340.498 68.773 341.165 68.773H349.61C350.277 68.773 350.817 68.2328 350.817 67.5664V61.5337C350.817 60.8673 350.277 60.3271 349.61 60.3271Z" stroke="white" stroke-width="2.41309" stroke-linecap="round" stroke-linejoin="round"/>
<path d="M360.47 60.3271H356.85C356.184 60.3271 355.644 60.8673 355.644 61.5337V67.5664C355.644 68.2328 356.184 68.773 356.85 68.773H360.47C361.136 68.773 361.676 68.2328 361.676 67.5664V61.5337C361.676 60.8673 361.136 60.3271 360.47 60.3271Z" stroke="white" stroke-width="2.41309" stroke-linecap="round" stroke-linejoin="round"/>
</g>
<defs>
<filter id="filter0_dd_3311_6434" x="52.6908" y="54.4319" width="303.35" height="55.5173" filterUnits="userSpaceOnUse" color-interpolation-filters="sRGB">
<feFlood flood-opacity="0" result="BackgroundImageFix"/>
<feColorMatrix in="SourceAlpha" type="matrix" values="0 0 0 0 0 0 0 0 0 0 0 0 0 0 0 0 0 0 127 0" result="hardAlpha"/>
<feMorphology radius="1.2069" operator="erode" in="SourceAlpha" result="effect1_dropShadow_3311_6434"/>
<feOffset dy="1.2069"/>
<feGaussianBlur stdDeviation="1.2069"/>
<feComposite in2="hardAlpha" operator="out"/>
<feColorMatrix type="matrix" values="0 0 0 0 0 0 0 0 0 0 0 0 0 0 0 0 0 0 0.1 0"/>
<feBlend mode="normal" in2="BackgroundImageFix" result="effect1_dropShadow_3311_6434"/>
<feColorMatrix in="SourceAlpha" type="matrix" values="0 0 0 0 0 0 0 0 0 0 0 0 0 0 0 0 0 0 127 0" result="hardAlpha"/>
<feOffset dy="1.2069"/>
<feGaussianBlur stdDeviation="1.81034"/>
<feComposite in2="hardAlpha" operator="out"/>
<feColorMatrix type="matrix" values="0 0 0 0 0 0 0 0 0 0 0 0 0 0 0 0 0 0 0.1 0"/>
<feBlend mode="normal" in2="effect1_dropShadow_3311_6434" result="effect2_dropShadow_3311_6434"/>
<feBlend mode="normal" in="SourceGraphic" in2="effect2_dropShadow_3311_6434" result="shape"/>
</filter>
<filter id="filter1_dd_3311_6434" x="52.6908" y="122.006" width="96.2922" height="96.2919" filterUnits="userSpaceOnUse" color-interpolation-filters="sRGB">
<feFlood flood-opacity="0" result="BackgroundImageFix"/>
<feColorMatrix in="SourceAlpha" type="matrix" values="0 0 0 0 0 0 0 0 0 0 0 0 0 0 0 0 0 0 127 0" result="hardAlpha"/>
<feMorphology radius="1.2069" operator="erode" in="SourceAlpha" result="effect1_dropShadow_3311_6434"/>
<feOffset dy="1.2069"/>
<feGaussianBlur stdDeviation="1.2069"/>
<feComposite in2="hardAlpha" operator="out"/>
<feColorMatrix type="matrix" values="0 0 0 0 0 0 0 0 0 0 0 0 0 0 0 0 0 0 0.1 0"/>
<feBlend mode="normal" in2="BackgroundImageFix" result="effect1_dropShadow_3311_6434"/>
<feColorMatrix in="SourceAlpha" type="matrix" values="0 0 0 0 0 0 0 0 0 0 0 0 0 0 0 0 0 0 127 0" result="hardAlpha"/>
<feOffset dy="1.2069"/>
<feGaussianBlur stdDeviation="1.81034"/>
<feComposite in2="hardAlpha" operator="out"/>
<feColorMatrix type="matrix" values="0 0 0 0 0 0 0 0 0 0 0 0 0 0 0 0 0 0 0.1 0"/>
<feBlend mode="normal" in2="effect1_dropShadow_3311_6434" result="effect2_dropShadow_3311_6434"/>
<feBlend mode="normal" in="SourceGraphic" in2="effect2_dropShadow_3311_6434" result="shape"/>
</filter>
<filter id="filter2_dd_3311_6434" x="156.22" y="122.006" width="96.2922" height="96.2919" filterUnits="userSpaceOnUse" color-interpolation-filters="sRGB">
<feFlood flood-opacity="0" result="BackgroundImageFix"/>
<feColorMatrix in="SourceAlpha" type="matrix" values="0 0 0 0 0 0 0 0 0 0 0 0 0 0 0 0 0 0 127 0" result="hardAlpha"/>
<feMorphology radius="1.2069" operator="erode" in="SourceAlpha" result="effect1_dropShadow_3311_6434"/>
<feOffset dy="1.2069"/>
<feGaussianBlur stdDeviation="1.2069"/>
<feComposite in2="hardAlpha" operator="out"/>
<feColorMatrix type="matrix" values="0 0 0 0 0 0 0 0 0 0 0 0 0 0 0 0 0 0 0.1 0"/>
<feBlend mode="normal" in2="BackgroundImageFix" result="effect1_dropShadow_3311_6434"/>
<feColorMatrix in="SourceAlpha" type="matrix" values="0 0 0 0 0 0 0 0 0 0 0 0 0 0 0 0 0 0 127 0" result="hardAlpha"/>
<feOffset dy="1.2069"/>
<feGaussianBlur stdDeviation="1.81034"/>
<feComposite in2="hardAlpha" operator="out"/>
<feColorMatrix type="matrix" values="0 0 0 0 0 0 0 0 0 0 0 0 0 0 0 0 0 0 0.1 0"/>
<feBlend mode="normal" in2="effect1_dropShadow_3311_6434" result="effect2_dropShadow_3311_6434"/>
<feBlend mode="normal" in="SourceGraphic" in2="effect2_dropShadow_3311_6434" result="shape"/>
</filter>
<filter id="filter3_dd_3311_6434" x="259.749" y="122.006" width="96.2922" height="96.2919" filterUnits="userSpaceOnUse" color-interpolation-filters="sRGB">
<feFlood flood-opacity="0" result="BackgroundImageFix"/>
<feColorMatrix in="SourceAlpha" type="matrix" values="0 0 0 0 0 0 0 0 0 0 0 0 0 0 0 0 0 0 127 0" result="hardAlpha"/>
<feMorphology radius="1.2069" operator="erode" in="SourceAlpha" result="effect1_dropShadow_3311_6434"/>
<feOffset dy="1.2069"/>
<feGaussianBlur stdDeviation="1.2069"/>
<feComposite in2="hardAlpha" operator="out"/>
<feColorMatrix type="matrix" values="0 0 0 0 0 0 0 0 0 0 0 0 0 0 0 0 0 0 0.1 0"/>
<feBlend mode="normal" in2="BackgroundImageFix" result="effect1_dropShadow_3311_6434"/>
<feColorMatrix in="SourceAlpha" type="matrix" values="0 0 0 0 0 0 0 0 0 0 0 0 0 0 0 0 0 0 127 0" result="hardAlpha"/>
<feOffset dy="1.2069"/>
<feGaussianBlur stdDeviation="1.81034"/>
<feComposite in2="hardAlpha" operator="out"/>
<feColorMatrix type="matrix" values="0 0 0 0 0 0 0 0 0 0 0 0 0 0 0 0 0 0 0.1 0"/>
<feBlend mode="normal" in2="effect1_dropShadow_3311_6434" result="effect2_dropShadow_3311_6434"/>
<feBlend mode="normal" in="SourceGraphic" in2="effect2_dropShadow_3311_6434" result="shape"/>
</filter>
<filter id="filter4_d_3311_6434" x="307.86" y="28.957" width="85.9141" height="85.9143" filterUnits="userSpaceOnUse" color-interpolation-filters="sRGB">
<feFlood flood-opacity="0" result="BackgroundImageFix"/>
<feColorMatrix in="SourceAlpha" type="matrix" values="0 0 0 0 0 0 0 0 0 0 0 0 0 0 0 0 0 0 127 0" result="hardAlpha"/>
<feMorphology radius="16.5455" operator="erode" in="SourceAlpha" result="effect1_dropShadow_3311_6434"/>
<feOffset dy="14"/>
<feGaussianBlur stdDeviation="15.2727"/>
<feColorMatrix type="matrix" values="0 0 0 0 0.996078 0 0 0 0 0.333333 0 0 0 0 0.0156863 0 0 0 0.5 0"/>
<feBlend mode="normal" in2="BackgroundImageFix" result="effect1_dropShadow_3311_6434"/>
<feBlend mode="normal" in="SourceGraphic" in2="effect1_dropShadow_3311_6434" result="shape"/>
</filter>
<linearGradient id="paint0_linear_3311_6434" x1="350.817" y1="28.957" x2="350.817" y2="86.8713" gradientUnits="userSpaceOnUse">
<stop stop-color="#FE5504"/>
<stop offset="0.9999" stop-color="#FFB582"/>
<stop offset="1" stop-color="#FD6922"/>
</linearGradient>
</defs>
</svg>
