<svg width="409" height="271" viewBox="0 0 409 271" fill="none" xmlns="http://www.w3.org/2000/svg">
<path d="M0 28.9655C0 12.9683 12.9683 0 28.9655 0H379.766C395.763 0 408.731 12.9683 408.731 28.9655V241.371C408.731 257.368 395.763 270.336 379.766 270.336H28.9655C12.9683 270.336 0 257.368 0 241.371V28.9655Z" fill="#EEF2FF"/>
<g filter="url(#filter0_dd_3311_6403)">
<mask id="path-2-inside-1_3311_6403" fill="white">
<path d="M19.2979 36.1944C19.2979 26.8627 26.8627 19.2979 36.1944 19.2979H372.537C381.869 19.2979 389.434 26.8627 389.434 36.1944V234.142C389.434 243.474 381.869 251.039 372.537 251.039H36.1944C26.8627 251.039 19.2979 243.474 19.2979 234.142V36.1944Z"/>
</mask>
<path d="M19.2979 36.1944C19.2979 26.8627 26.8627 19.2979 36.1944 19.2979H372.537C381.869 19.2979 389.434 26.8627 389.434 36.1944V234.142C389.434 243.474 381.869 251.039 372.537 251.039H36.1944C26.8627 251.039 19.2979 243.474 19.2979 234.142V36.1944Z" fill="white" fill-opacity="0.6" shape-rendering="crispEdges"/>
<path d="M36.1944 19.2979V20.6388H372.537V19.2979V17.9569H36.1944V19.2979ZM389.434 36.1944H388.093V234.142H389.434H390.775V36.1944H389.434ZM372.537 251.039V249.698H36.1944V251.039V252.38H372.537V251.039ZM19.2979 234.142H20.6388V36.1944H19.2979H17.9569V234.142H19.2979ZM36.1944 251.039V249.698C27.6033 249.698 20.6388 242.733 20.6388 234.142H19.2979H17.9569C17.9569 244.215 26.1221 252.38 36.1944 252.38V251.039ZM389.434 234.142H388.093C388.093 242.733 381.128 249.698 372.537 249.698V251.039V252.38C382.61 252.38 390.775 244.215 390.775 234.142H389.434ZM372.537 19.2979V20.6388C381.128 20.6388 388.093 27.6033 388.093 36.1944H389.434H390.775C390.775 26.1221 382.61 17.9569 372.537 17.9569V19.2979ZM36.1944 19.2979V17.9569C26.1221 17.9569 17.9569 26.1221 17.9569 36.1944H19.2979H20.6388C20.6388 27.6033 27.6033 20.6388 36.1944 20.6388V19.2979Z" fill="white" fill-opacity="0.8" mask="url(#path-2-inside-1_3311_6403)"/>
<path d="M39.9365 59.2449C39.9365 55.2468 43.1777 52.0056 47.1758 52.0056H129.249C133.247 52.0056 136.488 55.2468 136.488 59.2449C136.488 63.243 133.247 66.4842 129.249 66.4842H47.1758C43.1777 66.4842 39.9365 63.243 39.9365 59.2449Z" fill="#E2E8F0"/>
<path d="M204.69 52.0055C204.69 45.34 210.094 39.9365 216.759 39.9365H269.854C276.52 39.9365 281.923 45.34 281.923 52.0055V66.4841C281.923 73.1496 276.52 78.553 269.854 78.553H216.759C210.094 78.553 204.69 73.1496 204.69 66.4841V52.0055Z" fill="#F1F5F9"/>
<path d="M291.562 52.0055C291.562 45.34 296.965 39.9365 303.631 39.9365H356.726C363.392 39.9365 368.795 45.34 368.795 52.0055V66.4841C368.795 73.1496 363.392 78.553 356.726 78.553H303.631C296.965 78.553 291.562 73.1496 291.562 66.4841V52.0055Z" fill="#F1F5F9"/>
<mask id="path-7-inside-2_3311_6403" fill="white">
<path d="M39.9365 97.8508H368.795V230.4H39.9365V97.8508Z"/>
</mask>
<path d="M39.9365 97.8508V99.1918H368.795V97.8508V96.5098H39.9365V97.8508Z" fill="#F1F5F9" mask="url(#path-7-inside-2_3311_6403)"/>
<path d="M39.9365 192.886C39.9365 188.886 43.1786 185.644 47.1779 185.644H61.2542C65.2535 185.644 68.4956 188.886 68.4956 192.886V230.4H39.9365V192.886Z" fill="#DBEAFE"/>
<path d="M73.3149 159.319C73.3149 155.319 76.557 152.077 80.5563 152.077H94.6326C98.6319 152.077 101.874 155.319 101.874 159.319V230.4H73.3149V159.319Z" fill="#DBEAFE"/>
<path d="M106.693 187.291C106.693 183.292 109.935 180.05 113.934 180.05H128.011C132.01 180.05 135.252 183.292 135.252 187.291V230.4H106.693V187.291Z" fill="#DBEAFE"/>
<path d="M140.071 136.941C140.071 132.942 143.313 129.699 147.313 129.699H161.389C165.388 129.699 168.63 132.942 168.63 136.941V230.4H140.071V136.941Z" fill="#DBEAFE"/>
<path d="M173.449 164.913C173.449 160.914 176.691 157.672 180.691 157.672H194.767C198.766 157.672 202.008 160.914 202.008 164.913V230.4H173.449V164.913Z" fill="#DBEAFE"/>
<path d="M206.828 148.13C206.828 144.131 210.07 140.888 214.069 140.888H228.145C232.145 140.888 235.387 144.131 235.387 148.13V230.4H206.828V148.13Z" fill="#DBEAFE"/>
<path d="M240.206 181.697C240.206 177.697 243.448 174.455 247.447 174.455H261.524C265.523 174.455 268.765 177.697 268.765 181.697V230.4H240.206V181.697Z" fill="#DBEAFE"/>
<path d="M273.584 153.724C273.584 149.725 276.826 146.483 280.825 146.483H294.902C298.901 146.483 302.143 149.725 302.143 153.724V230.4H273.584V153.724Z" fill="#DBEAFE"/>
<path d="M306.962 170.508C306.962 166.508 310.204 163.266 314.204 163.266H328.28C332.279 163.266 335.521 166.508 335.521 170.508V230.4H306.962V170.508Z" fill="#DBEAFE"/>
<path d="M340.341 142.535C340.341 138.536 343.583 135.294 347.582 135.294H361.658C365.658 135.294 368.9 138.536 368.9 142.535V230.4H340.341V142.535Z" fill="#DBEAFE"/>
</g>
<g filter="url(#filter1_d_3311_6403)">
<path d="M321.86 57.9144C321.86 41.9218 334.824 28.9573 350.817 28.9573C366.81 28.9573 379.774 41.9218 379.774 57.9144C379.774 73.907 366.81 86.8716 350.817 86.8716C334.824 86.8716 321.86 73.907 321.86 57.9144Z" fill="url(#paint0_linear_3311_6403)"/>
<path d="M362.883 57.9144H359.891C359.363 57.9132 358.85 58.0848 358.43 58.403C358.009 58.7211 357.704 59.1682 357.562 59.6759L354.727 69.7626C354.708 69.8253 354.67 69.8803 354.618 69.9195C354.566 69.9587 354.502 69.9798 354.437 69.9798C354.372 69.9798 354.308 69.9587 354.256 69.9195C354.204 69.8803 354.166 69.8253 354.147 69.7626L347.487 46.0661C347.469 46.0034 347.431 45.9484 347.379 45.9092C347.327 45.87 347.263 45.8489 347.198 45.8489C347.133 45.8489 347.069 45.87 347.017 45.9092C346.965 45.9484 346.926 46.0034 346.908 46.0661L344.073 56.1528C343.931 56.6585 343.628 57.1042 343.21 57.4221C342.792 57.74 342.281 57.9128 341.756 57.9144H338.752" stroke="white" stroke-width="2.41309" stroke-linecap="round" stroke-linejoin="round"/>
</g>
<defs>
<filter id="filter0_dd_3311_6403" x="15.6772" y="16.8841" width="377.377" height="238.982" filterUnits="userSpaceOnUse" color-interpolation-filters="sRGB">
<feFlood flood-opacity="0" result="BackgroundImageFix"/>
<feColorMatrix in="SourceAlpha" type="matrix" values="0 0 0 0 0 0 0 0 0 0 0 0 0 0 0 0 0 0 127 0" result="hardAlpha"/>
<feMorphology radius="1.2069" operator="erode" in="SourceAlpha" result="effect1_dropShadow_3311_6403"/>
<feOffset dy="1.2069"/>
<feGaussianBlur stdDeviation="1.2069"/>
<feComposite in2="hardAlpha" operator="out"/>
<feColorMatrix type="matrix" values="0 0 0 0 0 0 0 0 0 0 0 0 0 0 0 0 0 0 0.1 0"/>
<feBlend mode="normal" in2="BackgroundImageFix" result="effect1_dropShadow_3311_6403"/>
<feColorMatrix in="SourceAlpha" type="matrix" values="0 0 0 0 0 0 0 0 0 0 0 0 0 0 0 0 0 0 127 0" result="hardAlpha"/>
<feOffset dy="1.2069"/>
<feGaussianBlur stdDeviation="1.81034"/>
<feComposite in2="hardAlpha" operator="out"/>
<feColorMatrix type="matrix" values="0 0 0 0 0 0 0 0 0 0 0 0 0 0 0 0 0 0 0.1 0"/>
<feBlend mode="normal" in2="effect1_dropShadow_3311_6403" result="effect2_dropShadow_3311_6403"/>
<feBlend mode="normal" in="SourceGraphic" in2="effect2_dropShadow_3311_6403" result="shape"/>
</filter>
<filter id="filter1_d_3311_6403" x="307.86" y="28.9573" width="85.9145" height="85.9143" filterUnits="userSpaceOnUse" color-interpolation-filters="sRGB">
<feFlood flood-opacity="0" result="BackgroundImageFix"/>
<feColorMatrix in="SourceAlpha" type="matrix" values="0 0 0 0 0 0 0 0 0 0 0 0 0 0 0 0 0 0 127 0" result="hardAlpha"/>
<feMorphology radius="16.5455" operator="erode" in="SourceAlpha" result="effect1_dropShadow_3311_6403"/>
<feOffset dy="14"/>
<feGaussianBlur stdDeviation="15.2727"/>
<feColorMatrix type="matrix" values="0 0 0 0 0.996078 0 0 0 0 0.333333 0 0 0 0 0.0156863 0 0 0 0.5 0"/>
<feBlend mode="normal" in2="BackgroundImageFix" result="effect1_dropShadow_3311_6403"/>
<feBlend mode="normal" in="SourceGraphic" in2="effect1_dropShadow_3311_6403" result="shape"/>
</filter>
<linearGradient id="paint0_linear_3311_6403" x1="350.817" y1="28.9573" x2="350.817" y2="86.8716" gradientUnits="userSpaceOnUse">
<stop stop-color="#FE5504"/>
<stop offset="0.9999" stop-color="#FFB582"/>
<stop offset="1" stop-color="#FD6922"/>
</linearGradient>
</defs>
</svg>
