<svg width="659" height="507" viewBox="0 0 659 507" fill="none" xmlns="http://www.w3.org/2000/svg">
<path d="M372.717 109.372H77.0288L77.0338 109.341L83.4748 69.1118H378.067V69.1408L372.717 109.372ZM77.0898 109.318H372.675L378.011 69.1648H83.5208L77.0898 109.318Z" fill="#263238"/>
<mask id="mask0_3311_6638" style="mask-type:luminance" maskUnits="userSpaceOnUse" x="58" y="9" width="329" height="218">
<path d="M386.261 9.08203H58.1108V226.385H386.261V9.08203Z" fill="white"/>
</mask>
<g mask="url(#mask0_3311_6638)">
<path d="M93.0758 9.32403L385.984 9.08203H386.26L386.224 9.35603C377.589 74.409 367.797 148.178 357.454 226.091L357.422 226.324H353.828L58.3688 226.275H58.1108L58.1508 226.021C79.2998 94.801 92.7878 11.117 93.0758 9.32403C92.7898 11.116 79.4758 94.824 58.5848 226.09L58.3688 225.835L353.828 225.787H357.187L356.921 226.02C367.283 148.11 377.093 74.344 385.745 9.29203L385.984 9.56603L93.0758 9.32403Z" fill="#263238"/>
<path d="M378.038 69.1371C378.038 69.2851 312.098 69.4051 230.776 69.4051C149.425 69.4051 83.499 69.2851 83.499 69.1371C83.499 68.9891 149.424 68.8691 230.776 68.8691C312.098 68.8691 378.038 68.9891 378.038 69.1371Z" fill="#263238"/>
<path d="M372.696 109.343C372.696 109.491 306.384 109.611 224.603 109.611C142.794 109.611 76.4971 109.491 76.4971 109.343C76.4971 109.195 142.797 109.075 224.603 109.075C306.384 109.075 372.696 109.195 372.696 109.343Z" fill="#263238"/>
<path d="M366.68 146.334C366.68 146.482 300.368 146.602 218.587 146.602C136.78 146.602 70.48 146.482 70.48 146.334C70.48 146.186 136.78 146.066 218.586 146.066C300.367 146.066 366.679 146.186 366.679 146.334" fill="#263238"/>
<path d="M360.668 183.324C360.668 183.472 294.356 183.592 212.575 183.592C130.766 183.592 64.4688 183.472 64.4688 183.324C64.4688 183.176 130.769 183.056 212.575 183.056C294.356 183.056 360.668 183.176 360.668 183.324Z" fill="#263238"/>
<path d="M100 226.385C99.854 226.362 105.268 191.139 112.093 147.723C118.918 104.307 124.57 69.1142 124.716 69.1372C124.862 69.1602 119.449 104.372 112.622 147.806C105.795 191.24 100.146 226.406 100 226.385Z" fill="#263238"/>
<path d="M145.583 226.385C145.437 226.362 150.851 191.139 157.676 147.723C164.501 104.307 170.153 69.1142 170.299 69.1372C170.445 69.1602 165.032 104.372 158.205 147.806C151.378 191.24 145.729 226.406 145.583 226.385Z" fill="#263238"/>
<path d="M187.937 224.811C187.791 224.788 193.149 189.918 199.906 146.936C206.664 103.936 212.259 69.1142 212.406 69.1362C212.553 69.1582 207.195 104.022 200.436 147.019C193.681 190 188.084 224.833 187.936 224.81" fill="#263238"/>
<path d="M229.85 226.056C229.704 226.033 235.107 190.884 241.917 147.556C248.727 104.228 254.368 69.1108 254.517 69.1338C254.666 69.1568 249.261 104.299 242.449 147.639C235.639 190.964 229.999 226.075 229.849 226.053" fill="#263238"/>
<path d="M271.957 226.056C271.811 226.033 277.215 190.884 284.024 147.556C290.833 104.228 296.475 69.1108 296.624 69.1338C296.773 69.1568 291.366 104.302 284.554 147.642C277.744 190.967 272.104 226.078 271.954 226.056" fill="#263238"/>
<path d="M314.03 226.285C313.884 226.262 319.295 191.062 326.114 147.673C332.936 104.273 338.584 69.1142 338.73 69.1372C338.876 69.1602 333.467 104.353 326.645 147.757C319.825 191.146 314.176 226.308 314.03 226.285Z" fill="#263238"/>
<path d="M277.439 150.646C277.528 150.765 269.706 156.752 259.972 164.018C250.238 171.284 242.272 177.079 242.183 176.96C242.094 176.841 249.913 170.86 259.651 163.587C269.389 156.314 277.351 150.528 277.439 150.646Z" fill="#263238"/>
<path d="M280.475 176.009C280.396 176.134 272.093 170.984 261.933 164.509C251.773 158.034 243.597 152.678 243.677 152.554C243.757 152.43 252.058 157.579 262.222 164.054C272.386 170.529 280.555 175.884 280.475 176.008" fill="#263238"/>
<path d="M199.104 114.57C199.193 114.689 191.371 120.676 181.637 127.942C171.903 135.208 163.937 141.003 163.848 140.884C163.759 140.765 171.578 134.784 181.316 127.511C191.054 120.238 199.016 114.452 199.104 114.57Z" fill="#263238"/>
<path d="M202.14 139.933C202.061 140.058 193.758 134.908 183.598 128.433C173.438 121.958 165.262 116.602 165.342 116.478C165.422 116.354 173.723 121.503 183.887 127.978C194.051 134.453 202.22 139.808 202.14 139.932" fill="#263238"/>
<path d="M142.543 187.752C142.632 187.871 134.81 193.858 125.076 201.124C115.342 208.39 107.376 214.185 107.287 214.066C107.198 213.947 115.017 207.966 124.755 200.693C134.493 193.42 142.455 187.634 142.543 187.752Z" fill="#263238"/>
<path d="M145.579 213.115C145.5 213.24 137.197 208.09 127.037 201.615C116.877 195.14 108.701 189.784 108.781 189.66C108.861 189.536 117.162 194.685 127.326 201.16C137.49 207.635 145.659 212.99 145.579 213.114" fill="#263238"/>
</g>
<mask id="mask1_3311_6638" style="mask-type:luminance" maskUnits="userSpaceOnUse" x="81" y="114" width="30" height="28">
<path d="M110.242 114.126H81.8179V141.661H110.242V114.126Z" fill="white"/>
</mask>
<g mask="url(#mask1_3311_6638)">
<path d="M109.071 114.742C109.071 114.742 111.728 131.179 109.036 141.662L83.0591 141.103C83.0591 141.103 88.3741 124.365 85.0081 115.999L109.071 114.742Z" fill="#EBEBEB"/>
<path d="M108.97 114.126C108.97 114.126 108.794 134.796 107.744 141.102L81.8179 139.876C81.8179 139.876 84.0949 119.556 83.2179 114.126H108.97Z" fill="#0086D5"/>
<path d="M87.127 122.812C87.122 122.912 91.011 123.219 95.814 123.512C100.617 123.805 104.514 123.958 104.524 123.862C104.534 123.766 100.64 123.455 95.835 123.162C91.03 122.869 87.135 122.716 87.127 122.812Z" fill="white"/>
<path d="M87.1187 127.187C87.1137 127.287 91.0027 127.594 95.8057 127.887C100.609 128.18 104.506 128.333 104.516 128.237C104.526 128.141 100.632 127.83 95.8267 127.537C91.0217 127.244 87.1267 127.091 87.1187 127.187Z" fill="white"/>
<path d="M91.5259 131.485C91.9973 131.612 92.482 131.682 92.9699 131.694C93.8649 131.779 95.1029 131.873 96.4699 131.956C97.8369 132.039 99.0789 132.094 99.9769 132.116C100.463 132.163 100.953 132.151 101.436 132.081C100.965 131.954 100.48 131.884 99.9919 131.872C99.0919 131.787 97.8589 131.692 96.4919 131.61C95.1249 131.528 93.8839 131.472 92.9849 131.45C92.4989 131.404 92.0091 131.415 91.5259 131.485Z" fill="white"/>
</g>
<g opacity="0.1">
<mask id="mask2_3311_6638" style="mask-type:luminance" maskUnits="userSpaceOnUse" x="365" y="67" width="224" height="224">
<path d="M588.591 67.1069H365.269V290.429H588.591V67.1069Z" fill="white"/>
</mask>
<g mask="url(#mask2_3311_6638)">
<path d="M476.93 289.914C538.314 289.914 588.076 240.152 588.076 178.768C588.076 117.384 538.314 67.6221 476.93 67.6221C415.546 67.6221 365.784 117.384 365.784 178.768C365.784 240.152 415.546 289.914 476.93 289.914Z" stroke="black" stroke-miterlimit="10"/>
<path d="M476.93 271.229C528.484 271.229 570.276 229.437 570.276 177.883C570.276 126.33 528.484 84.5371 476.93 84.5371C425.376 84.5371 383.584 126.33 383.584 177.883C383.584 229.437 425.376 271.229 476.93 271.229Z" stroke="black" stroke-miterlimit="10"/>
<path d="M570.276 177.882C570.276 177.882 570.245 177.369 570.21 176.369C570.15 175.369 570.187 173.877 570.01 171.932C569.636 166.25 568.746 160.613 567.351 155.091C566.337 151.106 565.057 147.193 563.522 143.378C561.716 138.831 559.542 134.439 557.022 130.245C550.876 119.999 542.839 111.013 533.338 103.766C521.8 94.9874 508.368 89.0287 494.116 86.3662C482.04 84.1385 469.646 84.2826 457.624 86.7902C453.402 87.7018 449.243 88.888 445.175 90.3412C427.862 96.6555 412.804 107.953 401.899 122.809C399.053 126.677 396.514 130.762 394.307 135.027C393.161 137.16 392.183 139.385 391.182 141.609C390.282 143.876 389.355 146.142 388.614 148.487C387.041 153.182 385.855 157.998 385.068 162.887C384.289 167.843 383.882 172.851 383.85 177.868C383.881 182.887 384.287 187.896 385.064 192.854C385.851 197.745 387.036 202.563 388.607 207.26C389.348 209.605 390.277 211.873 391.174 214.141C392.174 216.365 393.153 218.592 394.3 220.725C396.506 224.992 399.043 229.078 401.889 232.946C412.797 247.808 427.861 259.107 445.181 265.42C449.25 266.873 453.409 268.059 457.631 268.971C469.655 271.479 482.053 271.623 494.131 269.394C508.384 266.733 521.815 260.774 533.353 251.994C542.853 244.747 550.889 235.761 557.035 225.514C559.553 221.321 561.725 216.929 563.529 212.383C565.064 208.568 566.344 204.655 567.358 200.67C568.753 195.15 569.643 189.514 570.016 183.832C570.19 181.887 570.153 180.395 570.216 179.396C570.251 178.396 570.282 177.883 570.282 177.883C570.282 177.883 570.287 178.395 570.271 179.397C570.229 180.397 570.284 181.89 570.128 183.838C569.568 193.665 567.421 203.337 563.77 212.478C561.975 217.044 559.81 221.455 557.296 225.668C551.156 235.969 543.109 245.006 533.586 252.296C522.01 261.137 508.523 267.143 494.207 269.832C482.073 272.084 469.616 271.953 457.531 269.445C453.285 268.532 449.104 267.343 445.012 265.885C427.593 259.55 412.441 248.197 401.468 233.258C398.604 229.369 396.051 225.26 393.831 220.97C392.677 218.825 391.694 216.585 390.686 214.349C389.786 212.068 388.848 209.788 388.102 207.429C386.521 202.705 385.328 197.86 384.537 192.941C383.754 187.955 383.346 182.917 383.315 177.869C383.348 172.824 383.758 167.788 384.542 162.803C385.333 157.886 386.525 153.042 388.107 148.32C388.853 145.962 389.787 143.682 390.691 141.402C391.698 139.165 392.682 136.928 393.836 134.783C396.057 130.495 398.61 126.388 401.473 122.499C412.446 107.564 427.597 96.2136 445.013 89.8802C449.104 88.422 453.286 87.2328 457.531 86.3202C469.615 83.8112 482.071 83.6791 494.204 85.9312C508.517 88.6211 522.001 94.6254 533.575 103.463C543.098 110.754 551.146 119.791 557.287 130.092C559.802 134.305 561.967 138.717 563.762 143.283C567.414 152.425 569.562 162.097 570.122 171.925C570.279 173.874 570.222 175.369 570.265 176.368C570.281 177.368 570.276 177.882 570.276 177.882Z" fill="black"/>
<path d="M556.582 174.494C553.62 174.618 551.208 174.505 551.194 174.243C551.18 173.981 553.571 173.633 556.531 173.465C559.491 173.297 561.901 173.409 561.917 173.717C561.933 174.025 559.542 174.371 556.582 174.494Z" fill="black"/>
<path d="M554.594 195.985C551.707 195.31 549.414 194.555 549.471 194.3C549.528 194.045 551.923 194.349 554.82 194.98C557.717 195.611 560.01 196.364 559.941 196.664C559.872 196.964 557.479 196.664 554.594 195.985Z" fill="black"/>
<path d="M546.886 216.144C544.286 214.715 542.286 213.371 542.406 213.144C542.526 212.917 544.755 213.852 547.375 215.244C549.995 216.636 551.999 217.976 551.854 218.244C551.709 218.512 549.483 217.576 546.886 216.144Z" fill="black"/>
<path d="M534.054 233.496C531.931 231.425 530.354 229.596 530.538 229.405C530.722 229.214 532.613 230.715 534.767 232.753C536.921 234.791 538.494 236.621 538.281 236.843C538.068 237.065 536.175 235.565 534.054 233.496Z" fill="black"/>
<path d="M517.054 246.794C515.563 244.231 514.537 242.045 514.762 241.912C514.987 241.779 516.41 243.729 517.941 246.269C519.472 248.809 520.496 250.993 520.232 251.15C519.968 251.307 518.545 249.356 517.054 246.794Z" fill="black"/>
<path d="M497.106 255.029C496.362 252.158 495.964 249.776 496.218 249.709C496.472 249.642 497.318 251.902 498.102 254.763C498.886 257.624 499.287 260 498.99 260.081C498.693 260.162 497.849 257.898 497.106 255.029Z" fill="black"/>
<path d="M475.675 257.6C475.722 254.635 475.975 252.234 476.235 252.236C476.495 252.238 476.709 254.643 476.707 257.608C476.705 260.573 476.453 262.973 476.146 262.971C475.839 262.969 475.628 260.563 475.675 257.6Z" fill="black"/>
<path d="M454.333 254.361C455.176 251.518 456.066 249.273 456.318 249.347C456.57 249.421 456.127 251.793 455.327 254.647C454.527 257.501 453.639 259.747 453.343 259.66C453.047 259.573 453.489 257.201 454.332 254.36" fill="black"/>
<path d="M434.667 245.488C436.244 242.977 437.704 241.053 437.926 241.188C438.148 241.323 437.082 243.488 435.544 246.026C434.006 248.564 432.544 250.484 432.286 250.326C432.028 250.168 433.091 247.999 434.667 245.489" fill="black"/>
<path d="M418.082 231.671C420.272 229.671 422.192 228.207 422.37 228.399C422.548 228.591 420.941 230.393 418.782 232.426C416.623 234.459 414.704 235.926 414.496 235.696C414.288 235.466 415.896 233.67 418.082 231.671Z" fill="black"/>
<path d="M405.796 213.923C408.442 212.584 410.684 211.688 410.803 211.923C410.922 212.158 408.893 213.462 406.268 214.841C403.643 216.22 401.402 217.116 401.262 216.841C401.122 216.566 403.152 215.262 405.796 213.924" fill="black"/>
<path d="M398.747 193.536C401.656 192.961 404.056 192.703 404.109 192.96C404.162 193.217 401.855 193.926 398.954 194.545C396.053 195.164 393.654 195.423 393.593 195.121C393.532 194.819 395.84 194.111 398.747 193.536Z" fill="black"/>
<path d="M397.416 171.989C400.373 172.208 402.756 172.597 402.739 172.859C402.722 173.121 400.309 173.192 397.348 173.018C394.387 172.844 392.007 172.455 392.026 172.148C392.045 171.841 394.461 171.771 397.416 171.989Z" fill="black"/>
<path d="M401.899 150.875C404.687 151.884 406.876 152.901 406.79 153.148C406.704 153.395 404.36 152.812 401.556 151.848C398.752 150.884 396.565 149.863 396.667 149.573C396.769 149.283 399.112 149.867 401.899 150.873" fill="black"/>
<path d="M411.901 131.754C414.316 133.474 416.153 135.042 416.001 135.254C415.849 135.466 413.75 134.279 411.308 132.596C408.866 130.913 407.033 129.345 407.208 129.096C407.383 128.847 409.485 130.035 411.899 131.754" fill="black"/>
<path d="M426.654 116.003C428.523 118.303 429.874 120.303 429.672 120.472C429.47 120.641 427.763 118.931 425.859 116.658C423.955 114.385 422.605 112.385 422.842 112.19C423.079 111.995 424.786 113.702 426.654 116.003Z" fill="black"/>
<path d="M445.085 104.772C446.266 107.492 447.03 109.782 446.791 109.889C446.552 109.996 445.367 107.889 444.143 105.189C442.919 102.489 442.158 100.199 442.443 100.075C442.728 99.951 443.91 102.054 445.09 104.775" fill="black"/>
<path d="M465.863 98.9261C466.268 101.864 466.386 104.275 466.127 104.313C465.868 104.351 465.293 102.006 464.844 99.0751C464.395 96.1441 464.276 93.7341 464.58 93.6891C464.884 93.6441 465.458 95.9891 465.863 98.9261Z" fill="black"/>
<path d="M487.449 98.8411C487.057 101.781 486.53 104.141 486.27 104.104C486.01 104.067 486.08 101.658 486.427 98.7131C486.774 95.7681 487.3 93.4131 487.605 93.4511C487.91 93.4891 487.84 95.9031 487.449 98.8411Z" fill="black"/>
<path d="M508.262 104.555C507.092 107.279 505.947 109.406 505.706 109.304C505.465 109.202 506.183 106.898 507.312 104.156C508.441 101.414 509.585 99.29 509.868 99.408C510.151 99.526 509.432 101.832 508.262 104.555Z" fill="black"/>
<path d="M526.772 115.657C524.915 117.969 523.243 119.711 523.038 119.548C522.833 119.385 524.138 117.358 525.964 115.018C527.79 112.678 529.457 110.937 529.697 111.128C529.937 111.319 528.628 113.347 526.772 115.657Z" fill="black"/>
<path d="M541.641 131.299C539.234 133.031 537.157 134.263 537.004 134.052C536.851 133.841 538.653 132.236 541.033 130.467C543.413 128.698 545.488 127.467 545.669 127.715C545.85 127.963 544.047 129.568 541.641 131.299Z" fill="black"/>
<path d="M551.774 150.354C548.989 151.373 546.658 152.001 546.566 151.754C546.474 151.507 548.644 150.454 551.412 149.387C554.18 148.32 556.512 147.698 556.618 147.987C556.724 148.276 554.557 149.335 551.774 150.354Z" fill="black"/>
<path d="M556.393 171.434C553.437 171.669 551.023 171.648 551 171.388C550.977 171.128 553.351 170.688 556.3 170.411C559.249 170.134 561.665 170.152 561.692 170.457C561.719 170.762 559.344 171.199 556.392 171.434" fill="black"/>
<path d="M441.69 82.0161C441.589 82.0759 441.483 82.1251 441.373 82.1631L440.422 82.5511C439.594 82.9001 438.336 83.3211 436.776 84.0141C432.335 85.8703 428.024 88.0207 423.87 90.4511C421.229 91.9711 418.433 93.7971 415.499 95.8511C412.403 98.0762 409.421 100.456 406.565 102.98C393.387 114.583 383.327 129.303 377.302 145.794C375.986 149.373 374.851 153.015 373.902 156.708C373.053 160.188 372.367 163.457 371.91 166.469C371.152 171.223 370.713 176.023 370.596 180.835C370.516 182.535 370.581 183.864 370.557 184.763C370.552 185.189 370.548 185.527 370.545 185.785C370.549 185.902 370.541 186.019 370.522 186.134C370.498 186.02 370.487 185.904 370.489 185.787C370.479 185.528 370.465 185.187 370.449 184.765C370.439 183.865 370.34 182.54 370.387 180.832C370.425 176.004 370.81 171.185 371.538 166.412C371.973 163.385 372.638 160.099 373.474 156.6C374.407 152.886 375.53 149.223 376.839 145.624C382.842 129.03 392.957 114.231 406.239 102.611C409.115 100.086 412.119 97.7091 415.239 95.4911C418.195 93.4431 421.015 91.6291 423.678 90.1241C427.861 87.713 432.212 85.6052 436.698 83.8171C438.272 83.1521 439.544 82.7621 440.385 82.4451L441.352 82.1121C441.461 82.0687 441.574 82.0365 441.69 82.0161Z" stroke="black" stroke-miterlimit="10"/>
<path d="M476.308 75.4852C475.247 75.7072 474.171 75.8489 473.089 75.9092C471.099 76.1192 468.351 76.4172 465.323 76.8092C462.295 77.2012 459.563 77.6162 457.584 77.9202C456.523 78.1372 455.446 78.2746 454.364 78.3312C455.389 77.9729 456.445 77.7101 457.518 77.5462C459.484 77.1462 462.218 76.6722 465.255 76.2772C468.292 75.8822 471.055 75.6452 473.055 75.5312C474.136 75.4155 475.225 75.4001 476.308 75.4852Z" stroke="black" stroke-miterlimit="10"/>
<path d="M508.828 113.387L488.399 177.704V177.714L488.358 177.848V177.858L488.348 177.879L488.121 177.59C487.404 175.558 486.102 173.782 484.379 172.487C484.266 172.405 484.152 172.322 484.039 172.25C482.79 171.377 481.366 170.786 479.865 170.518C478.235 170.228 476.56 170.309 474.965 170.755L474.903 170.528V170.518L475.089 170.218L508.828 113.387Z" stroke="black" stroke-miterlimit="10"/>
<path d="M488.348 177.884L488.235 177.915C488.204 177.815 488.163 177.709 488.122 177.595L488.348 177.884Z" stroke="black" stroke-miterlimit="10"/>
<path d="M488.368 183.656C487.734 186.009 486.329 188.081 484.379 189.541C482.952 190.617 481.277 191.318 479.509 191.579C477.741 191.84 475.935 191.654 474.257 191.036C473.289 190.692 472.378 190.202 471.557 189.583C470.692 188.953 469.933 188.187 469.31 187.315C467.964 185.491 467.237 183.283 467.237 181.015C467.237 178.748 467.964 176.54 469.31 174.715C469.936 173.846 470.694 173.081 471.557 172.447C472.38 171.829 473.29 171.335 474.257 170.983C474.49 170.894 474.727 170.818 474.968 170.756V170.746C476.563 170.3 478.238 170.219 479.868 170.509C481.369 170.777 482.793 171.368 484.042 172.241C484.155 172.313 484.269 172.396 484.382 172.478C486.107 173.776 487.409 175.554 488.124 177.59C488.165 177.703 488.206 177.806 488.237 177.91C488.289 178.075 488.33 178.23 488.371 178.374C488.57 179.245 488.718 180.126 488.814 181.013C488.812 179.946 488.659 178.884 488.36 177.859V177.849C487.582 175.318 485.917 173.152 483.67 171.749C482.376 170.946 480.929 170.421 479.42 170.208C477.912 169.995 476.376 170.099 474.909 170.512V170.522C472.957 171.078 471.198 172.167 469.831 173.667C468.464 175.167 467.542 177.019 467.169 179.014C466.796 181.01 466.987 183.07 467.721 184.962C468.454 186.855 469.701 188.505 471.321 189.728C472.941 190.951 474.87 191.698 476.892 191.885C478.913 192.072 480.946 191.692 482.763 190.786C484.58 189.881 486.108 188.487 487.176 186.761C488.244 185.035 488.81 183.045 488.809 181.015C488.714 181.903 488.567 182.785 488.368 183.656Z" stroke="black" stroke-miterlimit="10"/>
<path d="M488.574 183.707C488.078 185.765 487.002 187.637 485.472 189.101C483.943 190.564 482.025 191.558 479.947 191.963C477.989 192.333 475.968 192.173 474.092 191.499C473.076 191.148 472.119 190.642 471.257 189.999C470.346 189.34 469.545 188.54 468.886 187.628C467.467 185.717 466.701 183.401 466.701 181.021C466.701 178.641 467.467 176.325 468.886 174.414C469.543 173.5 470.343 172.699 471.257 172.043C472.116 171.391 473.073 170.88 474.092 170.528C474.419 170.405 474.753 170.302 475.092 170.219C476.681 169.818 478.338 169.769 479.947 170.075C481.297 170.333 482.586 170.841 483.747 171.575C484.056 171.775 484.347 171.975 484.613 172.183C486.423 173.582 487.746 175.515 488.396 177.708V177.718C488.464 177.917 488.519 178.12 488.561 178.326C488.788 179.204 488.871 180.112 488.808 181.016C488.712 180.128 488.564 179.247 488.365 178.377C488.324 178.233 488.283 178.077 488.231 177.913C488.2 177.813 488.159 177.707 488.118 177.593C487.403 175.557 486.101 173.778 484.376 172.481C484.263 172.399 484.149 172.316 484.036 172.244C482.787 171.371 481.363 170.78 479.862 170.512C478.232 170.222 476.557 170.303 474.962 170.749V170.759C474.721 170.821 474.484 170.896 474.251 170.986C473.284 171.338 472.374 171.832 471.551 172.45C470.688 173.083 469.93 173.849 469.304 174.718C467.958 176.542 467.231 178.75 467.231 181.018C467.231 183.286 467.958 185.494 469.304 187.318C469.927 188.19 470.686 188.955 471.551 189.586C472.372 190.205 473.283 190.695 474.251 191.039C475.929 191.656 477.735 191.843 479.503 191.582C481.271 191.321 482.946 190.62 484.373 189.544C486.323 188.083 487.728 186.011 488.362 183.659C488.561 182.789 488.709 181.908 488.805 181.02C488.871 181.922 488.793 182.829 488.574 183.707Z" stroke="black" stroke-miterlimit="10"/>
</g>
</g>
<mask id="mask3_3311_6638" style="mask-type:luminance" maskUnits="userSpaceOnUse" x="0" y="0" width="659" height="507">
<path d="M658.145 0H0V506.924H658.145V0Z" fill="white"/>
</mask>
<g mask="url(#mask3_3311_6638)">
<mask id="mask4_3311_6638" style="mask-type:luminance" maskUnits="userSpaceOnUse" x="0" y="0" width="659" height="507">
<path d="M658.145 0H0V506.924H658.145V0Z" fill="white"/>
</mask>
<g mask="url(#mask4_3311_6638)">
<path d="M485.375 501.955C522.789 501.955 572.761 499.593 619.875 499.593C629.717 419.76 635.045 358.616 657.142 273.593C610.247 271.511 509.786 272.163 495.507 275.893C492.647 352.331 489.794 427.546 485.37 501.949" fill="white"/>
<path d="M485.375 502.955C485.238 502.955 485.103 502.928 484.978 502.874C484.853 502.82 484.74 502.741 484.646 502.642C484.552 502.542 484.48 502.425 484.433 502.297C484.387 502.169 484.367 502.032 484.375 501.896C488.897 425.839 491.875 346.16 494.51 275.862C494.518 275.647 494.595 275.441 494.729 275.273C494.864 275.106 495.049 274.986 495.257 274.932C509.899 271.103 611.72 270.578 657.189 272.599C657.337 272.606 657.483 272.646 657.614 272.716C657.745 272.786 657.859 272.884 657.948 273.004C658.036 273.123 658.097 273.261 658.125 273.407C658.154 273.553 658.149 273.704 658.112 273.848C639.153 346.794 632.512 402.442 624.83 466.881C623.563 477.477 622.242 488.422 620.867 499.717C620.837 499.959 620.719 500.181 620.537 500.342C620.354 500.504 620.119 500.593 619.876 500.593C594.976 500.593 569.589 501.245 545.039 501.877C523.429 502.431 503.015 502.956 485.374 502.956M496.48 276.697C493.869 346.497 490.906 425.468 486.433 500.955C503.806 500.936 523.822 500.421 544.988 499.879C569.258 499.254 594.347 498.61 618.988 498.595C620.337 487.628 621.621 476.978 622.841 466.645C630.492 402.489 637.108 347.029 655.862 274.545C610.62 272.622 513.167 273.095 496.475 276.7" fill="black"/>
<path d="M300.959 504.597C303.441 456.45 298.697 405.356 279.444 361.16C268.391 385.679 255.418 409.286 240.644 431.76C235.915 423.687 231.729 415.175 227.544 406.665C226.47 404.481 225.395 402.297 224.32 400.112C218.428 388.147 212.539 376.174 207.184 363.958C214.373 334.886 222.314 306.001 231.537 277.529C232.656 273.557 234.26 269.737 236.313 266.157C240.85 258.933 248.62 254.457 256.251 250.639C277.112 240.162 299.297 232.559 322.2 228.039C324.326 224.698 327.353 222.026 330.932 220.332C334.043 232.222 341.432 242.598 350.016 251.386C353.957 255.425 359.165 259.476 364.509 258.902C379.09 253.902 387.409 238.822 399.636 229.427C403.904 226.147 409.09 223.46 414.898 223.992C427.485 226.42 440.074 228.847 452.663 231.274C473.445 235.274 494.931 239.574 512.216 251.795C516.273 254.627 519.946 257.972 523.144 261.747C543.044 306.916 558.256 354.052 570.444 401.882C576.372 425.134 581.606 449.514 576.418 473.505C573.277 480.577 568.05 486.564 562.139 491.564C558.615 494.731 554.54 497.224 550.115 498.919C545.044 500.679 539.572 500.801 534.206 500.906C522.824 501.128 511.44 501.349 500.055 501.57L300.959 504.597Z" fill="white"/>
<path d="M300.84 429.109C287.319 437.709 277.03 450.547 271.582 465.617C270.852 467.64 270.206 469.841 270.782 471.917C270.926 472.467 271.179 472.982 271.527 473.431C271.875 473.88 272.311 474.253 272.807 474.529C273.304 474.805 273.852 474.977 274.417 475.035C274.982 475.093 275.553 475.036 276.095 474.867C275.854 476.028 276.057 477.238 276.666 478.256C277.275 479.274 278.244 480.026 279.381 480.363C280.518 480.7 281.741 480.596 282.805 480.074C283.87 479.551 284.7 478.648 285.129 477.542C285.51 478.188 286.093 478.69 286.787 478.972C287.482 479.254 288.25 479.299 288.973 479.101C290.409 478.666 291.73 477.915 292.836 476.901C295.896 474.48 298.956 472.063 302.014 469.648C305.965 466.524 309.953 463.384 314.47 461.16C316.932 459.947 319.556 459.008 321.77 457.39C324.046 455.7 325.76 453.363 326.688 450.684C327.615 448.004 327.714 445.108 326.97 442.372C325.513 437.538 321.46 433.977 317.37 431.01C315.244 429.468 312.948 427.969 310.342 427.657C306.52 427.203 302.801 429.385 300.837 429.111" fill="white"/>
<path d="M274.918 505.855C274.713 505.855 274.513 505.792 274.345 505.675C274.177 505.557 274.049 505.391 273.978 505.199L268.006 488.848C267.952 488.698 267.934 488.538 267.954 488.381C267.974 488.223 268.031 488.072 268.12 487.941C268.21 487.81 268.33 487.702 268.47 487.626C268.609 487.55 268.765 487.509 268.924 487.506L341.482 485.306C341.748 485.302 342.004 485.402 342.197 485.584C342.388 485.768 342.498 486.019 342.505 486.284L342.834 503.44C342.837 503.572 342.813 503.703 342.765 503.825C342.717 503.948 342.645 504.06 342.553 504.155C342.462 504.25 342.352 504.325 342.231 504.378C342.11 504.43 341.98 504.458 341.848 504.46L274.933 505.86L274.918 505.855ZM270.364 489.473L275.613 503.847L340.813 502.475L340.523 487.325L270.364 489.473Z" fill="black"/>
<path d="M326.94 172.199C330.321 194.813 331.742 217.678 331.186 240.537C330.982 242.438 331.247 244.361 331.957 246.137C332.982 247.817 334.454 249.178 336.208 250.068C347.746 257.068 361.976 260.268 375.03 256.835C388.084 253.402 399.454 242.69 400.664 228.202C395.154 209.638 385.941 183.75 378.822 153.968C362.833 161.05 346.094 166.434 326.939 172.195" fill="white"/>
<path d="M364.055 259.221C354.022 259.087 344.215 256.219 335.69 250.926C333.772 249.945 332.169 248.443 331.065 246.592C330.275 244.669 329.973 242.581 330.186 240.513C330.736 217.711 329.319 194.904 325.952 172.346C325.917 172.108 325.968 171.866 326.097 171.663C326.225 171.46 326.422 171.31 326.652 171.241C347.252 165.041 363.104 159.841 378.415 153.06C378.549 153 378.695 152.971 378.842 152.974C378.989 152.977 379.133 153.012 379.265 153.077C379.396 153.142 379.512 153.235 379.603 153.35C379.695 153.465 379.76 153.598 379.794 153.741C384.831 174.809 391.022 194.264 396.001 209.897C398.066 216.381 400.015 222.504 401.624 227.924C401.66 228.043 401.672 228.167 401.661 228.29C400.507 242.105 389.903 253.965 375.285 257.804C371.618 258.757 367.843 259.234 364.054 259.222M328.054 172.908C331.347 195.301 332.729 217.934 332.183 240.561C331.991 242.3 332.219 244.06 332.847 245.693C333.796 247.198 335.135 248.416 336.722 249.219C348.892 256.601 362.763 259.029 374.775 255.872C386.213 252.872 398.31 243.187 399.65 228.31C398.059 222.956 396.131 216.904 394.093 210.502C389.2 195.127 383.131 176.061 378.128 155.369C363.266 161.869 347.84 166.944 328.054 172.908Z" fill="black"/>
<path d="M520.023 496.291C494.77 496.291 467.323 495.681 430.892 490.691C410.376 487.882 390.999 485.229 374.592 483.614C374.462 483.601 374.335 483.562 374.219 483.5C374.103 483.438 374.001 483.354 373.918 483.252C373.834 483.15 373.772 483.033 373.734 482.907C373.696 482.781 373.684 482.649 373.697 482.519C373.71 482.388 373.749 482.261 373.811 482.145C373.873 482.03 373.957 481.927 374.059 481.844C374.161 481.761 374.278 481.699 374.404 481.661C374.529 481.623 374.662 481.61 374.792 481.623C391.228 483.243 410.624 485.899 431.16 488.71C482.945 495.799 541.642 503.836 556.045 494.61C568.101 486.886 576.359 475.302 577.084 465.098C577.916 453.389 575.622 426.449 573.365 415.634C563.991 370.701 530.739 272.693 518.527 258.941C506.84 245.782 488.908 240.428 473.019 236.441C449.377 230.517 425.379 226.111 401.174 223.251C396.255 239.107 386.071 252.809 372.308 262.093C368.899 264.402 364.821 262.422 361.224 260.678C360.543 260.349 359.874 260.024 359.23 259.738C358.36 259.498 357.475 259.315 356.58 259.189C350.518 258.13 337.909 255.929 331.786 246.631C328.511 241.662 327.615 235.364 329.119 227.891C307.191 231.5 285.813 237.892 265.503 246.911C256.625 250.823 246.678 255.933 240.189 264.169C234.356 271.576 231.596 281.054 229.158 289.415C215.258 337.125 219.276 315.397 207.789 363.737C207.763 363.869 207.71 363.993 207.634 364.104C207.558 364.215 207.461 364.309 207.348 364.381C207.235 364.454 207.109 364.502 206.977 364.525C206.844 364.547 206.709 364.543 206.578 364.512C206.448 364.481 206.325 364.424 206.217 364.345C206.109 364.265 206.018 364.165 205.949 364.05C205.881 363.934 205.836 363.807 205.818 363.674C205.8 363.541 205.809 363.406 205.844 363.276C217.338 314.902 213.33 336.598 227.244 288.857C229.731 280.321 232.549 270.644 238.624 262.933C245.381 254.35 255.599 249.094 264.702 245.082C285.618 235.793 307.656 229.271 330.258 225.682C330.42 225.656 330.587 225.671 330.742 225.725C330.897 225.778 331.037 225.869 331.148 225.99C331.26 226.11 331.34 226.256 331.382 226.415C331.424 226.574 331.426 226.74 331.388 226.9C329.594 234.453 330.288 240.72 333.46 245.532C339.107 254.108 351.143 256.209 356.929 257.219C357.987 257.35 359.03 257.581 360.043 257.91C360.709 258.203 361.397 258.537 362.1 258.879C365.365 260.463 368.738 262.098 371.193 260.438C384.808 251.243 394.815 237.613 399.508 221.868C399.575 221.644 399.72 221.45 399.916 221.322C400.112 221.194 400.347 221.139 400.579 221.168C425.151 224.033 449.512 228.486 473.508 234.5C489.688 238.558 507.961 244.027 520.024 257.611C533.209 272.458 566.733 374.035 575.324 415.224C577.606 426.152 579.924 453.392 579.08 465.237C578.314 476.048 569.697 488.237 557.129 496.291C552.114 499.502 542.477 500.781 529.836 500.781" fill="black"/>
<path d="M361.144 275.501C354.816 306.919 348.885 338.458 343.351 370.118C342.414 375.482 341.484 380.963 341.962 386.418C342.636 394.108 346.015 400.938 349.31 407.469C353.334 415.444 357.358 423.419 362.774 431.331C369.271 416.583 374.987 401.503 379.898 386.154C381.565 351.093 370.129 317.003 369.207 281.898C369.148 279.726 369.107 277.444 368.236 275.57C367.365 273.696 365.336 272.48 361.144 275.499" fill="#0086D5"/>
<path d="M362.777 432.333C362.614 432.333 362.454 432.293 362.31 432.217C362.167 432.14 362.044 432.03 361.952 431.896C356.5 423.933 352.393 415.796 348.422 407.927C345.257 401.65 341.669 394.541 340.967 386.508C340.467 380.817 341.479 375.043 342.367 369.947C347.877 338.424 353.867 306.582 360.167 275.304C360.217 275.056 360.36 274.837 360.567 274.691C362.893 273.012 364.891 272.378 366.517 272.8C367.105 272.967 367.648 273.265 368.104 273.672C368.56 274.079 368.918 274.585 369.15 275.15C369.946 277.248 370.307 279.487 370.209 281.729V281.873C370.621 297.462 373.157 313.132 375.609 328.282C378.667 347.158 381.827 366.677 380.9 386.202C380.896 386.289 380.88 386.375 380.854 386.458C375.929 401.841 370.2 416.956 363.692 431.74C363.62 431.903 363.506 432.044 363.362 432.148C363.217 432.253 363.048 432.316 362.87 432.333C362.838 432.333 362.807 432.333 362.777 432.333ZM362.047 276.089C355.778 307.224 349.821 338.915 344.337 370.289C343.468 375.265 342.482 380.905 342.958 386.332C343.629 393.985 347.121 400.911 350.206 407.019C353.888 414.674 358.023 422.103 362.589 429.266C368.753 415.12 374.199 400.672 378.908 385.978C379.808 366.701 376.67 347.334 373.637 328.604C371.172 313.386 368.622 297.65 368.21 281.924V281.78C368.3 279.813 368.003 277.847 367.336 275.994C367.225 275.697 367.048 275.43 366.818 275.211C366.589 274.992 366.313 274.829 366.011 274.732C365.342 274.559 364.127 274.664 362.053 276.089" fill="black"/>
<path d="M374.696 483.621C374.458 483.621 374.228 483.536 374.047 483.38C373.866 483.225 373.746 483.011 373.709 482.776C373.672 482.54 373.721 482.299 373.846 482.096C373.971 481.894 374.164 481.742 374.391 481.669C382.471 479.08 385.734 472.586 385.307 459.95C384.394 432.974 380.297 429.377 378.576 429.084C378.334 429.042 378.115 428.912 377.963 428.718C377.81 428.525 377.735 428.282 377.75 428.037C377.765 427.791 377.871 427.56 378.046 427.387C378.221 427.214 378.454 427.112 378.7 427.1L383.554 426.885C424.96 425.057 471.816 422.985 500.798 419.43C495.898 404.117 491.222 390.13 486.693 376.584C481.976 362.484 477.1 347.895 472.019 331.942C471.977 331.816 471.96 331.683 471.97 331.551C471.979 331.419 472.015 331.289 472.075 331.171C472.135 331.053 472.218 330.947 472.32 330.861C472.421 330.776 472.538 330.711 472.665 330.67C472.791 330.63 472.924 330.616 473.057 330.628C473.189 330.639 473.317 330.677 473.435 330.74C473.552 330.802 473.656 330.886 473.74 330.989C473.824 331.092 473.887 331.21 473.925 331.337C478.999 347.275 483.875 361.852 488.589 375.952C493.233 389.835 498.036 404.192 503.07 419.967C503.115 420.107 503.129 420.255 503.111 420.401C503.092 420.547 503.041 420.687 502.962 420.812C502.883 420.936 502.778 421.041 502.654 421.12C502.529 421.198 502.389 421.249 502.243 421.267C473.285 424.928 425.661 427.031 383.643 428.886L381.835 428.967C384.046 431.847 386.613 439.419 387.306 459.889C387.614 468.989 386.493 479.895 375.006 483.578C374.908 483.611 374.805 483.627 374.701 483.627" fill="black"/>
<path d="M69.6072 506.923C69.4173 506.923 69.2312 506.868 69.071 506.766C68.9107 506.664 68.7828 506.519 68.7022 506.347L0.100227 359.409C0.0293024 359.257 -0.00228528 359.09 0.00836891 358.922C0.0190231 358.755 0.0715771 358.593 0.161198 358.451C0.250819 358.31 0.374629 358.193 0.521243 358.111C0.667857 358.03 0.832567 357.987 1.00023 357.986L205.288 359.106C205.475 359.107 205.657 359.16 205.815 359.259C205.972 359.358 206.099 359.499 206.181 359.667L276.6 504.288C276.674 504.44 276.708 504.608 276.699 504.777C276.691 504.945 276.639 505.109 276.55 505.253C276.461 505.396 276.337 505.515 276.189 505.597C276.042 505.68 275.876 505.724 275.707 505.725L69.6072 506.925V506.923ZM2.57423 359.994L70.2422 504.92L274.108 503.736L204.661 361.102L2.57423 359.994Z" fill="black"/>
<path d="M130.217 417.915C124.417 417.346 118.081 418.896 115.717 424.223C113.353 429.55 115.165 436.223 119.47 440.151C123.775 444.079 130.137 445.344 135.821 444.065C138.891 443.374 141.934 441.886 143.701 439.279C144.885 437.428 145.498 435.269 145.463 433.071C145.512 425.899 142.242 419.092 130.215 417.914" fill="white"/>
<path d="M131.471 445.55C126.816 445.616 122.302 443.957 118.798 440.892C114.027 436.538 112.348 429.356 114.806 423.819C117.046 418.767 122.842 416.193 130.315 416.919C143.745 418.237 146.509 426.434 146.463 433.077C146.503 435.474 145.831 437.828 144.53 439.842C142.356 443.049 138.715 444.442 136.042 445.042C134.541 445.377 133.009 445.547 131.471 445.55ZM128.035 418.807C124.575 418.807 118.854 419.617 116.635 424.625C114.517 429.401 115.993 435.619 120.147 439.411C122.248 441.203 124.744 442.47 127.43 443.11C130.116 443.749 132.915 443.743 135.598 443.09C138.484 442.597 141.079 441.038 142.87 438.722C143.939 437.031 144.491 435.065 144.459 433.065C144.518 424.611 139.69 419.85 130.114 418.911C129.621 418.862 128.896 418.811 128.03 418.811" fill="black"/>
<path d="M369.161 259.434C366.381 257.411 362.633 257.582 359.629 258.826C355.207 260.656 351.473 263.253 350.648 267.968C350.438 269.174 352.764 274.208 353.962 276.026C355.38 278.181 358.979 282.112 362.096 282.366C364.756 282.583 367.231 281.007 369.222 279.23C372.822 276.014 375.767 271.24 374.622 266.55C373.931 263.734 371.922 261.437 369.165 259.434" fill="#0086D5"/>
<path d="M362.606 283.386C362.406 283.386 362.213 283.379 362.015 283.362C358.184 283.05 354.301 278.357 353.127 276.575C352.175 275.13 349.357 269.559 349.667 267.794C350.667 262.069 355.614 259.406 359.248 257.901C363.043 256.332 366.969 256.601 369.748 258.623C372.986 260.978 374.897 263.494 375.588 266.31C376.667 270.717 374.536 275.825 369.888 279.974C367.321 282.266 364.932 283.386 362.606 283.386ZM364.153 258.906C362.732 258.917 361.326 259.203 360.012 259.748C354.86 261.881 352.276 264.47 351.634 268.138C351.563 268.99 353.513 273.524 354.799 275.474C356.283 277.729 359.655 281.163 362.179 281.368C364.124 281.536 366.203 280.585 368.556 278.483C370.089 277.116 374.984 272.233 373.649 266.783C373.075 264.445 371.416 262.302 368.575 260.238C367.281 259.333 365.732 258.866 364.153 258.903" fill="black"/>
<path d="M308.005 483.808C306.935 483.767 305.916 483.338 305.14 482.6C303 480.792 304.469 477.312 304.95 476.167C305.77 474.414 306.891 472.819 308.264 471.455C312.626 466.793 317.693 462.845 323.28 459.755C320.08 459.118 316.493 460.555 313.85 462.025C308.879 464.8 304.44 468.617 300.15 472.309C297.978 474.178 295.73 476.109 293.427 477.9C292.345 478.834 291.093 479.553 289.74 480.016C288.953 480.276 288.112 480.325 287.3 480.156C286.489 479.988 285.736 479.609 285.118 479.057C284.296 478.178 283.821 477.029 283.783 475.826C283.561 472.509 285.567 469.557 287.095 467.626C296.246 456.059 305.888 449.618 316.577 447.939C316.833 447.91 317.091 447.981 317.296 448.137C317.501 448.293 317.638 448.523 317.678 448.777C317.718 449.032 317.658 449.293 317.511 449.504C317.363 449.716 317.14 449.862 316.887 449.913C306.72 451.513 297.487 457.713 288.664 468.865C287.341 470.539 285.601 473.065 285.779 475.696C285.785 476.41 286.047 477.097 286.518 477.634C286.886 477.934 287.326 478.133 287.794 478.214C288.262 478.295 288.743 478.254 289.19 478.095C290.295 477.699 291.316 477.097 292.199 476.323C294.464 474.566 296.692 472.648 298.847 470.795C303.213 467.039 307.73 463.154 312.877 460.282C316.518 458.249 321.784 456.326 326.197 458.701C326.357 458.787 326.49 458.916 326.582 459.072C326.675 459.229 326.723 459.407 326.721 459.589C326.72 459.771 326.669 459.949 326.574 460.103C326.479 460.258 326.343 460.384 326.182 460.468C320.024 463.602 314.458 467.782 309.731 472.821C308.523 474.019 307.529 475.415 306.795 476.95C305.895 479.09 305.768 480.518 306.434 481.079C307.934 482.353 308.801 481.809 310.456 480.567L310.571 480.479C316.743 475.255 323.437 470.68 330.546 466.827C332.846 465.59 335.817 464.338 338.446 465.619C341.636 467.181 350.792 470.695 366.874 469.687C373.051 469.35 379.236 470.166 385.114 472.093C385.363 472.177 385.569 472.354 385.687 472.588C385.806 472.822 385.828 473.093 385.749 473.343C385.669 473.593 385.495 473.802 385.263 473.925C385.031 474.048 384.76 474.074 384.509 473.999C378.867 472.147 372.929 471.362 366.999 471.683C350.441 472.72 340.899 469.047 337.568 467.417C335.768 466.536 333.488 467.517 331.494 468.586C324.489 472.384 317.895 476.894 311.815 482.045L311.659 482.165C310.654 483.096 309.374 483.675 308.011 483.815" fill="black"/>
<path d="M279.976 482.193C279.552 482.195 279.13 482.131 278.724 482.005C276.379 481.268 275.371 478.664 275.207 476.473C274.814 471.185 277.638 466.273 279.795 463.034C287.075 452.116 294.595 445.229 302.137 442.562C302.387 442.474 302.662 442.488 302.902 442.603C303.141 442.717 303.325 442.922 303.413 443.172C303.502 443.422 303.487 443.697 303.373 443.936C303.258 444.176 303.053 444.36 302.803 444.448C295.672 446.967 288.492 453.592 281.457 464.148C279.463 467.138 276.857 471.655 277.201 476.328C277.311 477.795 277.931 479.664 279.324 480.101C279.755 480.202 280.202 480.208 280.634 480.118C281.067 480.029 281.475 479.847 281.83 479.584C282.697 478.947 283.46 478.18 284.092 477.31C284.173 477.202 284.275 477.112 284.391 477.044C284.507 476.976 284.636 476.933 284.77 476.916C284.904 476.9 285.039 476.91 285.169 476.948C285.298 476.985 285.419 477.047 285.523 477.132C285.628 477.217 285.714 477.322 285.777 477.441C285.84 477.56 285.878 477.691 285.89 477.825C285.901 477.959 285.885 478.094 285.843 478.222C285.801 478.35 285.733 478.468 285.644 478.569C284.885 479.601 283.969 480.508 282.928 481.256C282.057 481.85 281.03 482.178 279.975 482.198" fill="black"/>
<path d="M273.778 476.272C272.555 476.266 271.362 475.886 270.359 475.184C267.211 472.984 270.825 461.018 274.847 454.377C282.966 440.969 293.335 431.298 304.827 426.4C310.718 422.454 336.745 430.38 347.707 433.985C350.986 435.157 354.413 435.86 357.888 436.072C367.503 436.372 379.888 436.541 383.134 436.033C383.397 435.992 383.664 436.056 383.879 436.213C384.093 436.369 384.237 436.604 384.278 436.866C384.319 437.128 384.254 437.396 384.098 437.611C383.942 437.825 383.707 437.969 383.444 438.01C379.081 438.688 361.339 438.178 357.825 438.069C354.16 437.852 350.544 437.118 347.085 435.887C329.309 430.04 309.679 425.364 305.898 428.087C305.836 428.131 305.769 428.168 305.698 428.197C294.714 432.851 284.362 442.515 276.552 455.41C272.052 462.829 270.224 472.651 271.503 473.545C272.053 473.95 272.704 474.194 273.384 474.25C274.064 474.306 274.746 474.172 275.354 473.862C275.467 473.791 275.593 473.744 275.725 473.722C275.856 473.701 275.991 473.706 276.12 473.738C276.249 473.769 276.371 473.826 276.478 473.905C276.586 473.984 276.676 474.083 276.744 474.198C276.812 474.312 276.857 474.439 276.875 474.571C276.894 474.703 276.886 474.837 276.851 474.966C276.817 475.095 276.758 475.215 276.676 475.321C276.595 475.426 276.493 475.514 276.377 475.58C275.589 476.04 274.691 476.279 273.777 476.271" fill="black"/>
<path d="M331.132 219.23C336.532 232.479 348.132 250.821 359.924 257.9C353.508 263.51 345.455 272.34 331.957 282.384C327.206 258.584 322.273 247.262 319.411 228.661C322.505 226.361 327.279 221.546 331.132 219.23Z" fill="white"/>
<path d="M331.957 283.385C331.727 283.385 331.503 283.306 331.324 283.16C331.145 283.014 331.022 282.811 330.976 282.585C328.76 271.485 326.464 262.952 324.436 255.423C321.909 246.681 319.901 237.797 318.423 228.818C318.396 228.638 318.417 228.454 318.486 228.286C318.555 228.117 318.668 227.97 318.813 227.861C319.965 227.007 321.383 225.767 322.884 224.461C325.295 222.23 327.881 220.196 330.618 218.38C330.742 218.306 330.88 218.259 331.023 218.243C331.166 218.228 331.311 218.243 331.448 218.288C331.585 218.334 331.71 218.408 331.815 218.506C331.921 218.605 332.004 218.725 332.058 218.858C337.734 232.78 349.307 250.368 360.44 257.05C360.575 257.131 360.689 257.243 360.772 257.376C360.856 257.51 360.906 257.661 360.92 257.817C360.934 257.974 360.911 258.132 360.853 258.278C360.794 258.424 360.702 258.554 360.584 258.658C358.705 260.3 356.714 262.197 354.405 264.39C347.532 271.118 340.233 277.398 332.554 283.19C332.381 283.32 332.171 283.39 331.954 283.39M320.49 229.096C321.958 237.801 323.92 246.415 326.369 254.896C328.307 262.096 330.493 270.222 332.624 280.63C339.769 275.139 346.581 269.229 353.024 262.93C354.945 261.102 356.65 259.479 358.264 258.03C347.416 250.855 336.418 234.275 330.664 220.711C328.412 222.336 326.253 224.087 324.197 225.955C322.865 227.119 321.597 228.227 320.488 229.091" fill="black"/>
<path d="M367.976 257.837C374.702 266.31 381.427 274.786 389.52 283.483C399.311 264.367 409.214 244.656 413.67 223.647C409.48 221.704 400.37 215.682 396.177 213.739C397.395 218.205 399.877 222.239 399.286 223.647C398.905 224.547 378.462 247.992 367.976 257.837Z" fill="white"/>
<path d="M389.518 284.484C389.381 284.484 389.245 284.455 389.119 284.4C388.993 284.345 388.88 284.265 388.786 284.164C380.657 275.43 373.812 266.803 367.186 258.464C367.031 258.267 366.954 258.02 366.973 257.77C366.991 257.52 367.103 257.286 367.286 257.114C377.765 247.277 397.166 224.984 398.369 223.229C398.489 222.69 397.7 220.757 397.122 219.339C396.376 217.602 395.736 215.822 395.206 214.007C395.154 213.822 395.157 213.626 395.213 213.443C395.27 213.259 395.378 213.096 395.525 212.972C395.672 212.848 395.851 212.769 396.042 212.745C396.232 212.721 396.426 212.751 396.599 212.834C398.742 213.827 402.146 215.865 405.438 217.834C408.686 219.779 412.044 221.79 414.092 222.739C414.298 222.834 414.465 222.996 414.567 223.199C414.668 223.401 414.698 223.632 414.651 223.854C410.029 245.639 399.606 265.985 390.411 283.937C390.338 284.08 390.231 284.203 390.1 284.296C389.969 284.389 389.818 284.449 389.659 284.471C389.614 284.478 389.568 284.481 389.522 284.481M369.33 257.932C375.485 265.685 381.859 273.68 389.285 281.753C398.148 264.438 407.993 244.935 412.53 224.204C410.387 223.13 407.356 221.315 404.411 219.55C402.117 218.176 399.767 216.768 397.863 215.728C398.224 216.728 398.615 217.685 398.978 218.576C400.025 221.141 400.718 222.834 400.208 224.035C399.678 225.287 379.808 247.924 369.33 257.935" fill="black"/>
<path d="M298.694 431.702C298.451 431.702 298.217 431.613 298.035 431.453C297.852 431.293 297.735 431.072 297.703 430.831C293.242 396.461 280.681 360.465 263.245 332.073C263.167 331.961 263.113 331.835 263.085 331.701C263.058 331.568 263.058 331.43 263.085 331.297C263.113 331.163 263.167 331.037 263.246 330.926C263.324 330.814 263.424 330.72 263.54 330.648C263.656 330.577 263.785 330.53 263.92 330.51C264.055 330.49 264.193 330.498 264.324 330.534C264.456 330.569 264.579 330.631 264.686 330.716C264.792 330.8 264.881 330.906 264.945 331.026C282.526 359.649 295.186 395.933 299.684 430.575C299.701 430.705 299.692 430.838 299.658 430.964C299.623 431.091 299.565 431.21 299.484 431.314C299.404 431.418 299.304 431.505 299.19 431.571C299.076 431.636 298.951 431.678 298.82 431.695C298.777 431.7 298.734 431.702 298.691 431.702" fill="black"/>
<path d="M240.513 433.456C240.334 433.456 240.157 433.407 240.003 433.316C239.848 433.224 239.721 433.092 239.636 432.934C239.55 432.777 239.508 432.599 239.514 432.419C239.521 432.239 239.576 432.065 239.673 431.914C252.363 412.252 268.233 386.374 278.397 360.601C278.442 360.475 278.512 360.358 278.603 360.26C278.693 360.161 278.803 360.081 278.925 360.025C279.047 359.97 279.179 359.939 279.313 359.936C279.448 359.932 279.581 359.956 279.706 360.005C279.831 360.054 279.944 360.128 280.04 360.222C280.136 360.316 280.212 360.428 280.263 360.552C280.315 360.676 280.341 360.809 280.34 360.943C280.339 361.077 280.311 361.21 280.257 361.333C270.027 387.272 254.094 413.257 241.357 433C241.266 433.14 241.142 433.256 240.994 433.335C240.847 433.415 240.683 433.457 240.515 433.456" fill="black"/>
<path d="M300.96 487.159H300.95C300.819 487.158 300.689 487.131 300.568 487.079C300.447 487.028 300.337 486.953 300.245 486.859C300.153 486.766 300.081 486.655 300.031 486.533C299.982 486.411 299.958 486.28 299.959 486.149L300.118 470.199C300.12 469.935 300.227 469.683 300.414 469.498C300.601 469.312 300.854 469.208 301.118 469.208H301.128C301.259 469.209 301.389 469.236 301.51 469.288C301.631 469.339 301.741 469.414 301.833 469.508C301.925 469.601 301.998 469.712 302.047 469.834C302.096 469.956 302.12 470.087 302.119 470.218L301.96 486.168C301.958 486.432 301.851 486.684 301.664 486.869C301.477 487.055 301.224 487.159 300.96 487.159Z" fill="black"/>
<path d="M399.023 119.782C398.944 119.782 398.866 119.772 398.789 119.753C398.532 119.691 398.309 119.529 398.171 119.303C398.033 119.076 397.99 118.805 398.052 118.547C399.052 114.413 399.497 112.182 400.309 108.134C400.331 108.002 400.38 107.876 400.452 107.763C400.524 107.65 400.618 107.552 400.728 107.476C400.838 107.4 400.963 107.347 401.094 107.32C401.225 107.293 401.361 107.293 401.492 107.319C401.623 107.346 401.748 107.398 401.859 107.474C401.969 107.549 402.064 107.646 402.136 107.759C402.209 107.871 402.258 107.997 402.281 108.129C402.304 108.261 402.3 108.397 402.269 108.527C401.451 112.6 401.002 114.845 399.995 119.018C399.942 119.236 399.818 119.429 399.642 119.568C399.466 119.707 399.247 119.782 399.023 119.782Z" fill="black"/>
<path d="M501.321 421.354C501.056 421.359 500.799 421.259 500.608 421.076C500.416 420.892 500.306 420.64 500.3 420.375C500.294 420.11 500.394 419.853 500.578 419.661C500.762 419.47 501.014 419.359 501.279 419.354C508.279 419.054 515.379 418.868 522.388 418.783H522.398C522.663 418.781 522.918 418.885 523.107 419.071C523.296 419.258 523.402 419.512 523.404 419.777C523.406 420.042 523.302 420.297 523.115 420.486C522.929 420.674 522.675 420.781 522.41 420.783C515.423 420.868 508.344 421.059 501.364 421.354H501.32" fill="black"/>
<path d="M563.019 337.221C562.888 337.225 562.757 337.203 562.634 337.157C562.511 337.11 562.399 337.04 562.303 336.95C562.208 336.86 562.131 336.752 562.077 336.632C562.023 336.512 561.993 336.383 561.989 336.252C561.985 336.12 562.007 335.989 562.053 335.867C562.1 335.744 562.17 335.631 562.26 335.535C562.35 335.44 562.458 335.363 562.578 335.309C562.698 335.255 562.827 335.225 562.958 335.221C584.104 333.928 605.558 333.542 626.733 334.072C626.865 334.075 626.994 334.104 627.114 334.158C627.234 334.211 627.343 334.287 627.433 334.382C627.524 334.477 627.595 334.589 627.642 334.712C627.689 334.835 627.712 334.965 627.709 335.097C627.706 335.228 627.676 335.357 627.623 335.477C627.57 335.597 627.494 335.706 627.399 335.796C627.303 335.887 627.191 335.958 627.069 336.005C626.946 336.053 626.816 336.075 626.684 336.072C605.565 335.542 584.167 335.928 563.084 337.217H563.023" fill="black"/>
<path d="M571.259 356.698C570.994 356.701 570.738 356.598 570.549 356.412C570.36 356.227 570.252 355.973 570.249 355.708C570.246 355.443 570.349 355.187 570.535 354.998C570.721 354.809 570.974 354.701 571.239 354.698L616.655 353.817C616.786 353.815 616.917 353.838 617.039 353.886C617.162 353.934 617.273 354.005 617.368 354.096C617.463 354.187 617.538 354.296 617.591 354.416C617.644 354.537 617.672 354.666 617.675 354.798C617.677 354.929 617.654 355.059 617.606 355.182C617.558 355.304 617.487 355.416 617.395 355.51C617.304 355.605 617.196 355.681 617.075 355.733C616.955 355.786 616.825 355.815 616.694 355.817L571.278 356.696L571.259 356.698Z" fill="black"/>
<path d="M594.862 440.881C594.73 440.884 594.6 440.861 594.477 440.813C594.355 440.765 594.243 440.694 594.148 440.603C594.054 440.512 593.978 440.403 593.925 440.283C593.872 440.162 593.844 440.033 593.841 439.902C593.838 439.77 593.862 439.64 593.909 439.517C593.957 439.395 594.028 439.283 594.119 439.189C594.21 439.094 594.319 439.018 594.439 438.965C594.56 438.912 594.689 438.884 594.821 438.881L618.21 437.873C618.341 437.866 618.473 437.885 618.597 437.929C618.721 437.974 618.835 438.042 618.933 438.132C619.03 438.221 619.108 438.329 619.163 438.449C619.218 438.569 619.248 438.698 619.252 438.83C619.263 439.095 619.169 439.353 618.99 439.548C618.811 439.744 618.562 439.86 618.298 439.872L594.907 440.88H594.863" fill="black"/>
<path d="M419.409 255.026C419.335 255.026 419.261 255.018 419.189 255.002C418.931 254.944 418.706 254.786 418.564 254.562C418.422 254.338 418.375 254.068 418.432 253.809C419.725 248.045 420.797 242.159 421.617 236.309C421.654 236.046 421.794 235.809 422.006 235.649C422.218 235.489 422.484 235.42 422.747 235.457C423.01 235.494 423.247 235.634 423.407 235.846C423.567 236.057 423.636 236.324 423.599 236.587C422.772 242.487 421.688 248.428 420.385 254.243C420.335 254.465 420.212 254.663 420.034 254.805C419.857 254.947 419.636 255.024 419.409 255.024" fill="black"/>
<path d="M431.774 246.355C431.745 246.355 431.713 246.355 431.684 246.355C431.42 246.331 431.177 246.203 431.007 245.999C430.837 245.795 430.756 245.533 430.779 245.269L431.706 235C431.737 234.741 431.868 234.505 432.07 234.341C432.272 234.177 432.531 234.099 432.79 234.122C433.049 234.146 433.289 234.27 433.459 234.467C433.628 234.665 433.714 234.921 433.697 235.181L432.77 245.45C432.748 245.699 432.633 245.931 432.448 246.099C432.262 246.268 432.021 246.361 431.77 246.36" fill="black"/>
<path d="M373.312 438.302C373.278 438.302 373.241 438.302 373.212 438.302C373.081 438.289 372.954 438.249 372.839 438.187C372.723 438.124 372.621 438.039 372.538 437.937C372.456 437.835 372.394 437.717 372.357 437.591C372.319 437.465 372.307 437.333 372.321 437.202C372.455 435.92 372.674 434.648 372.977 433.395C373.266 431.972 373.833 430.619 374.646 429.415C375.108 428.748 375.715 428.193 376.421 427.793C377.127 427.393 377.914 427.156 378.724 427.102H378.749C378.88 427.101 379.011 427.125 379.133 427.174C379.255 427.222 379.366 427.295 379.46 427.387C379.554 427.478 379.629 427.588 379.68 427.708C379.732 427.829 379.759 427.959 379.761 428.09C379.763 428.221 379.738 428.352 379.689 428.474C379.641 428.596 379.568 428.707 379.477 428.801C379.385 428.895 379.275 428.97 379.155 429.021C379.034 429.073 378.904 429.101 378.773 429.102C378.268 429.149 377.779 429.307 377.343 429.567C376.907 429.826 376.534 430.18 376.252 430.602C375.597 431.592 375.144 432.7 374.917 433.865C374.636 435.032 374.432 436.217 374.307 437.411C374.282 437.657 374.167 437.886 373.984 438.052C373.8 438.218 373.562 438.311 373.314 438.311" fill="black"/>
<path d="M374.407 483.322C373.954 483.306 373.509 483.189 373.106 482.979C372.703 482.769 372.352 482.472 372.08 482.109C371.64 481.513 371.317 480.84 371.127 480.125C370.236 477.236 369.988 474.188 370.401 471.193C370.439 470.932 370.579 470.696 370.79 470.537C371.001 470.377 371.266 470.307 371.528 470.341C371.79 470.378 372.027 470.517 372.187 470.728C372.346 470.939 372.416 471.205 372.379 471.468C372.009 474.171 372.233 476.923 373.035 479.531C373.158 480.009 373.364 480.461 373.645 480.866C373.735 480.992 373.85 481.097 373.982 481.176C374.115 481.254 374.263 481.304 374.416 481.322C374.68 481.321 374.934 481.422 375.125 481.605C375.315 481.788 375.427 482.037 375.437 482.301C375.439 482.432 375.416 482.563 375.368 482.685C375.32 482.808 375.249 482.919 375.157 483.014C375.066 483.109 374.957 483.185 374.837 483.237C374.717 483.29 374.587 483.318 374.455 483.321L374.407 483.322Z" fill="black"/>
<path d="M408.566 48.9649C409.14 68.08 408.631 87.2123 407.041 106.27C406.036 118.126 403.498 129.801 399.49 141.004C397.638 146.075 395.956 148.679 391.029 152.142C389.906 147.542 384.652 146.095 383.081 141.6C381.146 136.073 383.911 130.411 379.591 125.979C371.526 117.8 365.214 108.063 361.039 97.3629C357.752 88.7949 356.031 79.4699 358.757 70.5329C360.321 65.6694 363.092 61.2819 366.813 57.7808C370.533 54.2798 375.081 51.7795 380.03 50.5139C388.169 48.4879 401.178 44.9089 408.566 48.9649Z" fill="black"/>
<path d="M391.307 153.103C391.178 153.141 391.042 153.152 390.908 153.136C390.774 153.119 390.645 153.076 390.528 153.009C390.412 152.941 390.31 152.851 390.229 152.743C390.148 152.635 390.09 152.512 390.057 152.381C389.547 150.287 387.997 148.881 386.357 147.398C384.695 145.89 382.975 144.33 382.135 141.932C381.459 139.697 381.163 137.365 381.259 135.032C381.222 131.832 381.193 129.063 378.872 126.683C370.704 118.414 364.317 108.558 360.104 97.7251C356.104 87.2851 355.345 78.2951 357.798 70.2461C359.413 65.2168 362.277 60.6795 366.123 57.0591C369.969 53.4387 374.671 50.8537 379.788 49.5461L381.067 49.2261C389.279 47.1661 401.691 44.0551 409.046 48.0941C409.2 48.178 409.329 48.301 409.419 48.4506C409.51 48.6002 409.56 48.7712 409.563 48.9461C410.145 68.0956 409.635 87.2627 408.035 106.354C407.027 118.301 404.47 130.067 400.426 141.354C398.591 146.384 396.88 149.254 391.604 152.968C391.512 153.031 391.411 153.079 391.304 153.11M379.254 51.7561C374.688 53.0992 370.521 55.539 367.114 58.8629C363.708 62.1867 361.166 66.2935 359.711 70.8251C357.393 78.4321 358.132 86.9951 361.973 97.0061C366.088 107.585 372.327 117.209 380.305 125.283C383.182 128.236 383.221 131.677 383.258 135.006C383.168 137.123 383.426 139.24 384.022 141.273C384.693 143.191 386.155 144.516 387.702 145.917C389.291 147.17 390.597 148.745 391.533 150.539C395.56 147.493 396.963 145.009 398.549 140.663C402.53 129.547 405.049 117.961 406.043 106.195C407.62 87.369 408.132 68.469 407.578 49.5851C400.825 46.3321 389.265 49.2291 381.551 51.1641L380.27 51.4841C379.931 51.5691 379.592 51.6601 379.255 51.7571" fill="black"/>
<path d="M282.956 99.1379C285.631 114.464 284.393 130.226 286.177 145.674C287.961 161.122 293.322 176.992 306.584 187.344C318.259 196.456 335.53 200.21 351.47 197.096C367.41 193.982 381.606 184.096 388.37 171.377C394.725 159.424 393.224 135.208 392.943 123.033C400.23 123.267 407.91 120.087 411.643 114.638C413.502 112.039 414.261 108.812 413.755 105.658C413.25 102.503 411.521 99.6748 408.943 97.7869C403.455 93.8969 397.066 93.9599 390.681 101.523C389.976 91.5489 387.101 82.0749 385.803 77.7169C382.281 65.8859 379.883 47.9879 370.848 43.8609C365.733 41.5229 355.381 40.1929 349.578 39.4099C339.553 38.0579 326.778 45.8499 316.603 47.0529C306.428 48.2559 296.603 54.3669 289.017 60.4339C279.941 67.6889 280.964 87.6709 282.965 99.1339" fill="white"/>
<path d="M356.737 196.849C355.071 197.332 353.379 197.742 351.663 198.077C335.405 201.25 317.895 197.44 305.969 188.13C294.375 179.081 287.383 164.83 285.184 145.789C284.403 139.017 284.196 132.089 283.996 125.397C283.737 116.79 283.469 107.887 281.973 99.3091C281.09 94.2481 277.251 68.5531 288.386 59.6501C298.394 51.6501 307.846 47.0801 316.48 46.0591C320.543 45.5781 325.002 44.0291 329.722 42.3911C336.522 40.0291 343.552 37.5911 349.706 38.4181L350.343 38.5031C356.271 39.3031 366.191 40.6331 371.257 42.9491C378.849 46.4191 381.929 58.6751 384.647 69.4881C385.357 72.3161 386.028 74.9881 386.756 77.4291L386.841 77.7191C389.05 84.7094 390.601 91.891 391.473 99.1701C397.149 93.4991 403.492 92.7011 409.515 96.9701C412.32 98.9996 414.206 102.059 414.758 105.477C415.31 108.895 414.484 112.392 412.461 115.202C408.844 120.49 401.509 123.965 393.968 124.041C393.995 125.005 394.024 126.032 394.058 127.113C394.463 140.562 395.078 160.888 389.25 171.845C383.064 183.478 370.884 192.745 356.737 196.845M283.942 98.9651C285.465 107.685 285.733 116.658 285.992 125.336C286.192 131.991 286.4 138.87 287.171 145.56C289.304 164.053 296.044 177.846 307.202 186.554C318.684 195.518 335.574 199.181 351.28 196.115C366.986 193.049 380.848 183.391 387.486 170.908C393.062 160.417 392.433 139.608 392.059 127.174C392.013 125.69 391.971 124.309 391.942 123.055C391.94 122.919 391.965 122.783 392.017 122.657C392.068 122.53 392.145 122.416 392.242 122.32C392.339 122.225 392.454 122.15 392.58 122.1C392.706 122.051 392.842 122.028 392.977 122.032C400.227 122.266 407.397 119.067 410.816 114.071C412.539 111.693 413.248 108.729 412.788 105.828C412.327 102.928 410.736 100.329 408.361 98.6011C402.585 94.5081 396.891 95.7091 391.439 102.164C391.311 102.315 391.14 102.425 390.949 102.479C390.758 102.534 390.556 102.53 390.367 102.468C390.178 102.407 390.012 102.291 389.89 102.134C389.767 101.978 389.694 101.789 389.679 101.591C388.996 91.9471 386.248 82.7241 384.928 78.2911L384.84 77.9981C384.103 75.5211 383.425 72.8271 382.71 69.9741C380.101 59.6001 377.148 47.8371 370.427 44.7671C365.627 42.5731 355.894 41.2671 350.079 40.4841L349.44 40.3991C343.761 39.6331 336.96 41.9991 330.38 44.2791C325.765 45.8791 320.994 47.5371 316.716 48.0421C308.458 49.0211 299.348 53.4501 289.637 61.2101C281.684 67.5671 281.598 85.5211 283.944 98.9631" fill="black"/>
<path d="M326.769 68.1331C326.469 75.1691 317.664 86.5971 311.18 88.4441C304.696 90.2911 301.675 87.6831 297.89 81.8091C292.948 88.0541 289.497 94.1431 283.919 97.4811C275.395 102.586 263.066 98.8671 258.324 89.7601C253.582 80.6531 257.341 67.9111 266.124 63.3091C260.143 65.9181 252.777 60.6931 251.462 54.0091C250.147 47.3251 253.762 40.4311 259.005 36.4631C264.248 32.4951 270.836 30.9721 277.142 28.8881C273.55 22.8261 275.248 14.4581 279.895 9.33615C284.542 4.21415 291.488 1.95915 298.261 1.58915C302.712 1.35015 307.334 1.88215 311.276 4.11015C313.344 5.28091 315.119 6.90663 316.466 8.86432C317.813 10.822 318.697 13.0604 319.051 15.4101C323.548 7.07015 332.028 0.489145 341.226 1.03015C350.424 1.57115 358.999 11.1891 360.986 18.5011C364.342 12.4591 369.186 7.12115 375.858 6.30115C389.104 4.67315 394.051 15.3161 390.698 30.7391C397.072 26.0511 408.017 27.2081 413.142 36.7811C416.956 43.9091 416.327 56.4461 412.117 63.3031C407.907 70.1601 390.239 78.5141 375.601 71.5251C367.467 67.6421 362.801 61.2021 359.521 54.9571C356.854 62.2511 354.848 67.3011 345.784 72.1761C339.17 75.7321 330.324 74.4191 326.768 68.1321" fill="black"/>
<path d="M397.445 73.7529C390.617 75.7299 382.571 75.9589 375.169 72.4249C367.145 68.5939 362.547 62.3609 359.697 57.3629C357.405 63.4399 354.897 68.4059 346.258 73.0519C339.706 76.5779 331.658 75.407 327.377 70.673C325.532 77.96 317.608 87.6219 311.488 89.3929L311.451 89.4029C304.911 91.2669 301.46 88.8299 297.821 83.5169C296.921 84.6909 296.061 85.8549 295.227 86.9899C291.918 91.4829 288.794 95.7269 284.427 98.3379C282.223 99.5961 279.786 100.393 277.264 100.68C274.742 100.967 272.189 100.738 269.758 100.007C267.147 99.2973 264.709 98.0637 262.59 96.3813C260.471 94.699 258.717 92.603 257.434 90.2209C253.115 81.9289 255.394 70.9879 262.034 64.9629C260.496 64.8289 259.001 64.3828 257.641 63.6519C255.829 62.6965 254.249 61.3555 253.011 59.7233C251.774 58.0911 250.909 56.2074 250.478 54.2049C248.994 46.6639 253.387 39.4599 258.4 35.6679C262.812 32.3269 268.154 30.6629 273.321 29.0549C274.114 28.8059 274.91 28.5549 275.703 28.3059C272.848 22.3059 274.231 14.0909 279.154 8.66594C283.486 3.88794 290.254 1.02294 298.206 0.592944C303.582 0.304944 308.143 1.19294 311.767 3.24094C315.441 5.31913 318.192 8.71063 319.467 12.7339C324.767 4.46794 333.101 -0.456056 341.279 0.0339438C349.879 0.543944 358.171 8.51194 361.224 16.1109C365.278 9.62694 370.144 5.99094 375.724 5.31094C381.215 4.63494 385.676 5.99194 388.631 9.22994C392.357 13.2989 393.568 20.1649 392.108 28.6989C395.412 27.0791 399.172 26.6431 402.758 27.4639C405.165 28.0294 407.42 29.1129 409.366 30.6392C411.312 32.1654 412.901 34.0975 414.023 36.3009C417.952 43.6439 417.462 56.5009 412.966 63.8189C410.716 67.4819 404.781 71.6189 397.445 73.7489M359.241 53.9989C359.311 53.9791 359.383 53.9667 359.456 53.9619C359.649 53.95 359.842 53.9938 360.01 54.0881C360.179 54.1824 360.317 54.3233 360.408 54.4939C363.008 59.4599 367.461 66.5319 376.034 70.6249C389.856 77.2249 407.149 69.4779 411.261 62.7789C415.361 56.1049 415.837 43.9369 412.261 37.2519C411.272 35.3027 409.871 33.5924 408.154 32.24C406.437 30.8876 404.446 29.9256 402.319 29.4209C400.435 28.9756 398.479 28.9346 396.578 29.3005C394.677 29.6664 392.875 30.431 391.291 31.5439C391.128 31.6651 390.931 31.7335 390.727 31.7399C390.524 31.7463 390.323 31.6905 390.152 31.5798C389.981 31.4691 389.848 31.3089 389.771 31.1206C389.694 30.9323 389.676 30.7248 389.719 30.5259C391.659 21.5969 390.751 14.5099 387.164 10.5759C384.628 7.79594 380.864 6.69294 375.977 7.29394C370.547 7.95994 365.798 11.8939 361.859 18.9859C361.763 19.1601 361.617 19.3015 361.439 19.3921C361.262 19.4828 361.062 19.5184 360.864 19.4946C360.667 19.4707 360.481 19.3885 360.33 19.2583C360.18 19.1281 360.071 18.956 360.019 18.7639C358.219 12.1359 350.172 2.56394 341.165 2.02794C333.065 1.54994 324.727 6.98894 319.931 15.8919C319.832 16.078 319.676 16.2277 319.486 16.3198C319.296 16.4118 319.082 16.4414 318.874 16.4044C318.666 16.3673 318.476 16.2654 318.329 16.1134C318.183 15.9614 318.088 15.767 318.059 15.5579C317.721 13.3614 316.891 11.2695 315.631 9.4386C314.372 7.60765 312.715 6.08488 310.784 4.98394C307.497 3.12894 303.304 2.32394 298.318 2.59194C290.892 2.99194 284.61 5.62794 280.632 10.0129C275.971 15.1499 274.839 23.0469 278.001 28.3819C278.077 28.5106 278.124 28.6547 278.137 28.8036C278.15 28.9525 278.13 29.1024 278.077 29.2424C278.025 29.3824 277.941 29.5088 277.834 29.6124C277.726 29.716 277.596 29.7941 277.454 29.8409C276.28 30.2289 275.097 30.5979 273.915 30.9659C268.685 32.5959 263.741 34.1359 259.607 37.2659C255.087 40.6829 251.119 47.1279 252.44 53.8219C252.81 55.5322 253.55 57.1406 254.608 58.5342C255.666 59.9277 257.017 61.0725 258.565 61.8879C259.642 62.5097 260.846 62.8785 262.086 62.9665C263.326 63.0545 264.57 62.8594 265.723 62.3959C265.959 62.2991 266.223 62.2961 266.462 62.3877C266.7 62.4792 266.894 62.6583 267.004 62.8884C267.115 63.1184 267.133 63.3819 267.056 63.625C266.978 63.8681 266.81 64.0723 266.587 64.1959C258.326 68.5229 254.741 80.7249 259.205 89.2959C260.363 91.4367 261.944 93.3197 263.852 94.8305C265.76 96.3412 267.956 97.4481 270.305 98.0839C272.474 98.7401 274.753 98.9489 277.005 98.6976C279.257 98.4463 281.434 97.7401 283.405 96.6219C287.424 94.216 290.294 90.3219 293.618 85.8059C294.723 84.3059 295.866 82.7529 297.103 81.1859C297.202 81.0607 297.329 80.9609 297.475 80.8948C297.62 80.8288 297.779 80.7985 297.938 80.8064C298.097 80.8143 298.253 80.8603 298.391 80.9404C298.529 81.0205 298.645 81.1325 298.731 81.2669C302.375 86.9239 305 89.1669 310.904 87.4799L310.936 87.4729C317.052 85.7009 325.498 74.6729 325.771 68.0889C325.779 67.8717 325.858 67.6631 325.996 67.4952C326.134 67.3272 326.324 67.2091 326.535 67.159C326.747 67.1081 326.969 67.1272 327.169 67.2134C327.369 67.2996 327.535 67.4482 327.643 67.6369C331.052 73.6749 339.543 74.4019 345.311 71.2929C354.24 66.4929 356.061 61.5089 358.584 54.6129C358.638 54.4656 358.726 54.333 358.84 54.2258C358.955 54.1187 359.093 54.0399 359.243 53.9959" fill="black"/>
<path d="M301.084 118.789C300.837 118.095 300.804 117.343 300.989 116.631C301.174 115.918 301.568 115.277 302.121 114.791C302.674 114.304 303.36 113.995 304.09 113.903C304.821 113.81 305.562 113.939 306.219 114.273C306.875 114.606 307.417 115.129 307.773 115.773C308.13 116.417 308.285 117.154 308.218 117.887C308.152 118.62 307.867 119.317 307.4 119.887C306.934 120.456 306.307 120.873 305.601 121.083C304.698 121.377 303.715 121.301 302.868 120.871C302.021 120.441 301.379 119.692 301.084 118.789Z" fill="black"/>
<path d="M351.993 112.536C351.746 111.842 351.713 111.09 351.898 110.378C352.083 109.665 352.477 109.024 353.03 108.538C353.583 108.051 354.269 107.742 355 107.65C355.73 107.557 356.472 107.686 357.128 108.02C357.785 108.353 358.326 108.876 358.682 109.52C359.039 110.164 359.194 110.901 359.127 111.634C359.061 112.367 358.776 113.064 358.309 113.634C357.843 114.203 357.216 114.62 356.51 114.83C355.607 115.124 354.624 115.048 353.777 114.618C352.93 114.188 352.289 113.439 351.993 112.536Z" fill="black"/>
<path d="M349.435 173.724C347.282 174.354 345.032 174.586 342.795 174.407C342.66 174.402 342.527 174.369 342.405 174.312C342.283 174.254 342.174 174.172 342.084 174.071C341.994 173.97 341.926 173.851 341.884 173.723C341.841 173.595 341.825 173.459 341.836 173.324C341.847 173.19 341.886 173.059 341.949 172.939C342.012 172.82 342.099 172.714 342.204 172.63C342.309 172.545 342.431 172.482 342.561 172.445C342.691 172.408 342.827 172.398 342.961 172.416C346.114 172.641 349.268 171.99 352.074 170.535C354.88 169.079 357.229 166.877 358.861 164.17C358.925 164.052 359.012 163.948 359.117 163.864C359.222 163.78 359.343 163.718 359.472 163.682C359.602 163.646 359.737 163.637 359.87 163.654C360.003 163.671 360.132 163.715 360.248 163.783C360.363 163.852 360.464 163.942 360.544 164.05C360.624 164.158 360.682 164.281 360.713 164.412C360.744 164.542 360.749 164.678 360.727 164.81C360.705 164.943 360.656 165.07 360.584 165.183C358.084 169.338 354.101 172.39 349.439 173.724" fill="black"/>
<path d="M337.275 156.325C334.162 157.153 330.901 157.264 327.738 156.65C326.114 156.467 324.564 155.868 323.238 154.91C322.34 154.106 321.641 153.106 321.195 151.986C320.748 150.867 320.568 149.659 320.666 148.458C320.803 146.57 321.177 144.707 321.779 142.913L322.016 142.093C324.789 132.311 325.288 122.024 323.474 112.019C323.433 111.761 323.495 111.497 323.646 111.284C323.797 111.071 324.025 110.925 324.282 110.878C324.54 110.831 324.805 110.887 325.021 111.033C325.238 111.179 325.389 111.404 325.441 111.66C327.311 121.967 326.798 132.565 323.941 142.643L323.702 143.475C323.147 145.107 322.799 146.801 322.666 148.519C322.587 149.411 322.71 150.309 323.028 151.147C323.345 151.984 323.848 152.738 324.499 153.353C325.561 154.085 326.788 154.54 328.069 154.678C331.153 155.29 334.34 155.128 337.345 154.205C338.787 153.748 340.121 153.003 341.266 152.015C342.411 151.027 343.344 149.817 344.007 148.458C344.122 148.229 344.32 148.053 344.561 147.966C344.802 147.879 345.067 147.888 345.302 147.99C345.537 148.093 345.723 148.281 345.823 148.517C345.922 148.753 345.928 149.018 345.837 149.258C345.071 150.876 343.978 152.319 342.628 153.495C341.278 154.671 339.699 155.556 337.991 156.094C337.754 156.175 337.513 156.25 337.271 156.321" fill="black"/>
<path d="M396.952 59.7968C396.726 59.8617 396.484 59.8446 396.269 59.7487C396.054 59.6529 395.88 59.4842 395.777 59.2726C395.674 59.0609 395.65 58.8197 395.707 58.5915C395.764 58.3632 395.901 58.1626 396.091 58.0248C398.718 56.0568 400.691 53.344 401.754 50.2393C402.817 47.1345 402.922 43.7816 402.053 40.6168C401.978 40.3625 402.007 40.0887 402.134 39.8558C402.261 39.6229 402.475 39.4499 402.729 39.3748C402.983 39.3014 403.256 39.3315 403.488 39.4585C403.72 39.5856 403.892 39.7992 403.966 40.0528C404.944 43.6146 404.827 47.3883 403.63 50.8826C402.433 54.3769 400.212 57.4299 397.255 59.6438C397.163 59.7109 397.06 59.7619 396.95 59.7948" fill="black"/>
<g opacity="0.129">
<mask id="mask5_3311_6638" style="mask-type:luminance" maskUnits="userSpaceOnUse" x="284" y="55" width="79" height="48">
<path d="M362.267 55.5142H284.228V102.091H362.267V55.5142Z" fill="white"/>
</mask>
<g mask="url(#mask5_3311_6638)">
<path d="M359.121 55.6044C358.467 56.7754 357.769 57.9204 357.042 59.0474C356.993 59.2814 356.898 59.6474 356.666 60.4724C356.274 61.6131 355.813 62.7288 355.285 63.8134C353.568 66.9195 351.297 69.6853 348.585 71.9744C348.274 71.5782 347.827 71.31 347.331 71.2204C346.835 71.1308 346.324 71.2262 345.893 71.4884C345.747 71.5694 345.593 71.6424 345.441 71.7154C345.37 71.7424 345.287 71.7714 345.175 71.8154C343.372 72.4211 341.533 72.9111 339.667 73.2824L340.275 73.1924C338.337 73.4302 336.378 73.4302 334.44 73.1924C334.306 73.1724 334.04 73.1384 333.796 73.1044C333.307 72.985 332.793 73.026 332.329 73.2214C332.208 73.1951 332.085 73.1764 331.961 73.1654C331.937 73.1314 331.9 73.0824 331.834 72.9994C331.814 72.9604 331.792 72.9234 331.773 72.8844C331.775 72.6705 331.76 72.4568 331.727 72.2454C331.646 71.8604 331.483 71.4972 331.25 71.1801C331.016 70.8631 330.718 70.5994 330.375 70.4068C330.032 70.2142 329.651 70.097 329.259 70.0631C328.867 70.0293 328.472 70.0795 328.101 70.2104C326.576 70.6614 325.973 72.4104 326.176 73.9024C325.986 74.4502 325.768 74.9879 325.522 75.5134C324.431 77.4874 323.138 79.3544 321.857 81.2134C321.613 81.5724 320.9 82.4774 320.791 82.6464C320.732 82.7194 320.674 82.7904 320.615 82.8614C319.115 84.6284 315.981 87.6614 312.815 88.9284L312.769 88.9454C312.007 89.1676 311.226 89.3173 310.436 89.3924C310.221 89.3924 309.95 89.3924 309.711 89.3654C309.594 89.3364 309.474 89.3144 309.362 89.2774C309.079 89.1774 308.803 89.0704 308.53 88.9504L308.313 88.8304C308.213 88.7694 308.113 88.7014 308.013 88.6374C307.128 88.7155 306.238 88.5729 305.421 88.2224C304.55 88.0744 303.733 87.6979 303.054 87.1314C302.68 86.8105 302.343 86.4486 302.049 86.0524C302.007 85.9984 301.966 85.9404 301.922 85.8844C301.866 85.8418 301.812 85.7961 301.761 85.7474C301.617 85.6084 301.473 85.4694 301.331 85.3304C300.375 84.3971 299.536 83.3515 298.831 82.2164L298.76 82.2264C298.27 82.3359 297.816 82.5676 297.44 82.8998C297.064 83.232 296.778 83.6539 296.608 84.1264C296.503 84.5559 296.365 84.9768 296.196 85.3854C296.147 85.5024 296.096 85.6144 296.04 85.7294C296.023 85.7634 295.986 85.8294 295.923 85.9684L295.933 85.9564L295.884 86.0564C295.237 86.9254 294.764 87.9284 294.076 88.7724C293.81 89.1044 293.524 89.4244 293.244 89.7434C293.168 89.8284 293.078 89.9284 292.988 90.0334C292.951 90.0724 292.915 90.1144 292.871 90.1624C291.423 91.759 289.836 93.2241 288.129 94.5404C286.994 95.5944 285.31 96.2194 284.59 97.6324C283.014 100.57 286.908 103.555 289.39 101.322C293.053 98.7638 296.232 95.5733 298.776 91.9004C299.186 91.2904 299.569 90.6634 299.918 90.0164C301.938 92.2361 304.402 94.0076 307.149 95.2164C311.307 96.6294 315.856 95.0484 319.249 92.5104C321.577 90.8104 323.627 88.7597 325.326 86.4314C326.966 84.2873 328.39 81.9861 329.577 79.5614C330.819 80.7692 332.281 81.7278 333.884 82.3854C336.124 83.2324 338.575 83.3476 340.884 82.7144C340.784 82.7484 340.677 82.7874 340.596 82.8144C340.825 82.7684 341.052 82.7144 341.279 82.6584C344.14 81.7896 346.825 80.4215 349.21 78.6174C352.802 76.1273 355.881 72.97 358.281 69.3174C359.763 66.9966 360.845 64.4434 361.481 61.7644C361.581 61.0934 361.52 61.6864 361.425 62.0374C361.718 61.0374 361.925 60.0114 362.118 58.9874C362.316 58.3996 362.314 57.7627 362.111 57.1764C361.921 56.5744 361.499 56.0724 360.939 55.7803C360.38 55.4881 359.727 55.4296 359.124 55.6174" fill="black"/>
</g>
</g>
<g opacity="0.129">
<mask id="mask6_3311_6638" style="mask-type:luminance" maskUnits="userSpaceOnUse" x="384" y="69" width="25" height="21">
<path d="M408.615 69.0269H384.494V89.1869H408.615V69.0269Z" fill="white"/>
</mask>
<g mask="url(#mask6_3311_6638)">
<path d="M408.026 69.8148C406.698 68.2798 404.905 69.3318 403.45 70.0708C401.29 71.1348 398.999 71.8938 396.817 72.9038C395.238 73.7171 393.615 74.4429 391.956 75.0778L392.002 75.0608C391.482 75.2458 391.077 75.3978 392.002 75.0708C391.123 75.4248 390.15 75.5908 389.302 76.0008C388.997 75.6152 388.587 75.3262 388.121 75.1688C387.61 75.005 387.062 74.9944 386.546 75.1382C386.029 75.282 385.565 75.5739 385.212 75.9779C384.86 76.382 384.633 76.8805 384.56 77.4119C384.487 77.9434 384.571 78.4846 384.802 78.9688C385.694 80.5326 386.479 82.155 387.152 83.8248C387.767 86.3678 388.926 90.3678 392.333 88.8468C392.966 88.4907 393.465 87.9382 393.756 87.2728C393.712 87.4998 395.015 85.6568 395.379 85.2988C396.799 83.5368 399.618 80.6938 402.393 77.8678C403.847 76.4568 405.353 75.0978 406.927 73.8218C407.051 73.7318 407.181 73.6458 407.31 73.5578C407.417 73.4848 407.583 73.3728 407.749 73.2508C407.996 73.0449 408.199 72.7919 408.347 72.5067C408.495 72.2215 408.584 71.9097 408.611 71.5895C408.637 71.2693 408.599 70.9471 408.5 70.6415C408.401 70.336 408.242 70.0532 408.032 69.8098" fill="black"/>
</g>
</g>
<g opacity="0.129">
<mask id="mask7_3311_6638" style="mask-type:luminance" maskUnits="userSpaceOnUse" x="329" y="178" width="68" height="43">
<path d="M396.693 178.202H329.995V220.406H396.693V178.202Z" fill="white"/>
</mask>
<g mask="url(#mask7_3311_6638)">
<path d="M395.786 215.421C394.915 212.859 394.036 210.294 393.304 207.685C391.684 202.214 390.25 196.698 389.004 191.139C387.459 187.071 385.99 182.971 384.816 178.776C384.798 178.712 384.784 178.647 384.773 178.581C384.739 178.344 384.783 178.232 384.761 178.213C384.502 177.947 379.824 182.464 379.824 182.464C377.177 184.939 374.399 187.27 371.502 189.446C367.233 192.542 362.422 194.811 357.318 196.135C350.768 198.018 343.943 198.759 337.141 198.324C334.181 198.224 331.718 197.973 329.993 197.748C330.342 198.493 330.789 199.188 331.321 199.815C333.598 202.49 336.834 202.846 339.662 203.781C342.903 204.852 346.143 205.919 349.382 206.981C355.944 209.133 362.511 211.281 369.098 213.358C372.165 214.329 375.243 215.273 378.332 216.189C381.304 217.119 384.373 217.703 387.479 217.929L386.62 217.892C386.888 217.936 387.154 217.975 387.425 218.007C387.787 218.03 388.147 218.073 388.504 218.134C389.339 218.495 390.176 218.847 391.027 219.174C391.816 219.46 392.624 219.692 393.445 219.867C393.75 220.158 394.141 220.342 394.559 220.393C394.977 220.444 395.401 220.358 395.766 220.148C397.601 219.043 396.21 216.939 395.783 215.419" fill="black"/>
</g>
</g>
<g opacity="0.129">
<mask id="mask8_3311_6638" style="mask-type:luminance" maskUnits="userSpaceOnUse" x="358" y="280" width="12" height="11">
<path d="M369.613 280.516H358.56V290.926H369.613V280.516Z" fill="white"/>
</mask>
<g mask="url(#mask8_3311_6638)">
<path d="M364.761 282.769C363.964 281.907 362.942 281.284 361.811 280.969C358.746 280.444 357.282 284.769 359.968 286.306C361.265 287.143 362.491 288.085 363.634 289.121C364.347 289.873 364.998 290.861 366.145 290.881C366.571 290.93 367.003 290.882 367.407 290.739C367.811 290.597 368.178 290.364 368.479 290.059C368.78 289.753 369.008 289.383 369.145 288.977C369.282 288.571 369.324 288.139 369.269 287.713C369.437 285.213 369.086 284.868 369.542 283.513C370.247 280.013 365.296 279.337 364.759 282.766" fill="black"/>
</g>
</g>
<g opacity="0.129">
<mask id="mask9_3311_6638" style="mask-type:luminance" maskUnits="userSpaceOnUse" x="370" y="268" width="20" height="19">
<path d="M389.633 268.819H370.874V286.342H389.633V268.819Z" fill="white"/>
</mask>
<g mask="url(#mask9_3311_6638)">
<path d="M388.381 281.456C387.664 280.277 386.187 279.648 385.262 278.625C383.309 276.906 381.527 275.002 379.942 272.939C379.408 272.224 378.851 271.524 378.38 270.765C378.213 270.338 377.955 269.953 377.625 269.636C377.295 269.318 376.9 269.076 376.467 268.925C375.984 268.802 375.476 268.823 375.005 268.987C374.534 269.15 374.121 269.447 373.818 269.842C373.514 270.238 373.333 270.713 373.297 271.21C373.261 271.707 373.371 272.204 373.614 272.639C373.885 273.061 374.173 273.476 374.458 273.888C374.24 273.778 374.002 273.716 373.758 273.707C371.037 273.238 369.736 277.085 372.123 278.444C374.981 280.025 377.751 281.744 380.518 283.479C382.45 284.659 384.515 285.607 386.67 286.303C389.452 286.779 390.787 282.867 388.378 281.456" fill="black"/>
</g>
</g>
<g opacity="0.129">
<mask id="mask10_3311_6638" style="mask-type:luminance" maskUnits="userSpaceOnUse" x="333" y="268" width="22" height="16">
<path d="M354.019 268.153H333.434V283.057H354.019V268.153Z" fill="white"/>
</mask>
<g mask="url(#mask10_3311_6638)">
<path d="M353.665 274.173C353.001 272.948 352.423 271.686 351.665 270.51C351.304 269.895 351.104 269.121 350.459 268.736C350.134 268.482 349.754 268.309 349.349 268.231C348.945 268.154 348.527 268.173 348.132 268.288C347.736 268.403 347.373 268.611 347.074 268.894C346.774 269.176 346.546 269.526 346.408 269.915C346.322 269.925 346.236 269.939 346.152 269.959C345.073 270.24 344.417 271.211 343.675 271.965C343.044 272.489 342.599 273.202 342.404 273.998L342.382 274.042C342.194 274.345 342.06 274.68 341.989 275.03C340.901 275.445 339.827 275.911 338.768 276.416C337.168 277.204 335.212 277.648 333.992 279C333.644 279.461 333.466 280.029 333.487 280.607C333.509 281.185 333.729 281.737 334.11 282.172C334.491 282.606 335.011 282.896 335.581 282.992C336.151 283.088 336.737 282.985 337.24 282.7C339.494 281.619 341.802 280.656 344.156 279.815C345.99 279.279 347.852 278.84 349.732 278.5C350.164 278.386 350.569 278.187 350.925 277.917C351.405 278.023 351.907 277.987 352.367 277.814C352.828 277.64 353.228 277.336 353.518 276.939C353.809 276.541 353.978 276.068 354.004 275.577C354.03 275.085 353.913 274.597 353.666 274.171" fill="black"/>
</g>
</g>
<g opacity="0.129">
<mask id="mask11_3311_6638" style="mask-type:luminance" maskUnits="userSpaceOnUse" x="370" y="427" width="17" height="56">
<path d="M386.134 427.402H370.555V482.169H386.134V427.402Z" fill="white"/>
</mask>
<g mask="url(#mask11_3311_6638)">
<path d="M385.298 443.877C385.147 441.037 384.582 438.234 383.619 435.558C382.989 433.68 382.161 431.873 381.149 430.17C380.483 429.084 379.807 427.844 378.467 427.534C377.837 427.371 377.174 427.398 376.559 427.609C375.944 427.821 375.405 428.208 375.009 428.724C374.613 429.239 374.377 429.86 374.33 430.508C374.284 431.157 374.429 431.804 374.748 432.371L374.765 432.4C374.426 433.332 373.703 434.245 373.865 435.258C373.91 435.6 374.038 435.926 374.238 436.207C374.437 436.488 374.703 436.716 375.01 436.872C375.318 437.027 375.659 437.105 376.004 437.099C376.349 437.092 376.687 437.002 376.989 436.835C377.553 438.545 378.001 440.292 378.331 442.062C378.753 446.203 379.188 450.352 379.195 454.52C379.132 457.412 379.158 460.32 378.89 463.196C378.411 466.341 377.714 469.448 376.803 472.496C376.735 472.389 376.674 472.276 376.603 472.171C376.012 471.471 375.544 470.526 374.617 470.243C371.74 468.915 369.17 472.791 371.417 474.992C371.6 475.192 371.844 475.473 372.01 475.67C372.061 475.746 372.11 475.824 372.159 475.904C372.169 475.943 372.186 475.982 372.193 476.021C372.21 476.34 372.198 476.659 372.156 476.975L372.163 476.929V477.012C372.124 477.225 372.102 477.44 372.097 477.656C372.024 478.229 372.132 478.811 372.405 479.32C372.632 479.734 372.985 480.066 373.413 480.266C373.64 480.93 374.109 481.483 374.726 481.817C375.343 482.15 376.062 482.239 376.742 482.066C377.896 481.783 378.442 480.641 379.265 479.889C380.768 478.282 382.056 476.486 383.096 474.547C384.956 470.417 385.985 465.962 386.125 461.435C386.205 455.569 385.928 449.703 385.295 443.871" fill="black"/>
</g>
</g>
<g opacity="0.129">
<mask id="mask12_3311_6638" style="mask-type:luminance" maskUnits="userSpaceOnUse" x="638" y="307" width="19" height="55">
<path d="M656.076 307.95H638.166V361.826H656.076V307.95Z" fill="white"/>
</mask>
<g mask="url(#mask12_3311_6638)">
<path d="M656.002 311.289C655.563 307.133 649.502 306.74 648.41 310.772C646.772 317.093 645.835 323.582 644.149 329.895C642.649 335.81 641.049 341.702 639.849 347.685C639.537 349.735 639.222 351.78 639.073 353.847C639.046 353.996 639.019 354.147 638.99 354.294C638.829 355.128 638.624 355.952 638.377 356.764L638.36 356.818C638.348 356.862 638.338 356.903 638.326 356.945L638.336 356.921C638.054 357.817 638.113 358.786 638.501 359.641C638.889 360.497 639.579 361.179 640.439 361.557C641.299 361.935 642.268 361.982 643.161 361.689C644.054 361.397 644.807 360.785 645.276 359.971C645.266 359.971 645.249 359.986 645.23 360.005C645.968 358.532 646.445 356.942 646.638 355.305C647.79 350.895 648.212 346.334 649.288 341.905C651.133 333.81 653.127 325.747 654.788 317.611C655.049 316.352 655.281 315.083 655.64 313.843C655.984 313.04 656.107 312.16 655.996 311.293" fill="black"/>
</g>
</g>
<g opacity="0.129">
<mask id="mask13_3311_6638" style="mask-type:luminance" maskUnits="userSpaceOnUse" x="376" y="324" width="239" height="177">
<path d="M614.225 324.022H376.958V500.801H614.225V324.022Z" fill="white"/>
</mask>
<g mask="url(#mask13_3311_6638)">
<path d="M610.387 487.1C609.104 483.942 608.2 480.648 607.136 477.412C605.747 473.349 604.126 469.371 602.719 465.312C600.762 459.86 599.406 455.343 597.982 450.887C589.307 430.729 581.031 410.401 572.931 390.004C564.253 368.145 555.992 346.126 547.966 324.021C547.531 324.248 547.188 324.618 546.994 325.069C546.801 325.52 546.769 326.024 546.904 326.496C550.768 338.976 556.027 350.968 560.426 363.265C565.658 379.22 570.485 395.329 574.339 411.68C575.196 415.053 576.186 418.389 577.184 421.722C576.687 421.65 576.18 421.702 575.708 421.873C575.235 422.045 574.813 422.33 574.477 422.704C574.142 423.078 573.904 423.529 573.785 424.017C573.666 424.506 573.669 425.015 573.794 425.502C576.247 438.644 578.316 447.692 578.663 460.321C578.723 462.29 578.753 464.26 578.773 466.227C578.443 466.357 578.134 466.537 577.858 466.761C577.548 466.964 577.281 467.226 577.07 467.532C577.563 465.543 578.015 463.546 578.427 461.541C578.1 461.51 577.769 461.552 577.459 461.663C577.149 461.774 576.867 461.951 576.633 462.183C575.992 462.766 575.991 463.65 575.798 464.433C575.063 467.039 575.207 466.939 574.041 468.733C574.012 468.775 573.982 468.811 573.951 468.853C573.873 468.953 573.778 469.068 573.675 469.185C570.177 472.96 566.34 476.405 562.212 479.479C555.564 484.218 551.628 485.739 544.326 488.116C542.108 488.833 539.877 489.516 537.626 490.116C532.875 490.175 528.094 490.526 523.347 490.392C515.735 490.192 508.163 489.328 500.568 488.84C489.515 488.452 477.174 488.257 468.76 486.624C461.497 484.816 454.003 484.83 446.599 484.059C439.959 483.449 437.65 483.029 431.739 482.297C427.529 481.838 421.345 481.277 419.82 480.96C413.626 479.925 401.339 477.66 399.086 477.504C395.165 476.874 391.206 476.511 387.235 476.418C386.054 476.511 384.78 476.118 383.677 476.618C383.223 476.789 382.823 477.08 382.521 477.46C382.22 477.841 382.027 478.296 381.964 478.778C381.203 478.734 380.44 478.688 379.675 478.641C379.308 478.625 378.944 478.707 378.618 478.878C375.873 479.927 376.744 484.161 379.675 484.13C385.517 484.357 391.343 484.885 397.129 485.714C400.419 486.222 403.716 486.707 407.029 487.054C408.471 487.061 410.045 487.703 411.429 487.166C411.952 486.973 412.391 486.605 412.671 486.124C413.252 486.251 413.833 486.377 414.413 486.502C423.957 488.528 431.632 488.779 439.398 490.002C446.98 490.959 454.598 491.561 462.206 492.211C463.922 492.516 471.143 493.729 476.333 494.088C476.473 494.627 476.791 495.103 477.234 495.44C477.678 495.777 478.222 495.955 478.778 495.945C482.7 496.245 486.597 496.758 490.509 497.145C491.59 499.114 493.389 498.531 495.685 499.014C500.7 499.548 505.744 499.431 510.779 499.583C515.972 499.773 521.16 500.183 526.361 500.091C530.768 500.05 535.151 499.52 539.534 499.083C543.229 498.771 547.043 498.724 550.55 497.424C550.531 497.817 550.591 498.21 550.728 498.58C550.865 498.949 551.075 499.287 551.346 499.572C551.617 499.858 551.944 500.085 552.305 500.241C552.667 500.396 553.057 500.477 553.45 500.477C554.497 500.526 555.832 500.499 557.289 500.423C557.318 500.552 557.37 500.672 557.411 500.796C559.078 500.625 560.746 500.464 562.416 500.313C572.639 499.393 582.847 498.946 593.109 498.9C593.29 498.707 593.454 498.5 593.6 498.28C594.037 498.288 594.472 498.218 594.884 498.073C595.2 498.435 595.599 498.715 596.046 498.888C600.497 498.871 604.946 498.842 609.392 498.683C610.552 498.642 611.709 498.592 612.865 498.534C613.3 498.252 613.653 497.862 613.891 497.402C614.13 496.942 614.244 496.428 614.224 495.911C614.024 494.164 613.024 492.599 612.286 491.028C611.612 489.737 610.966 488.428 610.386 487.096M564.614 490.176C562.562 492.609 562.366 492.892 560.846 494.535C560.002 494.569 559.157 494.596 558.313 494.611C557.691 494.66 557.065 494.666 556.441 494.631C560.235 492.319 563.732 489.551 566.854 486.39C567.338 485.968 567.818 485.527 568.296 485.067C567.104 486.795 565.865 488.493 564.613 490.177M595.193 464.541C595.057 463.301 594.918 462.06 594.778 460.819C594.983 461.461 595.186 462.105 595.398 462.745C595.657 463.545 595.924 464.345 596.198 465.145C595.9 464.887 595.559 464.684 595.19 464.545M604.766 493.766C605.546 493.534 606.212 493.021 606.635 492.326C606.879 492.814 607.128 493.305 607.399 493.817C606.459 493.79 605.593 493.775 604.766 493.766Z" fill="black"/>
</g>
</g>
<path d="M356.056 318.713C355.975 318.712 355.897 318.68 355.839 318.623C355.81 318.595 355.787 318.561 355.771 318.524C355.756 318.487 355.748 318.447 355.748 318.407C355.748 318.367 355.756 318.327 355.771 318.29C355.787 318.252 355.81 318.219 355.839 318.191L368.712 305.491C368.741 305.463 368.775 305.441 368.812 305.425C368.849 305.41 368.889 305.403 368.929 305.403C368.969 305.403 369.008 305.411 369.045 305.427C369.082 305.442 369.116 305.465 369.144 305.493C369.172 305.522 369.194 305.556 369.209 305.593C369.225 305.63 369.232 305.67 369.232 305.71C369.232 305.75 369.224 305.789 369.208 305.826C369.193 305.863 369.17 305.897 369.141 305.925L356.268 318.625C356.211 318.681 356.134 318.712 356.053 318.713" fill="black"/>
<path d="M356.998 309.645C356.937 309.646 356.878 309.628 356.827 309.594C356.777 309.561 356.737 309.513 356.714 309.457C356.69 309.401 356.684 309.339 356.696 309.28C356.708 309.22 356.738 309.166 356.781 309.123L367.223 298.681C367.251 298.653 367.285 298.63 367.322 298.614C367.359 298.599 367.399 298.591 367.439 298.591C367.48 298.591 367.519 298.599 367.557 298.614C367.594 298.629 367.628 298.652 367.656 298.68C367.685 298.708 367.707 298.742 367.723 298.779C367.738 298.816 367.746 298.856 367.746 298.896C367.746 298.937 367.739 298.976 367.723 299.014C367.708 299.051 367.685 299.085 367.657 299.113L357.215 309.557C357.157 309.614 357.079 309.645 356.998 309.645Z" fill="black"/>
<path d="M358.945 300.394C358.885 300.394 358.825 300.377 358.775 300.343C358.724 300.31 358.684 300.262 358.661 300.206C358.638 300.15 358.632 300.088 358.644 300.028C358.656 299.969 358.685 299.914 358.728 299.872L367.111 291.492C367.139 291.463 367.173 291.44 367.21 291.424C367.247 291.408 367.287 291.4 367.327 291.4C367.368 291.4 367.408 291.408 367.445 291.424C367.482 291.44 367.515 291.463 367.543 291.492C367.6 291.549 367.631 291.627 367.631 291.708C367.631 291.788 367.6 291.866 367.543 291.924L359.163 300.307C359.105 300.363 359.027 300.395 358.946 300.395" fill="black"/>
<path d="M361.149 291.53C361.088 291.531 361.029 291.513 360.978 291.48C360.927 291.446 360.888 291.398 360.865 291.342C360.841 291.286 360.835 291.224 360.847 291.165C360.859 291.105 360.889 291.051 360.932 291.008L366.467 285.476C366.495 285.447 366.529 285.424 366.566 285.408C366.603 285.392 366.643 285.384 366.683 285.384C366.723 285.384 366.763 285.392 366.8 285.408C366.837 285.424 366.871 285.447 366.899 285.476C366.955 285.534 366.987 285.611 366.987 285.692C366.987 285.773 366.955 285.85 366.899 285.908L361.366 291.443C361.308 291.499 361.23 291.53 361.149 291.53Z" fill="black"/>
<path d="M354.013 328.453C353.953 328.453 353.893 328.435 353.843 328.402C353.793 328.368 353.754 328.32 353.731 328.264C353.707 328.208 353.702 328.147 353.714 328.087C353.726 328.028 353.755 327.974 353.798 327.931L368.343 313.389C368.371 313.36 368.405 313.337 368.442 313.321C368.479 313.305 368.519 313.297 368.559 313.297C368.6 313.297 368.639 313.305 368.677 313.321C368.714 313.337 368.747 313.36 368.775 313.389C368.832 313.447 368.864 313.524 368.864 313.605C368.864 313.686 368.832 313.764 368.775 313.821L354.23 328.363C354.172 328.419 354.094 328.451 354.013 328.451" fill="black"/>
<path d="M352.976 339.003C352.915 339.004 352.856 338.986 352.805 338.952C352.755 338.919 352.715 338.871 352.692 338.815C352.669 338.759 352.662 338.697 352.674 338.638C352.686 338.578 352.716 338.524 352.759 338.481L369.034 322.204C369.092 322.148 369.17 322.116 369.251 322.116C369.332 322.116 369.41 322.148 369.468 322.204C369.525 322.262 369.558 322.34 369.558 322.421C369.558 322.502 369.525 322.58 369.468 322.638L353.195 338.915C353.135 338.97 353.058 339.001 352.976 339.003Z" fill="black"/>
<path d="M350.555 350.763C350.495 350.763 350.435 350.746 350.384 350.712C350.334 350.679 350.294 350.631 350.271 350.575C350.248 350.519 350.242 350.457 350.254 350.397C350.266 350.338 350.295 350.283 350.338 350.241L370.752 329.827C370.81 329.769 370.888 329.737 370.969 329.737C371.051 329.737 371.129 329.769 371.186 329.827C371.243 329.885 371.274 329.963 371.274 330.044C371.274 330.125 371.243 330.203 371.186 330.261L350.772 350.675C350.714 350.731 350.636 350.763 350.555 350.763Z" fill="black"/>
<path d="M348.74 362.435C348.68 362.436 348.62 362.418 348.569 362.384C348.519 362.351 348.479 362.303 348.456 362.247C348.433 362.191 348.427 362.129 348.439 362.07C348.451 362.01 348.48 361.956 348.523 361.913L372.223 338.213C372.281 338.156 372.359 338.124 372.44 338.124C372.522 338.124 372.6 338.156 372.657 338.213C372.714 338.271 372.745 338.349 372.745 338.43C372.745 338.511 372.714 338.589 372.657 338.647L348.957 362.347C348.899 362.403 348.821 362.435 348.74 362.435Z" fill="black"/>
<path d="M346.492 373.534C346.432 373.534 346.372 373.517 346.321 373.483C346.271 373.45 346.231 373.402 346.208 373.346C346.185 373.29 346.179 373.228 346.191 373.168C346.203 373.109 346.232 373.054 346.275 373.012L372.814 346.473C372.872 346.415 372.95 346.383 373.031 346.383C373.113 346.383 373.191 346.415 373.248 346.473C373.305 346.531 373.336 346.609 373.336 346.69C373.336 346.771 373.305 346.849 373.248 346.907L346.709 373.446C346.651 373.502 346.573 373.534 346.492 373.534Z" fill="black"/>
<path d="M345.359 384.19C345.278 384.191 345.2 384.159 345.142 384.102C345.086 384.044 345.054 383.966 345.054 383.885C345.054 383.804 345.086 383.726 345.142 383.668L373.956 354.854C374.013 354.797 374.091 354.765 374.172 354.765C374.253 354.765 374.331 354.797 374.388 354.854C374.445 354.911 374.477 354.989 374.477 355.07C374.477 355.151 374.445 355.229 374.388 355.286L345.577 384.102C345.519 384.158 345.441 384.19 345.36 384.19" fill="black"/>
<path d="M347.429 392.21C347.369 392.21 347.309 392.193 347.258 392.159C347.208 392.126 347.168 392.078 347.145 392.022C347.122 391.966 347.116 391.904 347.128 391.845C347.14 391.785 347.169 391.73 347.212 391.688L373.537 365.366C373.595 365.309 373.673 365.276 373.754 365.276C373.836 365.276 373.914 365.309 373.971 365.366C374.028 365.424 374.059 365.502 374.059 365.583C374.059 365.664 374.028 365.742 373.971 365.8L347.647 392.122C347.589 392.178 347.51 392.21 347.429 392.21Z" fill="black"/>
<path d="M350.556 398.782C350.496 398.783 350.436 398.765 350.385 398.731C350.335 398.698 350.295 398.65 350.272 398.594C350.249 398.538 350.243 398.476 350.255 398.417C350.267 398.357 350.296 398.303 350.339 398.26L373.523 375.074C373.551 375.044 373.585 375.02 373.623 375.004C373.66 374.987 373.701 374.979 373.742 374.978C373.783 374.977 373.824 374.985 373.862 375.001C373.9 375.016 373.934 375.039 373.963 375.068C373.992 375.097 374.015 375.131 374.031 375.169C374.046 375.208 374.054 375.248 374.053 375.289C374.053 375.33 374.044 375.371 374.027 375.408C374.011 375.446 373.987 375.48 373.957 375.508L350.773 398.694C350.714 398.749 350.637 398.781 350.556 398.782Z" fill="black"/>
<path d="M352.554 405.532C352.494 405.532 352.434 405.515 352.383 405.481C352.333 405.448 352.293 405.4 352.27 405.344C352.247 405.288 352.241 405.226 352.253 405.167C352.265 405.107 352.294 405.052 352.337 405.01L374.53 382.817C374.588 382.761 374.666 382.729 374.747 382.729C374.828 382.729 374.906 382.761 374.964 382.817C375.019 382.876 375.05 382.953 375.05 383.034C375.05 383.114 375.019 383.192 374.964 383.251L352.771 405.444C352.713 405.5 352.635 405.532 352.554 405.532Z" fill="black"/>
<path d="M355.456 411.321C355.395 411.322 355.336 411.304 355.285 411.27C355.235 411.237 355.195 411.189 355.172 411.133C355.148 411.077 355.142 411.015 355.154 410.956C355.166 410.896 355.196 410.842 355.239 410.799L372.621 393.418C372.679 393.361 372.757 393.329 372.838 393.329C372.919 393.329 372.997 393.361 373.055 393.418C373.111 393.476 373.143 393.554 373.143 393.635C373.143 393.716 373.111 393.794 373.055 393.852L355.675 411.232C355.617 411.288 355.539 411.32 355.458 411.32" fill="black"/>
<path d="M358.684 416.619C358.623 416.619 358.564 416.602 358.513 416.568C358.463 416.535 358.423 416.487 358.4 416.431C358.377 416.375 358.37 416.313 358.382 416.254C358.394 416.194 358.424 416.139 358.467 416.097L367.655 406.909C367.713 406.854 367.79 406.824 367.87 406.825C367.95 406.826 368.027 406.858 368.083 406.915C368.14 406.971 368.172 407.048 368.173 407.127C368.174 407.207 368.144 407.285 368.089 407.343L358.901 416.531C358.843 416.587 358.765 416.619 358.684 416.619Z" fill="black"/>
<path d="M360.949 422.935C360.872 422.935 360.799 422.906 360.742 422.854C360.712 422.827 360.689 422.794 360.672 422.757C360.655 422.721 360.645 422.682 360.644 422.641C360.642 422.601 360.649 422.561 360.663 422.524C360.676 422.486 360.698 422.451 360.725 422.422L364.976 417.829C365.031 417.77 365.107 417.735 365.188 417.732C365.269 417.729 365.348 417.758 365.407 417.813C365.466 417.868 365.501 417.944 365.504 418.025C365.507 418.106 365.478 418.185 365.423 418.244L361.174 422.837C361.145 422.868 361.11 422.893 361.072 422.91C361.033 422.927 360.991 422.936 360.949 422.937" fill="black"/>
<path d="M354.968 269.737C354.925 269.736 354.883 269.727 354.844 269.71C354.804 269.693 354.769 269.668 354.739 269.637C354.713 269.607 354.692 269.572 354.679 269.534C354.666 269.496 354.661 269.455 354.663 269.415C354.666 269.375 354.676 269.336 354.694 269.3C354.711 269.264 354.736 269.231 354.766 269.205L362.807 262.069C362.837 262.042 362.872 262.022 362.91 262.009C362.948 261.996 362.989 261.99 363.029 261.993C363.069 261.995 363.108 262.006 363.144 262.023C363.18 262.041 363.213 262.066 363.239 262.096C363.266 262.125 363.287 262.16 363.3 262.198C363.313 262.236 363.319 262.276 363.316 262.316C363.314 262.356 363.303 262.395 363.285 262.431C363.267 262.467 363.243 262.499 363.212 262.525L355.171 269.663C355.115 269.711 355.045 269.737 354.971 269.739" fill="black"/>
<path d="M357.386 275.274C357.305 275.274 357.227 275.242 357.169 275.186C357.112 275.128 357.08 275.05 357.08 274.969C357.08 274.888 357.112 274.81 357.169 274.752L368.983 262.941C369.041 262.884 369.119 262.852 369.2 262.852C369.281 262.852 369.359 262.884 369.417 262.941C369.472 263 369.503 263.077 369.503 263.158C369.503 263.239 369.472 263.316 369.417 263.375L357.603 275.189C357.545 275.245 357.467 275.277 357.386 275.277" fill="black"/>
<path d="M361.279 278.732C361.198 278.731 361.12 278.699 361.062 278.642C361.006 278.585 360.974 278.507 360.974 278.426C360.974 278.345 361.006 278.268 361.062 278.21L370.15 269.124C370.179 269.096 370.213 269.074 370.25 269.058C370.287 269.043 370.327 269.035 370.367 269.036C370.407 269.036 370.447 269.044 370.484 269.059C370.521 269.075 370.554 269.098 370.582 269.126C370.611 269.155 370.633 269.188 370.648 269.226C370.663 269.263 370.671 269.302 370.671 269.343C370.671 269.383 370.663 269.422 370.647 269.459C370.632 269.496 370.609 269.53 370.58 269.558L361.492 278.644C361.464 278.672 361.431 278.695 361.394 278.71C361.357 278.725 361.317 278.732 361.277 278.732" fill="black"/>
</g>
</g>
</svg>
