<svg width="574" height="384" viewBox="0 0 574 384" fill="none" xmlns="http://www.w3.org/2000/svg">
<mask id="mask0_3311_6921" style="mask-type:luminance" maskUnits="userSpaceOnUse" x="0" y="0" width="574" height="384">
<path d="M574 0H0V383.534H574V0Z" fill="white"/>
</mask>
<g mask="url(#mask0_3311_6921)">
<path d="M283.666 197.103C283.666 143.603 283.423 80.5932 283.423 23.5582C371.659 23.5582 455.623 22.8682 532.149 22.8682C531.491 79.7682 530.818 137.16 530.818 196.614C479.627 196.614 416.793 196.855 357.118 196.997C352.138 197.01 319.004 245.009 319.004 245.009C319.004 245.009 330.904 197.054 325.304 197.065C311.004 197.088 297.049 197.103 283.674 197.103" fill="white"/>
<path d="M318.996 246.055C319.166 246.055 319.333 246.014 319.483 245.935C319.633 245.856 319.761 245.742 319.857 245.602C335.757 222.565 354.051 198.475 357.133 198.041C374.953 198.001 393.076 197.948 411.086 197.897C454.202 197.774 494.928 197.66 530.814 197.66C531.092 197.66 531.358 197.55 531.555 197.353C531.751 197.157 531.862 196.89 531.862 196.612C531.862 137.689 532.529 80.0913 533.174 24.3883L533.193 22.8793C533.195 22.7407 533.169 22.6031 533.117 22.4746C533.065 22.3461 532.988 22.2291 532.89 22.1305C532.793 22.0319 532.677 21.9537 532.549 21.9002C532.421 21.8468 532.284 21.8193 532.145 21.8193C495.245 21.8193 457.045 21.9783 416.602 22.1473C373.586 22.3253 329.102 22.5093 283.419 22.5093C283.141 22.5096 282.875 22.6201 282.678 22.8166C282.482 23.0131 282.371 23.2795 282.371 23.5573C282.371 52.5323 282.435 83.3123 282.496 113.078C282.557 142.754 282.597 170.762 282.615 197.102C282.615 197.24 282.642 197.376 282.695 197.504C282.747 197.631 282.824 197.746 282.922 197.844C283.019 197.941 283.135 198.018 283.262 198.071C283.389 198.123 283.525 198.15 283.663 198.15C297.019 198.15 310.949 198.133 325.23 198.11C325.545 198.466 327.006 201.325 322.95 222.216C320.75 233.565 318.008 244.646 317.98 244.756C317.921 244.994 317.947 245.245 318.054 245.466C318.161 245.686 318.342 245.862 318.566 245.962C318.701 246.024 318.848 246.056 318.996 246.055ZM529.766 195.565C494.132 195.565 453.779 195.681 411.08 195.804C393.072 195.855 374.949 195.904 357.108 195.948C356.018 195.948 353.469 195.959 335.345 220.382C329.85 227.782 324.55 235.249 321.318 239.851C324.286 227.251 330.011 200.82 326.872 196.813C326.689 196.567 326.451 196.367 326.177 196.228C325.903 196.089 325.6 196.016 325.293 196.013C311.361 196.036 297.766 196.051 284.711 196.051C284.711 170.033 284.672 142.373 284.595 113.07C284.534 83.6643 284.47 53.2703 284.47 24.6013C329.791 24.6013 373.923 24.4153 416.614 24.2373C456.665 24.0723 494.514 23.9133 531.088 23.9113V24.3623C530.445 79.7403 529.782 136.992 529.774 195.562" fill="black"/>
<path d="M328.459 12.3563C364.315 12.2229 400.169 11.9683 436.02 11.5923C466.36 11.3233 501.513 11.9563 531.851 11.5753C532.254 18.2188 532.254 24.8807 531.851 31.5243C453.861 31.5243 362.158 30.4133 283.661 31.5243C283.219 26.3473 283.536 19.0103 283.536 12.5933C296.736 12.5853 315.271 12.4053 328.459 12.3563Z" fill="#0086D5"/>
<path d="M283.657 32.5725H283.672C336.505 31.8255 395.179 32.0835 451.919 32.3335C479.914 32.4565 506.357 32.5725 531.849 32.5725C532.113 32.5725 532.367 32.4732 532.56 32.2943C532.754 32.1154 532.873 31.8702 532.893 31.6075C533.302 24.9201 533.303 18.214 532.897 11.5265C532.885 11.2547 532.768 10.9982 532.57 10.8115C532.372 10.6248 532.109 10.5226 531.837 10.5265C515.763 10.7265 498.083 10.6425 480.983 10.5625C465.883 10.4885 450.277 10.4145 436.013 10.5415C402.813 10.8355 365.173 11.1685 328.456 11.3055C323.08 11.3265 316.812 11.3685 310.382 11.4115C301.024 11.4725 291.349 11.5385 283.535 11.5425C283.398 11.5426 283.262 11.5698 283.135 11.6225C283.008 11.6753 282.892 11.7525 282.795 11.8498C282.698 11.9471 282.621 12.0626 282.569 12.1897C282.516 12.3168 282.489 12.453 282.489 12.5905C282.489 14.4785 282.461 16.4445 282.434 18.4135C282.368 23.0805 282.301 27.9135 282.616 31.6135C282.638 31.8748 282.758 32.1184 282.951 32.2959C283.144 32.4735 283.397 32.5722 283.659 32.5725M530.848 12.6365C531.177 18.5794 531.185 24.5356 530.873 30.4795C505.687 30.4795 479.564 30.3605 451.927 30.2385C395.527 29.9905 337.227 29.7385 284.627 30.4645C284.405 27.0015 284.464 22.6585 284.527 18.4465C284.55 16.8295 284.574 15.2125 284.58 13.6395C292.208 13.6315 301.447 13.5695 310.397 13.5085C316.825 13.4665 323.088 13.4235 328.465 13.4085C365.187 13.2705 402.825 12.9365 436.03 12.6445C450.281 12.5175 465.883 12.5915 480.975 12.6635C497.724 12.7435 515.032 12.8265 530.851 12.6405" fill="black"/>
<path d="M302.721 19.4899C303.154 19.4237 303.597 19.4845 303.996 19.6648C304.395 19.8451 304.733 20.1373 304.969 20.5059C305.156 20.8016 305.264 21.1404 305.281 21.4897C305.299 21.8391 305.226 22.187 305.069 22.4999C304.889 22.8213 304.628 23.0905 304.313 23.2815C303.997 23.4725 303.638 23.5787 303.269 23.5899C302.739 23.5966 302.226 23.4024 301.833 23.0462C301.44 22.6901 301.196 22.1984 301.15 21.6699C301.154 21.1881 301.307 20.7194 301.589 20.3287C301.871 19.938 302.267 19.6448 302.723 19.4899" fill="black"/>
<path d="M322.29 19.4899C322.723 19.4237 323.165 19.4845 323.564 19.6648C323.963 19.8451 324.301 20.1373 324.538 20.5059C324.725 20.8015 324.832 21.1404 324.85 21.4897C324.867 21.8391 324.794 22.187 324.638 22.4999C324.457 22.8215 324.197 23.091 323.881 23.282C323.566 23.4731 323.206 23.5791 322.838 23.5899C322.307 23.5966 321.794 23.4024 321.401 23.0462C321.008 22.6901 320.764 22.1984 320.719 21.6699C320.722 21.1883 320.874 20.7196 321.156 20.3289C321.438 19.9382 321.834 19.6449 322.29 19.4899Z" fill="black"/>
<path d="M343.124 19.4899C343.557 19.4237 343.999 19.4845 344.398 19.6648C344.797 19.8451 345.135 20.1373 345.372 20.5059C345.559 20.8015 345.666 21.1404 345.684 21.4897C345.701 21.8391 345.628 22.187 345.472 22.4999C345.291 22.8213 345.031 23.0907 344.715 23.2816C344.4 23.4726 344.04 23.5788 343.672 23.5899C343.141 23.5966 342.628 23.4024 342.235 23.0462C341.842 22.6901 341.598 22.1984 341.553 21.6699C341.556 21.1881 341.709 20.7194 341.991 20.3287C342.273 19.938 342.67 19.6448 343.126 19.4899" fill="black"/>
<path d="M410.72 89.3112H497.261C497.398 89.3113 497.534 89.2843 497.661 89.2318C497.788 89.1793 497.904 89.1022 498.001 89.0051C498.098 88.9079 498.175 88.7926 498.228 88.6656C498.28 88.5386 498.307 88.4026 498.307 88.2652V55.0412C498.307 54.9037 498.28 54.7675 498.228 54.6404C498.175 54.5133 498.098 54.3978 498.001 54.3005C497.904 54.2032 497.788 54.126 497.661 54.0732C497.534 54.0205 497.398 53.9933 497.261 53.9932H410.72C410.582 53.993 410.446 54.0201 410.319 54.0727C410.191 54.1253 410.076 54.2025 409.979 54.2998C409.881 54.3972 409.804 54.5127 409.751 54.64C409.699 54.7672 409.672 54.9035 409.672 55.0412V88.2662C409.672 88.4037 409.699 88.5399 409.752 88.6669C409.804 88.794 409.882 88.9094 409.979 89.0065C410.076 89.1037 410.192 89.1807 410.319 89.2331C410.446 89.2856 410.582 89.3114 410.72 89.3112ZM496.21 87.2182H411.767V56.0842H496.21V87.2182Z" fill="black"/>
<path d="M452.439 137.195H497.261C497.398 137.195 497.534 137.168 497.661 137.115C497.788 137.063 497.904 136.985 498.001 136.888C498.098 136.791 498.175 136.675 498.227 136.548C498.28 136.421 498.307 136.285 498.307 136.147V110.659C498.307 110.522 498.28 110.386 498.227 110.259C498.175 110.132 498.098 110.016 498.001 109.919C497.904 109.821 497.788 109.744 497.661 109.691C497.534 109.639 497.398 109.611 497.261 109.611H452.439C452.161 109.612 451.894 109.722 451.698 109.919C451.501 110.115 451.391 110.381 451.391 110.659V136.147C451.391 136.425 451.501 136.692 451.698 136.888C451.894 137.085 452.161 137.195 452.439 137.195ZM496.213 135.095H453.486V111.695H496.213V135.095Z" fill="black"/>
<path d="M381.037 137.195H425.857C426.135 137.195 426.402 137.085 426.598 136.888C426.794 136.692 426.905 136.425 426.905 136.147V110.659C426.905 110.381 426.794 110.115 426.598 109.919C426.402 109.722 426.135 109.612 425.857 109.611H381.037C380.9 109.611 380.763 109.638 380.636 109.691C380.509 109.743 380.393 109.821 380.296 109.918C380.199 110.015 380.121 110.131 380.069 110.258C380.016 110.385 379.989 110.522 379.989 110.659V136.147C379.989 136.285 380.016 136.421 380.069 136.549C380.121 136.676 380.199 136.791 380.296 136.889C380.393 136.986 380.509 137.063 380.636 137.116C380.763 137.168 380.9 137.195 381.037 137.195ZM424.809 135.095H382.082V111.695H424.808L424.809 135.095Z" fill="black"/>
<path d="M309.636 137.195H354.462C354.74 137.195 355.006 137.085 355.203 136.888C355.399 136.692 355.51 136.425 355.51 136.147V110.659C355.51 110.381 355.399 110.115 355.203 109.919C355.006 109.722 354.74 109.612 354.462 109.611H309.636C309.498 109.611 309.362 109.639 309.235 109.691C309.108 109.744 308.993 109.821 308.896 109.919C308.799 110.016 308.722 110.132 308.669 110.259C308.617 110.386 308.59 110.522 308.59 110.659V136.147C308.59 136.285 308.617 136.421 308.669 136.548C308.722 136.675 308.799 136.791 308.896 136.888C308.993 136.985 309.108 137.063 309.235 137.115C309.362 137.168 309.498 137.195 309.636 137.195ZM353.41 135.095H310.683V111.695H353.409L353.41 135.095Z" fill="black"/>
<path d="M332.045 61.8645L383.837 61.5235C383.883 61.5235 383.928 61.5144 383.97 61.4969C384.012 61.4793 384.051 61.4535 384.083 61.421C384.115 61.3886 384.14 61.3501 384.157 61.3077C384.174 61.2654 384.183 61.2201 384.182 61.1745C384.184 61.1282 384.176 61.082 384.159 61.0389C384.142 60.9959 384.116 60.9568 384.083 60.9242C384.05 60.8916 384.01 60.8662 383.967 60.8495C383.924 60.8329 383.878 60.8254 383.831 60.8275L332.041 61.1665C331.949 61.1665 331.86 61.2034 331.794 61.269C331.728 61.3346 331.691 61.4237 331.691 61.5165C331.691 61.6093 331.728 61.6983 331.794 61.764C331.86 61.8296 331.949 61.8665 332.041 61.8665" fill="black"/>
<path d="M342.171 72.171L383.844 71.827C383.937 71.827 384.026 71.7901 384.092 71.7244C384.157 71.6588 384.194 71.5698 384.194 71.477C384.194 71.3841 384.157 71.2951 384.092 71.2295C384.026 71.1638 383.937 71.127 383.844 71.127L342.18 71.466C342.087 71.466 341.998 71.5028 341.933 71.5685C341.867 71.6341 341.83 71.7231 341.83 71.816C341.83 71.9088 341.867 71.9978 341.933 72.0634C341.998 72.1291 342.087 72.166 342.18 72.166" fill="black"/>
<path d="M332.045 82.4769L383.837 82.1379C383.883 82.1375 383.928 82.1281 383.97 82.1103C384.012 82.0924 384.051 82.0664 384.083 82.0339C384.115 82.0013 384.14 81.9627 384.157 81.9203C384.174 81.8779 384.183 81.8326 384.182 81.7869C384.184 81.7405 384.176 81.6942 384.159 81.651C384.142 81.6078 384.117 81.5686 384.084 81.5359C384.05 81.5033 384.011 81.4779 383.968 81.4613C383.924 81.4448 383.878 81.4375 383.831 81.4399L332.041 81.7789C331.949 81.7789 331.86 81.8158 331.794 81.8814C331.728 81.947 331.691 82.0361 331.691 82.1289C331.691 82.2217 331.728 82.3107 331.794 82.3764C331.86 82.442 331.949 82.4789 332.041 82.4789" fill="black"/>
<path d="M456.701 153.333L493.001 152.994C493.093 152.994 493.182 152.957 493.248 152.891C493.314 152.826 493.351 152.737 493.351 152.644C493.351 152.551 493.314 152.462 493.248 152.396C493.182 152.331 493.093 152.294 493.001 152.294L456.701 152.633C456.608 152.633 456.519 152.67 456.453 152.735C456.387 152.801 456.351 152.89 456.351 152.983C456.351 153.076 456.387 153.165 456.453 153.23C456.519 153.296 456.608 153.333 456.701 153.333Z" fill="black"/>
<path d="M460.247 163.639L489.447 163.3C489.54 163.3 489.629 163.263 489.695 163.197C489.761 163.131 489.797 163.042 489.797 162.95C489.797 162.857 489.761 162.768 489.695 162.702C489.629 162.636 489.54 162.6 489.447 162.6L460.247 162.939C460.155 162.939 460.066 162.975 460 163.041C459.934 163.107 459.897 163.196 459.897 163.289C459.897 163.381 459.934 163.47 460 163.536C460.066 163.602 460.155 163.639 460.247 163.639Z" fill="black"/>
<path d="M385.297 153.333L421.597 152.994C421.69 152.994 421.779 152.957 421.845 152.891C421.91 152.826 421.947 152.737 421.947 152.644C421.947 152.551 421.91 152.462 421.845 152.396C421.779 152.331 421.69 152.294 421.597 152.294L385.297 152.633C385.204 152.633 385.115 152.67 385.05 152.735C384.984 152.801 384.947 152.89 384.947 152.983C384.947 153.076 384.984 153.165 385.05 153.23C385.115 153.296 385.204 153.333 385.297 153.333Z" fill="black"/>
<path d="M388.847 163.639L418.047 163.3C418.14 163.3 418.229 163.263 418.295 163.197C418.36 163.131 418.397 163.042 418.397 162.95C418.397 162.857 418.36 162.768 418.295 162.702C418.229 162.636 418.14 162.6 418.047 162.6L388.847 162.939C388.754 162.939 388.665 162.975 388.6 163.041C388.534 163.107 388.497 163.196 388.497 163.289C388.497 163.381 388.534 163.47 388.6 163.536C388.665 163.602 388.754 163.639 388.847 163.639Z" fill="black"/>
<path d="M313.898 153.333L350.198 152.994C350.291 152.994 350.38 152.957 350.445 152.891C350.511 152.826 350.548 152.737 350.548 152.644C350.548 152.551 350.511 152.462 350.445 152.396C350.38 152.331 350.291 152.294 350.198 152.294L313.898 152.633C313.805 152.633 313.716 152.67 313.65 152.735C313.585 152.801 313.548 152.89 313.548 152.983C313.548 153.076 313.585 153.165 313.65 153.23C313.716 153.296 313.805 153.333 313.898 153.333Z" fill="black"/>
<path d="M317.447 163.639L346.647 163.3C346.74 163.3 346.829 163.263 346.894 163.197C346.96 163.131 346.997 163.042 346.997 162.95C346.997 162.857 346.96 162.768 346.894 162.702C346.829 162.636 346.74 162.6 346.647 162.6L317.447 162.939C317.354 162.939 317.265 162.975 317.199 163.041C317.134 163.107 317.097 163.196 317.097 163.289C317.097 163.381 317.134 163.47 317.199 163.536C317.265 163.602 317.354 163.639 317.447 163.639Z" fill="black"/>
<path d="M190.329 28.3513C203.403 25.7013 236.271 18.1913 243.346 33.9183C262.91 77.4233 87.494 140.281 64.416 118.945C42.949 99.0993 114.777 57.0653 121.51 53.7063C143.542 42.7163 166.71 33.1373 190.328 28.3513" fill="white"/>
<path d="M82.0365 124.277C94.3105 124.277 111.363 121.29 131.554 115.415C165.213 105.615 199.318 90.0414 220.563 74.7594C241.471 59.7194 249.679 45.4454 244.303 33.4914C237.187 17.6694 206.595 23.9474 191.895 26.9654L190.121 27.3274C169.365 31.5334 147.414 39.6164 121.045 52.7734C120.471 53.0594 62.8705 84.8044 59.5285 108.219C59.1827 110.332 59.385 112.499 60.1162 114.511C60.8474 116.523 62.0829 118.314 63.7045 119.712C67.0105 122.766 73.3185 124.273 82.0365 124.273M220.664 25.3194C230.424 25.3194 239.264 27.4044 242.391 34.3554C248.605 48.1704 233.285 63.0274 219.339 73.0624C198.276 88.2174 164.414 103.677 130.967 113.407C97.6575 123.107 72.4285 124.93 65.1265 118.184C63.7516 117.018 62.7037 115.515 62.0859 113.821C61.468 112.127 61.3014 110.302 61.6025 108.524C64.5255 88.0244 114.908 58.1784 121.98 54.6514C148.18 41.5814 169.966 33.5514 190.538 29.3854L192.316 29.0194C199.024 27.6454 210.356 25.3194 220.664 25.3194Z" fill="black"/>
<path d="M103.005 112.093C103.405 129.386 92.8178 147.043 76.4838 152.737C67.5898 155.837 57.8409 155.4 48.7279 157.779C39.6149 160.158 30.3279 167.018 30.2669 176.437C30.2269 182.694 33.7758 196.884 15.0438 205.198C-0.410156 212.056 3.28185 249.158 51.1439 264.76C65.8059 269.539 56.3549 257.515 71.5969 255.17C86.6479 252.854 100.297 244.341 110.685 233.204C121.073 222.067 128.416 208.41 134.139 194.304C140.732 178.055 145.339 160.104 141.268 143.05C137.197 125.996 122.153 110.581 103.005 112.093Z" fill="black"/>
<path d="M56.5848 266.906C59.8448 266.906 61.0618 265.143 62.2848 262.706C63.5738 260.141 65.0338 257.234 71.7548 256.206C85.9958 254.015 100.093 246.099 111.448 233.918C120.677 224.018 128.417 211.187 135.108 194.693C143.513 173.977 145.793 157.487 142.283 142.804C138.319 126.216 123.163 109.448 102.924 111.052C102.657 111.073 102.408 111.195 102.229 111.393C102.049 111.592 101.953 111.851 101.959 112.119C102.359 129.727 91.5048 146.396 76.1398 151.751C71.2928 153.442 66.0398 154.075 60.9568 154.687C56.7506 155.098 52.577 155.793 48.4648 156.768C39.2408 159.177 29.2858 166.358 29.2208 176.434C29.2208 177.249 29.2698 178.195 29.3268 179.194C29.7328 186.394 30.3468 197.264 14.6208 204.244C8.82075 206.818 5.47477 213.42 5.88777 221.471C6.60277 235.377 18.7968 255.32 50.8178 265.757C52.6708 266.434 54.6169 266.822 56.5878 266.908M105.595 113.037C123.426 113.037 136.646 128.237 140.242 143.288C143.642 157.527 141.398 173.611 133.164 193.905C126.571 210.154 118.964 222.776 109.913 232.487C98.8768 244.325 85.2128 252.013 71.4328 254.134C63.6458 255.334 61.7768 259.051 60.4118 261.769C59.0468 264.487 58.2928 265.99 51.4628 263.763C20.4538 253.654 8.66276 234.604 7.97876 221.363C7.61076 214.198 10.4788 208.371 15.4698 206.157C32.5198 198.59 31.8288 186.375 31.4168 179.077C31.3598 178.067 31.3108 177.197 31.3168 176.446C31.3738 167.476 40.5168 161.007 48.9948 158.793C53.0159 157.845 57.096 157.167 61.2078 156.765C66.3998 156.141 71.7698 155.493 76.8308 153.73C92.7308 148.184 104.062 131.194 104.066 113.078C104.58 113.053 105.093 113.04 105.598 113.04" fill="black"/>
<path d="M196.561 72.5947C191.519 97.1687 186.649 123.614 196.713 146.595C199.983 154.065 204.739 160.863 207.425 168.559C210.619 177.709 210.725 187.659 209.846 197.309C208.193 215.554 202.715 234.272 189.884 247.351C177.053 260.43 155.584 266.128 139.76 256.903C125.873 248.809 119.531 231.414 120.405 215.364C121.279 199.314 128.127 184.247 135.355 169.888C152.718 135.388 172.955 102.344 196.555 72.5967" fill="black"/>
<path d="M157.244 262.424C169.832 262.243 181.836 257.085 190.632 248.077C202.085 236.402 208.901 219.35 210.89 197.396C211.974 185.424 211.19 176.149 208.414 168.208C206.716 163.732 204.662 159.4 202.271 155.252C200.671 152.306 199.026 149.262 197.671 146.167C188.138 124.404 191.992 100.067 197.584 72.8005C197.627 72.5718 197.592 72.3355 197.486 72.1286C197.379 71.9217 197.207 71.7561 196.997 71.6578C196.786 71.5595 196.548 71.5341 196.321 71.5856C196.095 71.6372 195.891 71.7627 195.744 71.9425C173.496 99.9875 152.865 132.78 134.425 169.415C127.296 183.575 120.263 198.783 119.363 215.304C118.372 233.504 126.174 250.19 139.238 257.804C144.726 260.913 150.941 262.509 157.248 262.429M194.658 76.7065C189.498 102.586 186.488 125.852 195.752 147.006C197.143 150.179 198.813 153.265 200.43 156.247C202.764 160.298 204.773 164.527 206.437 168.896C209.108 176.546 209.86 185.541 208.803 197.206C206.86 218.667 200.243 235.286 189.137 246.606C175.667 260.337 154.668 264.369 140.287 255.989C127.896 248.765 120.501 232.837 121.449 215.411C122.325 199.293 129.262 184.311 136.289 170.35C153.912 135.343 173.535 103.86 194.657 76.7045" fill="black"/>
<path d="M161.024 192.447C160.573 179.347 162.188 172.011 162.715 162.215C157.411 159.562 151.735 157.731 145.882 156.784C143.257 156.361 140.3 156.198 138.282 157.784C137.016 158.777 131.026 153.491 130.406 154.946C126.139 164.946 125.777 179.203 121.512 189.202C121.184 189.972 106.24 188.586 105.912 189.361C104.523 192.619 105.688 219.728 106.723 220.416C161.398 256.769 187.733 204.778 187.733 204.778C187.733 204.778 177.817 198.697 161.025 192.451" fill="white"/>
<path d="M143.526 234.37C147.448 234.376 151.355 233.874 155.148 232.876C177.423 227.007 188.22 206.132 188.669 205.245C188.788 205.011 188.814 204.74 188.742 204.487C188.67 204.234 188.506 204.018 188.282 203.88C179.9 199.086 171.124 195.015 162.05 191.711C161.89 185.013 162.201 178.311 162.981 171.656C163.281 168.669 163.581 165.579 163.762 162.271C163.773 162.068 163.725 161.865 163.623 161.689C163.52 161.512 163.368 161.369 163.186 161.278C157.788 158.575 152.008 156.712 146.048 155.752C143.448 155.331 140.164 155.081 137.77 156.852C136.688 156.466 135.655 155.951 134.695 155.32C132.574 154.078 131.323 153.392 130.322 153.72C130.126 153.784 129.945 153.889 129.793 154.029C129.641 154.168 129.521 154.339 129.441 154.529C127.265 159.634 126.078 165.855 124.93 171.873C123.836 177.607 122.705 183.529 120.73 188.349C119.589 188.461 116.266 188.328 113.768 188.228C106.102 187.919 105.356 187.978 104.946 188.943C103.974 191.22 104.211 201.543 104.36 205.88C104.853 220.426 105.723 221.003 106.14 221.28C119.24 229.988 131.764 234.365 143.522 234.367M186.322 205.157C184.03 209.157 173.449 225.894 154.592 230.851C140.258 234.621 124.426 230.862 107.522 219.684C106.631 216.803 105.774 194.409 106.743 190.193C107.928 190.093 111.211 190.221 113.683 190.32C121.322 190.62 122.063 190.566 122.473 189.607C124.651 184.502 125.836 178.281 126.986 172.265C128.078 166.542 129.206 160.628 131.173 155.812C132.021 156.195 132.844 156.634 133.635 157.124C135.929 158.468 137.741 159.531 138.929 158.599C140.692 157.215 143.482 157.452 145.715 157.812C151.236 158.705 156.596 160.401 161.626 162.846C161.448 165.835 161.175 168.567 160.889 171.446C160.069 178.425 159.762 185.455 159.97 192.479C159.977 192.687 160.046 192.887 160.167 193.056C160.289 193.224 160.457 193.353 160.652 193.425C169.508 196.65 178.093 200.574 186.326 205.16" fill="black"/>
<path d="M202.215 78.6231C200.606 90.7531 198.155 103.479 201.292 115.558C203.004 122.145 202.843 155.63 175.975 165.166C168.604 167.778 160.739 168.698 152.963 167.858C145.188 167.017 137.701 164.438 131.058 160.31C121.175 154.316 109.178 135.696 111.564 117.21C103.387 119.479 95.3045 113.963 95.2095 106.61C95.1545 102.37 99.8275 97.0581 104.768 97.3011C108.591 97.4871 109.046 97.5251 111.956 99.7481C114.095 90.7501 115.113 81.5219 114.985 72.2741C124.279 62.0361 139.178 56.8061 154.085 54.5741C159.032 53.7032 164.074 53.5118 169.071 54.0051C183.371 55.7911 203.871 66.1651 202.218 78.6241" fill="white"/>
<path d="M158.563 169.249C164.618 169.239 170.626 168.19 176.326 166.149C203.237 156.597 204.405 123.363 202.308 115.29C199.603 104.883 201.148 93.8653 202.64 83.2083C202.85 81.7183 203.057 80.2303 203.254 78.7573C203.72 75.2463 202.623 71.7403 199.996 68.3393C193.596 60.0503 179.352 54.2303 169.196 52.9603C164.103 52.4641 158.966 52.6578 153.924 53.5363C141.595 55.3843 124.698 60.0133 114.205 71.5683C114.027 71.7658 113.93 72.0239 113.934 72.2903C114.061 80.9196 113.169 89.5338 111.278 97.9543C109.223 96.5273 108.228 96.4173 104.816 96.2543C103.479 96.245 102.155 96.5068 100.922 97.0238C99.6889 97.5408 98.5736 98.3023 97.6432 99.2623C95.5568 101.161 94.3041 103.807 94.1572 106.624C94.2091 108.448 94.6813 110.235 95.5372 111.846C96.393 113.457 97.6093 114.848 99.0912 115.912C100.694 117.091 102.519 117.932 104.456 118.385C106.392 118.839 108.401 118.895 110.36 118.551C108.66 137.387 120.778 155.3 130.51 161.203C138.942 166.415 148.648 169.199 158.56 169.25M201.177 78.4813C200.982 79.9543 200.777 81.4323 200.565 82.9173C199.043 93.7753 197.47 105.006 200.279 115.817C201.454 120.338 202.933 154.484 175.624 164.176C168.403 166.758 160.69 167.671 153.065 166.846C145.441 166.021 138.102 163.479 131.6 159.411C122.34 153.793 110.247 135.584 112.6 117.343C112.622 117.172 112.601 116.998 112.54 116.836C112.478 116.675 112.378 116.531 112.247 116.418C112.116 116.305 111.96 116.226 111.791 116.188C111.623 116.15 111.448 116.154 111.281 116.2C109.43 116.724 107.483 116.82 105.589 116.479C103.695 116.139 101.904 115.371 100.351 114.234C99.1259 113.363 98.1184 112.22 97.4073 110.895C96.6961 109.57 96.3005 108.098 96.2512 106.595C96.3989 104.356 97.4206 102.264 99.0962 100.77C99.8214 100.01 100.692 99.4033 101.657 98.9868C102.622 98.5704 103.66 98.3525 104.711 98.3463C108.419 98.5263 108.642 98.5393 111.311 100.577C111.451 100.683 111.614 100.753 111.787 100.779C111.961 100.806 112.138 100.788 112.302 100.729C112.467 100.669 112.614 100.569 112.73 100.438C112.846 100.306 112.927 100.148 112.966 99.9773C115.095 91.0336 116.123 81.8634 116.029 72.6703C126.129 61.7903 142.347 57.3843 154.229 55.6043C159.082 54.7573 164.026 54.5673 168.929 55.0393C178.663 56.2523 192.275 61.7763 198.329 69.6183C200.602 72.5603 201.559 75.5453 201.17 78.4783" fill="black"/>
<path d="M143.515 127.743C152.265 127.743 160.01 120.525 161.271 110.753C161.959 105.801 160.783 100.771 157.971 96.637C156.674 94.6734 154.97 93.0122 152.973 91.7666C150.977 90.521 148.736 89.7203 146.402 89.419C144.068 89.1177 141.697 89.3229 139.45 90.0205C137.203 90.7182 135.132 91.892 133.38 93.462C129.61 96.7456 127.194 101.312 126.6 106.276C125.241 116.804 131.913 126.376 141.471 127.61C142.148 127.698 142.831 127.743 143.515 127.743ZM144.334 91.379C144.935 91.3786 145.537 91.4173 146.134 91.495C148.172 91.7746 150.128 92.4839 151.872 93.576C153.615 94.6681 155.107 96.1181 156.249 97.83C158.766 101.536 159.816 106.046 159.195 110.483C157.984 119.868 150.151 126.618 141.739 125.532C133.327 124.446 127.464 115.927 128.675 106.544C129.203 102.094 131.365 97.9996 134.741 95.053C137.393 92.7141 140.799 91.4097 144.336 91.379" fill="black"/>
<path d="M192.112 129.97C196.145 129.939 200.033 128.456 203.061 125.792C206.794 122.479 209.202 117.928 209.841 112.978C210.48 108.029 209.306 103.015 206.537 98.8636C205.241 96.8999 203.536 95.2387 201.54 93.9931C199.543 92.7476 197.302 91.9469 194.968 91.6455C192.635 91.3442 190.264 91.5494 188.016 92.2471C185.769 92.9448 183.699 94.1186 181.946 95.6886C178.176 98.9721 175.76 103.539 175.166 108.503C173.807 119.031 180.479 128.603 190.037 129.837C190.725 129.925 191.419 129.969 192.112 129.97ZM192.903 93.6056C193.505 93.6052 194.106 93.6439 194.703 93.7216C196.742 94.0007 198.698 94.7099 200.441 95.802C202.185 96.8942 203.677 98.3444 204.818 100.057C207.292 103.782 208.339 108.275 207.766 112.711C207.193 117.146 205.039 121.226 201.7 124.201C200.161 125.566 198.35 126.589 196.386 127.202C194.422 127.815 192.35 128.005 190.308 127.759C181.891 126.676 176.029 118.155 177.243 108.769C177.77 104.318 179.932 100.222 183.309 97.2756C185.961 94.9367 189.368 93.6323 192.904 93.6016" fill="black"/>
<path d="M113.041 101.006C120.902 88.8289 125.715 80.0619 128.308 65.2449C157.297 82.3769 184.833 79.4329 212.601 78.3529C213.092 73.546 212.279 68.6957 210.246 64.3119C205.446 53.3539 199.446 43.8669 182.687 36.3959C170.942 31.1589 155.13 27.6839 142.414 29.5229C129.776 31.3519 118.907 38.1819 110.059 46.3839C103.019 52.9099 97.0594 63.6069 94.9594 74.1779C93.1594 83.2309 95.3744 89.9049 99.4294 99.1229C101.709 97.8949 103.853 96.6529 106.494 97.1589C109.135 97.6649 110.835 99.0069 113.036 101.007" fill="black"/>
<path d="M113.041 102.054C113.086 102.054 113.131 102.052 113.176 102.046C113.327 102.026 113.471 101.974 113.6 101.893C113.728 101.812 113.837 101.704 113.919 101.576C120.991 90.6219 126.259 81.6369 129.068 66.9009C155.401 81.9439 180.892 80.8069 205.559 79.7009C207.919 79.5949 210.279 79.4889 212.641 79.4009C212.889 79.3912 213.126 79.2938 213.309 79.1258C213.493 78.9579 213.61 78.7304 213.641 78.4839C214.153 73.4894 213.311 68.4493 211.205 63.8919C206.811 53.8719 201.024 43.4219 183.113 35.4379C172.583 30.7449 156.323 26.4509 142.264 28.4869C130.913 30.1269 119.836 35.8869 109.346 45.6169C101.955 52.4689 96.0462 63.3329 93.9352 73.9739C92.0032 83.7039 94.7202 91.0089 98.4732 99.5449C98.5312 99.6773 98.6161 99.7963 98.7225 99.8942C98.8289 99.9922 98.9544 100.067 99.0912 100.114C99.2283 100.16 99.3733 100.177 99.5174 100.165C99.6615 100.153 99.8016 100.112 99.9292 100.044L100.213 99.8919C102.313 98.7529 104.135 97.7709 106.3 98.1919C108.753 98.6619 110.349 99.9779 112.337 101.784C112.528 101.959 112.778 102.057 113.037 102.057M128.302 64.2029C128.056 64.2036 127.818 64.291 127.629 64.4496C127.441 64.6083 127.314 64.8282 127.271 65.0709C124.689 79.8279 119.651 88.7709 112.819 99.4129C111.125 97.7657 109 96.6292 106.689 96.1339C104.096 95.6339 101.965 96.5889 99.9332 97.6639C95.9562 88.4639 94.3792 82.4639 95.9852 74.3829C97.9852 64.3099 103.785 53.6229 110.765 47.1549C120.938 37.7249 131.635 32.1419 142.557 30.5629C156.173 28.5949 171.991 32.7809 182.257 37.3549C199.484 45.0339 205.057 55.0919 209.284 64.7359C211.099 68.6808 211.911 73.0126 211.65 77.3469C209.586 77.4299 207.525 77.5229 205.463 77.6139C180.696 78.7209 155.091 79.8619 128.836 64.3489C128.675 64.2535 128.49 64.203 128.302 64.2029Z" fill="black"/>
<path d="M155.034 147.454C157.052 147.49 159.018 146.809 160.584 145.534C160.794 145.355 160.926 145.101 160.949 144.826C160.973 144.551 160.888 144.277 160.711 144.065C160.534 143.853 160.281 143.719 160.006 143.693C159.731 143.667 159.457 143.75 159.244 143.925C157.269 145.57 154.314 145.815 151.344 144.573C147.931 143.102 145.19 140.41 143.658 137.025C143.599 136.9 143.517 136.788 143.416 136.695C143.314 136.602 143.195 136.53 143.066 136.483C142.936 136.436 142.799 136.415 142.661 136.421C142.524 136.427 142.389 136.46 142.264 136.518C142.139 136.577 142.027 136.659 141.934 136.76C141.841 136.862 141.769 136.981 141.722 137.11C141.675 137.24 141.654 137.377 141.66 137.515C141.666 137.652 141.699 137.787 141.758 137.912C143.51 141.771 146.639 144.838 150.534 146.512C151.957 147.121 153.486 147.442 155.034 147.458" fill="black"/>
<path d="M90.1462 71.5157C80.8582 45.4347 84.4462 17.5157 115.084 6.38668C146.245 -4.93432 165.13 1.26468 187.001 29.0227C154.092 37.1167 115.442 53.2047 90.1462 71.5157Z" fill="white"/>
<path d="M90.1488 72.5657C90.3694 72.5656 90.5844 72.4956 90.7628 72.3657C114.397 55.2587 152.272 38.6447 187.249 30.0407C187.419 29.9987 187.575 29.9147 187.704 29.7965C187.833 29.6784 187.931 29.5297 187.987 29.3642C188.044 29.1987 188.059 29.0216 188.029 28.8491C188 28.6766 187.928 28.5142 187.82 28.3767C176.463 13.9547 165.981 5.59171 154.844 2.05471C143.596 -1.51629 130.849 -0.453292 114.727 5.40571C100.084 10.7247 90.6348 20.0227 86.6428 33.0407C83.2198 44.2057 84.0898 57.6337 89.1598 71.8707C89.2325 72.0744 89.3662 72.2508 89.5425 72.376C89.7189 72.5012 89.9295 72.5692 90.1458 72.5707M185.169 28.3997C150.949 37.0267 114.213 53.1407 90.6758 69.8477C80.5488 40.0077 89.7488 16.7077 115.443 7.37371C145.484 -3.54129 163.89 1.94271 185.169 28.3997Z" fill="black"/>
<path d="M144.752 109.341C144.796 108.757 145.014 108.2 145.378 107.741C145.742 107.283 146.235 106.944 146.794 106.769C147.352 106.594 147.95 106.59 148.511 106.758C149.072 106.927 149.569 107.259 149.938 107.713C150.308 108.167 150.533 108.722 150.584 109.305C150.635 109.888 150.511 110.473 150.226 110.984C149.941 111.496 149.509 111.91 148.987 112.174C148.464 112.437 147.874 112.538 147.294 112.463C146.543 112.385 145.854 112.012 145.377 111.427C144.901 110.842 144.676 110.091 144.752 109.341Z" fill="black"/>
<path d="M188.007 111.617C188.051 111.033 188.269 110.476 188.633 110.018C188.997 109.559 189.49 109.221 190.048 109.045C190.607 108.87 191.205 108.866 191.766 109.035C192.326 109.203 192.824 109.536 193.193 109.99C193.563 110.444 193.788 110.998 193.839 111.581C193.89 112.164 193.765 112.749 193.481 113.261C193.196 113.772 192.764 114.186 192.241 114.45C191.719 114.713 191.129 114.814 190.549 114.739C189.798 114.661 189.109 114.288 188.633 113.703C188.156 113.118 187.931 112.368 188.007 111.617Z" fill="black"/>
<path d="M171.772 129.314C171.9 129.314 172.026 129.291 172.145 129.246L176.09 127.746C176.522 127.669 176.922 127.471 177.244 127.173C177.567 126.876 177.797 126.493 177.908 126.069C178.019 125.645 178.006 125.198 177.871 124.781C177.736 124.364 177.485 123.995 177.146 123.716C175.685 121.767 174.687 119.511 174.229 117.118C173.77 114.726 173.863 112.26 174.5 109.909C174.567 109.645 174.528 109.364 174.392 109.128C174.255 108.892 174.032 108.719 173.769 108.645C173.506 108.571 173.225 108.602 172.985 108.733C172.746 108.863 172.566 109.082 172.485 109.342C171.762 112.002 171.655 114.792 172.172 117.5C172.688 120.208 173.815 122.762 175.467 124.969C175.615 125.155 175.743 125.356 175.848 125.569C175.686 125.651 175.519 125.724 175.348 125.787L171.403 127.287C171.174 127.374 170.983 127.539 170.862 127.752C170.742 127.966 170.7 128.215 170.745 128.456C170.789 128.697 170.917 128.915 171.105 129.071C171.294 129.228 171.531 129.314 171.776 129.313" fill="black"/>
<path d="M176.91 105.785C177.184 105.785 177.447 105.677 177.643 105.485C177.838 105.293 177.951 105.032 177.957 104.758C178.001 102.04 175.364 100.146 172.729 99.473C170.584 98.9409 168.344 98.9222 166.191 99.4182C164.038 99.9143 162.032 100.911 160.336 102.328C160.232 102.418 160.147 102.528 160.086 102.651C160.025 102.775 159.988 102.909 159.979 103.046C159.97 103.183 159.987 103.321 160.031 103.451C160.075 103.581 160.144 103.702 160.234 103.805C160.325 103.909 160.435 103.994 160.558 104.055C160.681 104.116 160.815 104.153 160.952 104.162C161.089 104.172 161.227 104.154 161.357 104.11C161.488 104.066 161.608 103.997 161.712 103.907C163.15 102.71 164.851 101.869 166.675 101.452C168.499 101.035 170.396 101.054 172.212 101.507C174.047 101.975 175.889 103.23 175.863 104.726C175.859 105.004 175.965 105.272 176.158 105.472C176.351 105.671 176.616 105.786 176.894 105.791L176.91 105.785Z" fill="black"/>
<path d="M128.669 101.189C128.947 101.189 129.214 101.079 129.411 100.882C129.608 100.685 129.719 100.418 129.719 100.139C129.719 99.8609 129.608 99.5938 129.411 99.3969C129.214 99.2 128.947 99.0893 128.669 99.0893L114.356 99.0493C114.216 99.045 114.076 99.0689 113.945 99.1195C113.814 99.1701 113.695 99.2465 113.595 99.3441C113.494 99.4417 113.414 99.5586 113.359 99.6877C113.305 99.8168 113.276 99.9556 113.276 100.096C113.276 100.236 113.305 100.375 113.359 100.504C113.414 100.633 113.494 100.75 113.595 100.848C113.695 100.945 113.814 101.022 113.945 101.072C114.076 101.123 114.216 101.147 114.356 101.142L128.669 101.184V101.189Z" fill="black"/>
<path d="M111.745 111.086H111.756C111.894 111.085 112.03 111.057 112.157 111.003C112.284 110.95 112.399 110.871 112.495 110.773C112.592 110.675 112.668 110.558 112.72 110.431C112.771 110.303 112.797 110.166 112.795 110.028C112.763 106.513 113.452 103.029 114.818 99.7905C114.873 99.6637 114.902 99.5274 114.904 99.3894C114.906 99.2514 114.88 99.1144 114.829 98.9863C114.777 98.8582 114.701 98.7415 114.604 98.6429C114.508 98.5444 114.392 98.4659 114.265 98.4121C114.138 98.3582 114.002 98.33 113.864 98.3291C113.726 98.3282 113.589 98.3546 113.461 98.4068C113.333 98.459 113.217 98.5359 113.119 98.6331C113.021 98.7304 112.943 98.8461 112.89 98.9735C111.41 102.477 110.663 106.246 110.695 110.049C110.698 110.326 110.81 110.589 111.006 110.783C111.202 110.978 111.467 111.086 111.743 111.086" fill="black"/>
<path d="M6.89946 304.292C19.5525 269.702 26.5395 235.573 56.3925 210.654C70.7225 198.693 88.0065 190.209 107.919 188.931C109.138 208.211 131.536 220.915 143.54 222.348C150.074 223.129 174.34 226.359 174.34 197.748C182.256 200.902 208.606 204.138 219.17 236.603C223.492 249.879 231.231 300.697 256.747 330.15C262.773 337.105 268.342 290.817 277.014 293.898C285.523 296.923 295.323 301.984 295.962 310.992C296.462 318.011 290.677 324.126 284.21 326.903C270.319 332.872 265.11 361.796 250.143 363.903C234.577 366.098 209.717 371.836 190.903 313.011C181.287 322.629 175.081 332.958 164.295 338.773C133.209 355.531 29.7715 374.35 12.9185 377.341C11.5185 377.589 8.34245 376.441 7.78345 375.135C4.24245 366.85 -5.02454 336.883 6.89846 304.291" fill="white"/>
<path d="M12.5244 378.417C12.718 378.42 12.9115 378.405 13.1024 378.373C33.0024 374.842 133.833 356.387 164.793 339.698C172.277 335.664 177.586 329.528 183.206 323.034C185.496 320.386 187.854 317.66 190.441 314.982C198.45 339.376 208.183 354.654 220.167 361.66C230.667 367.8 224.987 375.152 233.026 373.981C233.026 373.981 232.974 376.547 231.939 374.249C230.904 371.951 232.278 360.607 232.278 360.607C233.992 360.365 234.662 357.627 236.296 354.381C238.237 350.532 241.109 345.308 243.459 339.972C246.097 334.136 249.103 328.473 252.459 323.018C232.15 299.576 228.14 268.385 223.259 248.164C222.014 243.012 221.032 238.942 220.167 236.281C210.9 207.804 189.298 201.281 178.916 198.143C177.235 197.635 175.786 197.197 174.727 196.776C174.568 196.713 174.396 196.69 174.226 196.708C174.056 196.727 173.893 196.787 173.751 196.883C173.61 196.979 173.494 197.108 173.414 197.259C173.334 197.411 173.292 197.579 173.292 197.75C173.292 206.392 171.012 212.797 166.517 216.787C159.301 223.187 148.102 221.846 143.884 221.338L143.664 221.31C132.183 219.938 110.147 207.588 108.964 188.866C108.956 188.729 108.92 188.595 108.86 188.471C108.799 188.348 108.715 188.237 108.611 188.146C108.402 187.964 108.13 187.871 107.853 187.886C89.2944 189.078 71.7534 196.467 55.7204 209.852C30.8644 230.599 21.7884 257.452 12.1814 285.89C10.1874 291.79 8.12344 297.89 5.91444 303.932C-4.89956 333.497 1.39743 362.859 6.82243 375.548C7.53343 377.214 10.6474 378.416 12.5224 378.416M190.902 311.966C190.765 311.966 190.628 311.993 190.501 312.046C190.374 312.099 190.259 312.176 190.161 312.273C187.039 315.395 184.283 318.578 181.618 321.66C176.127 328.006 170.942 334 163.798 337.852C133.119 354.389 32.5774 372.787 12.7344 376.309C11.6694 376.495 9.06242 375.46 8.74442 374.724C8.16242 373.361 -5.38158 340.906 7.88042 304.651C10.0984 298.587 12.1644 292.472 14.1624 286.558C23.6744 258.413 32.6624 231.828 57.0624 211.458C72.4504 198.611 89.2354 191.417 106.96 190.047C108.048 200.73 115.16 208.479 121.034 213.147C127.834 218.555 136.621 222.572 143.415 223.385L143.637 223.41C148.107 223.948 159.986 225.372 167.906 218.347C172.606 214.181 175.106 207.753 175.365 199.225C176.235 199.515 177.228 199.816 178.311 200.142C189.123 203.408 209.248 209.487 218.176 236.923C219.016 239.505 219.99 243.542 221.224 248.651C226.149 269.043 230.724 300.494 251.361 324.32C251.819 324.848 247.355 331.82 243.461 340.631C238.94 349.243 236.141 360.055 232.28 360.6C231.761 360.672 233.568 362.785 233.028 362.864C217.661 365.103 209.828 368.714 191.903 312.689C191.849 312.518 191.752 312.364 191.62 312.242C191.489 312.119 191.329 312.032 191.154 311.989C191.073 311.97 190.99 311.96 190.906 311.959" fill="black"/>
<path d="M231.956 374.321L161.265 375.839L161.174 363.831L239.854 361.909L231.956 374.321Z" fill="white"/>
<path d="M161.164 376.884H161.183L225.724 375.373C225.886 375.365 226.043 375.317 226.18 375.232C226.318 375.147 226.431 375.029 226.51 374.888L233.343 362.074C233.434 361.885 233.48 361.678 233.48 361.469C233.48 361.26 233.434 361.053 233.343 360.865C233.169 360.528 233.243 360.848 232.891 360.865L161.057 362.787C160.795 362.807 160.551 362.928 160.376 363.125C160.202 363.322 160.112 363.58 160.124 363.843L160.207 375.851C160.208 376.126 160.311 376.391 160.497 376.594C160.582 376.686 160.686 376.759 160.8 376.81C160.915 376.86 161.039 376.887 161.164 376.888M225.172 373.288L162.113 374.77L162.043 364.856L231.143 363.006L225.172 373.288Z" fill="black"/>
<path d="M44.0187 337.656C72.4117 336.075 100.976 334.117 129.544 332.156C132.103 331.735 144.809 329.917 147.944 329.456C150.593 328.994 153.163 328.154 155.574 326.963C164.074 323.041 182.301 315.343 186.367 317.618C195.739 320.374 204.234 327.141 210.867 335.707C214.594 340.514 217.649 348.479 216.106 349.846C215.654 350.319 215.046 350.613 214.394 350.674C213.742 350.734 213.09 350.556 212.559 350.174C208.06 340.631 200.341 332.979 190.759 328.565C195.186 331.065 199.296 334.089 203 337.573C206.749 341.097 210.194 345.35 211.037 350.425C211.142 350.814 211.107 351.229 210.937 351.595C210.427 352.437 209.129 351.946 208.355 351.341C206.837 350.154 187.305 334.289 183.655 334.708C188.508 336.541 205.812 350.581 205.882 352.077C205.949 352.794 205.753 353.511 205.332 354.096C204.998 354.455 204.577 354.723 204.11 354.871C203.642 355.019 203.144 355.043 202.665 354.941C201.709 354.726 200.803 354.331 199.996 353.777C194.412 350.386 189.296 346.132 183.264 343.621C180.252 342.366 176.571 341.644 173.892 343.509C179.292 345.513 184.261 348.529 188.533 352.395C189.205 353.016 189.774 353.741 190.218 354.543C190.883 355.73 191.63 357.449 190.709 358.429C189.202 360.029 187.93 359.229 186.637 358.471C181.606 355.119 176.244 352.293 170.637 350.036C168.918 349.352 166.869 348.753 165.314 349.75C163.966 350.611 157.449 354.658 144.052 355.35C139.48 355.587 135.073 356.779 129.358 358.35C54.0767 379.1 31.5897 387.378 13.3547 379.54C9.78367 378.005 8.57968 376.13 9.76868 370.002C12.9457 353.636 16.0527 344.336 44.0177 337.66" fill="white"/>
<path d="M28.629 383.535C43.052 383.535 63.598 377.788 102.237 366.985C110.378 364.71 119.604 362.129 129.637 359.363C134.952 357.898 139.543 356.635 144.106 356.398C156.643 355.748 163.506 352.148 165.88 350.63C167.042 349.883 168.826 350.439 170.249 351.009C175.793 353.235 181.092 356.028 186.062 359.344L186.202 359.427C187.489 360.18 189.432 361.319 191.472 359.143C193.053 357.462 191.61 354.878 191.133 354.029C190.635 353.13 189.997 352.317 189.243 351.62C185.53 348.239 181.281 345.497 176.67 343.507C178.793 343.307 180.932 343.679 182.863 344.584C186.76 346.369 190.468 348.538 193.933 351.061C195.722 352.274 197.572 353.527 199.455 354.67C200.376 355.295 201.409 355.737 202.497 355.97C203.159 356.107 203.845 356.066 204.487 355.852C205.128 355.638 205.701 355.258 206.148 354.751C206.735 353.969 207.014 352.997 206.931 352.023C206.886 351.754 206.776 351.5 206.611 351.284C206.753 351.396 206.895 351.51 207.036 351.625L207.711 352.161C208.094 352.486 208.537 352.732 209.016 352.885C209.494 353.038 209.999 353.094 210.499 353.05C210.774 353.002 211.036 352.895 211.266 352.738C211.497 352.58 211.691 352.375 211.835 352.136C212.013 351.839 212.116 351.503 212.135 351.158C212.859 351.611 213.715 351.805 214.564 351.708C215.412 351.611 216.203 351.229 216.806 350.625C219.323 348.392 214.867 339.149 211.699 335.059C204.445 325.699 195.824 319.332 186.763 316.638C181.854 314.189 163.044 322.357 155.136 326.006C152.813 327.151 150.34 327.962 147.791 328.417L143.467 329.043C138.351 329.782 131.36 330.794 129.421 331.111C101.551 333.027 72.735 335.006 43.96 336.611C43.8972 336.614 43.8349 336.623 43.774 336.639C15.182 343.463 11.965 353.191 8.73901 369.798C7.54901 375.936 8.60801 378.637 12.939 380.498C17.8979 382.601 23.2444 383.636 28.63 383.535M167.253 348.175C166.37 348.158 165.502 348.398 164.753 348.865C162.524 350.294 156.039 353.682 144.001 354.307C139.209 354.555 134.516 355.848 129.083 357.344C119.048 360.11 109.819 362.691 101.677 364.968C47.489 380.121 29.233 385.224 13.769 378.576C10.886 377.336 9.65201 376.104 10.799 370.198C13.944 353.998 16.859 345.232 44.172 338.698C72.948 337.098 101.755 335.115 129.616 333.198C129.65 333.198 129.683 333.194 129.716 333.187C131.564 332.887 138.911 331.82 143.77 331.117L148.101 330.49C150.849 330.008 153.515 329.139 156.019 327.91C171.297 320.857 183.29 317.088 185.859 318.529C185.928 318.566 186 318.597 186.075 318.62C194.624 321.134 203.139 327.427 210.048 336.343C213.858 341.258 216.025 348.082 215.393 349.091C215.138 349.349 214.812 349.523 214.456 349.592C214.1 349.662 213.732 349.622 213.399 349.478C208.76 339.833 200.912 332.102 191.199 327.609C190.954 327.499 190.676 327.488 190.423 327.578C190.17 327.667 189.961 327.85 189.839 328.089C189.717 328.328 189.692 328.605 189.768 328.862C189.844 329.12 190.017 329.338 190.249 329.472C194.602 331.932 198.643 334.907 202.286 338.332C206.886 342.654 209.337 346.549 210.007 350.594C210.033 350.726 210.046 350.86 210.047 350.994C209.664 350.925 209.304 350.759 209.004 350.511C208.888 350.418 208.661 350.24 208.344 349.986C187.338 333.226 184.576 333.542 183.544 333.665C183.31 333.691 183.093 333.795 182.925 333.961C182.758 334.126 182.652 334.343 182.623 334.576C182.594 334.809 182.644 335.045 182.766 335.246C182.888 335.447 183.074 335.601 183.294 335.684C187.794 337.384 203.494 350.084 204.848 352.276C204.883 352.532 204.852 352.794 204.757 353.035C204.661 353.276 204.506 353.488 204.305 353.651C204.104 353.815 203.865 353.924 203.61 353.968C203.354 354.012 203.092 353.99 202.848 353.904C202.024 353.707 201.245 353.358 200.548 352.877C198.711 351.762 196.882 350.523 195.117 349.325C191.536 346.722 187.702 344.485 183.674 342.649C180.711 341.417 176.507 340.414 173.303 342.643C173.146 342.752 173.022 342.901 172.945 343.075C172.867 343.249 172.838 343.441 172.861 343.631C172.884 343.82 172.959 343.999 173.076 344.149C173.194 344.299 173.351 344.414 173.529 344.482C178.807 346.434 183.661 349.38 187.829 353.16C188.42 353.706 188.919 354.343 189.308 355.048C190.396 356.991 190.074 357.575 189.949 357.706C189.092 358.62 188.622 358.406 187.263 357.615L187.17 357.56C182.095 354.18 176.686 351.332 171.028 349.06C169.835 348.534 168.556 348.233 167.254 348.173" fill="black"/>
<path d="M226.186 375.367L378.421 374.984C378.616 374.983 378.806 374.929 378.971 374.826C379.137 374.724 379.27 374.578 379.357 374.404L433.765 265.156C433.845 264.996 433.883 264.818 433.874 264.64C433.866 264.461 433.813 264.288 433.719 264.136C433.625 263.984 433.494 263.859 433.338 263.772C433.182 263.685 433.006 263.64 432.827 263.64L279.149 264.482C278.954 264.482 278.763 264.538 278.597 264.642C278.432 264.746 278.299 264.894 278.213 265.07L225.246 373.862C225.17 374.021 225.134 374.197 225.144 374.374C225.154 374.55 225.208 374.721 225.302 374.871C225.396 375.021 225.526 375.144 225.681 375.23C225.836 375.316 226.009 375.361 226.186 375.362M377.773 372.886L227.864 373.265L279.81 266.565L431.135 265.735L377.773 372.886Z" fill="black"/>
<path d="M335.628 309.014C339.99 308.586 344.757 309.753 346.535 313.76C347.338 315.808 347.497 318.051 346.993 320.192C346.488 322.332 345.344 324.268 343.711 325.742C342.039 327.169 340.053 328.18 337.915 328.692C335.777 329.204 333.548 329.202 331.411 328.686C329.053 328.273 326.937 326.987 325.482 325.086C324.591 323.693 324.13 322.068 324.157 320.415C324.121 315.015 326.581 309.9 335.627 309.015" fill="white"/>
<path d="M334.683 330.094C338.259 330.146 341.728 328.871 344.42 326.515C346.213 324.892 347.468 322.76 348.017 320.405C348.566 318.049 348.383 315.582 347.493 313.333C345.753 309.413 341.281 307.409 335.528 307.972C325.203 308.984 323.078 315.302 323.114 320.422C323.083 322.284 323.605 324.112 324.614 325.676C326.218 327.796 328.561 329.235 331.178 329.708C332.326 329.967 333.5 330.096 334.678 330.095M337.269 309.983C339.803 309.983 343.969 310.569 345.575 314.183C346.294 316.029 346.433 318.05 345.973 319.977C345.514 321.904 344.477 323.645 343.003 324.967C341.457 326.284 339.621 327.215 337.645 327.684C335.67 328.153 333.611 328.148 331.639 327.667C329.54 327.312 327.652 326.182 326.347 324.501C325.576 323.279 325.178 321.858 325.202 320.412C325.16 314.145 328.602 310.758 335.726 310.06C336.09 310.024 336.626 309.986 337.269 309.986" fill="black"/>
<path d="M60.9579 337.72C61.1781 337.72 61.3926 337.65 61.5712 337.521C61.7497 337.393 61.8833 337.211 61.9529 337.002C72.6529 304.615 78.6999 284.128 78.6999 239.717C78.6999 239.439 78.5893 239.171 78.3924 238.975C78.1955 238.778 77.9284 238.667 77.6499 238.667C77.3714 238.667 77.1044 238.778 76.9074 238.975C76.7105 239.171 76.5999 239.439 76.5999 239.717C76.5999 283.807 70.5869 304.162 59.9589 336.344C59.907 336.501 59.8932 336.669 59.9186 336.833C59.944 336.996 60.0079 337.152 60.105 337.286C60.2021 337.42 60.3297 337.53 60.4773 337.605C60.6248 337.681 60.7882 337.72 60.9539 337.72" fill="black"/>
<path d="M190.898 314.06C191.067 314.06 191.234 314.02 191.384 313.941C191.534 313.863 191.663 313.75 191.759 313.611C205.559 293.755 201.828 279.211 198.219 265.151C196.419 258.128 194.551 250.866 194.845 242.926C194.855 242.648 194.755 242.378 194.566 242.175C194.376 241.972 194.114 241.852 193.837 241.842C193.559 241.831 193.289 241.932 193.086 242.121C192.882 242.31 192.762 242.572 192.752 242.85C192.452 251.092 194.352 258.505 196.189 265.672C199.842 279.904 203.295 293.349 190.038 312.416C189.929 312.573 189.866 312.757 189.854 312.948C189.842 313.138 189.882 313.329 189.971 313.498C190.059 313.668 190.192 313.81 190.355 313.909C190.519 314.008 190.706 314.061 190.897 314.061" fill="black"/>
<path d="M111.401 93.7117C111.461 93.7124 111.52 93.6978 111.572 93.6692C111.625 93.6407 111.669 93.5992 111.701 93.5487C114.611 88.9109 117.086 84.014 119.094 78.9207C119.128 78.8345 119.126 78.7383 119.089 78.6534C119.052 78.5684 118.983 78.5016 118.897 78.4677C118.811 78.4337 118.715 78.4354 118.63 78.4723C118.545 78.5093 118.478 78.5785 118.444 78.6647C116.452 83.7182 113.996 88.5763 111.108 93.1767C111.074 93.2298 111.056 93.2911 111.054 93.354C111.052 93.417 111.067 93.4792 111.098 93.5342C111.129 93.5891 111.174 93.6347 111.229 93.6661C111.283 93.6975 111.345 93.7136 111.408 93.7127" fill="black"/>
<path d="M105.95 92.6436C106.014 92.6437 106.076 92.6265 106.13 92.5937C106.185 92.5609 106.229 92.5138 106.259 92.4576L109.172 86.9206C109.215 86.8386 109.224 86.7428 109.197 86.6543C109.169 86.5658 109.108 86.4918 109.026 86.4486C108.944 86.4053 108.848 86.3964 108.76 86.4238C108.671 86.4512 108.597 86.5126 108.554 86.5946L105.642 92.1316C105.614 92.1848 105.6 92.2444 105.602 92.3045C105.603 92.3647 105.621 92.4234 105.652 92.4749C105.683 92.5264 105.727 92.569 105.779 92.5986C105.832 92.6281 105.891 92.6436 105.951 92.6436" fill="black"/>
<path d="M145.974 265.248C159.942 265.4 173.875 263.835 187.46 260.589C187.55 260.566 187.627 260.509 187.675 260.429C187.722 260.35 187.736 260.254 187.713 260.165C187.691 260.075 187.633 259.998 187.554 259.95C187.474 259.903 187.379 259.889 187.289 259.912C152.889 268.533 115.781 263.337 83.0383 258.752C82.9465 258.738 82.8532 258.762 82.779 258.818C82.7047 258.873 82.6555 258.956 82.6423 259.048C82.629 259.139 82.6528 259.233 82.7083 259.307C82.7638 259.381 82.8465 259.43 82.9383 259.444C102.858 262.234 124.397 265.244 145.971 265.244" fill="black"/>
<path d="M133.397 292.068C153.903 292.079 174.337 289.634 194.261 284.785C194.308 284.776 194.351 284.757 194.39 284.731C194.429 284.704 194.462 284.67 194.488 284.63C194.513 284.59 194.53 284.546 194.537 284.499C194.545 284.453 194.543 284.405 194.532 284.359C194.521 284.313 194.5 284.27 194.472 284.233C194.443 284.195 194.408 284.164 194.367 284.14C194.326 284.117 194.281 284.102 194.234 284.096C194.187 284.091 194.139 284.095 194.094 284.108C157.431 293.013 119.258 293.738 82.2833 286.23C82.2383 286.22 82.1919 286.22 82.1467 286.228C82.1014 286.236 82.0583 286.254 82.0199 286.279C81.9814 286.304 81.9484 286.337 81.9227 286.375C81.897 286.413 81.8792 286.456 81.8703 286.501C81.8519 286.592 81.8701 286.686 81.9208 286.763C81.9716 286.841 82.0508 286.895 82.1413 286.914C99.0094 290.349 116.181 292.076 133.395 292.068" fill="black"/>
<path d="M4.54917 346.525C4.59991 346.525 4.65003 346.514 4.69611 346.493C4.7422 346.472 4.78316 346.441 4.81617 346.402C11.3318 338.883 19.6594 333.151 29.0099 329.751C38.3605 326.351 48.4244 325.394 58.2482 326.971C58.3381 326.984 58.4294 326.961 58.5026 326.907C58.5759 326.853 58.6253 326.773 58.6404 326.684C58.6555 326.594 58.6351 326.502 58.5835 326.427C58.5319 326.353 58.4532 326.301 58.3642 326.283C48.421 324.688 38.2353 325.657 28.7713 329.098C19.3073 332.54 10.8782 338.34 4.28216 345.949C4.23865 346 4.21065 346.062 4.20151 346.128C4.19237 346.195 4.20248 346.262 4.23061 346.323C4.25875 346.384 4.30373 346.435 4.36021 346.471C4.41668 346.507 4.48228 346.526 4.54917 346.525Z" fill="black"/>
<path d="M6.89411 332.544C6.93895 332.544 6.98338 332.536 7.02513 332.519C9.04177 331.568 10.878 330.274 12.4521 328.694C13.0231 328.182 13.6141 327.653 14.2111 327.166C17.8606 324.175 22.2534 322.231 26.9211 321.54C27.0092 321.523 27.0873 321.473 27.1392 321.4C27.1911 321.327 27.2129 321.236 27.2001 321.148C27.1872 321.059 27.1407 320.978 27.0701 320.923C26.9995 320.868 26.9104 320.842 26.8211 320.85C22.029 321.559 17.5191 323.556 13.7721 326.626C13.1641 327.126 12.5721 327.657 11.9901 328.173C10.4747 329.697 8.70825 330.949 6.76814 331.873C6.6929 331.903 6.6305 331.959 6.59162 332.03C6.55275 332.101 6.53981 332.183 6.55506 332.263C6.57032 332.343 6.6128 332.414 6.67521 332.466C6.73762 332.518 6.8161 332.546 6.89714 332.546" fill="black"/>
<path d="M242.845 32.9281C235.565 18.6771 196.602 19.1981 177.709 19.3521C149.291 21.2291 101.72 44.2371 87.1086 60.8301C70.5456 79.6451 54.1696 102.574 60.9536 113.962C61.5866 97.0371 98.5786 65.8891 135.18 50.2241C177.83 31.9681 231.766 19.9071 242.841 32.9241" fill="white"/>
<path d="M60.9592 115.007C61.0457 115.007 61.1317 114.996 61.2152 114.973C61.4345 114.918 61.6298 114.793 61.7717 114.617C61.9137 114.441 61.9946 114.223 62.0022 113.997C62.6022 97.9383 99.0542 66.8243 135.593 51.1843C178.574 32.7843 231.604 21.3353 242.045 33.6053C242.212 33.8007 242.444 33.9281 242.698 33.9634C242.952 33.9986 243.211 33.9393 243.424 33.7967C243.637 33.654 243.791 33.438 243.856 33.1896C243.92 32.9412 243.891 32.6778 243.774 32.4493C236.303 17.8173 198.69 18.1313 178.48 18.2983L177.695 18.3043C148.386 20.2393 100.622 43.8923 86.3202 60.1373C63.1112 86.5043 54.2722 104.794 60.0552 114.494C60.1478 114.65 60.2795 114.78 60.4374 114.87C60.5952 114.959 60.7737 115.007 60.9552 115.006M223.595 26.4063C215.896 26.543 208.222 27.346 200.661 28.8063C180.64 32.4423 156.62 39.8953 134.761 49.2483C99.6912 64.2613 65.8712 92.3533 60.6052 109.948C58.9692 100.368 68.2882 83.7783 87.8882 61.5113C101.952 45.5543 148.96 22.3003 177.78 20.3953H178.502C193.947 20.2703 223.434 20.0223 236.489 27.9833C232.292 26.842 227.952 26.3138 223.603 26.4153" fill="black"/>
<path d="M90.5127 50.8386C90.5602 50.8387 90.6071 50.8292 90.6508 50.8106C90.6945 50.7921 90.7339 50.7648 90.7667 50.7306C98.3127 42.7506 108.047 37.3116 117.373 32.4216C132.935 24.2636 149.806 16.4556 167.743 14.5676C167.789 14.5633 167.834 14.55 167.874 14.5283C167.915 14.5066 167.951 14.477 167.981 14.4412C168.01 14.4054 168.032 14.3642 168.045 14.3199C168.058 14.2756 168.062 14.2291 168.058 14.1831C168.053 14.1371 168.039 14.0926 168.016 14.0521C167.994 14.0115 167.964 13.9758 167.928 13.947C167.892 13.9182 167.85 13.8969 167.806 13.8843C167.761 13.8717 167.715 13.8681 167.669 13.8736C149.616 15.7736 132.669 23.6146 117.05 31.8036C107.676 36.7176 97.8757 42.1926 90.2587 50.2506C90.2121 50.3002 90.181 50.3624 90.1693 50.4294C90.1576 50.4965 90.1657 50.5655 90.1927 50.628C90.2197 50.6905 90.2644 50.7437 90.3212 50.7811C90.3781 50.8186 90.4447 50.8385 90.5127 50.8386Z" fill="black"/>
<path d="M90.4332 43.1152C90.4933 43.1152 90.5524 43.0999 90.6049 43.0707C90.6574 43.0414 90.7015 42.9993 90.7332 42.9482C91.9145 41.0177 93.4054 39.2947 95.1462 37.8482C95.1815 37.8189 95.2107 37.7829 95.2321 37.7422C95.2535 37.7016 95.2667 37.6571 95.2709 37.6114C95.2752 37.5657 95.2703 37.5195 95.2567 37.4757C95.2431 37.4318 95.221 37.3911 95.1917 37.3557C95.1623 37.3204 95.1263 37.2912 95.0857 37.2698C95.045 37.2484 95.0006 37.2352 94.9549 37.231C94.9091 37.2268 94.863 37.2316 94.8191 37.2452C94.7753 37.2588 94.7345 37.2809 94.6992 37.3102C92.8992 38.8056 91.3576 40.5871 90.1362 42.5832C90.1038 42.6363 90.0861 42.6971 90.085 42.7592C90.0839 42.8214 90.0995 42.8828 90.1301 42.9369C90.1607 42.9911 90.2052 43.036 90.259 43.0672C90.3128 43.0984 90.374 43.1146 90.4362 43.1142" fill="black"/>
<path d="M205.602 71.0133C205.641 71.0131 205.68 71.0067 205.718 70.9943C205.761 70.979 205.801 70.9552 205.835 70.9244C205.869 70.8936 205.897 70.8564 205.917 70.8148C205.936 70.7733 205.948 70.7283 205.95 70.6824C205.952 70.6365 205.945 70.5906 205.93 70.5473C202.987 62.2278 197.887 54.8393 191.152 49.1373C191.081 49.0775 190.99 49.0482 190.897 49.0559C190.805 49.0636 190.72 49.1076 190.66 49.1783C190.6 49.249 190.571 49.3405 190.578 49.4328C190.586 49.5251 190.63 49.6105 190.701 49.6703C197.342 55.2923 202.371 62.5769 205.274 70.7793C205.297 70.8476 205.341 70.9068 205.4 70.9486C205.459 70.9904 205.53 71.0136 205.602 71.0133Z" fill="black"/>
<path d="M198.456 71.2432C198.497 71.2435 198.538 71.2364 198.577 71.2222C198.664 71.1896 198.734 71.1242 198.773 71.0402C198.811 70.9562 198.815 70.8603 198.784 70.7732C197.931 68.4645 196.599 66.3619 194.877 64.6032C194.845 64.5704 194.807 64.5442 194.764 64.5262C194.722 64.5081 194.677 64.4986 194.631 64.4981C194.585 64.4976 194.539 64.5061 194.497 64.5232C194.454 64.5403 194.415 64.5656 194.383 64.5977C194.35 64.6298 194.324 64.6681 194.305 64.7103C194.287 64.7526 194.278 64.7979 194.277 64.8438C194.277 64.8898 194.285 64.9353 194.302 64.9779C194.32 65.0206 194.345 65.0594 194.377 65.0922C196.03 66.7798 197.308 68.798 198.126 71.0142C198.151 71.0813 198.195 71.1393 198.254 71.1802C198.313 71.2212 198.383 71.2431 198.454 71.2432" fill="black"/>
<path d="M20.1736 235.387C20.2401 235.387 20.3053 235.368 20.3614 235.332C20.4175 235.297 20.4622 235.246 20.4902 235.185C20.5183 235.125 20.5286 235.058 20.5198 234.992C20.511 234.926 20.4835 234.864 20.4406 234.813C18.1567 232.052 16.611 228.757 15.9483 225.235C15.2856 221.714 15.5276 218.082 16.6516 214.68C16.6664 214.636 16.6726 214.59 16.6696 214.545C16.6667 214.499 16.6547 214.454 16.6344 214.413C16.6141 214.371 16.5859 214.334 16.5514 214.304C16.5168 214.274 16.4766 214.25 16.4331 214.236C16.3896 214.221 16.3435 214.215 16.2976 214.218C16.2517 214.22 16.2069 214.232 16.1656 214.253C16.1243 214.273 16.0874 214.301 16.0571 214.336C16.0267 214.37 16.0034 214.41 15.9886 214.454C14.8279 217.971 14.5784 221.724 15.2637 225.364C15.9489 229.003 17.5464 232.409 19.9066 235.263C19.9392 235.302 19.98 235.334 20.0262 235.355C20.0723 235.377 20.1226 235.387 20.1736 235.387Z" fill="black"/>
<path d="M22.2573 218.647C22.3033 218.647 22.3487 218.637 22.391 218.619C22.4333 218.601 22.4717 218.575 22.5039 218.542C22.5361 218.509 22.5616 218.471 22.5788 218.428C22.596 218.385 22.6047 218.34 22.6043 218.294C22.5965 215.467 23.4827 212.709 25.1363 210.416C25.1634 210.379 25.1829 210.337 25.1937 210.292C25.2045 210.247 25.2063 210.201 25.1991 210.155C25.1918 210.11 25.1756 210.066 25.1515 210.027C25.1273 209.988 25.0957 209.954 25.0583 209.927C24.983 209.874 24.8899 209.852 24.7989 209.867C24.7079 209.881 24.6262 209.931 24.5713 210.005C22.8311 212.419 21.8983 215.322 21.9063 218.298C21.9062 218.344 21.9151 218.389 21.9326 218.432C21.9501 218.474 21.9758 218.513 22.0082 218.545C22.0407 218.577 22.0792 218.603 22.1216 218.621C22.164 218.638 22.2094 218.647 22.2553 218.647" fill="black"/>
<path d="M524.539 265.408C534.809 265.408 545.528 264.896 556.993 263.863C560.439 263.554 563.531 263.188 566.459 261.837C568.137 261.1 569.639 260.015 570.865 258.652C572.091 257.29 573.013 255.683 573.571 253.937C574.05 252.417 574.121 250.798 573.778 249.242C572.709 244.922 568.298 243.392 565.078 242.617C550.878 239.205 536.385 236.307 522.015 234.004C521.879 233.983 521.74 233.988 521.606 234.02C521.472 234.052 521.346 234.11 521.235 234.191C521.123 234.272 521.029 234.373 520.957 234.491C520.885 234.608 520.836 234.738 520.815 234.874C520.793 235.01 520.798 235.149 520.83 235.283C520.862 235.417 520.92 235.543 521.001 235.654C521.082 235.766 521.184 235.86 521.301 235.932C521.419 236.004 521.549 236.053 521.685 236.074C536 238.366 550.435 241.253 564.585 244.655C567.506 245.355 570.96 246.568 571.746 249.743C571.999 250.939 571.935 252.18 571.562 253.343C571.09 254.804 570.313 256.149 569.282 257.287C568.252 258.424 566.99 259.33 565.583 259.943C562.781 261.047 559.814 261.669 556.805 261.784C541.879 263.207 526.875 263.627 511.894 263.041C509.682 262.941 507.494 262.622 506.467 260.901C505.69 259.601 505.709 257.747 505.8 255.801C505.914 253.424 506.054 250.465 507.383 248.433C509.347 245.433 513.21 245.233 516.677 245.3C524.077 245.419 550.177 248.335 554.935 249.574C555.201 249.637 555.481 249.593 555.715 249.452C555.949 249.31 556.119 249.083 556.188 248.819C556.257 248.554 556.219 248.273 556.083 248.036C555.948 247.798 555.725 247.623 555.462 247.548C550.49 246.248 524.415 243.33 516.711 243.205C512.391 243.137 508.056 243.582 505.63 247.288C503.987 249.796 503.83 253.071 503.708 255.704C503.6 257.982 503.594 260.176 504.667 261.976C506.415 264.903 510.054 265.06 511.802 265.136C515.982 265.316 520.22 265.407 524.538 265.407" fill="black"/>
</g>
</svg>
