<svg width="72" height="72" viewBox="0 0 72 72" fill="none" xmlns="http://www.w3.org/2000/svg">
<rect width="71.0526" height="71.0526" rx="8.88158" fill="#ECEEF0"/>
<path d="M36.708 31.0541V28.5041C37.533 28.1541 38.3768 27.8916 39.2393 27.7166C40.1018 27.5416 41.008 27.4541 41.958 27.4541C42.608 27.4541 43.2455 27.5041 43.8705 27.6041C44.4955 27.7041 45.108 27.8291 45.708 27.9791V30.3791C45.108 30.1541 44.5018 29.9854 43.8893 29.8729C43.2768 29.7604 42.633 29.7041 41.958 29.7041C41.008 29.7041 40.0955 29.8229 39.2205 30.0604C38.3455 30.2979 37.508 30.6291 36.708 31.0541ZM36.708 39.3041V36.7541C37.533 36.4041 38.3768 36.1416 39.2393 35.9666C40.1018 35.7916 41.008 35.7041 41.958 35.7041C42.608 35.7041 43.2455 35.7541 43.8705 35.8541C44.4955 35.9541 45.108 36.0791 45.708 36.2291V38.6291C45.108 38.4041 44.5018 38.2354 43.8893 38.1229C43.2768 38.0104 42.633 37.9541 41.958 37.9541C41.008 37.9541 40.0955 38.0666 39.2205 38.2916C38.3455 38.5166 37.508 38.8541 36.708 39.3041ZM36.708 35.1791V32.6291C37.533 32.2791 38.3768 32.0166 39.2393 31.8416C40.1018 31.6666 41.008 31.5791 41.958 31.5791C42.608 31.5791 43.2455 31.6291 43.8705 31.7291C44.4955 31.8291 45.108 31.9541 45.708 32.1041V34.5041C45.108 34.2791 44.5018 34.1104 43.8893 33.9979C43.2768 33.8854 42.633 33.8291 41.958 33.8291C41.008 33.8291 40.0955 33.9479 39.2205 34.1854C38.3455 34.4229 37.508 34.7541 36.708 35.1791ZM25.458 40.2041C26.633 40.2041 27.7768 40.3354 28.8893 40.5979C30.0018 40.8604 31.108 41.2541 32.208 41.7791V27.0041C31.183 26.4041 30.0955 25.9541 28.9455 25.6541C27.7955 25.3541 26.633 25.2041 25.458 25.2041C24.558 25.2041 23.6643 25.2916 22.7768 25.4666C21.8893 25.6416 21.033 25.9041 20.208 26.2541V41.1041C21.083 40.8041 21.9518 40.5791 22.8143 40.4291C23.6768 40.2791 24.558 40.2041 25.458 40.2041ZM35.208 41.7791C36.308 41.2541 37.4143 40.8604 38.5268 40.5979C39.6393 40.3354 40.783 40.2041 41.958 40.2041C42.858 40.2041 43.7393 40.2791 44.6018 40.4291C45.4643 40.5791 46.333 40.8041 47.208 41.1041V26.2541C46.383 25.9041 45.5268 25.6416 44.6393 25.4666C43.7518 25.2916 42.858 25.2041 41.958 25.2041C40.783 25.2041 39.6205 25.3541 38.4705 25.6541C37.3205 25.9541 36.233 26.4041 35.208 27.0041V41.7791ZM33.708 46.2041C32.508 45.2541 31.208 44.5166 29.808 43.9916C28.408 43.4666 26.958 43.2041 25.458 43.2041C24.408 43.2041 23.3768 43.3416 22.3643 43.6166C21.3518 43.8916 20.383 44.2791 19.458 44.7791C18.933 45.0541 18.4268 45.0416 17.9393 44.7416C17.4518 44.4416 17.208 44.0041 17.208 43.4291V25.3541C17.208 25.0791 17.2768 24.8166 17.4143 24.5666C17.5518 24.3166 17.758 24.1291 18.033 24.0041C19.183 23.4041 20.383 22.9541 21.633 22.6541C22.883 22.3541 24.158 22.2041 25.458 22.2041C26.908 22.2041 28.3268 22.3916 29.7143 22.7666C31.1018 23.1416 32.433 23.7041 33.708 24.4541C34.983 23.7041 36.3143 23.1416 37.7018 22.7666C39.0893 22.3916 40.508 22.2041 41.958 22.2041C43.258 22.2041 44.533 22.3541 45.783 22.6541C47.033 22.9541 48.233 23.4041 49.383 24.0041C49.658 24.1291 49.8643 24.3166 50.0018 24.5666C50.1393 24.8166 50.208 25.0791 50.208 25.3541V43.4291C50.208 44.0041 49.9643 44.4416 49.4768 44.7416C48.9893 45.0416 48.483 45.0541 47.958 44.7791C47.033 44.2791 46.0643 43.8916 45.0518 43.6166C44.0393 43.3416 43.008 43.2041 41.958 43.2041C40.458 43.2041 39.008 43.4666 37.608 43.9916C36.208 44.5166 34.908 45.2541 33.708 46.2041Z" fill="#F97316"/>
</svg>
