<svg width="72" height="72" viewBox="0 0 72 72" fill="none" xmlns="http://www.w3.org/2000/svg">
<rect width="71.0526" height="71.0526" rx="8.88158" fill="#ECEEF0"/>
<path d="M20.208 48.2061C19.383 48.2061 18.6768 47.9123 18.0893 47.3248C17.5018 46.7373 17.208 46.0311 17.208 45.2061V25.7061H20.208V45.2061H45.708V48.2061H20.208ZM26.208 42.2061C25.383 42.2061 24.6768 41.9123 24.0893 41.3248C23.5018 40.7373 23.208 40.0311 23.208 39.2061V22.7061C23.208 21.8811 23.5018 21.1748 24.0893 20.5873C24.6768 19.9998 25.383 19.7061 26.208 19.7061H33.708L36.708 22.7061H47.208C48.033 22.7061 48.7393 22.9998 49.3268 23.5873C49.9143 24.1748 50.208 24.8811 50.208 25.7061V39.2061C50.208 40.0311 49.9143 40.7373 49.3268 41.3248C48.7393 41.9123 48.033 42.2061 47.208 42.2061H26.208ZM26.208 39.2061H47.208V25.7061H35.4705L32.4705 22.7061H26.208V39.2061ZM26.208 39.2061V22.7061V25.7061V39.2061Z" fill="#F97316"/>
</svg>
