<svg width="72" height="72" viewBox="0 0 72 72" fill="none" xmlns="http://www.w3.org/2000/svg">
<rect width="71.0526" height="71.0526" rx="8.88158" fill="#ECEEF0"/>
<path d="M24.873 47.5381V44.5381L26.373 43.0381H21.873C21.048 43.0381 20.3418 42.7443 19.7543 42.1568C19.1668 41.5693 18.873 40.8631 18.873 40.0381V23.5381C18.873 22.7131 19.1668 22.0068 19.7543 21.4193C20.3418 20.8318 21.048 20.5381 21.873 20.5381H33.873V23.5381H21.873V40.0381H45.873V35.5381H48.873V40.0381C48.873 40.8631 48.5793 41.5693 47.9918 42.1568C47.4043 42.7443 46.698 43.0381 45.873 43.0381H41.373L42.873 44.5381V47.5381H24.873ZM38.373 38.5381L30.873 31.0381L32.973 28.9381L36.873 32.8006V20.5381H39.873V32.8006L43.773 28.9381L45.873 31.0381L38.373 38.5381Z" fill="#F97316"/>
</svg>
