<svg width="53" height="53" viewBox="0 0 53 53" fill="none" xmlns="http://www.w3.org/2000/svg">
<rect width="52.5974" height="52.5974" rx="8.76623" fill="#D8E2FF"/>
<path d="M25.3533 35.3408C23.9783 35.3408 22.6825 35.0783 21.4658 34.5533C20.2492 34.0283 19.1867 33.3117 18.2783 32.4033C17.37 31.495 16.6533 30.4325 16.1283 29.2158C15.6033 27.9992 15.3408 26.7033 15.3408 25.3283C15.3408 23.9533 15.6033 22.6617 16.1283 21.4533C16.6533 20.245 17.37 19.1867 18.2783 18.2783C19.1867 17.37 20.2492 16.6533 21.4658 16.1283C22.6825 15.6033 23.9783 15.3408 25.3533 15.3408C26.7283 15.3408 28.02 15.6033 29.2283 16.1283C30.4367 16.6533 31.495 17.37 32.4033 18.2783C33.3117 19.1867 34.0283 20.245 34.5533 21.4533C35.0783 22.6617 35.3408 23.9533 35.3408 25.3283C35.3408 26.7033 35.0783 27.9992 34.5533 29.2158C34.0283 30.4325 33.3117 31.495 32.4033 32.4033C31.495 33.3117 30.4367 34.0283 29.2283 34.5533C28.02 35.0783 26.7283 35.3408 25.3533 35.3408ZM25.3408 33.2908C25.7742 32.6908 26.1492 32.0658 26.4658 31.4158C26.7825 30.7658 27.0408 30.0742 27.2408 29.3408H23.4408C23.6408 30.0742 23.8992 30.7658 24.2158 31.4158C24.5325 32.0658 24.9075 32.6908 25.3408 33.2908ZM22.7408 32.8908C22.4408 32.3408 22.1783 31.77 21.9533 31.1783C21.7283 30.5867 21.5408 29.9742 21.3908 29.3408H18.4408C18.9242 30.1742 19.5283 30.8992 20.2533 31.5158C20.9783 32.1325 21.8075 32.5908 22.7408 32.8908ZM27.9408 32.8908C28.8742 32.5908 29.7033 32.1325 30.4283 31.5158C31.1533 30.8992 31.7575 30.1742 32.2408 29.3408H29.2908C29.1408 29.9742 28.9533 30.5867 28.7283 31.1783C28.5033 31.77 28.2408 32.3408 27.9408 32.8908ZM17.5908 27.3408H20.9908C20.9408 27.0075 20.9033 26.6783 20.8783 26.3533C20.8533 26.0283 20.8408 25.6908 20.8408 25.3408C20.8408 24.9908 20.8533 24.6533 20.8783 24.3283C20.9033 24.0033 20.9408 23.6742 20.9908 23.3408H17.5908C17.5075 23.6742 17.445 24.0033 17.4033 24.3283C17.3617 24.6533 17.3408 24.9908 17.3408 25.3408C17.3408 25.6908 17.3617 26.0283 17.4033 26.3533C17.445 26.6783 17.5075 27.0075 17.5908 27.3408ZM22.9908 27.3408H27.6908C27.7408 27.0075 27.7783 26.6783 27.8033 26.3533C27.8283 26.0283 27.8408 25.6908 27.8408 25.3408C27.8408 24.9908 27.8283 24.6533 27.8033 24.3283C27.7783 24.0033 27.7408 23.6742 27.6908 23.3408H22.9908C22.9408 23.6742 22.9033 24.0033 22.8783 24.3283C22.8533 24.6533 22.8408 24.9908 22.8408 25.3408C22.8408 25.6908 22.8533 26.0283 22.8783 26.3533C22.9033 26.6783 22.9408 27.0075 22.9908 27.3408ZM29.6908 27.3408H33.0908C33.1742 27.0075 33.2367 26.6783 33.2783 26.3533C33.32 26.0283 33.3408 25.6908 33.3408 25.3408C33.3408 24.9908 33.32 24.6533 33.2783 24.3283C33.2367 24.0033 33.1742 23.6742 33.0908 23.3408H29.6908C29.7408 23.6742 29.7783 24.0033 29.8033 24.3283C29.8283 24.6533 29.8408 24.9908 29.8408 25.3408C29.8408 25.6908 29.8283 26.0283 29.8033 26.3533C29.7783 26.6783 29.7408 27.0075 29.6908 27.3408ZM29.2908 21.3408H32.2408C31.7575 20.5075 31.1533 19.7825 30.4283 19.1658C29.7033 18.5492 28.8742 18.0908 27.9408 17.7908C28.2408 18.3408 28.5033 18.9117 28.7283 19.5033C28.9533 20.095 29.1408 20.7075 29.2908 21.3408ZM23.4408 21.3408H27.2408C27.0408 20.6075 26.7825 19.9158 26.4658 19.2658C26.1492 18.6158 25.7742 17.9908 25.3408 17.3908C24.9075 17.9908 24.5325 18.6158 24.2158 19.2658C23.8992 19.9158 23.6408 20.6075 23.4408 21.3408ZM18.4408 21.3408H21.3908C21.5408 20.7075 21.7283 20.095 21.9533 19.5033C22.1783 18.9117 22.4408 18.3408 22.7408 17.7908C21.8075 18.0908 20.9783 18.5492 20.2533 19.1658C19.5283 19.7825 18.9242 20.5075 18.4408 21.3408Z" fill="#004493"/>
</svg>
