<svg width="53" height="53" viewBox="0 0 53 53" fill="none" xmlns="http://www.w3.org/2000/svg">
<rect width="52.5974" height="52.5974" rx="8.76623" fill="#C5DCFD"/>
<path d="M17.3408 33.5322C16.7908 33.5322 16.32 33.3364 15.9283 32.9447C15.5367 32.5531 15.3408 32.0822 15.3408 31.5322V19.5322C15.3408 18.9822 15.5367 18.5114 15.9283 18.1197C16.32 17.7281 16.7908 17.5322 17.3408 17.5322H33.3408C33.8908 17.5322 34.3617 17.7281 34.7533 18.1197C35.145 18.5114 35.3408 18.9822 35.3408 19.5322V31.5322C35.3408 32.0822 35.145 32.5531 34.7533 32.9447C34.3617 33.3364 33.8908 33.5322 33.3408 33.5322H17.3408ZM17.3408 31.5322H33.3408V21.5322H17.3408V31.5322ZM20.8408 30.5322L19.4408 29.1322L22.0158 26.5322L19.4158 23.9322L20.8408 22.5322L24.8408 26.5322L20.8408 30.5322ZM25.3408 30.5322V28.5322H31.3408V30.5322H25.3408Z" fill="#4B617D"/>
</svg>
