<svg width="53" height="53" viewBox="0 0 53 53" fill="none" xmlns="http://www.w3.org/2000/svg">
<rect width="52.5974" height="52.5974" rx="8.76623" fill="#FFDBCC"/>
<path d="M25.5322 35.3408C23.2156 34.7575 21.3031 33.4283 19.7947 31.3533C18.2864 29.2783 17.5322 26.9742 17.5322 24.4408V18.3408L25.5322 15.3408L33.5322 18.3408V24.4408C33.5322 26.9742 32.7781 29.2783 31.2697 31.3533C29.7614 33.4283 27.8489 34.7575 25.5322 35.3408ZM25.5322 33.2408C27.2656 32.6908 28.6989 31.5908 29.8322 29.9408C30.9656 28.2908 31.5322 26.4575 31.5322 24.4408V19.7158L25.5322 17.4658L19.5322 19.7158V24.4408C19.5322 26.4575 20.0989 28.2908 21.2322 29.9408C22.3656 31.5908 23.7989 32.6908 25.5322 33.2408ZM23.5322 29.3408H27.5322C27.8156 29.3408 28.0531 29.245 28.2447 29.0533C28.4364 28.8617 28.5322 28.6242 28.5322 28.3408V25.3408C28.5322 25.0575 28.4364 24.82 28.2447 24.6283C28.0531 24.4367 27.8156 24.3408 27.5322 24.3408V23.3408C27.5322 22.7908 27.3364 22.32 26.9447 21.9283C26.5531 21.5367 26.0822 21.3408 25.5322 21.3408C24.9822 21.3408 24.5114 21.5367 24.1197 21.9283C23.7281 22.32 23.5322 22.7908 23.5322 23.3408V24.3408C23.2489 24.3408 23.0114 24.4367 22.8197 24.6283C22.6281 24.82 22.5322 25.0575 22.5322 25.3408V28.3408C22.5322 28.6242 22.6281 28.8617 22.8197 29.0533C23.0114 29.245 23.2489 29.3408 23.5322 29.3408ZM24.5322 24.3408V23.3408C24.5322 23.0575 24.6281 22.82 24.8197 22.6283C25.0114 22.4367 25.2489 22.3408 25.5322 22.3408C25.8156 22.3408 26.0531 22.4367 26.2447 22.6283C26.4364 22.82 26.5322 23.0575 26.5322 23.3408V24.3408H24.5322Z" fill="#321203"/>
</svg>
