<svg width="58" height="58" viewBox="0 0 58 58" fill="none" xmlns="http://www.w3.org/2000/svg">
<path d="M0 16.8965C0 7.56484 7.56484 0 16.8965 0H41.0177C50.3494 0 57.9143 7.56484 57.9143 16.8965V41.0177C57.9143 50.3494 50.3494 57.9143 41.0177 57.9143H16.8965C7.56484 57.9143 0 50.3494 0 41.0177V16.8965Z" fill="#FE5504"/>
<path d="M28.9571 41.0226C35.6207 41.0226 41.0226 35.6207 41.0226 28.9571C41.0226 22.2935 35.6207 16.8916 28.9571 16.8916C22.2935 16.8916 16.8916 22.2935 16.8916 28.9571C16.8916 35.6207 22.2935 41.0226 28.9571 41.0226Z" stroke="white" stroke-width="2.41309" stroke-linecap="round" stroke-linejoin="round"/>
<path d="M28.957 21.7178V28.9571L33.7832 31.3702" stroke="white" stroke-width="2.41309" stroke-linecap="round" stroke-linejoin="round"/>
</svg>
