<svg width="58" height="58" viewBox="0 0 58 58" fill="none" xmlns="http://www.w3.org/2000/svg">
<path d="M0 16.8965C0 7.56484 7.56484 0 16.8965 0H41.0177C50.3494 0 57.9143 7.56484 57.9143 16.8965V41.0177C57.9143 50.3494 50.3494 57.9143 41.0177 57.9143H16.8965C7.56484 57.9143 0 50.3494 0 41.0177V16.8965Z" fill="#FE5504"/>
<path d="M33.152 30.0322L34.9799 40.3192C35.0004 40.4404 34.9834 40.5649 34.9312 40.6761C34.879 40.7873 34.7941 40.8799 34.6879 40.9416C34.5816 41.0032 34.459 41.031 34.3366 41.0211C34.2141 41.0112 34.0976 40.9642 34.0026 40.8863L29.6832 37.6443C29.4747 37.4886 29.2213 37.4044 28.9611 37.4044C28.7008 37.4044 28.4475 37.4886 28.2389 37.6443L23.9123 40.8851C23.8173 40.9629 23.701 41.0098 23.5786 41.0197C23.4563 41.0296 23.3339 41.0019 23.2277 40.9405C23.1216 40.879 23.0366 40.7866 22.9843 40.6756C22.932 40.5646 22.9148 40.4403 22.935 40.3192L24.7617 30.0322" stroke="white" stroke-width="2.41309" stroke-linecap="round" stroke-linejoin="round"/>
<path d="M28.9571 31.3702C32.9552 31.3702 36.1963 28.129 36.1963 24.1309C36.1963 20.1327 32.9552 16.8916 28.9571 16.8916C24.9589 16.8916 21.7178 20.1327 21.7178 24.1309C21.7178 28.129 24.9589 31.3702 28.9571 31.3702Z" stroke="white" stroke-width="2.41309" stroke-linecap="round" stroke-linejoin="round"/>
</svg>
