<svg width="58" height="58" viewBox="0 0 58 58" fill="none" xmlns="http://www.w3.org/2000/svg">
<path d="M0 16.8965C0 7.56484 7.56484 0 16.8965 0H41.0177C50.3494 0 57.9143 7.56484 57.9143 16.8965V41.0177C57.9143 50.3494 50.3494 57.9143 41.0177 57.9143H16.8965C7.56484 57.9143 0 50.3494 0 41.0177V16.8965Z" fill="#FE5504"/>
<path d="M22.9248 26.5439V41.0225" stroke="white" stroke-width="2.41309" stroke-linecap="round" stroke-linejoin="round"/>
<path d="M32.5767 21.573L31.3702 26.544H38.4043C38.779 26.544 39.1484 26.6312 39.4835 26.7987C39.8186 26.9663 40.11 27.2095 40.3348 27.5092C40.5596 27.8089 40.7115 28.1568 40.7785 28.5254C40.8455 28.894 40.8258 29.2731 40.7209 29.6327L37.9097 39.2851C37.7635 39.7864 37.4586 40.2267 37.0409 40.5399C36.6232 40.8532 36.1152 41.0226 35.5931 41.0226H19.3047C18.6647 41.0226 18.0509 40.7683 17.5984 40.3158C17.1458 39.8632 16.8916 39.2494 16.8916 38.6095V28.9571C16.8916 28.3171 17.1458 27.7033 17.5984 27.2508C18.0509 26.7982 18.6647 26.544 19.3047 26.544H22.6348C23.0837 26.5437 23.5237 26.4183 23.9052 26.1817C24.2867 25.9451 24.5947 25.6068 24.7945 25.2047L28.9571 16.8916C29.5261 16.8986 30.0861 17.0342 30.5953 17.2881C31.1046 17.542 31.5499 17.9076 31.8979 18.3578C32.246 18.808 32.4878 19.331 32.6054 19.8877C32.7229 20.4445 32.7131 21.0206 32.5767 21.573Z" stroke="white" stroke-width="2.41309" stroke-linecap="round" stroke-linejoin="round"/>
</svg>
