<svg width="53" height="53" viewBox="0 0 53 53" fill="none" xmlns="http://www.w3.org/2000/svg">
<rect width="52.5974" height="52.5974" rx="8.76623" fill="#001A41"/>
<path d="M20.9365 18.8887C20.5199 18.8887 20.1657 19.0345 19.874 19.3262C19.5824 19.6178 19.4365 19.972 19.4365 20.3887C19.4365 20.8053 19.5824 21.1595 19.874 21.4512C20.1657 21.7428 20.5199 21.8887 20.9365 21.8887C21.3532 21.8887 21.7074 21.7428 21.999 21.4512C22.2907 21.1595 22.4365 20.8053 22.4365 20.3887C22.4365 19.972 22.2907 19.6178 21.999 19.3262C21.7074 19.0345 21.3532 18.8887 20.9365 18.8887ZM20.9365 28.8887C20.5199 28.8887 20.1657 29.0345 19.874 29.3262C19.5824 29.6178 19.4365 29.972 19.4365 30.3887C19.4365 30.8053 19.5824 31.1595 19.874 31.4512C20.1657 31.7428 20.5199 31.8887 20.9365 31.8887C21.3532 31.8887 21.7074 31.7428 21.999 31.4512C22.2907 31.1595 22.4365 30.8053 22.4365 30.3887C22.4365 29.972 22.2907 29.6178 21.999 29.3262C21.7074 29.0345 21.3532 28.8887 20.9365 28.8887ZM17.4365 15.8887H33.4365C33.7199 15.8887 33.9574 15.9845 34.149 16.1762C34.3407 16.3678 34.4365 16.6053 34.4365 16.8887V23.8887C34.4365 24.172 34.3407 24.4095 34.149 24.6012C33.9574 24.7928 33.7199 24.8887 33.4365 24.8887H17.4365C17.1532 24.8887 16.9157 24.7928 16.724 24.6012C16.5324 24.4095 16.4365 24.172 16.4365 23.8887V16.8887C16.4365 16.6053 16.5324 16.3678 16.724 16.1762C16.9157 15.9845 17.1532 15.8887 17.4365 15.8887ZM18.4365 17.8887V22.8887H32.4365V17.8887H18.4365ZM17.4365 25.8887H33.4365C33.7199 25.8887 33.9574 25.9845 34.149 26.1762C34.3407 26.3678 34.4365 26.6053 34.4365 26.8887V33.8887C34.4365 34.172 34.3407 34.4095 34.149 34.6012C33.9574 34.7928 33.7199 34.8887 33.4365 34.8887H17.4365C17.1532 34.8887 16.9157 34.7928 16.724 34.6012C16.5324 34.4095 16.4365 34.172 16.4365 33.8887V26.8887C16.4365 26.6053 16.5324 26.3678 16.724 26.1762C16.9157 25.9845 17.1532 25.8887 17.4365 25.8887ZM18.4365 27.8887V32.8887H32.4365V27.8887H18.4365ZM18.4365 17.8887V22.8887V17.8887ZM18.4365 27.8887V32.8887V27.8887Z" fill="white"/>
</svg>
